<svg xmlns="http://www.w3.org/2000/svg" viewBox="0 0 444 444">'
<defs><style>.cls-1{fill:#fff;}</style>
</defs><title>Asset 11100</title>
<g id="Layer_2" data-name="Layer 2">
<g id="Layer_1-2" data-name="Layer 1">
<path class="cls-1" d="M222,0C99.39,0,0,99.39,0,222S99.39,444,222,444s222-99.39,
222-222S344.61,0,222,0Zm75.28,128.59a5.83,5.83,0,0,1-5.83,5.83h-25c-17.22,0-20.37,6.71-20.37,
19.93v27.5h43.6a5.83,5.83,0,0,1,5.83,5.83l0,47a5.83,5.83,0,0,1-5.83,5.83H246.11V359.11a5.83,
5.83,0,0,1-5.83,5.83H191.65a5.83,5.83,0,0,1-5.83-5.83V240.52H148.55a5.83,5.83,0,0,1-5.83-5.83v-47a5.83,5.83,0,0,1,5.83-5.83h37.27V149.42c0-42.74,26.92-70.35,68.56-70.35l37.07.06A5.83,5.83,0,0,1,297.28,85Z"/></g>'
</g></svg>