<?xml version="1.0" encoding="UTF-8"?>
<svg width="64px" height="64px" viewBox="0 0 64 64" version="1.1" xmlns="http://www.w3.org/2000/svg" xmlns:xlink="http://www.w3.org/1999/xlink">
    <!-- Generator: Sketch 54.1 (76490) - https://sketchapp.com -->
    <title>icon/light/component/bottom navigation</title>
    <desc>Created with Sketch.</desc>
    <g id="icon/light/component/bottom-navigation" stroke="none" stroke-width="1" fill="none" fill-rule="evenodd">
        <rect id="Rectangle" stroke="#FF7020" stroke-width="2" fill="#FEF3E7" x="3" y="23" width="58" height="19" rx="2"></rect>
        <g id="Some-Icon" transform="translate(27.000000, 27.000000)" fill="#FF7020">
            <path d="M7.7808,9.50035 C7.7018,9.50035 7.6223,9.48185 7.5493,9.44385 L4.9998,8.11185 L2.4508,9.44385 C2.2818,9.53135 2.0778,9.51635 1.9248,9.40435 C1.7708,9.29235 1.6943,9.10285 1.7268,8.91535 L2.2123,6.10135 L0.1523,4.10885 C0.0153,3.97635 -0.0342,3.77735 0.0243,3.59535 C0.0828,3.41435 0.2393,3.28185 0.4283,3.25485 L3.2783,2.84085 L4.5523,0.27785 C4.7213,-0.06215 5.2788,-0.06215 5.4478,0.27785 L6.7218,2.84085 L9.5718,3.25485 C9.7608,3.28185 9.9173,3.41435 9.9758,3.59535 C10.0343,3.77735 9.9848,3.97635 9.8478,4.10885 L7.7878,6.10135 L8.2733,8.91535 C8.3058,9.10285 8.2288,9.29235 8.0753,9.40435 C7.9883,9.46835 7.8848,9.50035 7.7808,9.50035" id="🎨-Icon-color"></path>
        </g>
        <g id="Some-Icon" transform="translate(45.000000, 27.000000)" fill="#FDDCB9">
            <path d="M7.7808,9.50035 C7.7018,9.50035 7.6223,9.48185 7.5493,9.44385 L4.9998,8.11185 L2.4508,9.44385 C2.2818,9.53135 2.0778,9.51635 1.9248,9.40435 C1.7708,9.29235 1.6943,9.10285 1.7268,8.91535 L2.2123,6.10135 L0.1523,4.10885 C0.0153,3.97635 -0.0342,3.77735 0.0243,3.59535 C0.0828,3.41435 0.2393,3.28185 0.4283,3.25485 L3.2783,2.84085 L4.5523,0.27785 C4.7213,-0.06215 5.2788,-0.06215 5.4478,0.27785 L6.7218,2.84085 L9.5718,3.25485 C9.7608,3.28185 9.9173,3.41435 9.9758,3.59535 C10.0343,3.77735 9.9848,3.97635 9.8478,4.10885 L7.7878,6.10135 L8.2733,8.91535 C8.3058,9.10285 8.2288,9.29235 8.0753,9.40435 C7.9883,9.46835 7.8848,9.50035 7.7808,9.50035" id="🎨-Icon-color"></path>
        </g>
        <g id="Some-Icon" transform="translate(9.000000, 27.000000)" fill="#FDDCB9">
            <path d="M7.7808,9.50035 C7.7018,9.50035 7.6223,9.48185 7.5493,9.44385 L4.9998,8.11185 L2.4508,9.44385 C2.2818,9.53135 2.0778,9.51635 1.9248,9.40435 C1.7708,9.29235 1.6943,9.10285 1.7268,8.91535 L2.2123,6.10135 L0.1523,4.10885 C0.0153,3.97635 -0.0342,3.77735 0.0243,3.59535 C0.0828,3.41435 0.2393,3.28185 0.4283,3.25485 L3.2783,2.84085 L4.5523,0.27785 C4.7213,-0.06215 5.2788,-0.06215 5.4478,0.27785 L6.7218,2.84085 L9.5718,3.25485 C9.7608,3.28185 9.9173,3.41435 9.9758,3.59535 C10.0343,3.77735 9.9848,3.97635 9.8478,4.10885 L7.7878,6.10135 L8.2733,8.91535 C8.3058,9.10285 8.2288,9.29235 8.0753,9.40435 C7.9883,9.46835 7.8848,9.50035 7.7808,9.50035" id="🎨-Icon-color"></path>
        </g>
        <rect id="Rectangle" fill="#FF7020" x="23" y="39" width="18" height="2"></rect>
        <rect id="Rectangle" fill="#FDDCB9" x="4" y="39" width="19" height="2"></rect>
        <rect id="Rectangle" fill="#FDDCB9" x="41" y="39" width="19" height="2"></rect>
    </g>
</svg>