<?xml version="1.0" encoding="UTF-8"?>
<svg width="64px" height="64px" viewBox="0 0 64 64" version="1.1" xmlns="http://www.w3.org/2000/svg" xmlns:xlink="http://www.w3.org/1999/xlink">
    <!-- Generator: Sketch 54.1 (76490) - https://sketchapp.com -->
    <title>icon/component/button</title>
    <desc>Created with Sketch.</desc>
    <g id="icon/component/button" stroke="none" stroke-width="1" fill="none" fill-rule="evenodd">
        <g id="Page-1" transform="translate(3.000000, 4.000000)">
            <g id="Group-9" transform="translate(0.000000, 0.222700)">
                <path d="M57.0658,24.7181 L0.8198,24.7181 C0.3678,24.7181 0.0008,24.3511 0.0008,23.8991 L0.0008,1.5971 C0.0008,1.1451 0.3678,0.7781 0.8198,0.7781 L57.0658,0.7781 C57.5178,0.7781 57.8848,1.1451 57.8848,1.5971 L57.8848,23.8991 C57.8848,24.3511 57.5178,24.7181 57.0658,24.7181" id="Fill-1" fill="#FCAF5C"></path>
                <path d="M57.1156,22 L0.7696,22 C0.3446,22 0.0006,21.6535077 0.0006,21.2256651 L0.0006,1.55093056 C0.0006,1.12409226 0.3446,0.7776 0.7696,0.7776 L57.1156,0.7776 C57.5406,0.7776 57.8856,1.12409226 57.8856,1.55093056 L57.8856,21.2256651 C57.8856,21.6535077 57.5406,22 57.1156,22" id="Fill-3" fill="#FDDCB9"></path>
                <path d="M57.5687,4 L0.3167,4 C0.1417,4 0.0007,3.87152229 0.0007,3.71409186 L0.0007,1.06310814 C0.0007,0.905677709 0.1417,0.7772 0.3167,0.7772 L57.5687,0.7772 C57.7437,0.7772 57.8847,0.905677709 57.8847,1.06310814 L57.8847,3.71409186 C57.8847,3.87152229 57.7437,4 57.5687,4" id="Fill-5" fill="#FFFFFF"></path>
                <path d="M56.2157,23.7181 L56.2157,1.7781 L1.0007,1.7781 L1.0007,23.7181 L56.2157,23.7181 Z M56.4007,25.7181 L0.8147,25.7181 C-0.18758475,25.7181 -0.9993,24.9063847 -0.9993,23.9041 L-0.9993,1.5921 C-0.9993,0.58981525 -0.18758475,-0.2219 0.8147,-0.2219 L56.4007,-0.2219 C57.4027964,-0.2219 58.2157,0.589625831 58.2157,1.5921 L58.2157,23.9041 C58.2157,24.9065742 57.4027964,25.7181 56.4007,25.7181 Z" id="Stroke-7" fill="#FF7020" fill-rule="nonzero"></path>
            </g>
            <path d="M27.4648438,12.5585938 C27.4648438,13.2109408 27.3730478,13.7968724 27.1894531,14.3164062 C27.0058585,14.8359401 26.7490251,15.2773419 26.4189453,15.640625 C26.0888655,16.0039081 25.6962913,16.2822256 25.2412109,16.4755859 C24.7861305,16.6689463 24.2871121,16.765625 23.7441406,16.765625 C23.1933566,16.765625 22.6884789,16.6689463 22.2294922,16.4755859 C21.7705055,16.2822256 21.3759782,16.0039081 21.0458984,15.640625 C20.7158187,15.2773419 20.4589853,14.8359401 20.2753906,14.3164062 C20.091796,13.7968724 20,13.2109408 20,12.5585938 L20,12.2128906 C20,11.5605436 20.0908194,10.974612 20.2724609,10.4550781 C20.4541025,9.93554428 20.7099593,9.49414244 21.0400391,9.13085938 C21.3701188,8.76757631 21.7636696,8.48828223 22.2207031,8.29296875 C22.6777367,8.09765527 23.1816379,8 23.7324219,8 C24.2753933,8 24.7753883,8.09765527 25.2324219,8.29296875 C25.6894554,8.48828223 26.0830062,8.76757631 26.4130859,9.13085938 C26.7431657,9.49414244 27.0009756,9.93554428 27.1865234,10.4550781 C27.3720712,10.974612 27.4648438,11.5605436 27.4648438,12.2128906 L27.4648438,12.5585938 Z M25.3730469,12.2011719 C25.3730469,11.3535114 25.2314467,10.7099631 24.9482422,10.2705078 C24.6650376,9.83105249 24.2597683,9.61132812 23.7324219,9.61132812 C23.1816379,9.61132812 22.7705092,9.83105249 22.4990234,10.2705078 C22.2275377,10.7099631 22.0917969,11.3535114 22.0917969,12.2011719 L22.0917969,12.5585938 C22.0917969,13.3945354 22.2304674,14.0371071 22.5078125,14.4863281 C22.7851576,14.9355491 23.1972629,15.1601562 23.7441406,15.1601562 C24.2675807,15.1601562 24.6699205,14.9365257 24.9511719,14.4892578 C25.2324233,14.04199 25.3730469,13.3984417 25.3730469,12.5585938 L25.3730469,12.2011719 Z M31.4257812,13.4726562 L30.5820312,14.3984375 L30.5820312,16.6484375 L28.5253906,16.6484375 L28.5253906,8.1171875 L30.5820312,8.1171875 L30.5820312,11.8789062 L31.296875,10.7949219 L33.1367188,8.1171875 L35.6796875,8.1171875 L32.796875,11.890625 L35.6796875,16.6484375 L33.2421875,16.6484375 L31.4257812,13.4726562 Z" id="OK" fill="#FF881E"></path>
            <g id="Group-16" transform="translate(27.000000, 21.222700)">
                <path d="M25.2152,12.1293 C24.4462,12.1293 23.8232,12.7543 23.8232,13.5213 L23.8232,16.9993 C23.8232,17.3833 23.5122,17.6943 23.1282,17.6943 C22.7442,17.6943 22.4322,17.3833 22.4322,16.9993 L22.4322,12.1293 C22.4322,11.3623 21.8092,10.7383 21.0412,10.7383 C20.2732,10.7383 19.6502,11.3623 19.6502,12.1293 L19.6502,17.1443 C19.6502,17.5283 19.3382,17.8403 18.9542,17.8403 C18.5692,17.8403 18.2582,17.5283 18.2582,17.1443 L18.2582,10.7383 C18.2582,9.9713 17.6352,9.3473 16.8662,9.3473 C16.0992,9.3473 15.4762,9.9713 15.4762,10.7383 L15.4762,16.9993 C15.4762,17.3833 15.1632,17.6943 14.7792,17.6943 C14.3962,17.6943 14.0842,17.3833 14.0842,16.9993 L14.0842,3.7813 C14.0842,3.0153 13.4612,2.3903 12.6932,2.3903 C11.9252,2.3903 11.3012,3.0153 11.3012,3.7813 L11.3012,21.1733 C11.3012,21.4143 11.1762,21.6383 10.9722,21.7653 C10.7692,21.8913 10.5112,21.9023 10.2952,21.7953 L5.4632,19.3793 C5.1362,19.2173 4.7782,19.1193 4.4152,19.0933 C3.7042,19.0423 3.0012,19.5553 2.9562,20.2653 C2.9322,20.6453 3.0662,20.9973 3.3242,21.2553 L12.3222,30.2523 C14.1492,32.0813 16.5982,33.0623 19.1942,32.9963 C23.3442,32.8933 26.6072,29.3863 26.6072,25.2343 L26.6072,13.5213 C26.6072,12.7543 25.9832,12.1293 25.2152,12.1293" id="Fill-10" fill="#FF881E"></path>
                <path d="M25.2152,11.5463 C24.4462,11.5463 23.8232,12.1703 23.8232,12.9373 L23.8232,12.9993 C23.8232,13.3833 23.5122,11.6943 23.1282,11.6943 C22.7442,11.6943 22.4322,13.3833 22.4322,12.9993 L22.4322,11.4143 C22.4322,10.6483 21.8092,10.0243 21.0412,10.0243 C20.2732,10.0243 19.6502,10.6483 19.6502,11.4143 L19.6502,13.1443 C19.6502,13.5283 19.3382,13.8403 18.9542,13.8403 C18.5692,13.8403 18.2582,13.5283 18.2582,13.1443 L18.2582,10.2523 C18.2582,9.4853 17.6352,8.8613 16.8662,8.8613 C16.0992,8.8613 15.4762,9.4853 15.4762,10.2523 L15.4762,12.9993 C15.4762,13.3833 15.1632,13.6943 14.7792,13.6943 C14.3962,13.6943 14.0842,13.3833 14.0842,12.9993 L14.0842,3.3933 C14.0842,2.6263 13.4612,2.0013 12.6932,2.0013 C11.9252,2.0013 11.3012,2.6263 11.3012,3.3933 L11.3012,17.1733 C11.3012,17.4143 11.1762,21.1023 10.9722,21.2293 C10.7692,21.3553 10.5112,21.3663 10.2952,21.2593 L5.4632,18.3903 C5.1362,18.2273 4.7782,18.1293 4.4152,18.1033 C3.7042,18.0533 3.0012,18.5653 2.9562,19.2753 C2.9322,19.6553 3.0662,20.0083 3.3242,20.2653 L12.3222,26.2523 C14.1492,28.0813 16.5982,29.0623 19.1942,28.9963 C23.3442,28.8933 26.6072,25.3863 26.6072,21.2343 L26.6072,12.9373 C26.6072,12.1703 25.9832,11.5463 25.2152,11.5463" id="Fill-12" fill="#FCAF5C"></path>
                <path d="M12.6927,0.39 C10.8227,0.39 9.3007,1.911 9.3007,3.782 L9.3007,19.063 L6.3577,17.591 C5.7907,17.308 5.1857,17.143 4.5567,17.098 C4.4767,17.092 4.3977,17.09 4.3177,17.09 C2.5437,17.09 1.0677,18.429 0.9607,20.139 C0.8997,21.087 1.2487,22.011 1.9147,22.674 L10.9087,31.666 C13.0547,33.816 15.9117,35 18.9527,35 C19.0487,35 19.1467,34.998 19.2437,34.996 C24.4067,34.868 28.6067,30.489 28.6067,25.235 L28.6067,13.521 C28.6067,11.651 27.0857,10.129 25.2147,10.129 C24.7657,10.129 24.3367,10.217 23.9437,10.377 C23.3487,9.395 22.2697,8.739 21.0417,8.739 C20.5907,8.739 20.1627,8.827 19.7687,8.986 C19.1737,8.004 18.0957,7.347 16.8667,7.347 C16.5977,7.347 16.3357,7.378 16.0847,7.438 L16.0847,3.782 C16.0847,1.911 14.5627,0.39 12.6927,0.39 M12.6927,2.39 C13.4617,2.39 14.0847,3.015 14.0847,3.782 L14.0847,16.999 C14.0847,17.383 14.3957,17.695 14.7797,17.695 C15.1637,17.695 15.4757,17.383 15.4757,16.999 L15.4757,10.739 C15.4757,9.971 16.0987,9.347 16.8667,9.347 C17.6347,9.347 18.2577,9.971 18.2577,10.739 L18.2577,17.144 C18.2577,17.529 18.5697,17.84 18.9547,17.84 C19.3387,17.84 19.6497,17.529 19.6497,17.144 L19.6497,12.129 C19.6497,11.363 20.2727,10.739 21.0417,10.739 C21.8087,10.739 22.4317,11.363 22.4317,12.129 L22.4317,16.999 C22.4317,17.383 22.7447,17.695 23.1287,17.695 C23.5117,17.695 23.8237,17.383 23.8237,16.999 L23.8237,13.521 C23.8237,12.754 24.4467,12.129 25.2147,12.129 C25.9827,12.129 26.6067,12.754 26.6067,13.521 L26.6067,25.235 C26.6067,29.386 23.3437,32.893 19.1937,32.996 C19.1137,32.998 19.0327,33 18.9527,33 C16.4467,33 14.0917,32.025 12.3227,30.252 L3.3247,21.255 C3.0657,20.997 2.9317,20.645 2.9567,20.265 C2.9987,19.587 3.6417,19.09 4.3177,19.09 C4.3497,19.09 4.3817,19.091 4.4157,19.093 C4.7787,19.119 5.1357,19.217 5.4637,19.379 L10.2957,21.795 C10.3937,21.844 10.5007,21.869 10.6067,21.869 C10.7347,21.869 10.8607,21.833 10.9717,21.765 C11.1757,21.638 11.3007,21.414 11.3007,21.173 L11.3007,3.782 C11.3007,3.015 11.9247,2.39 12.6927,2.39" id="Fill-14" fill="#FF7020"></path>
            </g>
        </g>
    </g>
</svg>