<?xml version="1.0" encoding="UTF-8"?>
<svg width="64px" height="64px" viewBox="0 0 64 64" version="1.1" xmlns="http://www.w3.org/2000/svg" xmlns:xlink="http://www.w3.org/1999/xlink">
    <!-- Generator: Sketch 54.1 (76490) - https://sketchapp.com -->
    <title>icon/light/component/buton group</title>
    <desc>Created with Sketch.</desc>
    <g id="icon/light/component/buton-group" stroke="none" stroke-width="1" fill="none" fill-rule="evenodd">
        <g id="Group" transform="translate(3.000000, 22.000000)">
            <path d="M55.8714647,0.128535303 C57.1033087,0.50189768 58,1.6462321 58,3 L58,18 L3,18 C1.6462321,18 0.50189768,17.1033087 0.128535303,15.8714647 C0.404324904,15.9550544 0.696913647,16 1,16 L53,16 C54.6568542,16 56,14.6568542 56,13 L56,1 C56,0.696913647 55.9550544,0.404324904 55.8714647,0.128535303 Z" id="Combined-Shape" fill="#FCAF5C"></path>
            <rect id="Rectangle" stroke="#FF7020" stroke-width="2" fill="#FCAF5C" x="1" y="1" width="57" height="18" rx="3"></rect>
            <path d="M57.7761511,5.86082563 C57.3276112,4.76890359 56.2535991,4 55,4 L5,4 C3.34314575,4 2,5.34314575 2,7 L2,18.8120995 C0.862176215,18.3997403 0.0415753281,17.3177364 0.0222798381,16.0358135 C0.0215604815,15.988022 0.0219833689,15.9402202 0.023548138,15.8924489 L0.487545231,1.72695798 L54.8961072,1.00899893 C56.5528172,0.987137477 57.9135682,2.3124441 57.9354297,3.96915412 C57.9368297,4.07524985 57.9326001,4.18134514 57.9227586,4.28699272 L57.7761511,5.86082563 Z" id="Combined-Shape" fill="#FDDCB9"></path>
            <rect id="Rectangle" stroke="#FF7020" stroke-width="2" x="20" y="1" width="18" height="18"></rect>
            <rect id="Rectangle" stroke="#FF7020" stroke-width="2" x="1" y="1" width="57" height="18" rx="3"></rect>
            <g id="Some-Icon" transform="translate(23.000000, 4.000000)" fill="#FFFFFF">
                <path d="M8.7808,10.50035 C8.7018,10.50035 8.6223,10.48185 8.5493,10.44385 L5.9998,9.11185 L3.4508,10.44385 C3.2818,10.53135 3.0778,10.51635 2.9248,10.40435 C2.7708,10.29235 2.6943,10.10285 2.7268,9.91535 L3.2123,7.10135 L1.1523,5.10885 C1.0153,4.97635 0.9658,4.77735 1.0243,4.59535 C1.0828,4.41435 1.2393,4.28185 1.4283,4.25485 L4.2783,3.84085 L5.5523,1.27785 C5.7213,0.93785 6.2788,0.93785 6.4478,1.27785 L7.7218,3.84085 L10.5718,4.25485 C10.7608,4.28185 10.9173,4.41435 10.9758,4.59535 C11.0343,4.77735 10.9848,4.97635 10.8478,5.10885 L8.7878,7.10135 L9.2733,9.91535 C9.3058,10.10285 9.2288,10.29235 9.0753,10.40435 C8.9883,10.46835 8.8848,10.50035 8.7808,10.50035" id="🎨-Icon-color"></path>
            </g>
            <g id="Some-Icon" transform="translate(42.000000, 4.000000)" fill="#FFFFFF">
                <path d="M8.7808,10.50035 C8.7018,10.50035 8.6223,10.48185 8.5493,10.44385 L5.9998,9.11185 L3.4508,10.44385 C3.2818,10.53135 3.0778,10.51635 2.9248,10.40435 C2.7708,10.29235 2.6943,10.10285 2.7268,9.91535 L3.2123,7.10135 L1.1523,5.10885 C1.0153,4.97635 0.9658,4.77735 1.0243,4.59535 C1.0828,4.41435 1.2393,4.28185 1.4283,4.25485 L4.2783,3.84085 L5.5523,1.27785 C5.7213,0.93785 6.2788,0.93785 6.4478,1.27785 L7.7218,3.84085 L10.5718,4.25485 C10.7608,4.28185 10.9173,4.41435 10.9758,4.59535 C11.0343,4.77735 10.9848,4.97635 10.8478,5.10885 L8.7878,7.10135 L9.2733,9.91535 C9.3058,10.10285 9.2288,10.29235 9.0753,10.40435 C8.9883,10.46835 8.8848,10.50035 8.7808,10.50035" id="🎨-Icon-color"></path>
            </g>
            <g id="Some-Icon" transform="translate(4.000000, 4.000000)" fill="#FFFFFF">
                <path d="M8.7808,10.50035 C8.7018,10.50035 8.6223,10.48185 8.5493,10.44385 L5.9998,9.11185 L3.4508,10.44385 C3.2818,10.53135 3.0778,10.51635 2.9248,10.40435 C2.7708,10.29235 2.6943,10.10285 2.7268,9.91535 L3.2123,7.10135 L1.1523,5.10885 C1.0153,4.97635 0.9658,4.77735 1.0243,4.59535 C1.0828,4.41435 1.2393,4.28185 1.4283,4.25485 L4.2783,3.84085 L5.5523,1.27785 C5.7213,0.93785 6.2788,0.93785 6.4478,1.27785 L7.7218,3.84085 L10.5718,4.25485 C10.7608,4.28185 10.9173,4.41435 10.9758,4.59535 C11.0343,4.77735 10.9848,4.97635 10.8478,5.10885 L8.7878,7.10135 L9.2733,9.91535 C9.3058,10.10285 9.2288,10.29235 9.0753,10.40435 C8.9883,10.46835 8.8848,10.50035 8.7808,10.50035" id="🎨-Icon-color"></path>
            </g>
        </g>
    </g>
</svg>