<?xml version="1.0" encoding="UTF-8"?>
<svg width="64px" height="64px" viewBox="0 0 64 64" version="1.1" xmlns="http://www.w3.org/2000/svg" xmlns:xlink="http://www.w3.org/1999/xlink">
    <!-- Generator: Sketch 59 (86127) - https://sketch.com -->
    <title>icon/component/card</title>
    <desc>Created with Sketch.</desc>
    <g id="icon/component/card" stroke="none" stroke-width="1" fill="none" fill-rule="evenodd">
        <g id="Page-1" transform="translate(6.000000, 6.000000)">
            <path d="M50.3306,52.1398 L0.8086,52.1398 C0.3626,52.1398 -0.0004,51.7778 -0.0004,51.3308 L-0.0004,1.8088 C-0.0004,1.3628 0.3626,0.9998 0.8086,0.9998 L50.3306,0.9998 C50.7776,0.9998 51.1406,1.3628 51.1406,1.8088 L51.1406,51.3308 C51.1406,51.7778 50.7776,52.1398 50.3306,52.1398" id="Fill-1" fill="#FDDCB9"></path>
            <path d="M48.2505,48.1672 L4.0645,48.1672 C3.6585,48.1672 3.3295,47.8382 3.3295,47.4322 L3.3295,1.5332 C3.3295,1.1272 3.6585,0.7982 4.0645,0.7982 L48.2505,0.7982 C48.6565,0.7982 48.9855,1.1272 48.9855,1.5332 L48.9855,47.4322 C48.9855,47.8382 48.6565,48.1672 48.2505,48.1672" id="Fill-3" fill="#FFFFFF" opacity="0.7"></path>
            <path d="M51.0474,8.3449 L0.5364,8.3449 C0.3664,8.3449 0.2284,8.2069 0.2284,8.0369 L0.2284,1.2409 C0.2284,1.0709 0.3664,0.9329 0.5364,0.9329 L51.0474,0.9329 C51.2184,0.9329 51.3564,1.0709 51.3564,1.2409 L51.3564,8.0369 C51.3564,8.2069 51.2184,8.3449 51.0474,8.3449" id="Fill-5" fill="#FF881E"></path>
            <path d="M51.0572,8.3449 L3.5372,8.3449 C3.3722,8.3449 3.2392,8.2109 3.2392,8.0469 L3.2392,1.2319 C3.2392,1.0669 3.3722,0.9329 3.5372,0.9329 L51.0572,0.9329 C51.2222,0.9329 51.3562,1.0669 51.3562,1.2319 L51.3562,8.0469 C51.3562,8.2109 51.2222,8.3449 51.0572,8.3449" id="Fill-7" fill="#FCAF5C"></path>
            <path d="M50.1406,51.1398 L50.1406,1.9998 L0.9996,1.9998 L0.9996,51.1398 L50.1406,51.1398 Z M50.3306,53.1398 L0.8086,53.1398 C-0.189839185,53.1398 -1.0004,52.3299308 -1.0004,51.3308 L-1.0004,1.8088 C-1.0004,0.81051525 -0.18968475,-0.0002 0.8086,-0.0002 L50.3306,-0.0002 C51.3295391,-0.0002 52.1406,0.810169505 52.1406,1.8088 L52.1406,51.3308 C52.1406,52.3302766 51.329694,53.1398 50.3306,53.1398 Z" id="Stroke-9" fill="#FF7020" fill-rule="nonzero"></path>
            <polygon id="Stroke-11" fill="#FF7020" fill-rule="nonzero" points="5.1573 20.1554 5.1573 18.1554 27.5133 18.1554 27.5133 20.1554"></polygon>
            <polygon id="Stroke-13" fill="#FF7020" fill-rule="nonzero" points="5.1573 16.0099 5.1573 14.0099 17.6723 14.0099 17.6723 16.0099"></polygon>
            <polygon id="Stroke-15" fill="#FF7020" fill-rule="nonzero" points="-0.5048 9.2355 -0.5048 7.2355 46.9262 7.2355 46.9262 9.2355"></polygon>
            <polygon id="Stroke-17" fill="#FF7020" fill-rule="nonzero" points="0.1646 48.4465 0.1646 46.4465 50.9646 46.4465 50.9646 48.4465"></polygon>
        </g>
    </g>
</svg>