<svg width="64" height="64" viewBox="0 0 64 64" fill="none" xmlns="http://www.w3.org/2000/svg">
<path fill-rule="evenodd" clip-rule="evenodd" d="M6.6082 54.9181H57.2143C57.6058 54.9181 57.9226 54.599 57.9226 54.2067V20L44 9.90381H6.6082C6.2176 9.90381 5.8999 10.2229 5.8999 10.616V54.2067C5.8999 54.599 6.2176 54.9181 6.6082 54.9181Z" fill="#FDDCB9"/>
<mask id="mask0" mask-type="alpha" maskUnits="userSpaceOnUse" x="5" y="9" width="54" height="47">
<path d="M5 55.8219H58.8227V9H5V55.8219Z" fill="white"/>
</mask>
<g mask="url(#mask0)">
<path fill-rule="evenodd" clip-rule="evenodd" d="M32.0918 54.9181H57.2144V45.0029H32.0918V54.9181Z" fill="#FCAF5C"/>
<path fill-rule="evenodd" clip-rule="evenodd" d="M6.04663 54.9181H31.1692V45.0029H6.04663V54.9181Z" fill="#FCAF5C"/>
<path fill-rule="evenodd" clip-rule="evenodd" d="M6.4248 54.9184H57.2145V52.3262H6.4248V54.9184Z" fill="#FF881E"/>
<path fill-rule="evenodd" clip-rule="evenodd" d="M6.4248 46.7059H57.2145V44.1128H6.4248V46.7059Z" fill="#FDDCB9"/>
<path opacity="0.699841" fill-rule="evenodd" clip-rule="evenodd" d="M55.3904 40.9999H9.46252C9.10612 40.9999 8.81812 40.7417 8.81812 40.4233V10.3017C8.81812 9.98403 9.10612 9.7251 9.46252 9.7251H55.3904C55.7468 9.7251 56.0348 9.98403 56.0348 10.3017V40.4233C56.0348 40.7417 55.7468 40.9999 55.3904 40.9999Z" fill="white"/>
<path fill-rule="evenodd" clip-rule="evenodd" d="M57.0225 18V54.0177H6.79976V10.8034H45V9.00342H6.60806C5.71922 9.00342 4.99976 9.72659 4.99976 10.6156V54.2063C4.99976 55.0948 5.71954 55.8177 6.60806 55.8177H57.2142C58.1034 55.8177 58.8225 55.0949 58.8225 54.2063V18H57.0225Z" fill="#FF7020"/>
<path d="M6.04419 45.5261V43.7261H57.769V45.5261H6.04419Z" fill="#FF7020"/>
<path d="M30.6274 44.0205H32.4274V54.1815H30.6274V44.0205Z" fill="#FF7020"/>
</g>
<path fill-rule="evenodd" clip-rule="evenodd" d="M47.0319 1.43244C47.0657 1.1847 47.2773 1 47.5274 1H50.4726C50.7227 1 50.9343 1.1847 50.9681 1.43244L51.2873 3.77384C52.7524 4.07073 54.1161 4.64721 55.3201 5.4452L57.2022 4.01476C57.4013 3.86347 57.6815 3.88249 57.8583 4.05929L59.941 6.14193C60.1178 6.31873 60.1368 6.59895 59.9855 6.79802L58.555 8.68026C59.3528 9.88417 59.9292 11.2476 60.2261 12.7127L62.5676 13.0319C62.8153 13.0657 63 13.2773 63 13.5274V16.4726C63 16.7227 62.8153 16.9343 62.5676 16.9681L60.2262 17.2873C59.9294 18.7524 59.3529 20.116 58.555 21.32L59.9854 23.2022C60.1367 23.4013 60.1177 23.6815 59.9409 23.8583L57.8583 25.941C57.6815 26.1178 57.4013 26.1368 57.2022 25.9855L55.3199 24.555C54.1159 25.3529 52.7524 25.9293 51.2873 26.2262L50.9681 28.5676C50.9343 28.8153 50.7227 29 50.4726 29H47.5274C47.2773 29 47.0657 28.8153 47.0319 28.5676L46.7127 26.2262C45.2477 25.9293 43.8842 25.3529 42.6802 24.555L40.7981 25.9854C40.599 26.1367 40.3188 26.1177 40.142 25.9409L38.0594 23.8583C37.8826 23.6815 37.8635 23.4013 38.0148 23.2022L39.4451 21.3202C38.6471 20.1161 38.0706 18.7525 37.7738 17.2873L35.4324 16.9681C35.1847 16.9343 35 16.7227 35 16.4726V13.5274C35 13.2773 35.1847 13.0657 35.4324 13.0319L37.7739 12.7127C38.0708 11.2476 38.6472 9.88404 39.4451 8.6801L38.0148 6.79806C37.8635 6.599 37.8825 6.31877 38.0593 6.14197L40.1419 4.05933C40.3187 3.88253 40.599 3.86352 40.798 4.01481L42.68 5.44513C43.884 4.64717 45.2476 4.07072 46.7127 3.77384L47.0319 1.43244Z" fill="#FCAF5C"/>
<path fill-rule="evenodd" clip-rule="evenodd" d="M46.0411 1.29733C46.1425 0.554102 46.7772 0 47.5274 0H50.4726C51.2228 0 51.8575 0.554103 51.9589 1.29733L52.1852 2.95668C53.2773 3.24479 54.3105 3.67737 55.2631 4.23252L56.5972 3.2186C57.1944 2.76472 58.035 2.82178 58.5654 3.35218L60.6481 5.43482C61.1785 5.96522 61.2355 6.8059 60.7817 7.40311L59.7677 8.73731C60.3227 9.68973 60.7552 10.7228 61.0433 11.8148L62.7027 12.0411C63.4459 12.1425 64 12.7772 64 13.5274V16.4726C64 17.2228 63.4459 17.8575 62.7027 17.9589L61.0434 18.1852C60.7553 19.2773 60.3228 20.3105 59.7676 21.263L60.7816 22.5971C61.2355 23.1943 61.1784 24.035 60.648 24.5654L58.5654 26.6481C58.035 27.1785 57.1943 27.2355 56.5971 26.7816L55.2629 25.7676C54.3104 26.3227 53.2772 26.7552 52.1852 27.0433L51.9589 28.7027C51.8575 29.4459 51.2228 30 50.4726 30H47.5274C46.7772 30 46.1425 29.4459 46.0411 28.7027L45.8148 27.0433C44.7228 26.7552 43.6897 26.3227 42.7372 25.7677L41.4032 26.7816C40.806 27.2355 39.9653 27.1784 39.4349 26.648L37.3522 24.5654C36.8218 24.035 36.7648 23.1943 37.2187 22.5971L38.2325 21.2632C37.6773 20.3106 37.2447 19.2773 36.9566 18.1852L35.2973 17.9589C34.5541 17.8575 34 17.2228 34 16.4726V13.5274C34 12.7772 34.5541 12.1425 35.2973 12.0411L36.9567 11.8148C37.2448 10.7228 37.6774 9.68961 38.2324 8.73714L37.2186 7.40315C36.7647 6.80594 36.8218 5.96527 37.3522 5.43486L39.4348 3.35223C39.9652 2.82182 40.8059 2.76477 41.4031 3.21865L42.7371 4.23245C43.6896 3.67734 44.7228 3.24478 45.8148 2.95668L46.0411 1.29733ZM47.9638 2L47.6075 4.61284L46.9113 4.75392C45.5752 5.02465 44.3314 5.55034 43.2325 6.27868L42.6404 6.67106L40.5404 5.07506L39.075 6.54046L40.671 8.64049L40.2787 9.23252C39.5504 10.3314 39.0247 11.5752 38.754 12.9113L38.6129 13.6075L36 13.9638V16.0362L38.6128 16.3925L38.7538 17.0888C39.0246 18.4249 39.5503 19.6687 40.2787 20.7677L40.6711 21.3598L39.0751 23.4598L40.5405 24.9252L42.6406 23.3291L43.2326 23.7215C44.3315 24.4497 45.5753 24.9754 46.9113 25.2461L47.6075 25.3872L47.9638 28H50.0362L50.3925 25.3872L51.0887 25.2461C52.4247 24.9754 53.6685 24.4497 54.7675 23.7214L55.3595 23.329L57.4598 24.9252L58.9252 23.4598L57.329 21.3596L57.7214 20.7676C58.4498 19.6686 58.9755 18.4248 59.2462 17.0888L59.3872 16.3925L62 16.0362V13.9638L59.3871 13.6075L59.246 12.9113C58.9753 11.5753 58.4497 10.3315 57.7214 9.23267L57.3291 8.64064L58.9253 6.54042L57.4598 5.07501L55.3597 6.67114L54.7676 6.27875C53.6686 5.55037 52.4248 5.02466 51.0887 4.75392L50.3925 4.61284L50.0362 2H47.9638ZM59.2338 23.1512L59.233 23.152Z" fill="#FF7020"/>
<path d="M54.091 15.0001C54.091 17.8117 51.8117 20.091 49.0001 20.091C46.1885 20.091 43.9092 17.8117 43.9092 15.0001C43.9092 12.1885 46.1885 9.90918 49.0001 9.90918C51.8117 9.90918 54.091 12.1885 54.091 15.0001Z" fill="#FEF4EA"/>
<path fill-rule="evenodd" clip-rule="evenodd" d="M49.0001 10.9092C46.7407 10.9092 44.9092 12.7407 44.9092 15.0001C44.9092 17.2594 46.7407 19.091 49.0001 19.091C51.2594 19.091 53.091 17.2594 53.091 15.0001C53.091 12.7407 51.2594 10.9092 49.0001 10.9092ZM42.9092 15.0001C42.9092 11.6362 45.6362 8.90918 49.0001 8.90918C52.364 8.90918 55.091 11.6362 55.091 15.0001C55.091 18.364 52.364 21.091 49.0001 21.091C45.6362 21.091 42.9092 18.364 42.9092 15.0001Z" fill="#FF7020"/>
</svg>
