<?xml version="1.0" encoding="UTF-8"?>
<svg width="64px" height="64px" viewBox="0 0 64 64" version="1.1" xmlns="http://www.w3.org/2000/svg" xmlns:xlink="http://www.w3.org/1999/xlink">
    <!-- Generator: Sketch 55.2 (78181) - https://sketchapp.com -->
    <title>icon/component/ icon</title>
    <desc>Created with Sketch.</desc>
    <g id="icon/component/-icon" stroke="none" stroke-width="1" fill="none" fill-rule="evenodd">
        <g id="Group-2" transform="translate(7.421491, 3.259105)">
            <g id="Group" transform="translate(0.578509, 0.740895)">
                <g id="Group-25">
                    <path d="M24.5782639,37.3338277 L10.8938298,43.9502438 C10.3966132,44.1906478 9.79865354,43.98246 9.55824958,43.4852434 C9.46446212,43.291267 9.43583343,43.0721867 9.47662635,42.8606239 L12.2626853,28.411384 L24.5782639,23.5903108 L24.5782639,37.3338277 Z" id="Star" fill="#FF7020"></path>
                    <path d="M24,37.038345 L24,23.9576968 L36.5760304,28.6715315 L38.3258506,42.9063076 C38.3932334,43.4544663 38.0034875,43.9534613 37.4553287,44.0208441 C37.2509167,44.0459716 37.0437316,44.0073724 36.862082,43.9103203 L24,37.038345 Z" id="Star" fill="#FF881E"></path>
                    <path d="M24,23.9576968 L31.731564,14.1826033 L46.1367772,16.8637385 C46.6797375,16.9647957 47.0379708,17.486875 46.9369136,18.0298353 C46.9000554,18.2278672 46.804251,18.4101519 46.6620472,18.5528167 L36.5760304,28.6715315 L24,23.9576968 Z" id="Star" fill="#FCAF5C"></path>
                    <path d="M24,23.9576968 L12.2626853,28.411384 L1.47184899,18.2882334 C1.0690623,17.9103692 1.0488586,17.2775267 1.42672276,16.87474 C1.57644631,16.7151412 1.77438916,16.6090619 1.99019428,16.5727706 L16.2032599,14.1826033 L24,23.9576968 Z" id="Star" fill="#FEF3E7"></path>
                    <path d="M16.2032599,14.1826033 L23.1200061,1.60074645 C23.3860658,1.11677258 23.9940881,0.940118206 24.4780619,1.20617786 C24.6454129,1.29817734 24.7829212,1.43617271 24.8743284,1.60384795 L31.731564,14.1826033 L24,23.9576968 L16.2032599,14.1826033 Z" id="Star" fill="#FDDCB9"></path>
                </g>
                <path d="M39.5719941,42.6915255 C39.7597935,43.7662225 39.0243991,44.7868614 37.9294447,44.9711864 C37.4934282,45.0445856 37.044919,44.9748629 36.6533518,44.7728124 L24.3118868,38.4045578 C24.1165502,38.3037632 23.8831886,38.3037632 23.687852,38.4045578 L11.346387,44.7728124 C10.3630567,45.2802154 9.14682526,44.909148 8.62985795,43.9440099 C8.42399885,43.5596869 8.35296198,43.1194755 8.42774468,42.6915255 L10.8443448,28.8623374 L0.607462484,19.0684519 C-0.188068407,18.3073473 -0.204346402,17.0573761 0.571104565,16.276563 C0.879893207,15.9656392 1.28449914,15.7632962 1.72228465,15.7008591 L15.869308,13.6832078 L22.1960492,1.1009967 C22.6877144,0.123205098 23.8938855,-0.27825214 24.8901079,0.204316867 C25.2868088,0.396478376 25.6079059,0.711634957 25.8036896,1.1009967 L32.1304307,13.6832078 L46.2774541,15.7008591 C47.3768508,15.8576553 48.1385835,16.8595123 47.9788319,17.9385694 C47.9152179,18.3682556 47.7090609,18.7653761 47.3922763,19.0684519 L37.155394,28.8623374 L39.5719941,42.6915255 Z M24.9378186,37.2609381 L37.3031491,43.6384465 C37.4339239,43.7058945 37.583716,43.7291692 37.7293359,43.7046672 C38.0950265,43.6431363 38.340632,43.3024289 38.2779112,42.9436761 L35.7372274,28.411384 L46.4997364,18.1195576 C46.6055355,18.0183855 46.6743874,17.8858196 46.695633,17.7423828 C46.7489865,17.3821744 46.4945846,17.0477368 46.1274104,16.9953955 L31.2539888,14.8751626 L24.6023925,1.65324648 C24.5370051,1.52327064 24.4297657,1.41806579 24.2972764,1.35391887 C23.9645601,1.19282879 23.5617256,1.32684233 23.3975203,1.65324648 L16.7459239,14.8751626 L1.87250234,16.9953955 C1.72629165,17.016238 1.5911622,17.0837837 1.48803361,17.1875756 C1.22905011,17.4482248 1.2344866,17.8654874 1.50017635,18.1195576 L12.2626853,28.411384 L9.7220016,42.9436761 C9.69702583,43.0865333 9.72075057,43.2334837 9.78950296,43.3617775 C9.96215863,43.6839577 10.3683531,43.8078266 10.6967637,43.6384465 L23.0620942,37.2609381 C23.6492372,36.9581148 24.3506756,36.9581148 24.9378186,37.2609381 Z" id="Star" fill="#FF7020"></path>
            </g>
            <path d="M24.5785093,39.8706703 L11.554906,46.7175838 C10.5772169,47.2315854 9.36796254,46.8556924 8.85396093,45.8780032 C8.64928279,45.4886822 8.57865344,45.0427461 8.65300713,44.6092308 L11.140294,30.1072354 L0.603977644,19.8368653 C-0.186989512,19.0658629 -0.203174125,17.7996363 0.567828299,17.0086692 C0.874845509,16.6937019 1.27713033,16.4887275 1.71240439,16.4254785 L16.2732355,14.3096659 L22.7850372,1.11531464 C23.2738817,0.124807321 24.4731334,-0.281870676 25.4636407,0.20697391 C25.8580659,0.401634389 26.177321,0.720889431 26.3719815,1.11531464 L32.8837831,14.3096659 L47.4446142,16.4254785 C48.5377039,16.5843138 49.2950669,17.5991995 49.1362316,18.6922892 C49.0729826,19.1275632 48.8680082,19.5298481 48.553041,19.8368653 L38.0167246,30.1072354 L40.5040115,44.6092308 C40.6907335,45.6979037 39.9595579,46.7318156 38.870885,46.9185376 C38.4373697,46.9928913 37.9914335,46.9222619 37.6021126,46.7175838 L24.5785093,39.8706703 Z M35.8677634,29.4089956 L47.1570176,18.4046925 L31.5556521,16.1376814 L24.5785093,2.00044606 L17.6013665,16.1376814 L2.00000103,18.4046925 L13.2892552,29.4089956 L10.6242238,44.9473209 L24.5785093,37.6111189 L38.5327948,44.9473209 L35.8677634,29.4089956 Z" id="Star" fill="#FF7020"></path>
        </g>
        <ellipse id="Oval-2-Copy-2" fill="#FDDCB9" cx="32" cy="57.5" rx="20" ry="2.5"></ellipse>
    </g>
</svg>