<?xml version="1.0" encoding="UTF-8"?>
<svg width="64px" height="64px" viewBox="0 0 64 64" version="1.1" xmlns="http://www.w3.org/2000/svg" xmlns:xlink="http://www.w3.org/1999/xlink">
    <!-- Generator: Sketch 54.1 (76490) - https://sketchapp.com -->
    <title>icon/component/list</title>
    <desc>Created with Sketch.</desc>
    <defs>
        <polygon id="path-1" points="0.8117 0.0003 27.0017 0.0003 27.0017 1 0.8117 1"></polygon>
    </defs>
    <g id="icon/component/list" stroke="none" stroke-width="1" fill="none" fill-rule="evenodd">
        <path d="M9,19.03 L9,7 L14.891,12.89 C14.959,12.959 14.959,13.07 14.891,13.139 L9,19.03 Z" id="Fill-1" fill="#FF7020"></path>
        <g id="Group-6" transform="translate(18.999900, 18.585400)">
            <path d="M0.8117,0.1722 L27.0017,0.1722" id="Fill-3" fill="#FFFFFF"></path>
            <path d="M0.8117,0.1722 L27.0017,0.1722" id="Stroke-5" stroke="#FF7020" stroke-width="2" stroke-linecap="square"></path>
        </g>
        <path d="M9,37.4216 L9,25.3916 L14.891,31.2816 C14.959,31.3516 14.959,31.4626 14.891,31.5306 L9,37.4216 Z" id="Fill-7" fill="#FF7020"></path>
        <path d="M9,55.8142 L9,43.7842 L14.891,49.6742 C14.959,49.7432 14.959,49.8542 14.891,49.9232 L9,55.8142 Z" id="Fill-9" fill="#FF7020"></path>
        <path d="M54.8184,14.7087 L20.5264,14.7087 C20.1314,14.7087 19.8114,14.3887 19.8114,13.9937 L19.8114,9.2707 C19.8114,8.8757 20.1314,8.5557 20.5264,8.5557 L54.8184,8.5557 C55.2134,8.5557 55.5324,8.8757 55.5324,9.2707 L55.5324,13.9937 C55.5324,14.3887 55.2134,14.7087 54.8184,14.7087" id="Fill-11" fill="#FF881E"></path>
        <path d="M54.94,12.283 L20.404,12.283 C20.077,12.283 19.812,12.017 19.812,11.69 L19.812,9.148 C19.812,8.821 20.077,8.555 20.404,8.555 L54.94,8.555 C55.267,8.555 55.533,8.821 55.533,9.148 L55.533,11.69 C55.533,12.017 55.267,12.283 54.94,12.283" id="Fill-13" fill="#FCAF5C"></path>
        <path d="M47.8409,8.5554 L54.8189,8.5554 C55.2139,8.5554 55.5329,8.8754 55.5329,9.2704 L55.5329,13.9934 C55.5329,14.3884 55.2139,14.7084 54.8189,14.7084 L20.5259,14.7084 C20.1319,14.7084 19.8119,14.3884 19.8119,13.9934 L19.8119,9.2704 C19.8119,8.8754 20.1319,8.5554 20.5259,8.5554 L41.8939,8.5554" id="Stroke-15" stroke="#FF7020" stroke-width="2" stroke-linecap="square"></path>
        <g id="Group-20" transform="translate(18.999900, 36.585400)">
            <path d="M0.8117,0.4681 L14.2027,0.4681" id="Fill-17" fill="#FFFFFF"></path>
            <path d="M0.8117,0.4681 L14.2027,0.4681" id="Stroke-19" stroke="#FF7020" stroke-width="2" stroke-linecap="square"></path>
        </g>
        <path d="M54.8184,26.8513 L20.5264,26.8513 C20.1314,26.8513 19.8114,27.1713 19.8114,27.5663 L19.8114,32.2893 C19.8114,32.6843 20.1314,33.0043 20.5264,33.0043 L54.8184,33.0043 C55.2134,33.0043 55.5324,32.6843 55.5324,32.2893 L55.5324,27.5663 C55.5324,27.1713 55.2134,26.8513 54.8184,26.8513" id="Fill-21" fill="#FDDCB9"></path>
        <path d="M54.94,29.2771 L20.404,29.2771 C20.077,29.2771 19.812,29.5431 19.812,29.8701 L19.812,32.4121 C19.812,32.7391 20.077,33.0051 20.404,33.0051 L54.94,33.0051 C55.267,33.0051 55.533,32.7391 55.533,32.4121 L55.533,29.8701 C55.533,29.5431 55.267,29.2771 54.94,29.2771" id="Fill-23" fill="#FFFFFF"></path>
        <path d="M47.8409,33.0046 L54.8189,33.0046 C55.2139,33.0046 55.5329,32.6846 55.5329,32.2896 L55.5329,27.5666 C55.5329,27.1716 55.2139,26.8516 54.8189,26.8516 L20.5259,26.8516 C20.1319,26.8516 19.8119,27.1716 19.8119,27.5666 L19.8119,32.2896 C19.8119,32.6846 20.1319,33.0046 20.5259,33.0046 L41.8939,33.0046" id="Stroke-25" stroke="#FF7020" stroke-width="2" stroke-linecap="square"></path>
        <g id="Group-30" transform="translate(18.999900, 55.585400)">
            <mask id="mask-2" fill="white">
                <use xlink:href="#path-1"></use>
            </mask>
            <g id="Clip-28"></g>
            <path d="M0.8117,0.0003 L27.0017,0.0003" id="Fill-27" fill="#FFFFFF" mask="url(#mask-2)"></path>
            <path d="M0.8117,0.0003 L27.0017,0.0003" id="Stroke-29" stroke="#FF7020" stroke-width="2" stroke-linecap="square" mask="url(#mask-2)"></path>
        </g>
        <path d="M54.8184,51.5359 L20.5264,51.5359 C20.1314,51.5359 19.8114,51.2169 19.8114,50.8219 L19.8114,46.0979 C19.8114,45.7029 20.1314,45.3839 20.5264,45.3839 L54.8184,45.3839 C55.2134,45.3839 55.5324,45.7029 55.5324,46.0979 L55.5324,50.8219 C55.5324,51.2169 55.2134,51.5359 54.8184,51.5359" id="Fill-31" fill="#FDDCB9"></path>
        <path d="M54.94,49.1101 L20.404,49.1101 C20.077,49.1101 19.812,48.8441 19.812,48.5171 L19.812,45.9761 C19.812,45.6491 20.077,45.3831 20.404,45.3831 L54.94,45.3831 C55.267,45.3831 55.533,45.6491 55.533,45.9761 L55.533,48.5171 C55.533,48.8441 55.267,49.1101 54.94,49.1101" id="Fill-33" fill="#FFFFFF"></path>
        <path d="M29.4307,45.3835 L54.8187,45.3835 C55.2137,45.3835 55.5327,45.7025 55.5327,46.0975 L55.5327,50.8215 C55.5327,51.2165 55.2137,51.5355 54.8187,51.5355 L20.5257,51.5355 C20.1317,51.5355 19.8117,51.2165 19.8117,50.8215 L19.8117,46.0975 C19.8117,45.7025 20.1317,45.3835 20.5257,45.3835 L33.8527,45.3835" id="Stroke-35" stroke="#FF7020" stroke-width="2" stroke-linecap="square"></path>
    </g>
</svg>