<?xml version="1.0" encoding="UTF-8"?>
<svg width="64px" height="64px" viewBox="0 0 64 64" version="1.1" xmlns="http://www.w3.org/2000/svg" xmlns:xlink="http://www.w3.org/1999/xlink">
    <!-- Generator: Sketch 54.1 (76490) - https://sketchapp.com -->
    <title>icon/component/popover</title>
    <desc>Created with Sketch.</desc>
    <g id="icon/component/popover" stroke="none" stroke-width="1" fill="none" fill-rule="evenodd">
        <g id="Page-1" transform="translate(4.000000, 5.000000)">
            <path d="M54.5147,0.0004 L0.8407,0.0004 C0.3757,0.0004 -0.0003,0.3764 -0.0003,0.8404 L-0.0003,40.5634 C-0.0003,41.0274 0.3757,41.4044 0.8407,41.4044 L23.4627,41.4044 L28.6777,46.6194 L33.8927,41.4044 L54.5147,41.4044 C54.9797,41.4044 55.3557,41.0274 55.3557,40.5634 L55.3557,0.8404 C55.3557,0.3764 54.9797,0.0004 54.5147,0.0004" id="Fill-1" fill="#FF881E"></path>
            <path d="M53.5147,0.3393 L3.8407,0.3393 C3.3757,0.3393 2.9997,0.7153 2.9997,1.1793 L2.9997,36.5643 C2.9997,37.0273 3.3757,37.4043 3.8407,37.4043 L26.4627,37.4043 L31.6777,42.6193 L36.8927,41.1843 L53.5147,41.1843 C53.9797,41.1843 54.3557,37.0273 54.3557,36.5643 L54.3557,1.1793 C54.3557,0.7153 53.9797,0.3393 53.5147,0.3393" id="Fill-3" fill="#FCAF5C"></path>
            <path d="M0.8407,42.4044 C-0.176423462,42.4044 -1.0003,41.5798465 -1.0003,40.5634 L-1.0003,0.8404 C-1.0003,-0.176223329 -0.17624621,-0.9996 0.8407,-0.9996 L54.5147,-0.9996 C55.5316462,-0.9996 56.3557,-0.176223329 56.3557,0.8404 L56.3557,40.5634 C56.3557,41.5798465 55.5318235,42.4044 54.5147,42.4044 L34.3069136,42.4044 L29.3848068,47.3265068 C28.9942825,47.7170311 28.3611175,47.7170311 27.9705932,47.3265068 L23.0484864,42.4044 L0.8407,42.4044 Z M54.3557,1.0004 L0.9997,1.0004 L0.9997,40.4044 L23.4627,40.4044 C23.7279165,40.4044 23.9822704,40.5097568 24.1698068,40.6972932 L28.6777,45.2051864 L33.1855932,40.6972932 C33.3731296,40.5097568 33.6274835,40.4044 33.8927,40.4044 L54.3557,40.4044 L54.3557,1.0004 Z" id="Stroke-5" fill="#FF7020" fill-rule="nonzero"></path>
            <polygon id="Fill-9" fill="#FDDCB9" points="7.201 15.5387 48.154 15.5387 48.154 6.7257 7.201 6.7257"></polygon>
            <polygon id="Fill-10" fill="#FFFFFF" opacity="0.7" points="11.72 15.5387 48.154 15.5387 48.154 6.7257 11.72 6.7257"></polygon>
            <path d="M7.201,16.5387 C6.64871525,16.5387 6.201,16.0909847 6.201,15.5387 L6.201,6.7257 C6.201,6.17341525 6.64871525,5.7257 7.201,5.7257 L48.154,5.7257 C48.7062847,5.7257 49.154,6.17341525 49.154,6.7257 L49.154,15.5387 C49.154,16.0909847 48.7062847,16.5387 48.154,16.5387 L7.201,16.5387 Z M8.201,14.5387 L47.154,14.5387 L47.154,7.7257 L8.201,7.7257 L8.201,14.5387 Z" id="Stroke-11" fill="#FF7020" fill-rule="nonzero"></path>
            <polygon id="Stroke-12" fill="#FF7020" fill-rule="nonzero" points="6.9268 22.0785 6.9268 20.0785 27.7638 20.0785 27.7638 22.0785"></polygon>
            <polygon id="Stroke-13" fill="#FF7020" fill-rule="nonzero" points="30.8897 22.0785 30.8897 20.0785 37.8607 20.0785 37.8607 22.0785"></polygon>
            <polygon id="Stroke-14" fill="#FF7020" fill-rule="nonzero" points="6.9268 26.8979 6.9268 24.8979 33.9928 24.8979 33.9928 26.8979"></polygon>
            <polygon id="Stroke-15" fill="#FF7020" fill-rule="nonzero" points="37.1885 26.8979 37.1885 24.8979 42.0055 24.8979 42.0055 26.8979"></polygon>
        </g>
        <ellipse id="Oval-2-Copy" fill="#FDDCB9" cx="33" cy="58" rx="14" ry="2"></ellipse>
    </g>
</svg>