<?xml version="1.0" encoding="UTF-8"?>
<svg width="64px" height="64px" viewBox="0 0 64 64" version="1.1" xmlns="http://www.w3.org/2000/svg" xmlns:xlink="http://www.w3.org/1999/xlink">
    <!-- Generator: Sketch 59 (86127) - https://sketch.com -->
    <title>icon/component/select</title>
    <desc>Created with Sketch.</desc>
    <g id="icon/component/select" stroke="none" stroke-width="1" fill="none" fill-rule="evenodd">
        <polygon id="Fill-1" fill="#FCAF5C" points="7 24 58 24 58 8 7 8"></polygon>
        <polygon id="Fill-2" fill="#FF881E" points="7 25 58 25 58 21 7 21"></polygon>
        <path d="M6.74705882,26 C6.33446962,26 6,25.658677 6,25.2376338 L6,7.76236622 C6,7.34132298 6.33446962,7 6.74705882,7 L57.2529412,7 C57.6655304,7 58,7.34132298 58,7.76236622 L58,25.2376338 C58,25.658677 57.6655304,26 57.2529412,26 L6.74705882,26 Z M7.49411763,24.4752676 L56.5058824,24.4752676 L56.5058824,8.52473244 L7.49411763,8.52473244 L7.49411763,24.4752676 Z" id="Stroke-3" fill="#FF7020"></path>
        <path d="M14.6352577,15.5559172 L14.3811546,14.5752151 C14.3219327,14.3568937 14.249627,14.0750988 14.164926,13.7291328 C14.080225,13.3831667 14.0244462,13.1348524 13.9975898,12.9848872 C13.9734879,13.1243897 13.9259727,13.3531737 13.8543556,13.6719368 C13.7834271,13.9906998 13.625043,14.6184608 13.3805807,15.5559172 L14.6352577,15.5559172 Z M15.2563985,18 L14.9657982,16.8797954 L13.0493515,16.8797954 L12.7511764,18 L11,18 L12.9247102,12 L15.0511879,12 L17,18 L15.2563985,18 Z" id="Fill-5" fill="#FEF3E7"></path>
        <path d="M21.3808765,16.8236578 C21.6015936,16.8236578 21.7912351,16.7596392 21.9482072,16.6316019 C22.1051793,16.5042922 22.1840637,16.3376982 22.1840637,16.1332751 L22.1840637,15.7578932 L21.7633466,15.7753528 C21.1633466,15.7949949 20.8629482,15.9965081 20.8629482,16.3806198 C20.8629482,16.6759785 21.0350598,16.8236578 21.3808765,16.8236578 L21.3808765,16.8236578 Z M22.7346614,17.9148843 L22.3848606,17.2754256 L22.3474104,17.2754256 C22.1011952,17.5540521 21.850996,17.744653 21.5960159,17.8465008 C21.340239,17.9490761 21.0103586,18 20.6055777,18 C20.1075697,18 19.7155378,17.8639604 19.4294821,17.5911538 C19.1426295,17.3183472 19,16.9342354 19,16.4402735 C19,15.9259421 19.1960159,15.5425578 19.5880478,15.2915757 C19.9800797,15.0398661 20.5482072,14.8987342 21.2924303,14.8674523 L22.174502,14.8412629 L22.174502,14.7736069 C22.174502,14.3756729 21.9601594,14.1763422 21.5298805,14.1763422 C21.1442231,14.1763422 20.6541833,14.2956496 20.059761,14.534992 L19.5322709,13.4350356 C20.1482072,13.1447694 20.9266932,13 21.8661355,13 C22.5450199,13 23.0701195,13.1534992 23.4422311,13.4604976 C23.8143426,13.767496 24,14.1967118 24,14.7474174 L24,17.9148843 L22.7346614,17.9148843 Z" id="Fill-6" fill="#FEF3E7"></path>
        <path d="M27.3808765,16.8236578 C27.6015936,16.8236578 27.7912351,16.7596392 27.9482072,16.6316019 C28.1051793,16.5042922 28.1840637,16.3376982 28.1840637,16.1332751 L28.1840637,15.7578932 L27.7633466,15.7753528 C27.1633466,15.7949949 26.8629482,15.9965081 26.8629482,16.3806198 C26.8629482,16.6759785 27.0350598,16.8236578 27.3808765,16.8236578 L27.3808765,16.8236578 Z M28.7346614,17.9148843 L28.3848606,17.2754256 L28.3474104,17.2754256 C28.1011952,17.5540521 27.850996,17.744653 27.5960159,17.8465008 C27.340239,17.9490761 27.0103586,18 26.6055777,18 C26.1075697,18 25.7155378,17.8639604 25.4294821,17.5911538 C25.1426295,17.3183472 25,16.9342354 25,16.4402735 C25,15.9259421 25.1960159,15.5425578 25.5880478,15.2915757 C25.9800797,15.0398661 26.5482072,14.8987342 27.2924303,14.8674523 L28.174502,14.8412629 L28.174502,14.7736069 C28.174502,14.3756729 27.9601594,14.1763422 27.5298805,14.1763422 C27.1442231,14.1763422 26.6541833,14.2956496 26.059761,14.534992 L25.5322709,13.4350356 C26.1482072,13.1447694 26.9266932,13 27.8661355,13 C28.5450199,13 29.0701195,13.1534992 29.4422311,13.4604976 C29.8143426,13.767496 30,14.1967118 30,14.7474174 L30,17.9148843 L28.7346614,17.9148843 Z" id="Fill-7" fill="#FEF3E7"></path>
        <path d="M52,18 L44,18 L47.9174362,13.0439802 C47.9630636,12.9853399 48.0369364,12.9853399 48.0832881,13.0439802 L52,18 Z" id="Fill-9" fill="#FEF3E7"></path>
        <path d="M57.0190562,46 L7.98094377,46 C7.43942045,46 7,45.568131 7,45.0342517 L7,37.9657483 C7,37.4326136 7.43942045,37 7.98094377,37 L57.0190562,37 C57.5605795,37 58,37.4326136 58,37.9657483 L58,45.0342517 C58,45.568131 57.5605795,46 57.0190562,46" id="Fill-10" fill="#FDDCB9"></path>
        <path d="M57.1861903,43 L7.81380967,43 C7.36455043,43 7,42.6526126 7,42.2237838 L7,37.7754955 C7,37.3473874 7.36455043,37 7.81380967,37 L57.1861903,37 C57.6354496,37 58,37.3473874 58,37.7754955 L58,42.2237838 C58,42.6526126 57.6354496,43 57.1861903,43" id="Fill-11" fill="#FEF3E7"></path>
        <path d="M57.0190562,56 L7.98094377,56 C7.43942045,56 7,55.5673864 7,55.0342517 L7,47.9657483 C7,47.431869 7.43942045,47 7.98094377,47 L57.0190562,47 C57.5605795,47 58,47.431869 58,47.9657483 L58,55.0342517 C58,55.5673864 57.5605795,56 57.0190562,56" id="Fill-13" fill="#FDDCB9"></path>
        <path d="M57.1861903,53 L7.81380967,53 C7.36455043,53 7,52.6532917 7,52.2244113 L7,47.7755887 C7,47.3467083 7.36455043,47 7.81380967,47 L57.1861903,47 C57.6354496,47 58,47.3467083 58,47.7755887 L58,52.2244113 C58,52.6532917 57.6354496,53 57.1861903,53" id="Fill-14" fill="#FEF3E7"></path>
        <path d="M57.0190562,37 L7.98094377,37 C7.43942045,37 7,36.5674222 7,36.033587 L7,28.9656684 C7,28.4325778 7.43942045,28 7.98094377,28 L57.0190562,28 C57.5605795,28 58,28.4325778 58,28.9656684 L58,36.033587 C58,36.5674222 57.5605795,37 57.0190562,37" id="Fill-16" fill="#FDDCB9"></path>
        <path d="M57.1861903,34 L7.81380967,34 C7.36455043,34 7,33.6533333 7,33.2245045 L7,28.7762162 C7,28.3473874 7.36455043,28 7.81380967,28 L57.1861903,28 C57.6354496,28 58,28.3473874 58,28.7762162 L58,33.2245045 C58,33.6533333 57.6354496,34 57.1861903,34" id="Fill-17" fill="#FEF3E7"></path>
        <path d="M6,48 L6,37 L58,37 L58,48 L6,48 Z M56.5058824,46.4357696 L56.5058824,38.5642304 L7.49411763,38.5642304 L7.49411763,46.4357696 L56.5058824,46.4357696 Z" id="Stroke-12" fill="#FF7020"></path>
        <path d="M6,57 L6,46 L58,46 L58,57 L6,57 Z M56.5058824,55.4357696 L56.5058824,47.5642304 L7.49411763,47.5642304 L7.49411763,55.4357696 L56.5058824,55.4357696 Z" id="Stroke-12-Copy-2" fill="#FF7020"></path>
        <path d="M6,39 L6,28 L58,28 L58,39 L6,39 Z M56.5058824,37.4357696 L56.5058824,29.5642304 L7.49411763,29.5642304 L7.49411763,37.4357696 L56.5058824,37.4357696 Z" id="Stroke-12-Copy" fill="#FF7020"></path>
    </g>
</svg>