<?xml version="1.0" encoding="UTF-8"?>
<svg width="64px" height="64px" viewBox="0 0 64 64" version="1.1" xmlns="http://www.w3.org/2000/svg" xmlns:xlink="http://www.w3.org/1999/xlink">
    <!-- Generator: Sketch 55.2 (78181) - https://sketchapp.com -->
    <title>icon/component/spinner</title>
    <desc>Created with Sketch.</desc>
    <defs>
        <polygon id="path-1" points="-0.00026348633 0.00188095089 26.9997365 0.00188095089 26.9997365 3.00188095 -0.00026348633 3.00188095"></polygon>
    </defs>
    <g id="icon/component/spinner" stroke="none" stroke-width="1" fill="none" fill-rule="evenodd">
        <path d="M24.1575174,43.4485901 C16.3655174,38.9285901 13.7125174,28.9485901 18.2325174,21.1575901 C22.7515174,13.3655901 32.7325174,10.7125901 40.5235174,15.2315901 C48.3155174,19.7515901 50.9685174,29.7315901 46.4495174,37.5235901 C41.9295174,45.3155901 31.9495174,47.9685901 24.1575174,43.4485901 M43.5475174,10.0185901 C32.8765174,3.82959006 19.2085174,7.46259006 13.0195174,18.1335901 C6.82951741,28.8035901 10.4625174,42.4715901 21.1335174,48.6615901 C31.8045174,54.8515901 45.4725174,51.2185901 51.6615174,40.5475901 C57.8515174,29.8765901 54.2185174,16.2085901 43.5475174,10.0185901" id="Fill-1" fill="#49A4F5"></path>
        <path d="M51.6619174,40.5471901 C57.8509174,29.8761901 54.2189174,16.2081901 43.5479174,10.0191901 C32.8769174,3.82919006 19.2089174,7.46219006 13.0189174,18.1331901 L18.2319174,21.1571901 C22.7519174,13.3651901 32.7319174,10.7121901 40.5239174,15.2321901 C48.3159174,19.7511901 50.9689174,29.7321901 46.4489174,37.5241901 C42.5539174,44.2391901 34.6019174,47.1241901 27.4909174,44.9021901 L25.6949174,50.6631901 C35.4349174,53.7081901 46.3269174,49.7461901 51.6619174,40.5471901" id="Fill-3" fill="#FCAF5C"></path>
        <path d="M24.1575174,43.4485901 C16.3655174,38.9285901 13.7125174,28.9485901 18.2325174,21.1575901 L13.0195174,18.1335901 C6.82951741,28.8035901 10.4625174,42.4715901 21.1335174,48.6615901 C22.6055174,49.5155901 24.1365174,50.1765901 25.6955174,50.6635901 L27.4905174,44.9025901 C26.3515174,44.5465901 25.2325174,44.0725901 24.1575174,43.4485901" id="Fill-5" fill="#FDDCB9"></path>
        <path d="M18.7575698,21.331171 L14.7395698,19.000171 C8.3885698,29.320171 13.9955698,41.714171 22.2215698,46.486171 C23.3565698,47.144171 24.5365698,47.654171 25.7385698,48.029171 L26.5701539,45.121171 C25.6921539,44.847171 24.8291539,44.481171 24.0001539,44.000171 C17.9931539,40.517171 13.1515698,29.659171 18.7575698,21.331171 Z" id="Fill-7" fill="#FEF3E7"></path>
        <path d="M50.7968799,40.0454829 C56.7089982,29.851879 53.2391124,16.7959389 43.0461496,10.8841924 C32.8530164,4.97139187 19.7968818,8.44154626 13.8839198,18.6349579 C7.97123846,28.8278855 11.4420742,41.8840653 21.6356852,47.7961877 C31.8288547,53.7090093 44.8849329,50.2387914 50.7968799,40.0454829 Z M52.5269549,41.0488972 C46.0608077,52.1977511 31.7808177,55.9932766 20.6322102,49.5262276 C9.48314718,43.0599591 5.68695217,28.7798812 12.1539151,17.6314222 C18.6211036,6.48257424 32.901078,2.68713882 44.0496246,9.15415253 C55.1980683,15.6200618 58.9932161,29.8998468 52.5269549,41.0488972 Z" id="Stroke-9" fill="#FF7020"></path>
        <path d="M45.7982957,37.1460556 C50.1092114,29.7137664 47.5788171,20.1936955 40.146583,15.8828118 C32.7143257,11.5719146 23.1941858,14.10225 18.8823866,21.5344427 C14.5720768,28.9673073 17.1023518,38.4872198 24.5350519,42.7987684 C31.9670935,47.1095404 41.4872684,44.5785374 45.7982957,37.1460556 Z M47.5283391,38.1495245 C42.6631339,46.5374436 31.9191405,49.3938072 23.5315486,44.5287918 C15.1434183,39.6630189 12.2878995,28.9194083 17.1523432,20.5309738 C22.0184763,12.1432831 32.7623561,9.28769274 41.1500519,14.1527684 C49.5377675,19.0178555 52.3934525,29.7617636 47.5283391,38.1495245 Z" id="Stroke-11" fill="#FF7020"></path>
        <polygon id="Stroke-13" fill="#FF7020" fill-rule="nonzero" points="19.3845438 20.669191 18.3812164 22.3993165 11.652091 18.4969891 12.6554184 16.7668636"></polygon>
        <polygon id="Stroke-15" fill="#FF7020" fill-rule="nonzero" points="26.3718894 51.9051548 24.4533527 51.340162 26.4083455 44.7016253 28.3268822 45.2666181"></polygon>
        <g id="Group-19" transform="translate(19.000000, 58.000000)">
            <mask id="mask-2" fill="white">
                <use xlink:href="#path-1"></use>
            </mask>
            <g id="Clip-18"></g>
            <path d="M26.9997365,1.50157199 C26.9997365,2.33020227 20.9557153,3.00188095 13.5003386,3.00188095 C6.04375774,3.00188095 -0.00026348633,2.33020227 -0.00026348633,1.50157199 C-0.00026348633,0.673559633 6.04375774,0.00188095089 13.5003386,0.00188095089 C20.9557153,0.00188095089 26.9997365,0.673559633 26.9997365,1.50157199" id="Fill-17" fill="#FDDCB9" mask="url(#mask-2)"></path>
        </g>
    </g>
</svg>