<?xml version="1.0" encoding="UTF-8"?>
<svg width="64px" height="64px" viewBox="0 0 64 64" version="1.1" xmlns="http://www.w3.org/2000/svg" xmlns:xlink="http://www.w3.org/1999/xlink">
    <!-- Generator: Sketch 54.1 (76490) - https://sketchapp.com -->
    <title>icon/component/ styled</title>
    <desc>Created with Sketch.</desc>
    <g id="icon/component/-styled" stroke="none" stroke-width="1" fill="none" fill-rule="evenodd">
        <g id="Group" transform="translate(31.999910, 34.332878) rotate(-35.000000) translate(-31.999910, -34.332878) translate(11.499910, 4.332878)">
            <rect id="Rectangle" stroke="#FF7020" stroke-width="2" x="18.0753627" y="25.5811211" width="4" height="32"></rect>
            <rect id="Rectangle" fill="#FCAF5C" x="19.0753627" y="22.5811211" width="2" height="35"></rect>
            <path d="M30.348326,15.2003614 C30.9347149,14.6279914 31.1461397,13.7714699 30.8970415,12.9893343 C30.6455105,12.2038955 29.9716716,11.629994 29.1576899,11.5126361 L23.1248447,10.6281831 L20.4267677,5.15009131 C19.6715302,3.61663445 17.3281408,3.61663445 16.5728981,5.15010198 L13.8748265,10.6281828 L7.83962786,11.5129782 C7.02799945,11.629994 6.35416054,12.2038955 6.10311531,12.9878132 C5.85353127,13.7714699 6.06495611,14.6279914 6.65137452,15.2003902 L11.0137802,19.458854 L9.98556862,25.4735427 C9.84690752,26.280903 10.1747335,27.0987022 10.8349644,27.5833083 C11.4923833,28.0690104 12.3720999,28.135295 13.0996113,27.7551432 L19,24.2612231 L24.2132078,26.7125866 C24.5240802,26.8759077 24.6968174,27 25.042701,27 L24.895638,26.0000013 C24.8717077,26.0000013 24.9163713,25.0108924 24.895638,25 L18.9656778,22.8923292 L18.4992148,22.6463704 L12.1700006,25.9843215 C12.1225762,26.0090944 12.0639696,26.0046785 12.02089,25.9728517 C11.9707479,25.9360416 11.9460149,25.8743423 11.9568394,25.8113159 L13.0736335,19.2784516 L13.1620854,18.7610379 L8.04840586,13.7692007 C8.00481573,13.7266527 7.98821148,13.6593858 8.00831421,13.5962659 C8.02632735,13.5400219 8.07337138,13.499955 8.12738516,13.4921675 L14.6848178,12.5308124 L15.2046986,12.4545948 L18.3670928,6.03376786 C18.3892646,5.98874938 18.6104064,5.98874938 18.632573,6.03375719 L21.7949724,12.4545948 L28.8699326,13.4918253 C28.9262996,13.499955 28.9733437,13.5400219 28.9918426,13.5977869 C29.0114595,13.6593858 28.9948553,13.7266527 28.9512946,13.7691719 L24.2132078,18.3943656 L23.8375856,18.7610379 L25.042701,25.8105539 C25.053535,25.873637 25.0910165,24.9644212 25.042701,25 C25.0169833,25.0190841 24.9266181,26.0000013 24.895638,26.0000013 L25.5017656,26.7125866 C25.9583913,26.7125866 25.7986165,27.8551238 26.1691,27.5800651 C26.8243855,27.0975316 27.1526362,26.2801618 27.0139718,25.4727807 L25.9858908,19.458854 L30.348326,15.2003614 Z" id="🎨-Icon-color" fill="#FCAF5C" fill-rule="nonzero"></path>
            <path d="M26.2578608,27.0235448 L20.3939397,23.9315902 L14.5311687,27.0235448 C14.142464,27.2266574 13.6732583,27.1918381 13.3213541,26.931854 C12.9671498,26.6718698 12.7911976,26.2319858 12.8659485,25.7967445 L13.9826121,19.2646421 L9.24455468,14.6394773 C8.92945086,14.3319067 8.81559948,13.8699705 8.95015111,13.4474963 C9.08470274,13.0273433 9.4446571,12.7197727 9.87936237,12.657098 L16.4344418,11.696085 L19.3646773,5.74662578 C19.753382,4.95738812 21.0356475,4.95738812 21.4243522,5.74662578 L24.3545877,11.696085 L30.9096671,12.657098 C31.3443724,12.7197727 31.7043267,13.0273433 31.8388784,13.4474963 C31.97343,13.8699705 31.8595786,14.3319067 31.5444748,14.6394773 L26.8064174,19.2646421 L27.9230809,25.7967445 C27.9978318,26.2319858 27.8207297,26.6718698 27.4676754,26.931854 C27.267573,27.0804163 27.0295201,27.1546975 26.7903172,27.1546975 C26.608615,27.1546975 26.4257628,27.1117537 26.2578608,27.0235448 Z" id="🎨-Icon-color" fill="#FDDCB9"></path>
            <path d="M24.3939397,24.3415777 L18.5311687,27.4335324 C18.142464,27.636645 17.6732583,27.6018257 17.3213541,27.3418415 C16.9671498,27.0818573 16.7911976,26.6419734 16.8659485,26.206732 L17.9826121,19.6746297 L13.2445547,15.0494648 C12.9294509,14.7418943 12.8155995,14.2799581 12.9501511,13.8574838 C13.0847027,13.4373308 13.4446571,13.1297603 13.8793624,13.0670855 L20.4344418,12.1060726 L23.6296608,5.73629128 C23.7922062,5.4062542 23.9215044,6.12898853 23.9215044,6.12898853 C23.9215044,6.12898853 21.5926525,14.2085837 21.5926525,14.2085837 C21.5926525,14.2085837 15.8882708,14.8852035 15.8882708,14.8852035 C15.8882708,14.8852035 20.1622641,18.5825948 20.1622641,18.5825948 C20.1622641,18.5825948 19.3414188,23.7566892 19.3414188,23.7566892 C19.3414188,23.7566892 23.2395485,21.0271894 23.2395485,21.0271894 C23.2395485,21.0271894 31.088782,26.4491504 31.1293689,26.6981095 C31.1591226,26.8806178 28.9139795,26.0951072 24.3939397,24.3415777 Z" id="🎨-Icon-color" fill="#FEF4EA" transform="translate(22.012088, 16.607277) scale(-1, 1) translate(-22.012088, -16.607277) "></path>
            <path d="M32.2430052,15.3550576 C32.8293941,14.7826876 33.040819,13.926166 32.7917207,13.1440305 C32.5401897,12.3585917 31.8663508,11.7846902 31.0523691,11.6673323 L25.0195239,10.7828793 L22.3214469,5.30478751 C21.5662094,3.77133065 19.2228201,3.77133065 18.4675773,5.30479818 L15.7695057,10.782879 L9.7343071,11.6676744 C8.92267868,11.7846902 8.24883978,12.3585917 7.99779454,13.1425094 C7.7482105,13.926166 7.95963534,14.7826876 8.54605375,15.3550864 L12.9084595,19.6135502 L11.8802479,25.6282389 C11.7415868,26.4355992 12.0694128,27.2533984 12.7296436,27.7380045 C13.3870626,28.2237066 14.2667791,28.2899912 14.9942905,27.9098394 L20.3939849,25.0621134 L25.7914435,27.9081096 C26.1023159,28.0714307 26.4444336,28.1546975 26.7903172,28.1546975 L26.7903172,26.1546975 C26.766387,26.1546975 26.7436774,26.1491703 26.7229441,26.1382779 L20.860357,23.0470254 L20.393894,22.8010666 L14.0646798,26.1390177 C14.0172554,26.1637906 13.9586489,26.1593747 13.9155692,26.1275479 C13.8654271,26.0907378 13.8406941,26.0290385 13.8515187,25.9660121 L14.9683128,19.4331478 L15.0567647,18.9157341 L9.94308509,13.9238969 C9.89949497,13.8813489 9.88289071,13.814082 9.90299345,13.7509621 C9.92100658,13.6947181 9.96805062,13.6546512 10.0220644,13.6468636 L16.579497,12.6855086 L17.0993778,12.609291 L20.261772,6.18846406 C20.2839439,6.14344558 20.5050856,6.14344558 20.5272522,6.18845338 L23.6896516,12.609291 L30.7646118,13.6465215 C30.8209789,13.6546512 30.8680229,13.6947181 30.8865218,13.7524831 C30.9061388,13.814082 30.8895345,13.8813489 30.8459739,13.9238681 L26.107887,18.5490618 L25.7322648,18.9157341 L26.9373802,25.9652501 C26.9482142,26.0283332 26.92303,26.0910439 26.8747145,26.1266227 C26.8489968,26.1457068 26.8212974,26.1546975 26.7903172,26.1546975 L26.7903172,28.1546975 C27.2469429,28.1546975 27.6932957,28.00982 28.0637793,27.7347613 C28.7190647,27.2522278 29.0473154,26.434858 28.9086511,25.6274769 L27.88057,19.6135502 L32.2430052,15.3550576 Z" id="🎨-Icon-color" fill="#FF7020" fill-rule="nonzero"></path>
            <rect id="Rectangle" stroke="#FF7020" fill="#D8D8D8" transform="translate(35.500000, 22.285309) rotate(-345.000000) translate(-35.500000, -22.285309) " x="31.5" y="21.7853091" width="8" height="1" rx="0.5"></rect>
            <rect id="Rectangle" stroke="#FF7020" fill="#D8D8D8" transform="translate(5.500000, 22.285309) scale(1, -1) rotate(-345.000000) translate(-5.500000, -22.285309) " x="1.5" y="21.7853091" width="8" height="1" rx="0.5"></rect>
            <rect id="Rectangle" stroke="#FF7020" fill="#D8D8D8" transform="translate(31.826202, 4.000000) scale(-1, 1) rotate(-316.000000) translate(-31.826202, -4.000000) " x="27.8262022" y="3.5" width="8" height="1" rx="0.5"></rect>
            <rect id="Rectangle" stroke="#FF7020" fill="#D8D8D8" transform="translate(8.826202, 4.000000) rotate(-316.000000) translate(-8.826202, -4.000000) " x="4.82620221" y="3.5" width="8" height="1" rx="0.5"></rect>
        </g>
    </g>
</svg>