<?xml version="1.0" encoding="UTF-8"?>
<svg width="64px" height="64px" viewBox="0 0 64 64" version="1.1" xmlns="http://www.w3.org/2000/svg" xmlns:xlink="http://www.w3.org/1999/xlink">
    <!-- Generator: Sketch 54.1 (76490) - https://sketchapp.com -->
    <title>icon/light/component/navigation</title>
    <desc>Created with Sketch.</desc>
    <defs>
        <polygon id="path-1" points="0 0.669816995 9.33027391 0.669816995 9.33027391 9.99981937 0 9.99981937"></polygon>
    </defs>
    <g id="icon/light/component/navigation" stroke="none" stroke-width="1" fill="none" fill-rule="evenodd">
        <g id="Group-2" transform="translate(3.000000, 23.000000)">
            <polygon id="Rectangle" fill="#FEF3E7" points="1.98766013 2 3.98766013 2 3.98766013 17 1.98766013 17"></polygon>
            <rect id="Rectangle" stroke="#FF7020" stroke-width="2" x="1" y="1" width="57" height="16" rx="4"></rect>
            <rect id="Rectangle" fill="#FCAF5C" x="16" y="6" width="19" height="3"></rect>
            <rect id="Rectangle" fill="#FCAF5C" x="16" y="11" width="11" height="1"></rect>
            <g id="Group" transform="translate(44.000000, 4.000000)">
                <g id="Group-43" transform="translate(0.000000, 1.000000)">
                    <mask id="mask-2" fill="white">
                        <use xlink:href="#path-1"></use>
                    </mask>
                    <g id="Clip-42"></g>
                </g>
                <circle id="Oval" fill="#FF881E" cx="6" cy="5" r="4"></circle>
                <path d="M9.24407299,5.00239647 C9.24545463,3.21095334 7.79401557,1.75746339 6.0028341,1.75608118 C4.21099081,1.754699 2.75730767,3.20594537 2.75592606,4.99726605 C2.755235,6.78935636 4.20636608,8.2425379 5.99770413,8.24391976 C7.78986269,8.24461097 9.24269123,6.79400489 9.24407299,5.00239647 Z M10.9999985,5.00375095 C10.9978688,7.76513246 8.75851072,10.0010649 5.99668836,9.99999962 C3.23543955,9.99786966 0.99893525,7.75820516 1.00000038,4.99625019 C1.00213024,2.23464725 3.2426619,-0.00212865278 6.00418872,1.52022502e-06 C8.76505516,0.00213200545 11.0021282,2.24236602 10.9999985,5.00375095 Z" id="Stroke-50" fill="#FF7020" fill-rule="nonzero"></path>
            </g>
            <g id="Some-Icon" transform="translate(5.000000, 5.000000)" fill="#FCAF5C">
                <path d="M6.0394247,7.9523081 L3.9998,6.82796096 L1.9605753,7.9523081 C1.82537366,8.02616724 1.66217168,8.01350567 1.5397702,7.91896597 C1.41656871,7.82442627 1.35536797,7.66446848 1.38136828,7.50619889 L1.76977299,5.13088895 L0.121753023,3.44901082 C0.0121516953,3.33716697 -0.0274487843,3.16919019 0.0193517826,3.01556318 C0.0661523495,2.86278027 0.191353866,2.75093643 0.342555698,2.72814561 L2.62258332,2.37868636 L3.64179566,0.215246637 C3.7769973,-0.0717488789 4.2230027,-0.0717488789 4.35820434,0.215246637 L5.37741668,2.37868636 L7.6574443,2.72814561 C7.80864613,2.75093643 7.93384765,2.86278027 7.98064822,3.01556318 C8.02744878,3.16919019 7.9878483,3.33716697 7.87824698,3.44901082 L6.23022701,5.13088895 L6.61863172,7.50619889 C6.64463203,7.66446848 6.58303129,7.82442627 6.4602298,7.91896597 C6.39062896,7.97298866 6.30782795,8 6.22462695,8 C6.16142618,8 6.09782541,7.98438407 6.0394247,7.9523081 Z" id="🎨-Icon-color"></path>
            </g>
        </g>
    </g>
</svg>