<?xml version="1.0" encoding="UTF-8"?>
<svg width="64px" height="64px" viewBox="0 0 64 64" version="1.1" xmlns="http://www.w3.org/2000/svg" xmlns:xlink="http://www.w3.org/1999/xlink">
    <!-- Generator: Sketch 54.1 (76490) - https://sketchapp.com -->
    <title>icon/component/ withStyles</title>
    <desc>Created with Sketch.</desc>
    <g id="icon/component/-withStyles" stroke="none" stroke-width="1" fill="none" fill-rule="evenodd">
        <path d="M51,14 C39.4020203,14 30,23.4020203 30,35 C30,35 37,35 51,35 C51,21 51,14 51,14 Z" id="Oval" fill="#FDDCB9" transform="translate(40.500000, 24.500000) rotate(-270.000000) translate(-40.500000, -24.500000) "></path>
        <path d="M50,34 C38.954305,34 30,43.4020203 30,55 C30,55 36.6666667,55 50,55 C50,41 50,34 50,34 Z" id="Oval" fill="#FCAF5C" transform="translate(40.000000, 44.500000) rotate(-180.000000) translate(-40.000000, -44.500000) "></path>
        <path d="M30,14 C18.4020203,14 9,22.954305 9,34 C9,34 16,34 30,34 C30,20.6666667 30,14 30,14 Z" id="Oval" fill="#FEF4EA" transform="translate(19.500000, 24.000000) rotate(-360.000000) translate(-19.500000, -24.000000) "></path>
        <path d="M30,34 C18.4020203,34 9,43.4020203 9,55 C9,55 16,55 30,55 C30,41 30,34 30,34 Z" id="Oval" fill="#FF881E" transform="translate(19.500000, 44.500000) rotate(-90.000000) translate(-19.500000, -44.500000) "></path>
        <path d="M29,50.9925689 C20.2952564,50.7334948 13.2838702,43.7323664 13.0084062,35.0317487 L10.0071099,35.0317487 C10.2844051,45.3893757 18.6382644,53.7329269 29,53.9937146 L29,50.9925689 Z M31,50.9327355 L31,53.9431655 C40.8174205,53.1963412 48.6028365,45.1799242 48.9852738,35.2648883 L45.9825855,35.2648837 C45.6057889,43.5225128 39.1592556,50.1974656 31,50.9327355 Z M45.9544691,33.2648826 L48.961517,33.2648826 C48.3554112,23.5676633 40.6617409,15.791816 31,15.0568345 L31,18.0672645 C39.0038033,18.7885259 45.3595251,25.2252973 45.9544691,33.2648826 Z M29,18.0074311 L29,15.0062854 C18.9524649,15.2591652 10.792882,23.1120509 10.0544452,33.0317487 L13.0644342,33.0317487 C13.7929081,24.7703564 20.6098725,18.2571415 29,18.0074311 Z M8,34.5 C8,22.6258779 17.6258779,13 29.5,13 C41.3741221,13 51,22.6258779 51,34.5 C51,46.3741221 41.3741221,56 29.5,56 C17.6258779,56 8,46.3741221 8,34.5 Z M15,34.5 C15,42.5081289 21.4918711,49 29.5,49 C37.5081289,49 44,42.5081289 44,34.5 C44,26.4918711 37.5081289,20 29.5,20 C21.4918711,20 15,26.4918711 15,34.5 Z" id="Combined-Shape" fill="#FF7020" fill-rule="nonzero"></path>
        <circle id="Oval" fill="#FEF4EA" transform="translate(29.500000, 34.500000) rotate(-270.000000) translate(-29.500000, -34.500000) " cx="29.5" cy="34.5" r="14.5"></circle>
        <g id="Group-7" transform="translate(43.945645, 21.672029) rotate(-319.000000) translate(-43.945645, -21.672029) translate(37.945645, -1.827971)">
            <path d="M5.34168186,0.606676735 C7.27467848,0.606676735 8.84168186,2.19855318 8.84168186,4.16223229 L8.84168186,16.6066767 L1.84168186,16.6066767 L1.84168186,4.16223229 C1.84168186,2.19855318 3.40868524,0.606676735 5.34168186,0.606676735 Z M7.09168186,14.828899 L7.09168186,4.16223229 C7.09168186,3.18039274 6.30818017,2.38445451 5.34168186,2.38445451 C4.37518355,2.38445451 3.59168186,3.18039274 3.59168186,4.16223229 L3.59168186,14.828899 L7.09168186,14.828899 Z" id="Rectangle" fill="#FF7020" fill-rule="nonzero"></path>
            <path d="M3.00521957,23.7856532 L3.24098988,45.7274819 L8.09651571,45.6460502 L8.00322337,23.7884122 L7.15094597,22.1520641 L7.15094597,17.5129554 C7.15094597,16.6387769 6.44228428,15.9301152 5.56810579,15.9301152 C4.69392729,15.9301152 3.9852656,16.6387769 3.9852656,17.5129554 L3.9852656,22.1897978 L3.00521957,23.7856532 Z" id="Rectangle" stroke="#FCAF5C" stroke-width="2" fill="#FEF4EA" transform="translate(5.551450, 30.837163) rotate(-180.000000) translate(-5.551450, -30.837163) "></path>
            <rect id="Rectangle" fill="#FF7020" x="0.00448813269" y="14.4152294" width="11" height="4" rx="2"></rect>
            <path d="M5.39100714,1.40129243 L5.39100714,1.40129243 C7.0490266,1.40129243 8.39423293,2.74326908 8.39821841,4.40128376 L8.42353434,14.9330627 L2.42353434,14.9330627 L2.39821841,4.40128376 C2.3942453,2.74841219 3.7309416,1.40527419 5.38381317,1.40130108 C5.38621116,1.40129531 5.38860915,1.40129243 5.39100714,1.40129243 Z" id="Rectangle" fill="#FF7020"></path>
        </g>
    </g>
</svg>