<?xml version="1.0" standalone="no"?>
<!DOCTYPE svg PUBLIC "-//W3C//DTD SVG 1.1//EN" "http://www.w3.org/Graphics/SVG/1.1/DTD/svg11.dtd">
<svg xmlns="http://www.w3.org/2000/svg">
<defs >
<font id="Righteous" horiz-adv-x="963" ><font-face
    font-family="Righteous"
    units-per-em="2048"
    panose-1="2 1 5 6 0 0 0 2 0 0"
    ascent="2017"
    descent="-526"
    alphabetic="0" />
<glyph unicode=" " glyph-name="space" horiz-adv-x="573" />
<glyph unicode="!" glyph-name="exclam" horiz-adv-x="563" d="M393 354H170L109 1434H455L393 354ZM453 102Q453 66 440 35T403 -20T349 -56T283 -70Q247 -70 216 -57T162 -20T125 34T111 102Q111 137 124 168T161 222T216 258T283 272Q318 272 349 259T403 222T439
168T453 102Z" />
<glyph unicode="&quot;" glyph-name="quotedbl" horiz-adv-x="838" d="M348 983H141L100 1434H389L348 983ZM696 983H489L449 1434H737L696 983Z" />
<glyph unicode="#" glyph-name="numbersign" horiz-adv-x="1149" d="M1024 780H895L852 627H983L924 420H793L743 231H508L559 420H432L381 231H145L199 420H68L127 627H256L299 780H168L225 987H356L410 1182H643L590 987H717L772 1182H1006L950 987H1081L1024
780ZM532 780L489 627H618L662 780H532Z" />
<glyph unicode="$" glyph-name="dollar" horiz-adv-x="938" d="M571 1163H805V944H362Q339 944 323 929T307 891Q307 868 323 852T362 836H590Q646 836 695 817T782 764T840 683T862 580Q862 523 841 473T782 387T696 329T590 307H571V0H387V307H90V524H590Q611
524 627 540T643 580Q643 603 627 609T590 616H362Q305 616 256 637T170 696T112 784T90 891Q90 947 111 996T169 1083T255 1141T362 1163H387V1434H571V1163Z" />
<glyph unicode="%" glyph-name="percent" horiz-adv-x="1403" d="M461 1096Q461 1185 436 1227T362 1270Q316 1270 291 1228T266 1096Q266 1008 291 965T362 922Q410 922 435 965T461 1096ZM651 1096Q651 996 629 927T567 814T476 752T362 733Q302 733 250 753T158
816T97 929T74 1096Q74 1196 96 1265T158 1377T249 1439T362 1458Q423 1458 475 1439T567 1376T628 1264T651 1096ZM420 0H203L991 1434H1208L420 0ZM1139 342Q1139 432 1114 474T1040 516Q994 516 969 474T944 342Q944 255 969 213T1040 170Q1088 170 1113 212T1139
342ZM1329 342Q1329 242 1307 173T1245 61T1154 -1T1040 -20Q980 -20 928 -1T836 62T775 175T752 342Q752 442 774 511T836 623T927 685T1040 705Q1101 705 1153 686T1245 623T1306 510T1329 342Z" />
<glyph unicode="&amp;" glyph-name="ampersand" horiz-adv-x="995" d="M651 1253H870V1036H446Q424 1036 405 1028T370 1004T347 970T338 928Q338 905 346 885T370 849T404 826T446 817H707V600H446Q424 600 405 592T370 568T347 534T338 492Q338 469 346 449T370
413T404 390T446 381H870V164H651V0H467V164H446Q378 164 319 189T216 259T147 363T121 492Q121 552 142 608T205 709Q163 754 142 810T121 928Q121 995 146 1054T216 1158T319 1227T446 1253H467V1436H651V1253Z" />
<glyph unicode="&apos;" glyph-name="quotesingle" horiz-adv-x="489" d="M348 983H141L100 1434H389L348 983Z" />
<glyph unicode="(" glyph-name="parenleft" horiz-adv-x="719" d="M690 -205H381Q295 -86 227 63Q198 126 171 201T122 363T87 545T74 745Q74 856 87 953T121 1133T170 1287T227 1413Q295 1544 381 1638H690Q598 1526 526 1387Q495 1328 466 1257T413 1104T376
933T362 745Q362 654 376 565T413 392T465 231T526 88Q598 -68 690 -205Z" />
<glyph unicode=")" glyph-name="parenright" horiz-adv-x="719" d="M645 745Q645 641 632 546T597 364T548 202T491 63Q423 -86 338 -205H29Q120 -68 192 88Q223 154 252 231T305 392T342 565T356 745Q356 842 342 932T305 1104T253 1256T192 1387Q120 1526 29
1638H338Q423 1544 491 1413Q520 1357 547 1287T597 1134T632 953T645 745Z" />
<glyph unicode="*" glyph-name="asterisk" horiz-adv-x="1208" d="M809 1081L1049 825L825 627L608 911L383 627L168 825L387 1079L72 1260L205 1499L459 1366V1702H745V1366L1020 1499L1135 1249L809 1081Z" />
<glyph unicode="+" glyph-name="plus" horiz-adv-x="995" d="M635 315H362V588H78V860H362V1155H635V860H918V588H635V315Z" />
<glyph unicode="," glyph-name="comma" horiz-adv-x="541" d="M440 102Q440 58 432 8T405 -92T357 -186T285 -262L176 -186Q204 -154 218 -126T240 -68Q210 -62 184 -47T139 -10T109 41T98 102Q98 137 111 168T148 222T202 258T268 272Q304 272 335 259T390 222T427
168T440 102Z" />
<glyph unicode="-" glyph-name="hyphen" horiz-adv-x="1083" d="M961 860V588H121V860H961Z" />
<glyph unicode="." glyph-name="period" horiz-adv-x="539" d="M440 102Q440 66 427 35T391 -20T337 -56T270 -70Q235 -70 204 -57T149 -20T112 34T98 102Q98 137 111 168T148 222T203 258T270 272Q306 272 337 259T391 222T427 168T440 102Z" />
<glyph unicode="/" glyph-name="slash" horiz-adv-x="1004" d="M352 0H57L651 1434H946L352 0Z" />
<glyph unicode="0" glyph-name="zero" horiz-adv-x="1315" d="M958 717Q958 956 879 1072T657 1188Q516 1188 438 1073T360 717Q360 478 438 362T657 246Q728 246 784 274T878 361T937 507T958 717ZM1231 717Q1231 513 1186 372T1063 144T881 19T657 -20Q538 -20
434 19T252 146T129 374T84 717Q84 921 129 1061T251 1289T433 1415T657 1454Q776 1454 880 1415T1063 1287T1186 1059T1231 717Z" />
<glyph unicode="1" glyph-name="one" horiz-adv-x="651" d="M508 0H221V1147H78V1434H508V0Z" />
<glyph unicode="2" glyph-name="two" horiz-adv-x="1169" d="M1092 1004Q1092 915 1058 837T966 700T829 607T662 573H518Q488 573 462 562T417 532T386 486T375 430V287H1053V0H88V430Q88 519 122 597T214 734T351 826T518 860H662Q692 860 718 871T763 901T794
947T805 1004Q805 1034 794 1060T764 1105T718 1136T662 1147H150V1434H662Q751 1434 829 1400T965 1308T1058 1171T1092 1004Z" />
<glyph unicode="3" glyph-name="three" horiz-adv-x="1202" d="M1104 430Q1104 341 1070 263T978 127T841 34T674 0H100V287H674Q704 287 730 298T775 328T806 374T817 430Q817 460 806 486T776 531T730 562T674 573H283V860H674Q704 860 730 871T775 901T806
947T817 1004Q817 1034 806 1060T776 1105T730 1136T674 1147H100V1434H674Q763 1434 841 1400T977 1308T1070 1171T1104 1004Q1104 925 1075 851T993 717Q1046 658 1075 584T1104 430Z" />
<glyph unicode="4" glyph-name="four" horiz-adv-x="1292" d="M1206 287H1063V0H776V287H59L219 1434H506L381 573H776V1290H1063V573H1206V287Z" />
<glyph unicode="5" glyph-name="five" horiz-adv-x="1200" d="M1128 451Q1128 346 1091 262T992 120T849 31T678 0H100V287H678Q707 287 736 296T789 325T827 376T842 451Q842 491 828 521T790 572T737 603T678 614H100L184 1434H1069V1147H442L416 901H678Q767
901 848 870T992 781T1091 639T1128 451Z" />
<glyph unicode="6" glyph-name="six" horiz-adv-x="1260" d="M1190 526Q1190 410 1149 307T1034 127T861 4T643 -41Q526 -41 423 4T242 126T121 307T76 526Q76 664 103 795T182 1044T309 1261T479 1434H866Q806 1395 749 1347T641 1244T545 1128T467 1001Q510
1030 560 1050T664 1071Q785 1071 882 1031T1048 918T1153 745T1190 526ZM903 526Q903 583 885 633T832 722T750 783T643 805Q584 805 536 783T455 723T403 634T385 526Q385 471 403 421T456 331T537 269T643 246Q702 246 750 268T832 328T884 418T903 526Z" />
<glyph unicode="7" glyph-name="seven" horiz-adv-x="1057" d="M1053 1434L563 0H256L659 1147H49V1434H1053Z" />
<glyph unicode="8" glyph-name="eight" horiz-adv-x="1266" d="M1194 410Q1194 313 1150 231T1030 90T851 -3T633 -37Q517 -37 415 -4T237 89T116 231T72 410Q72 466 87 519T130 620T199 706T289 774Q258 801 234 836T192 910T165 990T156 1073Q156 1157 193 1230T296
1359T448 1447T633 1479Q732 1479 819 1447T971 1360T1074 1231T1112 1073Q1112 1032 1103 991T1076 910T1035 835T979 772Q1028 744 1068 705T1136 619T1179 519T1194 410ZM831 1042Q831 1077 816 1107T774 1161T711 1197T635 1210Q594 1210 558 1197T496 1161T454
1108T438 1042Q438 1007 453 977T495 925T558 890T635 877Q675 877 711 890T773 925T815 977T831 1042ZM909 418Q909 466 888 507T829 580T741 629T633 647Q576 647 526 629T439 580T380 508T358 418Q358 370 379 330T438 261T526 216T633 199Q690 199 740 215T828
261T887 330T909 418Z" />
<glyph unicode="9" glyph-name="nine" horiz-adv-x="1262" d="M1184 907Q1184 769 1157 638T1077 389T950 173T780 0H393Q454 39 511 87T619 190T715 306T793 432Q749 403 699 383T596 362Q474 362 377 402T212 515T107 688T70 907Q70 1023 111 1126T226 1307T399
1430T616 1475Q734 1475 837 1430T1018 1308T1139 1127T1184 907ZM877 907Q877 962 858 1013T805 1103T722 1165T616 1188Q557 1188 510 1166T428 1105T376 1016T358 907Q358 850 376 800T428 711T509 651T616 629Q675 629 723 651T806 711T858 799T877 907Z" />
<glyph unicode=":" glyph-name="colon" horiz-adv-x="567" d="M455 676Q455 640 442 609T405 554T351 518T285 504Q249 504 218 517T164 554T127 608T113 676Q113 710 126 741T163 795T218 832T285 846Q320 846 351 833T405 796T441 741T455 676ZM455 102Q455
66 442 35T405 -20T351 -56T285 -70Q249 -70 218 -57T164 -20T127 34T113 102Q113 137 126 168T163 222T218 258T285 272Q320 272 351 259T405 222T441 168T455 102Z" />
<glyph unicode=";" glyph-name="semicolon" horiz-adv-x="567" d="M455 676Q455 640 442 609T405 554T351 518T285 504Q249 504 218 517T164 554T127 608T113 676Q113 710 126 741T163 795T218 832T285 846Q320 846 351 833T405 796T441 741T455 676ZM455 102Q455
58 447 8T420 -92T371 -186T299 -262L190 -186Q218 -154 232 -126T254 -68Q224 -62 198 -47T154 -10T124 41T113 102Q113 137 126 168T163 222T217 258T283 272Q319 272 350 259T405 222T441 168T455 102Z" />
<glyph unicode="&lt;" glyph-name="less" horiz-adv-x="979" d="M469 780L877 410L678 188L61 768L664 1395L879 1192L469 780Z" />
<glyph unicode="=" glyph-name="equal" horiz-adv-x="1104" d="M971 1065V793H131V1065H971ZM971 655V383H131V655H971Z" />
<glyph unicode="&gt;" glyph-name="greater" horiz-adv-x="979" d="M100 1192L315 1395L918 768L301 188L102 410L510 780L100 1192Z" />
<glyph unicode="?" glyph-name="question" horiz-adv-x="1235" d="M1167 1004Q1167 915 1134 837T1042 700T905 607T737 573Q706 573 683 562T644 532T620 486T612 430V354H326V434Q327 522 357 600T442 735T572 826T737 860Q767 860 793 871T838 901T869 947T881
1004Q881 1034 870 1060T839 1105T793 1136T737 1147H80V1434H737Q826 1434 904 1400T1041 1308T1133 1171T1167 1004ZM641 102Q641 66 628 35T591 -20T537 -56T471 -70Q436 -70 405 -57T350 -20T313 34T299 102Q299 137 312 168T349 222T404 258T471 272Q506 272
537 259T591 222T627 168T641 102Z" />
<glyph unicode="@" glyph-name="at" horiz-adv-x="1290" d="M1032 532Q1032 611 1002 681T920 803T799 885T651 915Q572 915 503 885T382 803T300 681T270 532Q270 454 300 385T381 264T502 182T651 152Q674 152 700 155T764 170L809 -16Q761 -29 724 -34T651
-39Q535 -39 431 7T249 131T124 313T78 532Q78 656 121 761T241 943T423 1063T651 1106Q773 1106 878 1063T1059 942T1179 760T1223 532Q1223 466 1208 408T1157 281H715V297Q692 285 670 281T633 276Q576 276 530 294T450 347T399 427T381 530Q381 587 398 634T449
715T528 767T633 786Q648 786 670 782T715 766V811H901V444H1022Q1028 467 1030 488T1032 532ZM565 530Q565 496 585 477T641 457Q675 457 695 476T715 530Q715 566 695 586T641 606Q606 606 586 586T565 530Z" />
<glyph unicode="A" glyph-name="A" horiz-adv-x="1380" d="M977 573V860Q977 919 955 971T893 1063T802 1124T690 1147Q631 1147 579 1125T487 1063T426 972T403 860V573H977ZM1264 0H977V287H403V0H117V860Q117 979 162 1083T284 1266T466 1389T690 1434Q809
1434 913 1389T1096 1266T1219 1084T1264 860V0Z" />
<glyph unicode="B" glyph-name="B" horiz-adv-x="1364" d="M1280 430Q1280 341 1246 263T1154 127T1017 34T850 0H133V1434H850Q939 1434 1017 1400T1153 1308T1246 1171T1280 1004Q1280 964 1269 922T1238 841T1190 770T1128 717Q1163 698 1191 666T1239 594T1269
513T1280 430ZM420 287H850Q880 287 906 298T951 328T982 374T993 430Q993 460 982 486T952 531T906 562T850 573H420V287ZM420 860H850Q880 860 906 871T951 901T982 947T993 1004Q993 1034 982 1060T952 1105T906 1136T850 1147H420V860Z" />
<glyph unicode="C" glyph-name="C" horiz-adv-x="1311" d="M1278 147Q1178 61 1054 15T797 -31Q695 -31 601 -5T424 70T273 187T157 337T82 514T55 711Q55 813 81 908T156 1085T273 1236T423 1352T600 1427T797 1454Q930 1454 1054 1409T1278 1276L1126 1026Q1063
1094 977 1130T797 1167Q702 1167 619 1131T474 1034T376 889T340 711Q340 617 376 535T474 390T619 292T797 256Q891 256 977 292T1126 397L1278 147Z" />
<glyph unicode="D" glyph-name="D" horiz-adv-x="1339" d="M1282 717Q1282 618 1257 527T1184 356T1072 211T927 98T756 26T565 0H133V1434H565Q664 1434 755 1409T927 1336T1072 1224T1184 1079T1256 908T1282 717ZM995 717Q995 806 962 884T870 1020T733 1113T565
1147H422V287H565Q654 287 732 320T869 412T961 549T995 717Z" />
<glyph unicode="E" glyph-name="E" horiz-adv-x="1184" d="M1116 0H133V1434H1116V1147H420V860H891V573H420V287H1116V0Z" />
<glyph unicode="F" glyph-name="F" horiz-adv-x="1151" d="M420 0H133V1434H1137V1147H420V860H850V573H420V0Z" />
<glyph unicode="G" glyph-name="G" horiz-adv-x="1362" d="M1274 145Q1174 60 1051 15T795 -31Q693 -31 599 -5T422 70T272 186T156 336T82 514T55 711Q55 813 81 907T156 1083T272 1233T422 1349T598 1423T795 1450Q928 1450 1051 1405T1274 1274L1124 1024Q1059
1090 974 1127T795 1165Q701 1165 619 1129T474 1032T376 888T340 711Q340 616 376 533T474 388T618 290T795 254Q849 254 900 267T997 303V711H1274V145Z" />
<glyph unicode="H" glyph-name="H" horiz-adv-x="1413" d="M420 0H133V1434H420V860H993V1434H1280V0H993V573H420V0Z" />
<glyph unicode="I" glyph-name="I" horiz-adv-x="553" d="M420 0H133V1434H420V0Z" />
<glyph unicode="J" glyph-name="J" horiz-adv-x="854" d="M737 573Q737 454 692 350T570 168T388 45T164 0Q92 0 20 18V326Q52 307 89 297T164 287Q223 287 275 309T367 371T428 462T451 573V1434H737V573Z" />
<glyph unicode="K" glyph-name="K" horiz-adv-x="1280" d="M420 0H133V1434H420V717L954 1434H1280L827 829L1280 0H954L639 580L420 287V0Z" />
<glyph unicode="L" glyph-name="L" horiz-adv-x="1153" d="M1137 0H133V1434H420V287H1137V0Z" />
<glyph unicode="M" glyph-name="M" horiz-adv-x="1679" d="M1556 0H1270V1024Q1270 1054 1259 1080T1228 1125T1182 1156T1126 1167Q1096 1167 1070 1156T1025 1126T994 1080T983 1024V0H696V1024Q696 1054 685 1080T655 1125T609 1156T553 1167Q523 1167 497
1156T452 1126T421 1080T410 1024V0H123V1024Q123 1113 156 1191T248 1328T385 1420T553 1454Q633 1454 707 1426T840 1343Q899 1397 972 1425T1126 1454Q1215 1454 1293 1421T1430 1329T1522 1192T1556 1024V0Z" />
<glyph unicode="N" glyph-name="N" horiz-adv-x="1413" d="M1280 0H973L420 944V0H133V1434H440L993 489V1434H1280V0Z" />
<glyph unicode="O" glyph-name="O" horiz-adv-x="1593" d="M1538 711Q1538 609 1512 515T1437 338T1321 187T1171 71T994 -4T797 -31Q695 -31 601 -5T424 70T273 187T157 337T82 514T55 711Q55 813 81 908T156 1085T273 1235T423 1351T600 1425T797 1452Q899 1452
994 1426T1171 1351T1321 1235T1437 1085T1511 908T1538 711ZM1253 711Q1253 805 1217 888T1120 1033T975 1131T797 1167Q702 1167 619 1131T474 1034T376 889T340 711Q340 617 376 535T474 390T619 292T797 256Q891 256 974 292T1119 390T1217 534T1253 711Z"
/>
<glyph unicode="P" glyph-name="P" horiz-adv-x="1315" d="M420 1147V573H707Q766 573 818 595T909 657T970 748T993 860Q993 919 971 971T909 1063T818 1124T707 1147H420ZM420 0H133V1434H707Q786 1434 859 1414T995 1356T1111 1266T1201 1149T1259 1012T1280
860Q1280 742 1235 638T1112 455T930 332T707 287H420V0Z" />
<glyph unicode="Q" glyph-name="Q" horiz-adv-x="1593" d="M1346 -287H1020L848 -29Q834 -31 822 -31T797 -31Q695 -31 601 -5T424 70T273 187T157 337T82 514T55 711Q55 813 81 908T156 1085T273 1235T423 1351T600 1425T797 1452Q899 1452 994 1426T1171 1351T1321
1235T1437 1085T1511 908T1538 711Q1538 605 1509 505T1425 319T1295 162T1124 45L1346 -287ZM1253 711Q1253 805 1217 888T1120 1033T975 1131T797 1167Q702 1167 619 1131T474 1034T376 889T340 711Q340 617 376 535T474 390T619 292T797 256Q891 256 974 292T1119
390T1217 534T1253 711Z" />
<glyph unicode="R" glyph-name="R" horiz-adv-x="1335" d="M420 1147V573H707Q766 573 818 595T909 657T970 748T993 860Q993 919 971 971T909 1063T818 1124T707 1147H420ZM420 0H133V1434H707Q786 1434 859 1414T995 1356T1111 1266T1201 1149T1259 1012T1280
860Q1280 786 1262 716T1209 583T1124 467T1012 375L1171 0H866L741 289L420 287V0Z" />
<glyph unicode="S" glyph-name="S" horiz-adv-x="1251" d="M49 1004Q49 1093 83 1171T175 1307T312 1400T479 1434H1137V1147H479Q449 1147 423 1136T378 1106T347 1060T336 1004Q336 974 347 948T377 902T423 871T479 860H766Q855 860 933 827T1070 735T1162
598T1196 430Q1196 341 1163 263T1071 127T934 34T766 0H129V287H766Q796 287 822 298T867 328T898 374T909 430Q909 460 898 486T868 531T822 562T766 573H479Q390 573 312 607T176 699T83 836T49 1004Z" />
<glyph unicode="T" glyph-name="T" horiz-adv-x="1184" d="M735 0H449V1147H18V1434H1165V1147H735V0Z" />
<glyph unicode="U" glyph-name="U" horiz-adv-x="1380" d="M1264 573Q1264 454 1219 350T1096 168T914 45T690 0Q571 0 467 45T285 167T162 349T117 573V1434H403V573Q403 514 425 462T487 371T578 310T690 287Q749 287 801 309T893 371T954 462T977 573V1434H1264V573Z" />
<glyph unicode="V" glyph-name="V" horiz-adv-x="1233" d="M1229 1434L758 0H471L2 1434H328L614 477L901 1434H1229Z" />
<glyph unicode="W" glyph-name="W" horiz-adv-x="1679" d="M1556 410Q1556 321 1523 243T1431 106T1294 14T1126 -20Q1046 -20 973 8T840 90Q781 36 707 8T553 -20Q464 -20 386 13T249 105T157 242T123 410V1434H410V410Q410 380 421 354T451 308T497 277T553
266Q583 266 609 277T654 307T685 353T696 410V1434H983V410Q983 380 994 354T1024 308T1070 277T1126 266Q1156 266 1182 277T1227 307T1258 353T1270 410V1434H1556V410Z" />
<glyph unicode="X" glyph-name="X" horiz-adv-x="1247" d="M1247 0H899L623 463L346 0H0L440 717L0 1434H346L623 971L899 1434H1247L807 717L1247 0Z" />
<glyph unicode="Y" glyph-name="Y" horiz-adv-x="1270" d="M778 0H492V449Q397 473 318 526T181 652T93 815T61 1004V1434H348V1004Q348 945 370 893T432 801T523 740T635 717Q694 717 746 739T838 801T899 892T922 1004V1434H1208V1004Q1208 905 1177 816T1088
653T952 526T778 449V0Z" />
<glyph unicode="Z" glyph-name="Z" horiz-adv-x="1202" d="M1157 0H47L659 1147H47V1434H1157L547 287H1157V0Z" />
<glyph unicode="[" glyph-name="bracketleft" horiz-adv-x="780" d="M418 82H705V-205H129V1638H705V1352H418V82Z" />
<glyph unicode="\" glyph-name="backslash" horiz-adv-x="1004" d="M946 0H651L57 1434H352L946 0Z" />
<glyph unicode="]" glyph-name="bracketright" horiz-adv-x="780" d="M651 -205H76V82H362V1352H76V1638H651V-205Z" />
<glyph unicode="^" glyph-name="asciicircum" horiz-adv-x="602" d="M0 1155L297 1436L602 1155L477 997L301 1157L135 1001L0 1155Z" />
<glyph unicode="_" glyph-name="underscore" horiz-adv-x="1225" d="M1032 -205V-477H193V-205H1032Z" />
<glyph unicode="`" glyph-name="grave" horiz-adv-x="461" d="M350 1006L0 1223L166 1432L461 1155L350 1006Z" />
<glyph unicode="a" glyph-name="a" horiz-adv-x="1245" d="M1141 0H1075L969 147Q930 112 887 82T795 29T697 -7T594 -20Q481 -20 382 18T208 128T90 306T47 545Q47 670 90 774T207 954T381 1070T594 1112Q646 1112 697 1099T796 1063T887 1009T969 942L1075 1069H1141V0ZM866
545Q866 601 845 653T786 746T700 811T594 836Q538 836 489 817T403 761T345 670T324 545Q324 475 345 421T402 329T488 273T594 254Q650 254 699 278T786 343T844 436T866 545Z" />
<glyph unicode="b" glyph-name="b" horiz-adv-x="1223" d="M1176 545Q1176 419 1133 315T1016 137T843 21T629 -20Q516 -20 417 22T243 139T125 317T82 545V1497H356V997Q378 1025 409 1047T477 1083T553 1104T629 1112Q743 1112 842 1070T1016 951T1133 772T1176
545ZM901 545Q901 607 880 660T821 753T735 814T629 836Q573 836 524 812T437 747T379 654T358 545Q358 483 379 430T437 338T523 277T629 254Q685 254 734 276T821 338T879 430T901 545Z" />
<glyph unicode="c" glyph-name="c" horiz-adv-x="1069" d="M1040 858L840 657Q825 699 799 732T741 789T670 824T592 836Q536 836 487 813T401 749T343 650T322 524Q322 468 343 419T400 333T486 275T592 254Q632 254 669 265T738 296T796 346T838 412L1038 211Q1000
157 951 114T844 41T723 -4T592 -20Q479 -20 380 22T206 139T88 312T45 524Q45 647 88 754T205 940T379 1066T592 1112Q659 1112 723 1095T846 1046T954 966T1040 858Z" />
<glyph unicode="d" glyph-name="d" horiz-adv-x="1243" d="M1139 0H1073L967 147Q928 112 885 82T793 29T695 -7T592 -20Q479 -20 380 22T206 140T88 319T45 545Q45 666 88 770T205 950T379 1069T592 1112Q628 1112 666 1106T741 1087T810 1051T864 997V1497H1139V0ZM864
545Q864 601 843 653T784 746T698 811T592 836Q536 836 487 816T401 759T343 667T322 545Q322 486 343 433T400 340T486 277T592 254Q648 254 697 278T784 343T842 436T864 545Z" />
<glyph unicode="e" glyph-name="e" horiz-adv-x="1075" d="M530 262Q546 257 562 256T594 254Q634 254 671 265T740 296T798 346T840 412L1040 211Q1002 157 953 114T846 41T725 -4T594 -20Q481 -20 382 22T208 139T90 317T47 545Q47 672 90 777T207 956T381 1071T594
1112Q661 1112 725 1096T846 1050T954 977T1042 879L530 262ZM670 825Q651 832 633 834T594 836Q538 836 489 816T403 757T345 666T324 545Q324 530 325 511T330 473T339 435T352 403L670 825Z" />
<glyph unicode="f" glyph-name="f" horiz-adv-x="811" d="M451 0H178V799H45V1071H178V1122Q178 1221 215 1308T318 1459T471 1561T657 1599H862V1327H657Q613 1327 576 1312T511 1269T467 1204T451 1122V1071H786V799H451V0Z" />
<glyph unicode="g" glyph-name="g" horiz-adv-x="1245" d="M866 545Q866 601 845 653T786 746T700 811T594 836Q538 836 489 817T403 761T345 670T324 545Q324 478 345 425T402 333T488 275T594 254Q650 254 699 278T786 343T844 436T866 545ZM1141 135Q1141 22
1098 -77T981 -250T807 -367T594 -410L457 -408V-135L592 -137Q656 -137 701 -121T777 -76T826 -10T856 68Q840 42 810 26T744 -1T668 -16T594 -20Q481 -20 382 19T208 130T90 308T47 545Q47 666 90 770T207 950T381 1069T594 1112Q646 1112 697 1099T796 1063T887
1009T969 942L1075 1069H1141V135Z" />
<glyph unicode="h" glyph-name="h" horiz-adv-x="1151" d="M377 0H104V1497H377V1024Q426 1061 478 1076T584 1092Q683 1092 770 1055T921 952T1023 799T1061 612V0H786V612H788Q788 654 772 691T728 757T663 801T584 817Q541 817 503 801T437 757T393 692T377 612V0Z" />
<glyph unicode="i" glyph-name="i" horiz-adv-x="483" d="M426 1362Q426 1324 412 1291T372 1234T314 1195T242 1180Q204 1180 171 1194T113 1233T74 1291T59 1362Q59 1399 73 1432T112 1490T170 1529T242 1544Q280 1544 313 1530T372 1491T411 1433T426 1362ZM379
0H104V1071H379V0Z" />
<glyph unicode="j" glyph-name="j" horiz-adv-x="487" d="M430 1362Q430 1324 416 1291T377 1234T319 1195T248 1180Q209 1180 176 1194T117 1233T78 1291T63 1362Q63 1399 77 1432T117 1490T175 1529T248 1544Q285 1544 318 1530T376 1491T415 1433T430 1362ZM-303
-408V-133L-152 -135Q-97 -135 -50 -113T31 -53T86 34T106 137V1071H385V137H383Q382 62 363 -8T307 -138T221 -248T111 -333T-19 -388T-164 -408H-303Z" />
<glyph unicode="k" glyph-name="k" horiz-adv-x="1104" d="M379 0H104V1497H379V553L786 1069H1100L745 623L1100 0H786L569 389L379 137V0Z" />
<glyph unicode="l" glyph-name="l" horiz-adv-x="483" d="M379 0H104V1497H379V0Z" />
<glyph unicode="m" glyph-name="m" horiz-adv-x="1561" d="M1466 0H1194V680Q1194 708 1184 733T1154 777T1110 806T1057 817Q1029 817 1005 807T962 777T933 733T922 680V0H649V680Q649 708 639 733T609 777T565 806T512 817Q484 817 460 807T417 777T388 733T377
680V0H104V1071H170L244 989Q301 1037 369 1063T512 1090Q587 1090 658 1062T784 965Q809 999 841 1023T908 1062T982 1083T1057 1090Q1142 1090 1216 1058T1346 971T1434 840T1466 680V0Z" />
<glyph unicode="n" glyph-name="n" horiz-adv-x="1151" d="M377 0H104V1071H170L260 967Q326 1027 409 1059T584 1092Q682 1092 769 1055T921 952T1023 799T1061 612V0H788V612Q788 654 772 691T728 757T663 801T584 817Q541 817 503 801T437 757T393 692T377 612V0Z" />
<glyph unicode="o" glyph-name="o" horiz-adv-x="1186" d="M1139 545Q1139 425 1096 322T979 143T806 24T592 -20Q479 -20 380 23T206 142T88 321T45 545Q45 667 88 771T205 950T379 1069T592 1112Q706 1112 805 1072T979 957T1096 778T1139 545ZM864 545Q864
611 843 664T784 756T698 815T592 836Q536 836 487 816T401 757T343 665T322 545Q322 483 343 430T400 338T486 277T592 254Q648 254 697 275T784 334T842 426T864 545Z" />
<glyph unicode="p" glyph-name="p" horiz-adv-x="1247" d="M379 -408H104V1071H170L279 942Q316 977 360 1008T451 1061T550 1097T653 1110Q766 1110 865 1070T1039 955T1157 777T1200 545Q1200 413 1157 308T1040 129T866 16T653 -23Q617 -23 582 -15T512 6T444
37T379 72V-408ZM926 545Q926 613 905 667T846 758T759 816T653 836Q597 836 548 816T461 759T403 667T381 545Q381 480 402 426T461 334T547 275T653 254Q709 254 759 275T846 334T904 426T926 545Z" />
<glyph unicode="q" glyph-name="q" horiz-adv-x="1245" d="M1141 -408H866V72Q835 54 803 37T736 7T666 -15T594 -23Q481 -23 382 18T208 135T90 314T47 545Q47 672 90 776T207 955T381 1069T594 1110Q646 1110 696 1097T795 1062T886 1008T969 942L1075 1069H1141V-408ZM866
545Q866 601 845 653T786 746T700 811T594 836Q538 836 489 816T403 757T345 666T324 545Q324 476 345 422T402 330T488 274T594 254Q650 254 699 278T786 343T844 436T866 545Z" />
<glyph unicode="r" glyph-name="r" horiz-adv-x="848" d="M377 0H104V1071H170L260 944Q326 1004 410 1036T584 1069H825V797H584Q541 797 503 781T437 737T393 671T377 590V0Z" />
<glyph unicode="s" glyph-name="s" horiz-adv-x="1073" d="M692 0H68V272H692Q720 272 740 292T760 340Q760 369 740 378T692 387H408Q337 387 275 414T167 487T95 596T68 729Q68 800 94 862T167 970T275 1042T408 1069H961V797H408Q380 797 360 777T340 729Q340
700 360 680T408 659H692Q762 659 824 636T932 570T1005 469T1032 340Q1032 269 1005 208T932 100T824 27T692 0Z" />
<glyph unicode="t" glyph-name="t" horiz-adv-x="897" d="M641 0Q542 0 455 37T303 140T200 293T162 479V797H29V1069H162V1497H434V1069H848V797H434V479Q434 436 450 399T494 333T560 289T641 272H848V0H641Z" />
<glyph unicode="u" glyph-name="u" horiz-adv-x="1151" d="M891 125Q858 95 821 69T742 23T658 -8T569 -20Q470 -20 383 15T231 114T128 271T90 479V1071H362V479Q362 425 378 383T423 311T488 267T569 252Q611 252 648 271T714 323T758 395T774 479V1071H1047V0H981L891
125Z" />
<glyph unicode="v" glyph-name="v" horiz-adv-x="1090" d="M408 0L0 1071H311L545 403L778 1071H1090L682 0H408Z" />
<glyph unicode="w" glyph-name="w" horiz-adv-x="1550" d="M1456 387Q1456 303 1424 229T1337 99T1207 12T1047 -20Q971 -20 901 6T774 84Q718 33 649 7T502 -20Q417 -20 343 12T214 99T126 228T94 387V1069H367V387Q367 359 377 335T406 292T449 263T502 252Q530
252 555 262T599 291T628 334T639 387V1069H911V387Q911 359 922 335T951 292T994 263T1047 252Q1075 252 1100 262T1143 291T1173 334T1184 387V1069H1456V387Z" />
<glyph unicode="x" glyph-name="x" horiz-adv-x="1083" d="M1090 0H756L543 328L328 0H-6L385 549L-6 1077H328L543 770L756 1077H1090L698 549L1090 0Z" />
<glyph unicode="y" glyph-name="y" horiz-adv-x="1153" d="M362 -408V-133L514 -135Q554 -135 591 -122T659 -86T715 -32T754 37Q709 18 663 -1T569 -20Q470 -20 383 15T231 114T128 271T90 479V1071H362V479Q362 422 378 380T423 309T488 266T569 252Q611 252
648 271T714 323T758 395T774 479V1071H1049V135Q1048 22 1005 -77T888 -250T714 -367T502 -410L362 -408Z" />
<glyph unicode="z" glyph-name="z" horiz-adv-x="987" d="M940 0H47L498 797H47V1069H940L489 272H940V0Z" />
<glyph unicode="{" glyph-name="braceleft" horiz-adv-x="956" d="M39 872H190Q233 872 256 891T291 935Q303 963 305 999V1352Q305 1413 328 1465T390 1556T482 1616T594 1638H881V1352H594V993Q594 956 587 925T568 869T541 823T510 787Q473 750 426 729Q473
709 510 670Q526 653 541 631T568 581T587 517T594 438V82H881V-205H594Q538 -205 486 -183T393 -123T329 -32T305 82V438Q306 493 289 523T249 567Q223 583 190 586H39V872Z" />
<glyph unicode="|" glyph-name="bar" horiz-adv-x="547" d="M418 -205H129V1638H418V-205Z" />
<glyph unicode="}" glyph-name="braceright" horiz-adv-x="956" d="M918 586H766Q733 583 707 567Q696 560 686 550T667 524T655 487T651 438V82Q651 21 627 -31T563 -122T471 -183T362 -205H76V82H362V438Q362 481 369 516T388 580T415 631T446 670Q483 709 530
729Q483 750 446 787Q430 802 415 822T388 868T369 925T362 993V1352H76V1638H362Q421 1638 473 1617T565 1557T628 1466T651 1352V999Q653 963 665 935Q676 911 699 892T766 872H918V586Z" />
<glyph unicode="~" glyph-name="asciitilde" horiz-adv-x="924" d="M803 946Q810 926 815 903Q820 883 823 858T827 805Q827 749 811 706T767 632T700 585T616 569Q566 569 531 591T469 639T419 687T369 709Q347 709 335 690T322 651Q322 630 329 610T348 569L141
561Q130 582 121 608Q113 631 108 662T102 731Q102 779 117 818T162 884T232 925T324 940Q366 940 396 930T449 904T488 871T519 837T546 812T578 801Q596 801 606 817T616 858Q616 874 611 889T598 918L803 946Z" />
<glyph unicode="&#xa0;" glyph-name="nbspace" horiz-adv-x="573" />
<glyph unicode="&#xa1;" glyph-name="exclamdown" horiz-adv-x="563" d="M170 791H393L455 -289H109L170 791ZM111 1042Q111 1078 124 1109T160 1164T214 1201T281 1214Q316 1214 347 1201T402 1165T439 1110T453 1042Q453 1007 440 977T403 923T348 886T281 872Q245
872 214 885T160 922T124 976T111 1042Z" />
<glyph unicode="&#xa2;" glyph-name="cent" horiz-adv-x="948" d="M608 1186Q690 1167 760 1118T877 993L715 834Q703 868 683 894T636 938T580 965T518 975Q473 975 433 957T364 905T318 827T301 727Q301 682 318 642T364 573T433 527T518 510Q581 510 635 544T715
637L874 475Q825 407 757 362T608 299V0H424V301Q350 317 287 356T178 451T106 578T80 727Q80 812 106 888T178 1024T287 1127T424 1186V1436H608V1186Z" />
<glyph unicode="&#xa3;" glyph-name="sterling" horiz-adv-x="1395" d="M1327 430Q1327 341 1294 263T1202 127T1065 34T897 0H260V547H94V819H260V1004Q260 1093 294 1171T386 1307T523 1400T690 1434H811V1147H690Q660 1147 634 1136T589 1106T558 1060T547
1004V819H748V547H547V287H897Q927 287 953 298T998 328T1029 374T1040 430H1327Z" />
<glyph unicode="&#xa4;" glyph-name="currency" horiz-adv-x="930" d="M627 690Q627 729 614 761T579 816T527 851T463 864Q429 864 400 852T348 817T314 762T301 690Q301 653 313 621T348 565T399 528T463 514Q497 514 526 527T578 563T614 618T627 690ZM791
690Q791 604 754 530L872 414L741 283L629 395Q592 374 550 362T463 350Q416 350 374 362T295 395L186 287L57 418L170 532Q135 605 135 690Q135 734 144 774T172 850L51 973L182 1104L299 985Q334 1007 376 1018T463 1030Q553 1030 627 989L748 1110L879 977L754
854Q791 782 791 690Z" />
<glyph unicode="&#xa5;" glyph-name="yen" horiz-adv-x="1339" d="M383 532Q312 566 258 617T168 730T114 862T96 1004V1434H383V1004Q383 945 405 893T467 801T558 740T670 717Q729 717 781 739T872 801T933 892T956 1004V1434H1243V1004Q1243 932 1224 860T1167
724T1077 610T954 532H1192V260H813V0H526V260H147V532H383Z" />
<glyph unicode="&#xa6;" glyph-name="brokenbar" horiz-adv-x="551" d="M420 -205H131V614H420V-205ZM420 819H131V1638H420V819Z" />
<glyph unicode="&#xa7;" glyph-name="section" horiz-adv-x="1167" d="M993 1434V1161H451Q423 1161 403 1148T383 1106Q383 1080 398 1070T436 1057H735Q806 1057 868 1030T976 957T1048 848T1075 715Q1075 659 1058 610T1012 518Q1075 437 1075 328Q1075 257
1048 197T975 92T867 23T735 -2H111V270H735Q763 270 783 283T803 324Q803 353 783 364T735 375H451Q380 375 318 402T210 475T138 584T111 717Q111 773 127 822T172 913Q143 952 127 1000T111 1104Q111 1174 138 1234T211 1339T319 1409T451 1434H993ZM735 647Q763
647 783 667T803 715Q803 728 799 740T786 762T766 778T743 784H442Q418 784 401 763T383 717Q383 688 403 668T451 647H735Z" />
<glyph unicode="&#xa8;" glyph-name="dieresis" horiz-adv-x="616" d="M616 1210Q616 1184 607 1161T581 1121T542 1093T494 1083Q468 1083 445 1093T404 1120T377 1161T367 1210Q367 1235 377 1258T404 1298T444 1325T494 1335Q519 1335 541 1325T580 1298T606
1258T616 1210ZM256 1212Q256 1185 246 1162T219 1121T178 1093T129 1083Q103 1083 80 1093T39 1120T11 1161T0 1212Q0 1238 10 1261T38 1301T79 1329T129 1339Q155 1339 178 1329T218 1302T246 1261T256 1212Z" />
<glyph unicode="&#xa9;" glyph-name="copyright" horiz-adv-x="1343" d="M905 440Q857 398 798 376T676 354Q602 354 537 382T424 459T347 573T319 711Q319 784 347 849T423 962T537 1039T676 1067Q739 1067 798 1045T905 983L834 862Q803 894 762 912T676 930Q630
930 590 913T519 866T472 796T455 711Q455 666 472 626T519 556T589 509T676 492Q721 492 762 509T834 559L905 440ZM1253 717Q1253 597 1208 491T1083 306T898 181T672 135Q552 135 446 181T261 306T136 491T90 717Q90 837 136 943T261 1128T446 1252T672 1298Q792
1298 898 1253T1083 1128T1207 943T1253 717ZM1110 715Q1110 805 1076 885T982 1024T842 1118T672 1153Q581 1153 501 1119T362 1025T268 885T233 715Q233 625 267 546T361 407T501 314T672 279Q762 279 842 313T981 407T1075 545T1110 715Z" />
<glyph unicode="&#xaa;" glyph-name="ordfeminine" horiz-adv-x="924" d="M772 793H733L670 881Q623 839 565 810T444 780Q376 780 317 803T213 869T143 976T117 1120Q117 1195 143 1257T213 1365T316 1435T444 1460Q507 1460 566 1431T670 1358L733 1434H772V793ZM608
1120Q608 1153 595 1184T560 1240T508 1279T444 1294Q410 1294 381 1283T330 1249T296 1195T283 1120Q283 1078 295 1045T329 990T380 956T444 944Q478 944 508 959T560 998T595 1054T608 1120ZM774 645V485H117V645H774Z" />
<glyph unicode="&#xab;" glyph-name="guillemotleft" horiz-adv-x="1442" d="M397 520L743 205L573 16L49 510L561 1042L745 870L397 520ZM1012 520L1358 205L1188 16L664 510L1176 1042L1360 870L1012 520Z" />
<glyph unicode="&#xac;" glyph-name="logicalnot" horiz-adv-x="1085" d="M961 860L958 387H686V588H121V860H961Z" />
<glyph unicode="&#xad;" glyph-name="uni00AD" horiz-adv-x="858" d="M737 860V588H123V860H737Z" />
<glyph unicode="&#xae;" glyph-name="registered" horiz-adv-x="901" d="M381 1206V1028H469Q506 1028 532 1054T559 1118Q559 1136 552 1152T533 1180T504 1199T469 1206H381ZM381 854H293V1292H469Q505 1292 537 1279T593 1241T631 1186T645 1118Q645 1072 623
1032T563 969L610 854H520L479 942L381 940V854ZM823 1073Q823 996 794 928T715 810T596 730T451 700Q374 700 306 729T188 809T108 928T78 1073Q78 1151 107 1219T187 1337T306 1417T451 1446Q528 1446 596 1417T714 1338T794 1219T823 1073ZM731 1071Q731 1129
709 1180T649 1270T559 1330T451 1352Q393 1352 342 1330T253 1270T192 1181T170 1071Q170 1014 192 964T252 875T342 815T451 793Q508 793 559 815T648 875T709 963T731 1071Z" />
<glyph unicode="&#xaf;" glyph-name="overscore" horiz-adv-x="506" d="M0 1096V1307H506V1096H0Z" />
<glyph unicode="&#xb0;" glyph-name="degree" horiz-adv-x="782" d="M709 1083Q709 1018 684 960T616 859T514 791T391 766Q325 766 267 791T167 859T99 960T74 1083Q74 1149 99 1207T166 1308T267 1376T391 1401Q456 1401 514 1376T615 1308T684 1207T709 1083ZM494
1083Q494 1105 486 1124T463 1157T430 1179T389 1188Q368 1188 349 1180T316 1157T293 1124T285 1083Q285 1062 293 1043T315 1010T349 987T389 979Q410 979 429 987T463 1009T485 1043T494 1083Z" />
<glyph unicode="&#xb1;" glyph-name="plusminus" horiz-adv-x="1057" d="M666 377H393V588H109V860H393V1094H666V860H948V588H666V377ZM948 274V2H109V274H948Z" />
<glyph unicode="&#xb2;" glyph-name="twosuperior" horiz-adv-x="729" d="M625 1212Q625 1164 608 1123T560 1051T487 1004T397 987H334Q323 987 314 978T305 958V928H608V731H109V958Q109 1005 126 1046T174 1118T246 1166T334 1184H397Q411 1184 419 1192T428
1212Q428 1223 420 1231T397 1239H137V1436H397Q445 1436 487 1419T559 1371T607 1300T625 1212Z" />
<glyph unicode="&#xb3;" glyph-name="threesuperior" horiz-adv-x="727" d="M633 956Q633 908 616 867T568 795T496 747T406 729H117V926H406Q420 926 428 934T436 956Q436 967 428 976T406 985H197V1182H406Q420 1182 428 1190T436 1210Q436 1221 428 1229T406
1237H117V1434H406Q454 1434 495 1417T567 1369T615 1298T633 1210Q633 1175 625 1142T594 1081Q614 1052 623 1021T633 956Z" />
<glyph unicode="&#xb4;" glyph-name="acute" horiz-adv-x="461" d="M113 1006L0 1155L297 1432L461 1223L113 1006Z" />
<glyph unicode="&#xb5;" glyph-name="mu" horiz-adv-x="1171" d="M397 479Q397 425 413 383T457 311T523 267T604 252Q646 252 683 271T749 323T793 395T809 479V1071H1081V0H1016L926 125Q893 95 856 69T777 23T693 -8T604 -20Q539 -20 479 -5T367 39L338 -451H125V1071H397V479Z"
/>
<glyph unicode="&#xb6;" glyph-name="paragraph" horiz-adv-x="1655" d="M1509 0H1223V1147H979V0H692V287H651Q533 287 429 332T246 455T123 637T78 860Q78 939 98 1012T157 1149T248 1265T366 1355T506 1413T664 1434V1436L1509 1434V0ZM651 1147Q592 1147 540
1125T449 1063T388 972T365 860Q365 801 387 749T449 657T540 596T651 573H692V1147H651Z" />
<glyph unicode="&#xb7;" glyph-name="middot" horiz-adv-x="535" d="M438 717Q438 681 425 650T388 595T334 559T268 545Q233 545 202 558T147 595T110 649T96 717Q96 751 109 782T146 836T201 873T268 887Q303 887 334 874T388 837T424 782T438 717Z" />
<glyph unicode="&#xb8;" glyph-name="cedilla" horiz-adv-x="426" d="M184 -461Q148 -459 115 -446T56 -418Q26 -400 0 -379L55 -229Q78 -246 101 -258Q121 -269 142 -278T180 -287Q202 -287 216 -273T231 -236Q231 -208 210 -196T164 -184Q132 -184 106 -201L199
57H322L274 -78Q305 -82 333 -96T381 -132T414 -185T426 -252Q426 -302 410 -341T363 -406T292 -447T201 -461H184Z" />
<glyph unicode="&#xb9;" glyph-name="onesuperior" horiz-adv-x="475" d="M350 731H154V1239H92V1436H350V731Z" />
<glyph unicode="&#xba;" glyph-name="ordmasculine" horiz-adv-x="885" d="M770 1120Q770 1048 745 986T675 878T571 806T442 780Q374 780 315 806T211 878T141 986T115 1120Q115 1193 141 1255T211 1363T314 1434T442 1460Q511 1460 570 1436T674 1367T744 1260T770
1120ZM606 1120Q606 1159 593 1191T558 1246T506 1281T442 1294Q408 1294 379 1282T328 1247T294 1192T281 1120Q281 1083 293 1051T327 995T378 958T442 944Q476 944 505 957T557 993T593 1048T606 1120ZM772 645V485H115V645H772Z" />
<glyph unicode="&#xbb;" glyph-name="guillemotright" horiz-adv-x="1440" d="M82 870L264 1042L776 510L252 16L84 205L430 520L82 870ZM696 870L879 1042L1391 510L866 16L698 205L1044 520L696 870Z" />
<glyph unicode="&#xbc;" glyph-name="onequarter" horiz-adv-x="1329" d="M406 731H209V1239H147V1436H406V731ZM291 0H74L862 1434H1079L291 0ZM1253 127H1190V0H993V127H670L750 705H950L891 326H993V641H1190V326H1253V127Z" />
<glyph unicode="&#xbd;" glyph-name="onehalf" horiz-adv-x="1305" d="M406 731H209V1239H147V1436H406V731ZM291 0H74L862 1434H1079L291 0ZM1229 481Q1229 433 1212 392T1164 320T1091 273T1001 256H938Q927 256 918 247T909 227V197H1212V0H713V227Q713 274
730 315T778 387T850 435T938 453H1001Q1015 453 1023 461T1032 481Q1032 492 1024 500T1001 508H741V705H1001Q1049 705 1091 688T1163 640T1211 569T1229 481Z" />
<glyph unicode="&#xbe;" glyph-name="threequarters" horiz-adv-x="1452" d="M416 0H199L987 1434H1204L416 0ZM1378 127H1315V0H1118V127H795L874 705H1075L1016 326H1118V641H1315V326H1378V127ZM606 956Q606 908 589 867T541 795T469 747T379 729H90V926H379Q393
926 401 934T410 956Q410 967 402 976T379 985H170V1182H379Q393 1182 401 1190T410 1210Q410 1221 402 1229T379 1237H90V1434H379Q427 1434 468 1417T540 1369T588 1298T606 1210Q606 1175 598 1142T567 1081Q587 1052 596 1021T606 956Z" />
<glyph unicode="&#xbf;" glyph-name="questiondown" horiz-adv-x="1233" d="M68 141Q68 230 101 308T193 445T330 537T498 571Q529 571 552 582T591 612T615 658T623 715V791H909V711Q908 622 878 545T793 410T663 319T498 285Q468 285 442 274T396 243T365 197T354
141Q354 111 365 85T395 40T441 9T498 -2H1155V-289H498Q409 -289 331 -255T194 -163T102 -26T68 141ZM594 1042Q594 1078 607 1109T644 1164T698 1201T764 1214Q799 1214 830 1201T885 1165T922 1110T936 1042Q936 1007 923 977T886 923T831 886T764 872Q729 872
698 885T644 922T608 976T594 1042Z" />
<glyph unicode="&#xc0;" glyph-name="Agrave" horiz-adv-x="1380" d="M977 573V860Q977 919 955 971T893 1063T802 1124T690 1147Q631 1147 579 1125T487 1063T426 972T403 860V573H977ZM1264 0H977V287H403V0H117V860Q117 979 162 1083T284 1266T466 1389T690
1434Q809 1434 913 1389T1096 1266T1219 1084T1264 860V0ZM678 1518L328 1735L494 1944L789 1667L678 1518Z" />
<glyph unicode="&#xc1;" glyph-name="Aacute" horiz-adv-x="1380" d="M977 573V860Q977 919 955 971T893 1063T802 1124T690 1147Q631 1147 579 1125T487 1063T426 972T403 860V573H977ZM1264 0H977V287H403V0H117V860Q117 979 162 1083T284 1266T466 1389T690
1434Q809 1434 913 1389T1096 1266T1219 1084T1264 860V0ZM693 1518L580 1667L877 1944L1041 1735L693 1518Z" />
<glyph unicode="&#xc2;" glyph-name="Acircumflex" horiz-adv-x="1380" d="M977 573V860Q977 919 955 971T893 1063T802 1124T690 1147Q631 1147 579 1125T487 1063T426 972T403 860V573H977ZM1264 0H977V287H403V0H117V860Q117 979 162 1083T284 1266T466 1389T690
1434Q809 1434 913 1389T1096 1266T1219 1084T1264 860V0ZM416 1640L686 1894L963 1640L850 1497L690 1643L539 1501L416 1640Z" />
<glyph unicode="&#xc3;" glyph-name="Atilde" horiz-adv-x="1380" d="M977 573V860Q977 919 955 971T893 1063T802 1124T690 1147Q631 1147 579 1125T487 1063T426 972T403 860V573H977ZM1264 0H977V287H403V0H117V860Q117 979 162 1083T284 1266T466 1389T690
1434Q809 1434 913 1389T1096 1266T1219 1084T1264 860V0ZM997 1849Q1003 1831 1008 1810Q1012 1792 1015 1769T1019 1720Q1019 1670 1004 1631T964 1564T903 1522T827 1507Q782 1507 750 1526T694 1569T648 1612T602 1632Q583 1632 571 1615T559 1581Q559 1561
565 1543T583 1507L395 1499Q385 1517 377 1541Q370 1561 365 1589T360 1653Q360 1742 414 1792T561 1843Q600 1843 627 1834T675 1810T711 1780T738 1749T763 1726T792 1716Q809 1716 818 1731T827 1769Q827 1796 811 1823L997 1849Z" />
<glyph unicode="&#xc4;" glyph-name="Adieresis" horiz-adv-x="1380" d="M977 573V860Q977 919 955 971T893 1063T802 1124T690 1147Q631 1147 579 1125T487 1063T426 972T403 860V573H977ZM1264 0H977V287H403V0H117V860Q117 979 162 1083T284 1266T466 1389T690
1434Q809 1434 913 1389T1096 1266T1219 1084T1264 860V0ZM997 1618Q997 1592 988 1569T962 1529T923 1501T875 1491Q849 1491 826 1501T785 1528T758 1569T748 1618Q748 1643 758 1666T785 1706T825 1733T875 1743Q900 1743 922 1733T961 1706T987 1666T997 1618ZM637
1620Q637 1593 627 1570T600 1529T559 1501T510 1491Q484 1491 461 1501T420 1528T392 1569T381 1620Q381 1646 391 1669T419 1709T460 1737T510 1747Q536 1747 559 1737T599 1710T627 1669T637 1620Z" />
<glyph unicode="&#xc5;" glyph-name="Aring" horiz-adv-x="1380" d="M887 1565Q887 1520 870 1483T821 1417Q916 1395 997 1344T1137 1219T1230 1054T1264 860V0H977V287H403V0H117V860Q117 961 150 1052T241 1217T381 1343T557 1417Q526 1445 509 1482T492 1565Q492
1605 507 1641T550 1704T612 1747T688 1763Q730 1763 766 1747T829 1704T871 1641T887 1565ZM977 573V860Q977 919 955 971T893 1063T802 1124T690 1147Q631 1147 579 1125T487 1063T426 972T403 860V573H977ZM754 1565Q754 1593 735 1612T688 1632Q660 1632 643
1613T625 1565Q625 1539 642 1520T688 1501Q716 1501 735 1520T754 1565Z" />
<glyph unicode="&#xc6;" glyph-name="AE" horiz-adv-x="2025" d="M1958 0H975V287H403V0H117V860Q117 979 162 1083T284 1266T466 1389T690 1434H1958V1147H1262L1264 860H1733V573H1264V287H1958V0ZM975 573V1147H690Q631 1147 579 1125T487 1063T426 972T403
860V573H975Z" />
<glyph unicode="&#xc7;" glyph-name="Ccedilla" horiz-adv-x="1311" d="M637 -461Q601 -459 568 -446T509 -418Q479 -400 453 -379L508 -229Q531 -246 554 -258Q574 -269 595 -278T633 -287Q655 -287 669 -273T684 -236Q684 -208 663 -196T616 -184Q584 -184 559
-201L627 -10Q504 18 399 85T218 247T98 461T55 711Q55 813 81 908T156 1085T273 1236T423 1352T600 1427T797 1454Q930 1454 1054 1409T1278 1276L1126 1026Q1063 1094 977 1130T797 1167Q702 1167 619 1131T474 1034T376 889T340 711Q340 617 376 535T474 390T619
292T797 256Q891 256 977 292T1126 397L1278 147Q1178 61 1054 15T797 -31Q783 -31 770 -30T743 -29L727 -78Q758 -82 786 -96T834 -132T867 -185T879 -252Q879 -302 862 -341T815 -406T744 -447T653 -461H637Z" />
<glyph unicode="&#xc8;" glyph-name="Egrave" horiz-adv-x="1184" d="M1116 0H133V1434H1116V1147H420V860H891V573H420V287H1116V0ZM643 1516L293 1733L459 1942L754 1665L643 1516Z" />
<glyph unicode="&#xc9;" glyph-name="Eacute" horiz-adv-x="1184" d="M1116 0H133V1434H1116V1147H420V860H891V573H420V287H1116V0ZM635 1518L522 1667L819 1944L983 1735L635 1518Z" />
<glyph unicode="&#xca;" glyph-name="Ecircumflex" horiz-adv-x="1184" d="M1116 0H133V1434H1116V1147H420V860H891V573H420V287H1116V0ZM350 1660L620 1914L897 1660L784 1517L624 1663L473 1521L350 1660Z" />
<glyph unicode="&#xcb;" glyph-name="Edieresis" horiz-adv-x="1184" d="M1116 0H133V1434H1116V1147H420V860H891V573H420V287H1116V0ZM931 1642Q931 1616 922 1593T896 1553T857 1525T809 1515Q783 1515 760 1525T719 1552T692 1593T682 1642Q682 1667 692 1690T719
1730T759 1757T809 1767Q834 1767 856 1757T895 1730T921 1690T931 1642ZM571 1644Q571 1617 561 1594T534 1553T493 1525T444 1515Q418 1515 395 1525T354 1552T326 1593T315 1644Q315 1670 325 1693T353 1733T394 1761T444 1771Q470 1771 493 1761T533 1734T561
1693T571 1644Z" />
<glyph unicode="&#xcc;" glyph-name="Igrave" horiz-adv-x="553" d="M420 0H133V1434H420V0ZM275 1516L-75 1733L91 1942L386 1665L275 1516Z" />
<glyph unicode="&#xcd;" glyph-name="Iacute" horiz-adv-x="553" d="M420 0H133V1434H420V0ZM277 1518L164 1667L461 1944L625 1735L277 1518Z" />
<glyph unicode="&#xce;" glyph-name="Icircumflex" horiz-adv-x="553" d="M420 0H133V1434H420V0ZM4 1658L274 1912L551 1658L438 1515L278 1661L127 1519L4 1658Z" />
<glyph unicode="&#xcf;" glyph-name="Idieresis" horiz-adv-x="553" d="M420 0H133V1434H420V0ZM586 1642Q586 1616 577 1593T551 1553T512 1525T464 1515Q438 1515 415 1525T374 1552T347 1593T337 1642Q337 1667 347 1690T374 1730T414 1757T464 1767Q489 1767
511 1757T550 1730T576 1690T586 1642ZM226 1644Q226 1617 216 1594T189 1553T148 1525T99 1515Q73 1515 50 1525T9 1552T-19 1593T-30 1644Q-30 1670 -20 1693T8 1733T49 1761T99 1771Q125 1771 148 1761T188 1734T216 1693T226 1644Z" />
<glyph unicode="&#xd0;" glyph-name="Eth" horiz-adv-x="1378" d="M1321 717Q1321 618 1296 527T1223 356T1111 211T966 98T795 26T604 0H172V588H8V860H172V1434H604Q703 1434 794 1409T965 1336T1110 1224T1223 1079T1295 908T1321 717ZM627 860V588H461V287H604Q693
287 771 320T908 412T1000 549T1034 717Q1034 806 1001 884T909 1020T772 1113T604 1147H461V860H627Z" />
<glyph unicode="&#xd1;" glyph-name="Ntilde" horiz-adv-x="1413" d="M1280 0H973L420 944V0H133V1434H440L993 489V1434H1280V0ZM1014 1870Q1020 1852 1025 1831Q1029 1813 1032 1790T1036 1741Q1036 1691 1021 1652T981 1585T920 1543T844 1528Q799 1528 767
1547T711 1590T665 1633T619 1653Q600 1653 588 1636T576 1602Q576 1582 582 1564T600 1528L412 1520Q402 1538 394 1562Q387 1582 382 1610T377 1674Q377 1763 431 1813T578 1864Q617 1864 644 1855T692 1831T728 1801T755 1770T780 1747T809 1737Q826 1737 835
1752T844 1790Q844 1817 828 1844L1014 1870Z" />
<glyph unicode="&#xd2;" glyph-name="Ograve" horiz-adv-x="1593" d="M1538 711Q1538 609 1512 515T1437 338T1321 187T1171 71T994 -4T797 -31Q695 -31 601 -5T424 70T273 187T157 337T82 514T55 711Q55 813 81 908T156 1085T273 1235T423 1351T600 1425T797
1452Q899 1452 994 1426T1171 1351T1321 1235T1437 1085T1511 908T1538 711ZM1253 711Q1253 805 1217 888T1120 1033T975 1131T797 1167Q702 1167 619 1131T474 1034T376 889T340 711Q340 617 376 535T474 390T619 292T797 256Q891 256 974 292T1119 390T1217 534T1253
711ZM790 1534L440 1751L606 1960L901 1683L790 1534Z" />
<glyph unicode="&#xd3;" glyph-name="Oacute" horiz-adv-x="1593" d="M1538 711Q1538 609 1512 515T1437 338T1321 187T1171 71T994 -4T797 -31Q695 -31 601 -5T424 70T273 187T157 337T82 514T55 711Q55 813 81 908T156 1085T273 1235T423 1351T600 1425T797
1452Q899 1452 994 1426T1171 1351T1321 1235T1437 1085T1511 908T1538 711ZM1253 711Q1253 805 1217 888T1120 1033T975 1131T797 1167Q702 1167 619 1131T474 1034T376 889T340 711Q340 617 376 535T474 390T619 292T797 256Q891 256 974 292T1119 390T1217 534T1253
711ZM809 1534L696 1683L993 1960L1157 1751L809 1534Z" />
<glyph unicode="&#xd4;" glyph-name="Ocircumflex" horiz-adv-x="1593" d="M1538 711Q1538 609 1512 515T1437 338T1321 187T1171 71T994 -4T797 -31Q695 -31 601 -5T424 70T273 187T157 337T82 514T55 711Q55 813 81 908T156 1085T273 1235T423 1351T600 1425T797
1452Q899 1452 994 1426T1171 1351T1321 1235T1437 1085T1511 908T1538 711ZM1253 711Q1253 805 1217 888T1120 1033T975 1131T797 1167Q702 1167 619 1131T474 1034T376 889T340 711Q340 617 376 535T474 390T619 292T797 256Q891 256 974 292T1119 390T1217 534T1253
711ZM522 1660L792 1914L1069 1660L956 1517L796 1663L645 1521L522 1660Z" />
<glyph unicode="&#xd5;" glyph-name="Otilde" horiz-adv-x="1593" d="M1538 711Q1538 609 1512 515T1437 338T1321 187T1171 71T994 -4T797 -31Q695 -31 601 -5T424 70T273 187T157 337T82 514T55 711Q55 813 81 908T156 1085T273 1235T423 1351T600 1425T797
1452Q899 1452 994 1426T1171 1351T1321 1235T1437 1085T1511 908T1538 711ZM1253 711Q1253 805 1217 888T1120 1033T975 1131T797 1167Q702 1167 619 1131T474 1034T376 889T340 711Q340 617 376 535T474 390T619 292T797 256Q891 256 974 292T1119 390T1217 534T1253
711ZM1104 1872Q1110 1854 1115 1833Q1119 1815 1122 1792T1126 1743Q1126 1693 1111 1654T1071 1587T1010 1545T934 1530Q889 1530 857 1549T801 1592T755 1635T709 1655Q690 1655 678 1638T666 1604Q666 1584 672 1566T690 1530L502 1522Q492 1540 484 1564Q477
1584 472 1612T467 1676Q467 1765 521 1815T668 1866Q707 1866 734 1857T782 1833T818 1803T845 1772T870 1749T899 1739Q916 1739 925 1754T934 1792Q934 1819 918 1846L1104 1872Z" />
<glyph unicode="&#xd6;" glyph-name="Odieresis" horiz-adv-x="1593" d="M1538 711Q1538 609 1512 515T1437 338T1321 187T1171 71T994 -4T797 -31Q695 -31 601 -5T424 70T273 187T157 337T82 514T55 711Q55 813 81 908T156 1085T273 1235T423 1351T600 1425T797
1452Q899 1452 994 1426T1171 1351T1321 1235T1437 1085T1511 908T1538 711ZM1253 711Q1253 805 1217 888T1120 1033T975 1131T797 1167Q702 1167 619 1131T474 1034T376 889T340 711Q340 617 376 535T474 390T619 292T797 256Q891 256 974 292T1119 390T1217 534T1253
711ZM1103 1640Q1103 1614 1094 1591T1068 1551T1029 1523T981 1513Q955 1513 932 1523T891 1550T864 1591T854 1640Q854 1665 864 1688T891 1728T931 1755T981 1765Q1006 1765 1028 1755T1067 1728T1093 1688T1103 1640ZM743 1642Q743 1615 733 1592T706 1551T665
1523T616 1513Q590 1513 567 1523T526 1550T498 1591T487 1642Q487 1668 497 1691T525 1731T566 1759T616 1769Q642 1769 665 1759T705 1732T733 1691T743 1642Z" />
<glyph unicode="&#xd7;" glyph-name="multiply" horiz-adv-x="981" d="M295 340L102 532L295 725L94 926L287 1118L487 918L696 1126L889 932L680 725L881 524L688 332L487 532L295 340Z" />
<glyph unicode="&#xd8;" glyph-name="Oslash" horiz-adv-x="1593" d="M1315 1239Q1366 1189 1407 1130T1478 1003T1522 863T1538 711Q1538 609 1512 515T1437 338T1321 187T1171 71T994 -4T797 -31Q703 -31 616 -9T451 55L412 0H137L272 186Q172 289 114 422T55
711Q55 813 81 908T156 1085T273 1235T423 1351T600 1425T797 1452Q888 1452 973 1430T1135 1370L1182 1434H1456L1315 1239ZM1253 711Q1253 796 1225 871T1145 1006L623 291Q704 256 797 256Q891 256 974 292T1119 390T1217 534T1253 711ZM340 711Q340 627 367
554T444 422L965 1135Q924 1150 883 1158T797 1167Q702 1167 619 1131T474 1034T376 889T340 711Z" />
<glyph unicode="&#xd9;" glyph-name="Ugrave" horiz-adv-x="1380" d="M1264 573Q1264 454 1219 350T1096 168T914 45T690 0Q571 0 467 45T285 167T162 349T117 573V1434H403V573Q403 514 425 462T487 371T578 310T690 287Q749 287 801 309T893 371T954 462T977
573V1434H1264V573ZM698 1498L348 1715L514 1924L809 1647L698 1498Z" />
<glyph unicode="&#xda;" glyph-name="Uacute" horiz-adv-x="1380" d="M1264 573Q1264 454 1219 350T1096 168T914 45T690 0Q571 0 467 45T285 167T162 349T117 573V1434H403V573Q403 514 425 462T487 371T578 310T690 287Q749 287 801 309T893 371T954 462T977
573V1434H1264V573ZM705 1518L592 1667L889 1944L1053 1735L705 1518Z" />
<glyph unicode="&#xdb;" glyph-name="Ucircumflex" horiz-adv-x="1380" d="M1264 573Q1264 454 1219 350T1096 168T914 45T690 0Q571 0 467 45T285 167T162 349T117 573V1434H403V573Q403 514 425 462T487 371T578 310T690 287Q749 287 801 309T893 371T954 462T977
573V1434H1264V573ZM416 1636L686 1890L963 1636L850 1493L690 1639L539 1497L416 1636Z" />
<glyph unicode="&#xdc;" glyph-name="Udieresis" horiz-adv-x="1380" d="M1264 573Q1264 454 1219 350T1096 168T914 45T690 0Q571 0 467 45T285 167T162 349T117 573V1434H403V573Q403 514 425 462T487 371T578 310T690 287Q749 287 801 309T893 371T954 462T977
573V1434H1264V573ZM997 1624Q997 1598 988 1575T962 1535T923 1507T875 1497Q849 1497 826 1507T785 1534T758 1575T748 1624Q748 1649 758 1672T785 1712T825 1739T875 1749Q900 1749 922 1739T961 1712T987 1672T997 1624ZM637 1626Q637 1599 627 1576T600 1535T559
1507T510 1497Q484 1497 461 1507T420 1534T392 1575T381 1626Q381 1652 391 1675T419 1715T460 1743T510 1753Q536 1753 559 1743T599 1716T627 1675T637 1626Z" />
<glyph unicode="&#xdd;" glyph-name="Yacute" horiz-adv-x="1270" d="M778 0H492V449Q397 473 318 526T181 652T93 815T61 1004V1434H348V1004Q348 945 370 893T432 801T523 740T635 717Q694 717 746 739T838 801T899 892T922 1004V1434H1208V1004Q1208 905 1177
816T1088 653T952 526T778 449V0ZM641 1493L528 1642L825 1919L989 1710L641 1493Z" />
<glyph unicode="&#xde;" glyph-name="Thorn" horiz-adv-x="1305" d="M420 1004V430H707Q766 430 818 452T909 514T970 605T993 717Q993 776 971 828T909 919T818 981T707 1004H420ZM133 1495H420V1290H707Q825 1290 929 1245T1112 1122T1235 940T1280 717Q1280
598 1235 494T1112 311T930 188T707 143H420V-61H133V1495Z" />
<glyph unicode="&#xdf;" glyph-name="germandbls" horiz-adv-x="1667" d="M666 0V272H1311Q1339 272 1358 292T1378 340Q1378 369 1359 378T1311 387H924Q853 387 791 414T683 487T611 596T584 729Q584 800 610 862T683 970T791 1042T924 1069Q938 1069 960 1073T1002
1091T1038 1130T1053 1198Q1053 1235 1038 1259T1003 1299T960 1320T924 1327H657Q613 1327 576 1312T511 1269T467 1204T451 1122V0H178V799H45V1071H178V1122Q178 1221 215 1308T318 1459T471 1561T657 1599H924Q964 1599 1009 1589T1098 1559T1184 1506T1256
1429T1306 1327T1325 1198Q1325 1123 1307 1064T1257 961T1184 885T1099 835T1009 806T924 797Q896 797 876 777T856 729Q856 700 876 680T924 659H1311Q1381 659 1442 636T1550 570T1624 469T1651 340Q1651 269 1624 208T1551 100T1443 27T1311 0H666Z" />
<glyph unicode="&#xe0;" glyph-name="agrave" horiz-adv-x="1245" d="M1141 0H1075L969 147Q930 112 887 82T795 29T697 -7T594 -20Q481 -20 382 18T208 128T90 306T47 545Q47 670 90 774T207 954T381 1070T594 1112Q646 1112 697 1099T796 1063T887 1009T969
942L1075 1069H1141V0ZM866 545Q866 601 845 653T786 746T700 811T594 836Q538 836 489 817T403 761T345 670T324 545Q324 475 345 421T402 329T488 273T594 254Q650 254 699 278T786 343T844 436T866 545ZM592 1194L242 1411L408 1620L703 1343L592 1194Z" />
<glyph unicode="&#xe1;" glyph-name="aacute" horiz-adv-x="1245" d="M1141 0H1075L969 147Q930 112 887 82T795 29T697 -7T594 -20Q481 -20 382 18T208 128T90 306T47 545Q47 670 90 774T207 954T381 1070T594 1112Q646 1112 697 1099T796 1063T887 1009T969
942L1075 1069H1141V0ZM866 545Q866 601 845 653T786 746T700 811T594 836Q538 836 489 817T403 761T345 670T324 545Q324 475 345 421T402 329T488 273T594 254Q650 254 699 278T786 343T844 436T866 545ZM590 1192L477 1341L774 1618L938 1409L590 1192Z" />
<glyph unicode="&#xe2;" glyph-name="acircumflex" horiz-adv-x="1245" d="M1141 0H1075L969 147Q930 112 887 82T795 29T697 -7T594 -20Q481 -20 382 18T208 128T90 306T47 545Q47 670 90 774T207 954T381 1070T594 1112Q646 1112 697 1099T796 1063T887 1009T969
942L1075 1069H1141V0ZM866 545Q866 601 845 653T786 746T700 811T594 836Q538 836 489 817T403 761T345 670T324 545Q324 475 345 421T402 329T488 273T594 254Q650 254 699 278T786 343T844 436T866 545ZM319 1312L589 1566L866 1312L753 1169L593 1315L442 1173L319
1312Z" />
<glyph unicode="&#xe3;" glyph-name="atilde" horiz-adv-x="1245" d="M1141 0H1075L969 147Q930 112 887 82T795 29T697 -7T594 -20Q481 -20 382 18T208 128T90 306T47 545Q47 670 90 774T207 954T381 1070T594 1112Q646 1112 697 1099T796 1063T887 1009T969
942L1075 1069H1141V0ZM866 545Q866 601 845 653T786 746T700 811T594 836Q538 836 489 817T403 761T345 670T324 545Q324 475 345 421T402 329T488 273T594 254Q650 254 699 278T786 343T844 436T866 545ZM901 1523Q907 1505 912 1484Q916 1466 919 1443T923 1394Q923
1344 908 1305T868 1238T807 1196T731 1181Q686 1181 654 1200T598 1243T552 1286T506 1306Q487 1306 475 1289T463 1255Q463 1235 469 1217T487 1181L299 1173Q289 1191 281 1215Q274 1235 269 1263T264 1327Q264 1416 318 1466T465 1517Q504 1517 531 1508T579
1484T615 1454T642 1423T667 1400T696 1390Q713 1390 722 1405T731 1443Q731 1470 715 1497L901 1523Z" />
<glyph unicode="&#xe4;" glyph-name="adieresis" horiz-adv-x="1245" d="M1141 0H1075L969 147Q930 112 887 82T795 29T697 -7T594 -20Q481 -20 382 18T208 128T90 306T47 545Q47 670 90 774T207 954T381 1070T594 1112Q646 1112 697 1099T796 1063T887 1009T969
942L1075 1069H1141V0ZM866 545Q866 601 845 653T786 746T700 811T594 836Q538 836 489 817T403 761T345 670T324 545Q324 475 345 421T402 329T488 273T594 254Q650 254 699 278T786 343T844 436T866 545ZM901 1298Q901 1272 892 1249T866 1209T827 1181T779 1171Q753
1171 730 1181T689 1208T662 1249T652 1298Q652 1323 662 1346T689 1386T729 1413T779 1423Q804 1423 826 1413T865 1386T891 1346T901 1298ZM541 1300Q541 1273 531 1250T504 1209T463 1181T414 1171Q388 1171 365 1181T324 1208T296 1249T285 1300Q285 1326 295
1349T323 1389T364 1417T414 1427Q440 1427 463 1417T503 1390T531 1349T541 1300Z" />
<glyph unicode="&#xe5;" glyph-name="aring" horiz-adv-x="1245" d="M1141 0H1075L969 147Q930 112 887 82T795 29T697 -7T594 -20Q481 -20 382 18T208 128T90 306T47 545Q47 670 90 774T207 954T381 1070T594 1112Q646 1112 697 1099T796 1063T887 1009T969 942L1075
1069H1141V0ZM866 545Q866 601 845 653T786 746T700 811T594 836Q538 836 489 817T403 761T345 670T324 545Q324 475 345 421T402 329T488 273T594 254Q650 254 699 278T786 343T844 436T866 545ZM790 1386Q790 1345 775 1310T732 1248T669 1206T592 1190Q552 1190
516 1205T453 1247T411 1309T395 1386Q395 1427 410 1463T453 1526T516 1569T592 1585Q633 1585 669 1569T732 1526T774 1463T790 1386ZM657 1386Q657 1414 638 1434T592 1454Q564 1454 546 1434T528 1386Q528 1360 546 1342T592 1323Q619 1323 638 1341T657 1386Z"
/>
<glyph unicode="&#xe6;" glyph-name="ae" horiz-adv-x="1999" d="M1454 262Q1470 257 1486 256T1518 254Q1558 254 1595 265T1664 296T1721 346T1763 412L1964 211Q1926 157 1877 114T1770 41T1649 -4T1518 -20Q1406 -20 1311 19T1141 129V0H1075L969 147Q930
112 887 82T795 29T697 -7T594 -20Q481 -20 382 18T208 128T90 306T47 545Q47 670 90 774T207 954T381 1070T594 1112Q646 1112 697 1099T796 1063T887 1009T969 942L1075 1069H1141V965Q1215 1036 1310 1074T1518 1112Q1585 1112 1649 1096T1770 1050T1878 977T1966
879L1454 262ZM866 545Q866 601 845 653T786 746T700 811T594 836Q538 836 489 817T403 761T345 670T324 545Q324 475 345 421T402 329T488 273T594 254Q650 254 699 278T786 343T844 436T866 545ZM1593 825Q1575 832 1557 834T1518 836Q1462 836 1413 816T1326
757T1268 666T1247 545Q1247 530 1248 511T1253 473T1262 435T1276 403L1593 825Z" />
<glyph unicode="&#xe7;" glyph-name="ccedilla" horiz-adv-x="1069" d="M514 -461Q478 -459 445 -446T386 -418Q356 -400 330 -379L385 -229Q408 -246 431 -258Q451 -269 472 -278T510 -287Q532 -287 546 -273T561 -236Q561 -208 540 -196T494 -184Q462 -184 436
-201L502 -12Q405 3 322 51T177 170T80 332T45 524Q45 647 88 754T205 940T379 1066T592 1112Q659 1112 723 1095T846 1046T954 966T1040 858L840 657Q825 699 799 732T741 789T670 824T592 836Q536 836 487 813T401 749T343 650T322 524Q322 468 343 419T400 333T486
275T592 254Q632 254 669 265T738 296T796 346T838 412L1038 211Q1002 160 957 119T858 49T746 3T625 -18L604 -78Q635 -82 663 -96T711 -132T744 -185T756 -252Q756 -302 739 -341T692 -406T621 -447T530 -461H514Z" />
<glyph unicode="&#xe8;" glyph-name="egrave" horiz-adv-x="1075" d="M530 262Q546 257 562 256T594 254Q634 254 671 265T740 296T798 346T840 412L1040 211Q1002 157 953 114T846 41T725 -4T594 -20Q481 -20 382 22T208 139T90 317T47 545Q47 672 90 777T207
956T381 1071T594 1112Q661 1112 725 1096T846 1050T954 977T1042 879L530 262ZM670 825Q651 832 633 834T594 836Q538 836 489 816T403 757T345 666T324 545Q324 530 325 511T330 473T339 435T352 403L670 825ZM571 1192L221 1409L387 1618L682 1341L571 1192Z"
/>
<glyph unicode="&#xe9;" glyph-name="eacute" horiz-adv-x="1075" d="M530 262Q546 257 562 256T594 254Q634 254 671 265T740 296T798 346T840 412L1040 211Q1002 157 953 114T846 41T725 -4T594 -20Q481 -20 382 22T208 139T90 317T47 545Q47 672 90 777T207
956T381 1071T594 1112Q661 1112 725 1096T846 1050T954 977T1042 879L530 262ZM670 825Q651 832 633 834T594 836Q538 836 489 816T403 757T345 666T324 545Q324 530 325 511T330 473T339 435T352 403L670 825ZM586 1194L473 1343L770 1620L934 1411L586 1194Z"
/>
<glyph unicode="&#xea;" glyph-name="ecircumflex" horiz-adv-x="1075" d="M530 262Q546 257 562 256T594 254Q634 254 671 265T740 296T798 346T840 412L1040 211Q1002 157 953 114T846 41T725 -4T594 -20Q481 -20 382 22T208 139T90 317T47 545Q47 672 90 777T207
956T381 1071T594 1112Q661 1112 725 1096T846 1050T954 977T1042 879L530 262ZM670 825Q651 832 633 834T594 836Q538 836 489 816T403 757T345 666T324 545Q324 530 325 511T330 473T339 435T352 403L670 825ZM270 1325L540 1579L817 1325L704 1182L544 1328L393
1186L270 1325Z" />
<glyph unicode="&#xeb;" glyph-name="edieresis" horiz-adv-x="1075" d="M530 262Q546 257 562 256T594 254Q634 254 671 265T740 296T798 346T840 412L1040 211Q1002 157 953 114T846 41T725 -4T594 -20Q481 -20 382 22T208 139T90 317T47 545Q47 672 90 777T207
956T381 1071T594 1112Q661 1112 725 1096T846 1050T954 977T1042 879L530 262ZM670 825Q651 832 633 834T594 836Q538 836 489 816T403 757T345 666T324 545Q324 530 325 511T330 473T339 435T352 403L670 825ZM852 1312Q852 1286 843 1263T817 1223T778 1195T730
1185Q704 1185 681 1195T640 1222T613 1263T603 1312Q603 1337 613 1360T640 1400T680 1427T730 1437Q755 1437 777 1427T816 1400T842 1360T852 1312ZM492 1314Q492 1287 482 1264T455 1223T414 1195T365 1185Q339 1185 316 1195T275 1222T247 1263T236 1314Q236
1340 246 1363T274 1403T315 1431T365 1441Q391 1441 414 1431T454 1404T482 1363T492 1314Z" />
<glyph unicode="&#xec;" glyph-name="igrave" horiz-adv-x="483" d="M379 0H104V1071H379V0ZM242 1151L-108 1368L58 1577L353 1300L242 1151Z" />
<glyph unicode="&#xed;" glyph-name="iacute" horiz-adv-x="483" d="M379 0H104V1071H379V0ZM242 1151L129 1300L426 1577L590 1368L242 1151Z" />
<glyph unicode="&#xee;" glyph-name="icircumflex" horiz-adv-x="483" d="M379 0H104V1071H379V0ZM226 1288L496 1542L773 1288L660 1145L500 1291L349 1149L226 1288Z" />
<glyph unicode="&#xef;" glyph-name="idieresis" horiz-adv-x="483" d="M379 0H104V1071H379V0ZM807 1271Q807 1245 798 1222T772 1182T733 1154T685 1144Q659 1144 636 1154T595 1181T568 1222T558 1271Q558 1296 568 1319T595 1359T635 1386T685 1396Q710 1396
732 1386T771 1359T797 1319T807 1271ZM447 1273Q447 1246 437 1223T410 1182T369 1154T320 1144Q294 1144 271 1154T230 1181T202 1222T191 1273Q191 1299 201 1322T229 1362T270 1390T320 1400Q346 1400 369 1390T409 1363T437 1322T447 1273Z" />
<glyph unicode="&#xf0;" glyph-name="eth" horiz-adv-x="1190" d="M496 1436Q476 1467 455 1497T412 1559H752Q760 1544 771 1526Q780 1510 793 1487T823 1436H1106V1204H944Q981 1127 1016 1042T1079 871T1124 700T1141 539H1139Q1137 420 1094 318T977 140T804
23T592 -20Q479 -20 380 23T206 142T88 321T45 545Q45 667 88 769T205 945T379 1060T592 1102Q604 1102 619 1102T649 1098T679 1090T705 1075L637 1204H266V1436H496ZM864 545Q864 611 843 664T784 756T698 815T592 836Q536 836 487 816T401 757T343 665T322 545Q322
483 343 430T400 338T486 277T592 254Q648 254 697 275T784 334T842 426T864 545Z" />
<glyph unicode="&#xf1;" glyph-name="ntilde" horiz-adv-x="1151" d="M377 0H104V1071H170L260 967Q326 1027 409 1059T584 1092Q682 1092 769 1055T921 952T1023 799T1061 612V0H788V612Q788 654 772 691T728 757T663 801T584 817Q541 817 503 801T437 757T393
692T377 612V0ZM889 1505Q895 1487 900 1466Q904 1448 907 1425T911 1376Q911 1326 896 1287T856 1220T795 1178T719 1163Q674 1163 642 1182T586 1225T540 1268T494 1288Q475 1288 463 1271T451 1237Q451 1217 457 1199T475 1163L287 1155Q277 1173 269 1197Q262
1217 257 1245T252 1309Q252 1398 306 1448T453 1499Q492 1499 519 1490T567 1466T603 1436T630 1405T655 1382T684 1372Q701 1372 710 1387T719 1425Q719 1452 703 1479L889 1505Z" />
<glyph unicode="&#xf2;" glyph-name="ograve" horiz-adv-x="1186" d="M1139 545Q1139 425 1096 322T979 143T806 24T592 -20Q479 -20 380 23T206 142T88 321T45 545Q45 667 88 771T205 950T379 1069T592 1112Q706 1112 805 1072T979 957T1096 778T1139 545ZM864
545Q864 611 843 664T784 756T698 815T592 836Q536 836 487 816T401 757T343 665T322 545Q322 483 343 430T400 338T486 277T592 254Q648 254 697 275T784 334T842 426T864 545ZM588 1194L238 1411L404 1620L699 1343L588 1194Z" />
<glyph unicode="&#xf3;" glyph-name="oacute" horiz-adv-x="1186" d="M1139 545Q1139 425 1096 322T979 143T806 24T592 -20Q479 -20 380 23T206 142T88 321T45 545Q45 667 88 771T205 950T379 1069T592 1112Q706 1112 805 1072T979 957T1096 778T1139 545ZM864
545Q864 611 843 664T784 756T698 815T592 836Q536 836 487 816T401 757T343 665T322 545Q322 483 343 430T400 338T486 277T592 254Q648 254 697 275T784 334T842 426T864 545ZM588 1192L475 1341L772 1618L936 1409L588 1192Z" />
<glyph unicode="&#xf4;" glyph-name="ocircumflex" horiz-adv-x="1186" d="M1139 545Q1139 425 1096 322T979 143T806 24T592 -20Q479 -20 380 23T206 142T88 321T45 545Q45 667 88 771T205 950T379 1069T592 1112Q706 1112 805 1072T979 957T1096 778T1139 545ZM864
545Q864 611 843 664T784 756T698 815T592 836Q536 836 487 816T401 757T343 665T322 545Q322 483 343 430T400 338T486 277T592 254Q648 254 697 275T784 334T842 426T864 545ZM317 1316L587 1570L864 1316L751 1173L591 1319L440 1177L317 1316Z" />
<glyph unicode="&#xf5;" glyph-name="otilde" horiz-adv-x="1186" d="M1139 545Q1139 425 1096 322T979 143T806 24T592 -20Q479 -20 380 23T206 142T88 321T45 545Q45 667 88 771T205 950T379 1069T592 1112Q706 1112 805 1072T979 957T1096 778T1139 545ZM864
545Q864 611 843 664T784 756T698 815T592 836Q536 836 487 816T401 757T343 665T322 545Q322 483 343 430T400 338T486 277T592 254Q648 254 697 275T784 334T842 426T864 545ZM899 1526Q905 1508 910 1487Q914 1469 917 1446T921 1397Q921 1347 906 1308T866
1241T805 1199T729 1184Q684 1184 652 1203T596 1246T550 1289T504 1309Q485 1309 473 1292T461 1258Q461 1238 467 1220T485 1184L297 1176Q287 1194 279 1218Q272 1238 267 1266T262 1330Q262 1419 316 1469T463 1520Q502 1520 529 1511T577 1487T613 1457T640
1426T665 1403T694 1393Q711 1393 720 1408T729 1446Q729 1473 713 1500L899 1526Z" />
<glyph unicode="&#xf6;" glyph-name="odieresis" horiz-adv-x="1186" d="M1139 545Q1139 425 1096 322T979 143T806 24T592 -20Q479 -20 380 23T206 142T88 321T45 545Q45 667 88 771T205 950T379 1069T592 1112Q706 1112 805 1072T979 957T1096 778T1139 545ZM864
545Q864 611 843 664T784 756T698 815T592 836Q536 836 487 816T401 757T343 665T322 545Q322 483 343 430T400 338T486 277T592 254Q648 254 697 275T784 334T842 426T864 545ZM899 1298Q899 1272 890 1249T864 1209T825 1181T777 1171Q751 1171 728 1181T687
1208T660 1249T650 1298Q650 1323 660 1346T687 1386T727 1413T777 1423Q802 1423 824 1413T863 1386T889 1346T899 1298ZM539 1300Q539 1273 529 1250T502 1209T461 1181T412 1171Q386 1171 363 1181T322 1208T294 1249T283 1300Q283 1326 293 1349T321 1389T362
1417T412 1427Q438 1427 461 1417T501 1390T529 1349T539 1300Z" />
<glyph unicode="&#xf7;" glyph-name="divide" horiz-adv-x="1012" d="M926 860V588H86V860H926ZM653 383Q653 353 642 327T612 281T566 250T510 238Q479 238 452 249T405 280T374 326T362 383Q362 413 373 439T405 485T452 516T510 528Q540 528 566 517T611 486T642
440T653 383ZM653 1079Q653 1049 642 1023T612 977T566 946T510 934Q479 934 452 945T405 976T374 1022T362 1079Q362 1109 373 1135T405 1182T452 1213T510 1225Q540 1225 566 1214T611 1182T642 1136T653 1079Z" />
<glyph unicode="&#xf8;" glyph-name="oslash" horiz-adv-x="1186" d="M1014 915Q1073 843 1106 750T1139 545Q1139 425 1096 322T979 143T806 24T592 -20Q527 -20 468 -6T354 33L330 0H55L180 168Q117 243 81 338T45 545Q45 667 88 771T205 950T379 1069T592 1112Q660
1112 723 1097T842 1053L866 1085H1141L1014 915ZM322 545Q322 505 330 469T354 401L670 823Q651 829 632 832T592 836Q536 836 487 816T401 757T343 665T322 545ZM864 545Q864 617 836 678L526 262Q542 257 558 256T592 254Q648 254 697 275T784 334T842 426T864
545Z" />
<glyph unicode="&#xf9;" glyph-name="ugrave" horiz-adv-x="1151" d="M891 125Q858 95 821 69T742 23T658 -8T569 -20Q470 -20 383 15T231 114T128 271T90 479V1071H362V479Q362 425 378 383T423 311T488 267T569 252Q611 252 648 271T714 323T758 395T774 479V1071H1047V0H981L891
125ZM565 1129L215 1346L381 1555L676 1278L565 1129Z" />
<glyph unicode="&#xfa;" glyph-name="uacute" horiz-adv-x="1151" d="M891 125Q858 95 821 69T742 23T658 -8T569 -20Q470 -20 383 15T231 114T128 271T90 479V1071H362V479Q362 425 378 383T423 311T488 267T569 252Q611 252 648 271T714 323T758 395T774 479V1071H1047V0H981L891
125ZM574 1129L461 1278L758 1555L922 1346L574 1129Z" />
<glyph unicode="&#xfb;" glyph-name="ucircumflex" horiz-adv-x="1151" d="M891 125Q858 95 821 69T742 23T658 -8T569 -20Q470 -20 383 15T231 114T128 271T90 479V1071H362V479Q362 425 378 383T423 311T488 267T569 252Q611 252 648 271T714 323T758 395T774
479V1071H1047V0H981L891 125ZM295 1273L565 1527L842 1273L729 1130L569 1276L418 1134L295 1273Z" />
<glyph unicode="&#xfc;" glyph-name="udieresis" horiz-adv-x="1151" d="M891 125Q858 95 821 69T742 23T658 -8T569 -20Q470 -20 383 15T231 114T128 271T90 479V1071H362V479Q362 425 378 383T423 311T488 267T569 252Q611 252 648 271T714 323T758 395T774
479V1071H1047V0H981L891 125ZM876 1278Q876 1252 867 1229T841 1189T802 1161T754 1151Q728 1151 705 1161T664 1188T637 1229T627 1278Q627 1303 637 1326T664 1366T704 1393T754 1403Q779 1403 801 1393T840 1366T866 1326T876 1278ZM516 1280Q516 1253 506
1230T479 1189T438 1161T389 1151Q363 1151 340 1161T299 1188T271 1229T260 1280Q260 1306 270 1329T298 1369T339 1397T389 1407Q415 1407 438 1397T478 1370T506 1329T516 1280Z" />
<glyph unicode="&#xfd;" glyph-name="yacute" horiz-adv-x="1153" d="M362 -408V-133L514 -135Q554 -135 591 -122T659 -86T715 -32T754 37Q709 18 663 -1T569 -20Q470 -20 383 15T231 114T128 271T90 479V1071H362V479Q362 422 378 380T423 309T488 266T569 252Q611
252 648 271T714 323T758 395T774 479V1071H1049V135Q1048 22 1005 -77T888 -250T714 -367T502 -410L362 -408ZM570 1131L457 1280L754 1557L918 1348L570 1131Z" />
<glyph unicode="&#xfe;" glyph-name="thorn" horiz-adv-x="1247" d="M926 545Q926 606 907 659T853 751T767 813T653 836Q590 836 540 814T454 752T400 659T381 545Q381 486 400 433T455 340T541 277T653 254Q714 254 764 277T851 340T906 433T926 545ZM104 1516H393V1030Q452
1065 518 1087T653 1110Q774 1110 875 1067T1048 947T1160 767T1200 545Q1200 423 1161 320T1051 140T878 20T653 -23Q617 -23 581 -15T511 6T443 37T379 72V-408H104V1516Z" />
<glyph unicode="&#xff;" glyph-name="ydieresis" horiz-adv-x="1153" d="M362 -408V-133L514 -135Q554 -135 591 -122T659 -86T715 -32T754 37Q709 18 663 -1T569 -20Q470 -20 383 15T231 114T128 271T90 479V1071H362V479Q362 422 378 380T423 309T488 266T569
252Q611 252 648 271T714 323T758 395T774 479V1071H1049V135Q1048 22 1005 -77T888 -250T714 -367T502 -410L362 -408ZM876 1292Q876 1266 867 1243T841 1203T802 1175T754 1165Q728 1165 705 1175T664 1202T637 1243T627 1292Q627 1317 637 1340T664 1380T704
1407T754 1417Q779 1417 801 1407T840 1380T866 1340T876 1292ZM516 1294Q516 1267 506 1244T479 1203T438 1175T389 1165Q363 1165 340 1175T299 1202T271 1243T260 1294Q260 1320 270 1343T298 1383T339 1411T389 1421Q415 1421 438 1411T478 1384T506 1343T516
1294Z" />
<glyph unicode="&#x2013;" glyph-name="endash" horiz-adv-x="858" d="M737 860V588H123V860H737Z" />
<glyph unicode="&#x2014;" glyph-name="emdash" horiz-adv-x="1473" d="M1352 860V588H123V860H1352Z" />
<glyph unicode="&#x2018;" glyph-name="quoteleft" horiz-adv-x="504" d="M86 1071Q86 1115 94 1165T121 1265T170 1359T242 1436L350 1360Q322 1328 309 1299T287 1241Q317 1236 343 1221T387 1183T417 1132T428 1071Q428 1036 415 1006T378 952T323 915T258
901Q222 901 191 914T136 951T100 1005T86 1071Z" />
<glyph unicode="&#x2019;" glyph-name="quoteright" horiz-adv-x="502" d="M418 1266Q418 1222 410 1172T383 1072T334 977T262 901L154 977Q181 1009 195 1038T217 1096Q187 1101 161 1116T117 1153T87 1205T76 1266Q76 1300 89 1331T126 1385T180 1422T246 1436Q282
1436 313 1423T368 1386T404 1331T418 1266Z" />
<glyph unicode="&#x201a;" glyph-name="quotesinglbase" horiz-adv-x="541" d="M440 102Q440 58 432 8T405 -92T357 -186T285 -262L176 -186Q204 -154 218 -126T240 -68Q210 -62 184 -47T139 -10T109 41T98 102Q98 137 111 168T148 222T202 258T268 272Q304 272
335 259T390 222T427 168T440 102Z" />
<glyph unicode="&#x201c;" glyph-name="quotedblleft" horiz-adv-x="913" d="M496 1071Q496 1115 504 1165T531 1265T579 1359T651 1436L760 1360Q732 1328 718 1299T696 1241Q726 1236 752 1221T797 1183T827 1132T838 1071Q838 1036 825 1006T788 952T733 915T668
901Q632 901 601 914T546 951T509 1005T496 1071ZM86 1071Q86 1115 94 1165T121 1265T170 1359T242 1436L350 1360Q322 1328 309 1299T287 1241Q317 1236 343 1221T387 1183T417 1132T428 1071Q428 1036 415 1006T378 952T323 915T258 901Q222 901 191 914T136
951T100 1005T86 1071Z" />
<glyph unicode="&#x201d;" glyph-name="quotedblright" horiz-adv-x="911" d="M418 1266Q418 1222 410 1172T383 1072T334 977T262 901L154 977Q181 1009 195 1038T217 1096Q187 1101 161 1116T117 1153T87 1205T76 1266Q76 1300 89 1331T126 1385T180 1422T246
1436Q282 1436 313 1423T368 1386T404 1331T418 1266ZM827 1266Q827 1222 819 1172T792 1072T744 977T672 901L563 977Q591 1009 605 1038T627 1096Q597 1101 571 1116T526 1153T496 1205T485 1266Q485 1300 498 1331T535 1385T589 1422T655 1436Q691 1436 722
1423T777 1386T814 1331T827 1266Z" />
<glyph unicode="&#x201e;" glyph-name="quotedblbase" horiz-adv-x="950" d="M440 102Q440 58 432 8T405 -92T357 -186T285 -262L176 -186Q204 -154 218 -126T240 -68Q210 -62 184 -47T139 -10T109 41T98 102Q98 137 111 168T148 222T202 258T268 272Q304 272
335 259T390 222T427 168T440 102ZM850 102Q850 58 842 8T815 -92T766 -186T694 -262L586 -186Q614 -154 627 -126T649 -68Q619 -62 593 -47T549 -10T519 41T508 102Q508 137 521 168T558 222T612 258T678 272Q714 272 745 259T800 222T836 168T850 102Z" />
<glyph unicode="&#x2022;" glyph-name="bullet" horiz-adv-x="727" d="M578 741Q578 697 561 658T515 589T447 543T365 526Q320 526 281 543T213 589T167 657T150 741Q150 785 167 823T213 891T281 937T365 954Q408 954 447 937T515 891T561 824T578 741Z" />
<glyph unicode="&#x2039;" glyph-name="guilsinglleft" horiz-adv-x="827" d="M397 520L743 205L573 16L49 510L561 1042L745 870L397 520Z" />
<glyph unicode="&#x203a;" glyph-name="guilsinglright" horiz-adv-x="825" d="M82 870L264 1042L776 510L252 16L84 205L430 520L82 870Z" />
</font>
</defs>
</svg>
