<?xml version="1.0" encoding="UTF-8"?>
<svg width="52px" height="48px" viewBox="0 0 52 48" version="1.1" xmlns="http://www.w3.org/2000/svg" xmlns:xlink="http://www.w3.org/1999/xlink">
    <!-- Generator: sketchtool 50.2 (55047) - http://www.bohemiancoding.com/sketch -->
    <title>8206C5B0-58E7-42AA-A72A-7566AF98D6D4</title>
    <desc>Created with sketchtool.</desc>
    <defs>
        <polygon id="path-1" points="0.0001 0.344 52 0.344 52 11.0217 0.0001 11.0217"></polygon>
        <polygon id="path-3" points="0.0001 0.6016 52 0.6016 52 11.2796 0.0001 11.2796"></polygon>
        <polygon id="path-5" points="0.0001 0.3223 52 0.3223 52 11 0.0001 11"></polygon>
        <polygon id="path-7" points="0 48 52 48 52 0.344 0 0.344"></polygon>
    </defs>
    <g id="Page-1" stroke="none" stroke-width="1" fill="none" fill-rule="evenodd">
        <g id="icon-source" transform="translate(-692.000000, -859.000000)">
            <g id="Group" transform="translate(87.000000, 66.000000)">
                <g id="Group-6-Copy-3" transform="translate(0.000000, 587.000000)">
                    <g id="Group-3-Copy-3" transform="translate(567.000000, 197.000000)">
                        <g id="accordion" transform="translate(32.000000, 0.000000)">
                            <rect id="Background" x="0" y="0" width="64" height="64"></rect>
                            <g id="Page-1" transform="translate(6.000000, 8.000000)">
                                <polygon id="Fill-1" fill="#CADEFF" points="1 31.0522 51 31.0522 51 9.8812 1 9.8812"></polygon>
                                <g id="Group-28" transform="translate(0.000000, 0.656200)">
                                    <polygon id="Fill-2" fill="#FFFFFF" opacity="0.700464221" points="5.118 9.225 51.0001 9.225 51.0001 30.396 5.118 30.396"></polygon>
                                    <path d="M50.2051,10.0215 L1.7951,10.0215 C1.3561,10.0215 1.0001,9.6655 1.0001,9.2255 L1.0001,2.1395 C1.0001,1.7005 1.3561,1.3435 1.7951,1.3435 L50.2051,1.3435 C50.6431,1.3435 51.0001,1.7005 51.0001,2.1395 L51.0001,9.2255 C51.0001,9.6655 50.6431,10.0215 50.2051,10.0215" id="Fill-4" fill="#6DA3F2"></path>
                                    <path d="M50.3398,7.3203 L1.6598,7.3203 C1.2958,7.3203 0.9998,7.0253 0.9998,6.6603 L0.9998,2.0043 C0.9998,1.6393 1.2958,1.3433 1.6598,1.3433 L50.3398,1.3433 C50.7038,1.3433 50.9998,1.6393 50.9998,2.0043 L50.9998,6.6603 C50.9998,7.0253 50.7038,7.3203 50.3398,7.3203" id="Fill-6" fill="#97BDFF"></path>
                                    <g id="Group-10">
                                        <mask id="mask-2" fill="white">
                                            <use xlink:href="#path-1"></use>
                                        </mask>
                                        <g id="Clip-9"></g>
                                        <path d="M50.2051,2.3437 L50.2151,2.3437 L50.2051,2.3437 Z M2.0001,9.0217 L50.0001,9.0217 L50.0001,2.3437 L2.0001,2.3437 L2.0001,9.0217 Z M50.2051,11.0217 L1.7951,11.0217 C0.8061,11.0217 0.0001,10.2157 0.0001,9.2257 L0.0001,2.1397 C0.0001,1.1497 0.8061,0.3437 1.7951,0.3437 L50.2051,0.3437 C51.1941,0.3437 52.0001,1.1497 52.0001,2.1397 L52.0001,9.2257 C52.0001,10.2157 51.1941,11.0217 50.2051,11.0217 Z" id="Fill-8" fill="#457AE6" mask="url(#mask-2)"></path>
                                    </g>
                                    <path d="M50.2051,38.2793 L1.7951,38.2793 C1.3561,38.2793 1.0001,37.9233 1.0001,37.4833 L1.0001,30.3963 C1.0001,29.9583 1.3561,29.6013 1.7951,29.6013 L50.2051,29.6013 C50.6431,29.6013 51.0001,29.9583 51.0001,30.3963 L51.0001,37.4833 C51.0001,37.9233 50.6431,38.2793 50.2051,38.2793" id="Fill-11" fill="#6DA3F2"></path>
                                    <path d="M50.3398,35.5781 L1.6598,35.5781 C1.2958,35.5781 0.9998,35.2821 0.9998,34.9181 L0.9998,30.2621 C0.9998,29.8971 1.2958,29.6011 1.6598,29.6011 L50.3398,29.6011 C50.7038,29.6011 50.9998,29.8971 50.9998,30.2621 L50.9998,34.9181 C50.9998,35.2821 50.7038,35.5781 50.3398,35.5781" id="Fill-13" fill="#97BDFF"></path>
                                    <g id="Group-17" transform="translate(0.000000, 28.000000)">
                                        <mask id="mask-4" fill="white">
                                            <use xlink:href="#path-3"></use>
                                        </mask>
                                        <g id="Clip-16"></g>
                                        <path d="M50.2051,2.6016 L50.2151,2.6016 L50.2051,2.6016 Z M2.0001,9.2796 L50.0001,9.2796 L50.0001,2.6016 L2.0001,2.6016 L2.0001,9.2796 Z M52.0001,11.2796 L0.0001,11.2796 L0.0001,2.3966 C0.0001,1.4076 0.8061,0.6016 1.7951,0.6016 L50.2051,0.6016 C51.1941,0.6016 52.0001,1.4076 52.0001,2.3966 L52.0001,11.2796 Z" id="Fill-15" fill="#457AE6" mask="url(#mask-4)"></path>
                                    </g>
                                    <path d="M50.2051,47 L1.7951,47 C1.3561,47 1.0001,46.644 1.0001,46.204 L1.0001,39.118 C1.0001,38.679 1.3561,38.322 1.7951,38.322 L50.2051,38.322 C50.6431,38.322 51.0001,38.679 51.0001,39.118 L51.0001,46.204 C51.0001,46.644 50.6431,47 50.2051,47" id="Fill-18" fill="#6DA3F2"></path>
                                    <path d="M50.3398,44.2988 L1.6598,44.2988 C1.2958,44.2988 0.9998,44.0028 0.9998,43.6388 L0.9998,38.9828 C0.9998,38.6178 1.2958,38.3218 1.6598,38.3218 L50.3398,38.3218 C50.7038,38.3218 50.9998,38.6178 50.9998,38.9828 L50.9998,43.6388 C50.9998,44.0028 50.7038,44.2988 50.3398,44.2988" id="Fill-20" fill="#97BDFF"></path>
                                    <g id="Group-24" transform="translate(0.000000, 37.000000)">
                                        <mask id="mask-6" fill="white">
                                            <use xlink:href="#path-5"></use>
                                        </mask>
                                        <g id="Clip-23"></g>
                                        <path d="M50.2051,2.3223 L50.2151,2.3223 L50.2051,2.3223 Z M2.0001,9.0003 L50.0001,9.0003 L50.0001,2.3223 L2.0001,2.3223 L2.0001,9.0003 Z M50.2051,11.0003 L1.7951,11.0003 C0.8061,11.0003 0.0001,10.1943 0.0001,9.2043 L0.0001,2.1183 C0.0001,1.1283 0.8061,0.3223 1.7951,0.3223 L50.2051,0.3223 C51.1941,0.3223 52.0001,1.1283 52.0001,2.1183 L52.0001,9.2043 C52.0001,10.1943 51.1941,11.0003 50.2051,11.0003 Z" id="Fill-22" fill="#457AE6" mask="url(#mask-6)"></path>
                                    </g>
                                    <mask id="mask-8" fill="white">
                                        <use xlink:href="#path-7"></use>
                                    </mask>
                                    <g id="Clip-26"></g>
                                    <polygon id="Fill-25" fill="#457AE6" mask="url(#mask-8)" points="8.835 17.283 31.322 17.283 31.322 15.283 8.835 15.283"></polygon>
                                    <polygon id="Fill-27" fill="#457AE6" mask="url(#mask-8)" points="8.835 22.835 25.753 22.835 25.753 20.835 8.835 20.835"></polygon>
                                </g>
                            </g>
                        </g>
                    </g>
                </g>
            </g>
        </g>
    </g>
</svg>