<?xml version="1.0" encoding="UTF-8"?>
<svg width="64px" height="64px" viewBox="0 0 64 64" version="1.1" xmlns="http://www.w3.org/2000/svg" xmlns:xlink="http://www.w3.org/1999/xlink">
    <!-- Generator: Sketch 49 (51002) - http://www.bohemiancoding.com/sketch -->
    <title>icon/component/actions</title>
    <desc>Created with Sketch.</desc>
    <defs></defs>
    <g id="icon/component/actions" stroke="none" stroke-width="1" fill="none" fill-rule="evenodd">
        <g id="Page-1" transform="translate(4.000000, 6.000000)">
            <polygon id="Fill-1" fill="#97BDFF" points="0 26.7014 56 26.7014 56 3.9294 0 3.9294"></polygon>
            <polygon id="Fill-2" fill="#CADEFF" points="0 23.9784 56 23.9784 56 1.2064 0 1.2064"></polygon>
            <g id="Group-27" transform="translate(0.000000, 0.320400)">
                <polygon id="Fill-3" fill="#FFFFFF" opacity="0.704936594" points="0 20.672 56 20.672 56 0.707 0 0.707"></polygon>
                <path d="M54.9811,1.6794 L-0.4629,1.6794 L-0.4629,-0.3206 L55.4441,-0.3206 C56.2933847,-0.3206 56.9811,0.36711525 56.9811,1.2164 L56.9811,4.7614 L54.9811,4.7614 L54.9811,1.6794 Z" id="Stroke-5" fill="#457AE6" fill-rule="nonzero"></path>
                <path d="M1.0003,21.9587 L56.4443,21.9587 L56.4443,23.9587 L0.5373,23.9587 C-0.311542026,23.9587 -0.9997,23.2714277 -0.9997,22.4227 L-0.9997,18.6707 L1.0003,18.6707 L1.0003,21.9587 Z" id="Stroke-7" fill="#457AE6" fill-rule="nonzero"></path>
                <polygon id="Fill-9" fill="#97BDFF" points="52.4648 41.4469 45.7438 45.2789 41.9118 51.9999 31.3208 30.8559"></polygon>
                <polygon id="Fill-11" fill="#6DA3F2" points="52.4648 41.4469 45.7438 45.2789 31.3208 30.8559"></polygon>
                <path d="M33.5616996,33.0967996 L41.9688338,49.8809036 L44.87508,44.7835965 C44.9638435,44.6279129 45.0928129,44.4989435 45.2484965,44.41018 L50.3458036,41.5039338 L33.5616996,33.0967996 Z M42.78052,52.4952035 C42.3848688,53.1891419 41.3754445,53.1619728 41.0176944,52.4477562 L30.4266944,31.3037562 C29.995973,30.4438587 30.9087587,29.531073 31.7686562,29.9617944 L52.9126562,40.5527944 C53.6268728,40.9105445 53.6540419,41.9199688 52.9601035,42.31562 L46.4769252,46.0120252 L42.78052,52.4952035 Z" id="Stroke-13" fill="#457AE6" fill-rule="nonzero"></path>
                <polygon id="Stroke-15" fill="#457AE6" fill-rule="nonzero" points="36.0898 4.2507 38.0898 4.2507 38.0898 18.5347 36.0898 18.5347"></polygon>
                <polygon id="Stroke-17" fill="#457AE6" fill-rule="nonzero" points="46.3867 4.2507 48.3867 4.2507 48.3867 18.5347 46.3867 18.5347"></polygon>
                <path d="M23.0078,18.444 L3.8048,18.444 C3.5308,18.444 3.3098,18.221 3.3098,17.948 L3.3098,5.012 C3.3098,4.739 3.5308,4.516 3.8048,4.516 L23.0078,4.516 C23.2808,4.516 23.5028,4.739 23.5028,5.012 L23.5028,17.948 C23.5028,18.221 23.2808,18.444 23.0078,18.444" id="Fill-19" fill="#6DA3F2"></path>
                <path d="M22.7919336,18.939 L6.4066664,18.939 C6.18168198,18.939 6,18.7006135 6,18.4054095 L6,5.05082564 C6,4.75562165 6.18168198,4.516 6.4066664,4.516 L22.7919336,4.516 C23.0159767,4.516 23.1986,4.75562165 23.1986,5.05082564 L23.1986,18.4054095 C23.1986,18.7006135 23.0159767,18.939 22.7919336,18.939" id="Fill-21" fill="#97BDFF"></path>
                <path d="M22.5028,5.516 L4.3098,5.516 L4.3098,17.444 L22.5028,17.444 L22.5028,5.516 Z M23.0078,19.444 L3.8048,19.444 C2.97811187,19.444 2.3098,18.7728879 2.3098,17.948 L2.3098,5.012 C2.3098,4.18711206 2.97811187,3.516 3.8048,3.516 L23.0078,3.516 C23.8335194,3.516 24.5028,4.18714747 24.5028,5.012 L24.5028,17.948 C24.5028,18.7728525 23.8335194,19.444 23.0078,19.444 Z" id="Stroke-23" fill="#457AE6" fill-rule="nonzero"></path>
                <polygon id="Stroke-25" fill="#457AE6" fill-rule="nonzero" points="44.6101864 45.5592 46.0244 44.1449864 52.3586136 50.4792 50.9444 51.8934136"></polygon>
            </g>
        </g>
    </g>
</svg>