<?xml version="1.0" encoding="UTF-8"?>
<svg width="56px" height="51px" viewBox="0 0 56 51" version="1.1" xmlns="http://www.w3.org/2000/svg" xmlns:xlink="http://www.w3.org/1999/xlink">
    <!-- Generator: sketchtool 49 (51002) - http://www.bohemiancoding.com/sketch -->
    <title>A45E55D3-01AB-41B0-9176-AEC0BB5E6D00</title>
    <desc>Created with sketchtool.</desc>
    <defs></defs>
    <g id="Page-1" stroke="none" stroke-width="1" fill="none" fill-rule="evenodd">
        <g id="icon-source" transform="translate(-314.000000, -856.000000)">
            <g id="Group" transform="translate(87.000000, 66.000000)">
                <g id="Group-6-Copy-3" transform="translate(0.000000, 587.000000)">
                    <g id="Group-3-Copy" transform="translate(191.000000, 197.000000)">
                        <g id="alert" transform="translate(32.000000, 0.000000)">
                            <rect id="Background" x="0" y="0" width="64" height="64"></rect>
                            <g id="Page-1" transform="translate(18.000000, 6.000000)" fill="#728BB7">
                                <path d="M0.9969,0.3086 L1.6019,1.5706" id="Fill-23"></path>
                            </g>
                            <g id="Page-1" transform="translate(5.000000, 7.000000)">
                                <path d="M26.9714,4.7656 C28.9554,4.7656 30.5644,6.3736 30.5644,8.3586 C30.5644,10.3426 28.9554,11.9516 26.9714,11.9516 C24.9874,11.9516 23.3784,10.3426 23.3784,8.3586 C23.3784,6.3736 24.9874,4.7656 26.9714,4.7656" id="Fill-1" fill="#457AE6"></path>
                                <path d="M31.0602,42.8125 L31.0602,45.2505 C31.0602,47.5085 29.2302,49.3385 26.9712,49.3385 C24.7122,49.3385 22.8822,47.5075 22.8822,45.2505 L22.8822,42.8125 L31.0602,42.8125 Z" id="Fill-3" fill="#457AE6"></path>
                                <path d="M26.9714,42.8125 L26.9714,49.3385 C29.2304,49.3385 31.0604,47.5085 31.0604,45.2505 L31.0604,42.8125 L26.9714,42.8125 Z" id="Fill-5" fill="#457AE6"></path>
                                <path d="M26.9714,45.3584 L45.4204,45.3584 C45.4204,36.9104 40.0754,42.6264 40.0754,23.0454 C40.0754,14.8854 34.7304,8.3584 26.9714,8.3584 C19.2124,8.3584 13.8674,14.8854 13.8674,23.0454 C13.8674,42.6264 8.5234,36.9094 8.5234,45.3584 L26.9714,45.3584 Z" id="Fill-7" fill="#6DA3F2"></path>
                                <path d="M28.9733,42.6855 L44.4293,42.6855 C44.4293,35.1715 39.9523,40.2555 39.9523,22.8395 C39.9523,15.5835 35.4743,9.7785 28.9733,9.7785 C22.4733,9.7785 17.9953,15.5835 17.9953,22.8395 C17.9953,39.1545 14.0663,35.7245 13.5693,41.4025 C13.5093,42.0865 14.0093,42.6855 14.6573,42.6855 L28.9733,42.6855 Z" id="Fill-9" fill="#97BDFF"></path>
                                <path d="M9.9714,46.3584 C8.56617771,46.3584 7.4564513,45.1430114 7.59624899,43.7450411 C7.78375828,41.8479061 8.26421027,40.7193137 9.28696544,39.3204001 C9.38753657,39.18284 9.75255477,38.6947629 9.82798371,38.5922237 C10.0348569,38.3109973 10.1984537,38.0768354 10.3545748,37.8344073 C12.0155893,35.25515 12.8674,31.2604383 12.8674,23.0454 C12.8674,14.1712807 18.7923004,7.3584 26.9714,7.3584 C35.1504996,7.3584 41.0754,14.1712807 41.0754,23.0454 C41.0754,31.2612986 41.9273488,35.2558207 43.5887739,37.8350204 C43.7448528,38.0773176 43.9084068,38.311368 44.1152196,38.5924613 C44.1906842,38.6950304 44.5555843,39.1828637 44.6561009,39.320321 C45.6791091,40.7192931 46.1597293,41.8478003 46.3475581,43.7451128 C46.485673,45.1435266 45.376417,46.3584 43.9724,46.3584 L9.9714,46.3584 Z M43.9724,44.3584 C44.1976735,44.3584 44.3788058,44.1600213 44.3572645,43.9419157 C44.2075229,42.4293327 43.8666972,41.6290664 43.0416939,40.5008675 C42.9491991,40.3743802 42.5866581,39.8897007 42.5042637,39.7777129 C42.2748415,39.4658895 42.0887167,39.1995397 41.9074164,38.9180888 C40.0034598,35.9623826 39.0754,31.6109998 39.0754,23.0454 C39.0754,15.2185885 33.9790195,9.3584 26.9714,9.3584 C19.9637805,9.3584 14.8674,15.2185885 14.8674,23.0454 C14.8674,31.6100646 13.9395106,35.9615602 12.0360652,38.9172693 C11.8547128,39.198877 11.6685353,39.4653595 11.4390421,39.7773359 C11.3566794,39.8893009 10.9940294,40.3742114 10.9014881,40.5007885 C10.0767415,41.628868 9.73605452,42.4291493 9.58643719,43.9429037 C9.56467352,44.1605405 9.74533175,44.3584 9.9714,44.3584 L43.9724,44.3584 Z" id="Stroke-11" fill="#457AE6" fill-rule="nonzero"></path>
                                <path d="M34.6852,18.3242 C34.6852,20.4112 33.4552,22.1032 31.9362,22.1032 C30.4182,22.1032 29.1872,20.4112 29.1872,18.3242 C29.1872,16.2362 30.4182,14.5442 31.9362,14.5442 C33.4552,14.5442 34.6852,16.2362 34.6852,18.3242" id="Fill-13" fill="#CADEFF"></path>
                                <path d="M16.137883,3.18839594 L17.004187,2.6888789 L18.0032211,4.42148703 L17.136917,4.92100406 C11.0673436,8.42076292 7.2494,14.882624 7.2494,22.0137 L7.2494,23.0137 L5.2494,23.0137 L5.2494,22.0137 C5.2494,14.1601092 9.4553111,7.04161403 16.137883,3.18839594 Z" id="Stroke-15" fill="#457AE6" fill-rule="nonzero"></path>
                                <path d="M48.693,22.0137 L48.693,23.0137 L46.693,23.0137 L46.693,22.0137 C46.693,14.882624 42.8750564,8.42076292 36.805483,4.92100406 L35.9391789,4.42148703 L36.938213,2.6888789 L37.804517,3.18839594 C44.4870889,7.04161403 48.693,14.1601092 48.693,22.0137 Z" id="Stroke-17" fill="#457AE6" fill-rule="nonzero"></path>
                                <path d="M13.0217158,-0.500123014 L13.8880388,-0.999607183 L14.8870072,0.733038845 L14.0206842,1.23252301 C6.02850067,5.8404684 1.0002,14.3506346 1.0002,23.7402 L1.0002,24.7402 L-0.9998,24.7402 L-0.9998,23.7402 C-0.9998,13.6280986 4.41649222,4.46127463 13.0217158,-0.500123014 Z" id="Stroke-19" fill="#457AE6" fill-rule="nonzero"></path>
                                <path d="M54.943,23.7402 L54.943,24.7402 L52.943,24.7402 L52.943,23.7402 C52.943,14.3506346 47.9146993,5.8404684 39.9225158,1.23252301 L39.0561928,0.733038845 L40.0551612,-0.999607183 L40.9214842,-0.500123014 C49.5267078,4.46127463 54.943,13.6280986 54.943,23.7402 Z" id="Stroke-21" fill="#457AE6" fill-rule="nonzero"></path>
                            </g>
                        </g>
                    </g>
                </g>
            </g>
        </g>
    </g>
</svg>