<?xml version="1.0" encoding="UTF-8"?>
<svg width="64px" height="64px" viewBox="0 0 64 64" version="1.1" xmlns="http://www.w3.org/2000/svg" xmlns:xlink="http://www.w3.org/1999/xlink">
    <!-- Generator: Sketch 59 (86127) - https://sketch.com -->
    <title>icon/component/Autocomplete</title>
    <desc>Created with Sketch.</desc>
    <g id="icon/component/Autocomplete" stroke="none" stroke-width="1" fill="none" fill-rule="evenodd">
        <g id="Group-3" transform="translate(6.000000, 9.000000)">
            <polygon id="Fill-1" fill="#FCAF5C" points="1 18 52 18 52 1 1 1"></polygon>
            <path d="M0.747058815,19 C0.334469624,19 0,18.658677 0,18.2376338 L0,0.762366219 C0,0.341322983 0.334469624,0 0.747058815,0 L51.2529412,0 C51.6655304,0 52,0.341322983 52,0.762366219 L52,18.2376338 C52,18.658677 51.6655304,19 51.2529412,19 L0.747058815,19 Z M1.49411763,17.4752676 L50.5058824,17.4752676 L50.5058824,1.52473244 L1.49411763,1.52473244 L1.49411763,17.4752676 Z" id="Stroke-3" fill="#457AE6" fill-rule="nonzero"></path>
            <polygon id="Fill-2" fill="#FF881E" points="1 18 52 18 52 14 1 14"></polygon>
            <path d="M0.747058815,19 C0.334469624,19 0,18.658677 0,18.2376338 L0,0.762366219 C0,0.341322983 0.334469624,0 0.747058815,0 L51.2529412,0 C51.6655304,0 52,0.341322983 52,0.762366219 L52,18.2376338 C52,18.658677 51.6655304,19 51.2529412,19 L0.747058815,19 Z M1.49411763,17.4752676 L50.5058824,17.4752676 L50.5058824,1.52473244 L1.49411763,1.52473244 L1.49411763,17.4752676 Z" id="Stroke-3" fill="#FF7020"></path>
            <path d="M8.63525766,8.55591723 L8.3811546,7.57521507 C8.32193274,7.35689375 8.24962699,7.07509881 8.16492597,6.72913276 C8.08022495,6.38316671 8.02444623,6.13485236 7.99758981,5.98488724 C7.97348789,6.12438968 7.92597268,6.35317368 7.85435556,6.67193676 C7.78342706,6.99069984 7.62504304,7.61846082 7.38058074,8.55591723 L8.63525766,8.55591723 Z M9.25639849,11 L8.96579823,9.8797954 L7.04935154,9.8797954 L6.7511764,11 L5,11 L6.9247102,5 L9.05118788,5 L11,11 L9.25639849,11 Z" id="Fill-5" fill="#FFFFFF" fill-rule="nonzero"></path>
            <path d="M51.0190562,36 L1.98094377,36 C1.43942045,36 1,35.568131 1,35.0342517 L1,27.9657483 C1,27.4326136 1.43942045,27 1.98094377,27 L51.0190562,27 C51.5605795,27 52,27.4326136 52,27.9657483 L52,35.0342517 C52,35.568131 51.5605795,36 51.0190562,36" id="Fill-10" fill="#FDDCB9"></path>
            <path d="M51.1861903,33 L1.81380967,33 C1.36455043,33 1,32.6526126 1,32.2237838 L1,27.7754955 C1,27.3473874 1.36455043,27 1.81380967,27 L51.1861903,27 C51.6354496,27 52,27.3473874 52,27.7754955 L52,32.2237838 C52,32.6526126 51.6354496,33 51.1861903,33" id="Fill-11" fill="#FFFFFF" fill-rule="nonzero" opacity="0.699841486"></path>
            <path d="M51.0190562,47 L1.98094377,47 C1.43942045,47 1,46.5673864 1,46.0342517 L1,38.9657483 C1,38.431869 1.43942045,38 1.98094377,38 L51.0190562,38 C51.5605795,38 52,38.431869 52,38.9657483 L52,46.0342517 C52,46.5673864 51.5605795,47 51.0190562,47" id="Fill-13" fill="#FDDCB9"></path>
            <path d="M51.1861903,46 L1.81380967,46 C1.36455043,46 1,45.6532917 1,45.2244113 L1,40.7755887 C1,40.3467083 1.36455043,40 1.81380967,40 L51.1861903,40 C51.6354496,40 52,40.3467083 52,40.7755887 L52,45.2244113 C52,45.6532917 51.6354496,46 51.1861903,46" id="Fill-14" fill="#FFFFFF" fill-rule="nonzero" opacity="0.699841486"></path>
            <path d="M51.0190562,27 L1.98094377,27 C1.43942045,27 1,26.5674222 1,26.033587 L1,18.9656684 C1,18.4325778 1.43942045,18 1.98094377,18 L51.0190562,18 C51.5605795,18 52,18.4325778 52,18.9656684 L52,26.033587 C52,26.5674222 51.5605795,27 51.0190562,27" id="Fill-16" fill="#FDDCB9"></path>
            <path d="M51.1861903,24 L1.81380967,24 C1.36455043,24 1,23.6533333 1,23.2245045 L1,18.7762162 C1,18.3473874 1.36455043,18 1.81380967,18 L51.1861903,18 C51.6354496,18 52,18.3473874 52,18.7762162 L52,23.2245045 C52,23.6533333 51.6354496,24 51.1861903,24" id="Fill-17" fill="#FFFFFF" fill-rule="nonzero" opacity="0.699841486"></path>
        </g>
        <path d="M6,47 L6,36 L58,36 L58,47 L6,47 Z M56.5058824,45.4357696 L56.5058824,37.5642304 L7.49411763,37.5642304 L7.49411763,45.4357696 L56.5058824,45.4357696 Z" id="Stroke-12" fill="#FF7020"></path>
        <path d="M6,56 L6,45 L58,45 L58,56 L6,56 Z M56.5058824,54.4357696 L56.5058824,46.5642304 L7.49411763,46.5642304 L7.49411763,54.4357696 L56.5058824,54.4357696 Z" id="Stroke-12-Copy-2" fill="#FF7020"></path>
        <path d="M6,38 L6,27 L58,27 L58,38 L6,38 Z M56.5058824,36.4357696 L56.5058824,28.5642304 L7.49411763,28.5642304 L7.49411763,36.4357696 L56.5058824,36.4357696 Z" id="Stroke-12-Copy" fill="#FF7020"></path>
        <rect id="Rectangle" fill="#FFFFFF" fill-rule="nonzero" x="18" y="13" width="1" height="9"></rect>
        <path d="M14.0293814,32.9632644 L13.8176288,32.1460126 C13.7682773,31.9640781 13.7080225,31.729249 13.6374383,31.440944 C13.5668541,31.1526389 13.5203719,30.9457103 13.4979915,30.8207394 C13.4779066,30.9369914 13.4383106,31.1276447 13.3786296,31.3932806 C13.3195226,31.6589165 13.1875359,32.1820507 12.9838173,32.9632644 L14.0293814,32.9632644 Z M14.5469987,35 L14.3048319,34.0664962 L12.707793,34.0664962 L12.4593137,35 L11,35 L12.6039252,30 L14.3759899,30 L16,35 L14.5469987,35 Z" id="Fill-5" fill="#FF7020"></path>
        <path d="M14.0293814,41.9632644 L13.8176288,41.1460126 C13.7682773,40.9640781 13.7080225,40.729249 13.6374383,40.440944 C13.5668541,40.1526389 13.5203719,39.9457103 13.4979915,39.8207394 C13.4779066,39.9369914 13.4383106,40.1276447 13.3786296,40.3932806 C13.3195226,40.6589165 13.1875359,41.1820507 12.9838173,41.9632644 L14.0293814,41.9632644 Z M14.5469987,44 L14.3048319,43.0664962 L12.707793,43.0664962 L12.4593137,44 L11,44 L12.6039252,39 L14.3759899,39 L16,44 L14.5469987,44 Z" id="Fill-5" fill="#FF7020"></path>
        <path d="M14.0293814,50.9632644 L13.8176288,50.1460126 C13.7682773,49.9640781 13.7080225,49.729249 13.6374383,49.440944 C13.5668541,49.1526389 13.5203719,48.9457103 13.4979915,48.8207394 C13.4779066,48.9369914 13.4383106,49.1276447 13.3786296,49.3932806 C13.3195226,49.6589165 13.1875359,50.1820507 12.9838173,50.9632644 L14.0293814,50.9632644 Z M14.5469987,53 L14.3048319,52.0664962 L12.707793,52.0664962 L12.4593137,53 L11,53 L12.6039252,48 L14.3759899,48 L16,53 L14.5469987,53 Z" id="Fill-5" fill="#FF7020"></path>
        <path d="M18.9047012,34.0589262 C19.0812749,34.0589262 19.232988,34.0077113 19.3585657,33.9052815 C19.4841434,33.8034337 19.547251,33.6701586 19.547251,33.5066201 L19.547251,33.2063146 L19.2106773,33.2202823 C18.7306773,33.2359959 18.4903586,33.3972065 18.4903586,33.7044959 C18.4903586,33.9407828 18.6280478,34.0589262 18.9047012,34.0589262 L18.9047012,34.0589262 Z M19.9877291,34.9319075 L19.7078884,34.4203405 L19.6779283,34.4203405 C19.4809562,34.6432417 19.2807968,34.7957224 19.0768127,34.8772006 C18.8721912,34.9592609 18.6082869,35 18.2844622,35 C17.8860558,35 17.5724303,34.8911683 17.3435857,34.672923 C17.1141036,34.4546777 17,34.1473883 17,33.7522188 C17,33.3407537 17.1568127,33.0340463 17.4704382,32.8332606 C17.7840637,32.6318929 18.2385657,32.5189873 18.8339442,32.4939619 L19.5396016,32.4730103 L19.5396016,32.4188855 C19.5396016,32.1005383 19.3681275,31.9410738 19.0239044,31.9410738 C18.7153785,31.9410738 18.3233466,32.0365197 17.8478088,32.2279936 L17.4258167,31.3480285 C17.9185657,31.1158155 18.5413546,31 19.2929084,31 C19.8360159,31 20.2560956,31.1227994 20.5537849,31.3683981 C20.8514741,31.6139968 21,31.9573694 21,32.3979339 L21,34.9319075 L19.9877291,34.9319075 Z" id="Fill-6" fill="#FF7020"></path>
        <path d="M18.9047012,43.0589262 C19.0812749,43.0589262 19.232988,43.0077113 19.3585657,42.9052815 C19.4841434,42.8034337 19.547251,42.6701586 19.547251,42.5066201 L19.547251,42.2063146 L19.2106773,42.2202823 C18.7306773,42.2359959 18.4903586,42.3972065 18.4903586,42.7044959 C18.4903586,42.9407828 18.6280478,43.0589262 18.9047012,43.0589262 L18.9047012,43.0589262 Z M19.9877291,43.9319075 L19.7078884,43.4203405 L19.6779283,43.4203405 C19.4809562,43.6432417 19.2807968,43.7957224 19.0768127,43.8772006 C18.8721912,43.9592609 18.6082869,44 18.2844622,44 C17.8860558,44 17.5724303,43.8911683 17.3435857,43.672923 C17.1141036,43.4546777 17,43.1473883 17,42.7522188 C17,42.3407537 17.1568127,42.0340463 17.4704382,41.8332606 C17.7840637,41.6318929 18.2385657,41.5189873 18.8339442,41.4939619 L19.5396016,41.4730103 L19.5396016,41.4188855 C19.5396016,41.1005383 19.3681275,40.9410738 19.0239044,40.9410738 C18.7153785,40.9410738 18.3233466,41.0365197 17.8478088,41.2279936 L17.4258167,40.3480285 C17.9185657,40.1158155 18.5413546,40 19.2929084,40 C19.8360159,40 20.2560956,40.1227994 20.5537849,40.3683981 C20.8514741,40.6139968 21,40.9573694 21,41.3979339 L21,43.9319075 L19.9877291,43.9319075 Z" id="Fill-6" fill="#FF7020"></path>
        <path d="M18.9047012,52.0589262 C19.0812749,52.0589262 19.232988,52.0077113 19.3585657,51.9052815 C19.4841434,51.8034337 19.547251,51.6701586 19.547251,51.5066201 L19.547251,51.2063146 L19.2106773,51.2202823 C18.7306773,51.2359959 18.4903586,51.3972065 18.4903586,51.7044959 C18.4903586,51.9407828 18.6280478,52.0589262 18.9047012,52.0589262 L18.9047012,52.0589262 Z M19.9877291,52.9319075 L19.7078884,52.4203405 L19.6779283,52.4203405 C19.4809562,52.6432417 19.2807968,52.7957224 19.0768127,52.8772006 C18.8721912,52.9592609 18.6082869,53 18.2844622,53 C17.8860558,53 17.5724303,52.8911683 17.3435857,52.672923 C17.1141036,52.4546777 17,52.1473883 17,51.7522188 C17,51.3407537 17.1568127,51.0340463 17.4704382,50.8332606 C17.7840637,50.6318929 18.2385657,50.5189873 18.8339442,50.4939619 L19.5396016,50.4730103 L19.5396016,50.4188855 C19.5396016,50.1005383 19.3681275,49.9410738 19.0239044,49.9410738 C18.7153785,49.9410738 18.3233466,50.0365197 17.8478088,50.2279936 L17.4258167,49.3480285 C17.9185657,49.1158155 18.5413546,49 19.2929084,49 C19.8360159,49 20.2560956,49.1227994 20.5537849,49.3683981 C20.8514741,49.6139968 21,49.9573694 21,50.3979339 L21,52.9319075 L19.9877291,52.9319075 Z" id="Fill-6" fill="#FF7020"></path>
        <path d="M23.9047012,34.0589262 C24.0812749,34.0589262 24.232988,34.0077113 24.3585657,33.9052815 C24.4841434,33.8034337 24.547251,33.6701586 24.547251,33.5066201 L24.547251,33.2063146 L24.2106773,33.2202823 C23.7306773,33.2359959 23.4903586,33.3972065 23.4903586,33.7044959 C23.4903586,33.9407828 23.6280478,34.0589262 23.9047012,34.0589262 L23.9047012,34.0589262 Z M24.9877291,34.9319075 L24.7078884,34.4203405 L24.6779283,34.4203405 C24.4809562,34.6432417 24.2807968,34.7957224 24.0768127,34.8772006 C23.8721912,34.9592609 23.6082869,35 23.2844622,35 C22.8860558,35 22.5724303,34.8911683 22.3435857,34.672923 C22.1141036,34.4546777 22,34.1473883 22,33.7522188 C22,33.3407537 22.1568127,33.0340463 22.4704382,32.8332606 C22.7840637,32.6318929 23.2385657,32.5189873 23.8339442,32.4939619 L24.5396016,32.4730103 L24.5396016,32.4188855 C24.5396016,32.1005383 24.3681275,31.9410738 24.0239044,31.9410738 C23.7153785,31.9410738 23.3233466,32.0365197 22.8478088,32.2279936 L22.4258167,31.3480285 C22.9185657,31.1158155 23.5413546,31 24.2929084,31 C24.8360159,31 25.2560956,31.1227994 25.5537849,31.3683981 C25.8514741,31.6139968 26,31.9573694 26,32.3979339 L26,34.9319075 L24.9877291,34.9319075 Z" id="Fill-7" fill="#FF7020"></path>
        <path d="M23.9047012,43.0589262 C24.0812749,43.0589262 24.232988,43.0077113 24.3585657,42.9052815 C24.4841434,42.8034337 24.547251,42.6701586 24.547251,42.5066201 L24.547251,42.2063146 L24.2106773,42.2202823 C23.7306773,42.2359959 23.4903586,42.3972065 23.4903586,42.7044959 C23.4903586,42.9407828 23.6280478,43.0589262 23.9047012,43.0589262 L23.9047012,43.0589262 Z M24.9877291,43.9319075 L24.7078884,43.4203405 L24.6779283,43.4203405 C24.4809562,43.6432417 24.2807968,43.7957224 24.0768127,43.8772006 C23.8721912,43.9592609 23.6082869,44 23.2844622,44 C22.8860558,44 22.5724303,43.8911683 22.3435857,43.672923 C22.1141036,43.4546777 22,43.1473883 22,42.7522188 C22,42.3407537 22.1568127,42.0340463 22.4704382,41.8332606 C22.7840637,41.6318929 23.2385657,41.5189873 23.8339442,41.4939619 L24.5396016,41.4730103 L24.5396016,41.4188855 C24.5396016,41.1005383 24.3681275,40.9410738 24.0239044,40.9410738 C23.7153785,40.9410738 23.3233466,41.0365197 22.8478088,41.2279936 L22.4258167,40.3480285 C22.9185657,40.1158155 23.5413546,40 24.2929084,40 C24.8360159,40 25.2560956,40.1227994 25.5537849,40.3683981 C25.8514741,40.6139968 26,40.9573694 26,41.3979339 L26,43.9319075 L24.9877291,43.9319075 Z" id="Fill-7" fill="#FF7020"></path>
        <path d="M23.9047012,52.0589262 C24.0812749,52.0589262 24.232988,52.0077113 24.3585657,51.9052815 C24.4841434,51.8034337 24.547251,51.6701586 24.547251,51.5066201 L24.547251,51.2063146 L24.2106773,51.2202823 C23.7306773,51.2359959 23.4903586,51.3972065 23.4903586,51.7044959 C23.4903586,51.9407828 23.6280478,52.0589262 23.9047012,52.0589262 L23.9047012,52.0589262 Z M24.9877291,52.9319075 L24.7078884,52.4203405 L24.6779283,52.4203405 C24.4809562,52.6432417 24.2807968,52.7957224 24.0768127,52.8772006 C23.8721912,52.9592609 23.6082869,53 23.2844622,53 C22.8860558,53 22.5724303,52.8911683 22.3435857,52.672923 C22.1141036,52.4546777 22,52.1473883 22,51.7522188 C22,51.3407537 22.1568127,51.0340463 22.4704382,50.8332606 C22.7840637,50.6318929 23.2385657,50.5189873 23.8339442,50.4939619 L24.5396016,50.4730103 L24.5396016,50.4188855 C24.5396016,50.1005383 24.3681275,49.9410738 24.0239044,49.9410738 C23.7153785,49.9410738 23.3233466,50.0365197 22.8478088,50.2279936 L22.4258167,49.3480285 C22.9185657,49.1158155 23.5413546,49 24.2929084,49 C24.8360159,49 25.2560956,49.1227994 25.5537849,49.3683981 C25.8514741,49.6139968 26,49.9573694 26,50.3979339 L26,52.9319075 L24.9877291,52.9319075 Z" id="Fill-7" fill="#FF7020"></path>
    </g>
</svg>