<svg width="64" height="64" xmlns="http://www.w3.org/2000/svg"><g fill="none" fill-rule="evenodd"><path fill="#97BDFF" d="M7 24h51V8H7z"/><path fill="#6DA3F2" d="M7 25h51v-4H7z"/><path d="M6.747 26A.755.755 0 016 25.238V7.762c0-.42.334-.762.747-.762h50.506c.413 0 .747.341.747.762v17.476a.755.755 0 01-.747.762H6.747zm.747-1.525h49.012V8.525H7.494v15.95z" fill="#457AE6" fill-rule="nonzero"/><path d="M6.747 26A.755.755 0 016 25.238V7.762c0-.42.334-.762.747-.762h50.506c.413 0 .747.341.747.762v17.476a.755.755 0 01-.747.762H6.747zm.747-1.525h49.012V8.525H7.494v15.95z" fill="#457AE6" fill-rule="nonzero"/><path d="M14.635 15.556l-.254-.98c-.06-.22-.131-.5-.216-.847-.085-.346-.14-.594-.167-.744-.025.14-.072.368-.144.687-.07.319-.229.946-.473 1.884h1.254zM15.256 18l-.29-1.12h-1.917L12.751 18H11l1.925-6h2.126L17 18h-1.744z" fill="#FFF"/><path d="M57.02 43H7.98a.973.973 0 01-.98-.966v-7.068c0-.533.44-.966.98-.966h49.04c.54 0 .98.433.98.966v7.068c0 .534-.44.966-.98.966" fill="#CADEFF"/><path d="M57.186 40H7.814c-.45 0-.814-.347-.814-.776v-4.449c0-.428.365-.775.814-.775h49.372c.45 0 .814.347.814.775v4.449c0 .429-.365.776-.814.776" fill="#FFF" opacity=".7"/><path d="M57.02 54H7.98a.974.974 0 01-.98-.966v-7.068c0-.534.44-.966.98-.966h49.04c.54 0 .98.432.98.966v7.068c0 .533-.44.966-.98.966" fill="#CADEFF"/><path d="M57.186 53H7.814c-.45 0-.814-.347-.814-.776v-4.448c0-.43.365-.776.814-.776h49.372c.45 0 .814.347.814.776v4.448c0 .43-.365.776-.814.776" fill="#FFF" opacity=".7"/><path d="M57.02 34H7.98a.974.974 0 01-.98-.966v-7.068c0-.533.44-.966.98-.966h49.04c.54 0 .98.433.98.966v7.068c0 .533-.44.966-.98.966" fill="#CADEFF"/><path d="M57.186 31H7.814c-.45 0-.814-.347-.814-.775v-4.449c0-.429.365-.776.814-.776h49.372c.45 0 .814.347.814.776v4.449c0 .428-.365.775-.814.775" fill="#FFF" opacity=".7"/><path d="M6 45V34h52v11H6zm50.506-1.564v-7.872H7.494v7.872h49.012z" fill="#457AE6" fill-rule="nonzero"/><path d="M6 54V43h52v11H6zm50.506-1.564v-7.872H7.494v7.872h49.012zM6 36V25h52v11H6zm50.506-1.564v-7.872H7.494v7.872h49.012z" fill="#457AE6" fill-rule="nonzero"/><path stroke="#FFF" d="M8 9h48v15H8z"/><path fill="#FFF" d="M18 11h1v9h-1z"/><path d="M14.03 30.963l-.212-.817c-.05-.182-.11-.417-.18-.705-.071-.288-.118-.495-.14-.62-.02.116-.06.307-.12.572-.058.266-.19.79-.394 1.57h1.045zM14.546 33l-.242-.934h-1.597l-.249.934H11l1.604-5h1.772L16 33h-1.453zM14.03 39.963l-.212-.817c-.05-.182-.11-.417-.18-.705-.071-.288-.118-.495-.14-.62-.02.116-.06.307-.12.572-.058.266-.19.79-.394 1.57h1.045zM14.546 42l-.242-.934h-1.597l-.249.934H11l1.604-5h1.772L16 42h-1.453zM14.03 48.963l-.212-.817c-.05-.182-.11-.417-.18-.705-.071-.288-.118-.495-.14-.62-.02.116-.06.307-.12.572-.058.266-.19.79-.394 1.57h1.045zM14.546 51l-.242-.934h-1.597l-.249.934H11l1.604-5h1.772L16 51h-1.453zM18.905 32.059a.696.696 0 00.454-.154.49.49 0 00.188-.398v-.3l-.336.013c-.48.016-.72.177-.72.484 0 .237.137.355.414.355zm1.083.873l-.28-.512h-.03c-.197.223-.397.376-.601.457-.205.082-.469.123-.793.123-.398 0-.712-.109-.94-.327-.23-.218-.344-.526-.344-.92 0-.412.157-.719.47-.92.314-.201.769-.314 1.364-.339l.706-.021v-.054c0-.318-.172-.478-.516-.478-.309 0-.7.096-1.176.287l-.422-.88c.493-.232 1.115-.348 1.867-.348.543 0 .963.123 1.26.368.298.246.447.59.447 1.03v2.534h-1.012zM18.905 41.059a.696.696 0 00.454-.154.49.49 0 00.188-.398v-.3l-.336.013c-.48.016-.72.177-.72.484 0 .237.137.355.414.355zm1.083.873l-.28-.512h-.03c-.197.223-.397.376-.601.457-.205.082-.469.123-.793.123-.398 0-.712-.109-.94-.327-.23-.218-.344-.526-.344-.92 0-.412.157-.719.47-.92.314-.201.769-.314 1.364-.339l.706-.021v-.054c0-.318-.172-.478-.516-.478-.309 0-.7.096-1.176.287l-.422-.88c.493-.232 1.115-.348 1.867-.348.543 0 .963.123 1.26.368.298.246.447.59.447 1.03v2.534h-1.012zM18.905 50.059a.696.696 0 00.454-.154.49.49 0 00.188-.398v-.3l-.336.013c-.48.016-.72.177-.72.484 0 .237.137.355.414.355zm1.083.873l-.28-.512h-.03c-.197.223-.397.376-.601.457-.205.082-.469.123-.793.123-.398 0-.712-.109-.94-.327-.23-.218-.344-.526-.344-.92 0-.412.157-.719.47-.92.314-.201.769-.314 1.364-.339l.706-.021v-.054c0-.318-.172-.478-.516-.478-.309 0-.7.096-1.176.287l-.422-.88c.493-.232 1.115-.348 1.867-.348.543 0 .963.123 1.26.368.298.246.447.59.447 1.03v2.534h-1.012zM23.905 32.059a.696.696 0 00.454-.154.49.49 0 00.188-.398v-.3l-.336.013c-.48.016-.72.177-.72.484 0 .237.137.355.414.355zm1.083.873l-.28-.512h-.03c-.197.223-.397.376-.601.457-.205.082-.469.123-.793.123-.398 0-.712-.109-.94-.327-.23-.218-.344-.526-.344-.92 0-.412.157-.719.47-.92.314-.201.769-.314 1.364-.339l.706-.021v-.054c0-.318-.172-.478-.516-.478-.309 0-.7.096-1.176.287l-.422-.88c.493-.232 1.115-.348 1.867-.348.543 0 .963.123 1.26.368.298.246.447.59.447 1.03v2.534h-1.012zM23.905 41.059a.696.696 0 00.454-.154.49.49 0 00.188-.398v-.3l-.336.013c-.48.016-.72.177-.72.484 0 .237.137.355.414.355zm1.083.873l-.28-.512h-.03c-.197.223-.397.376-.601.457-.205.082-.469.123-.793.123-.398 0-.712-.109-.94-.327-.23-.218-.344-.526-.344-.92 0-.412.157-.719.47-.92.314-.201.769-.314 1.364-.339l.706-.021v-.054c0-.318-.172-.478-.516-.478-.309 0-.7.096-1.176.287l-.422-.88c.493-.232 1.115-.348 1.867-.348.543 0 .963.123 1.26.368.298.246.447.59.447 1.03v2.534h-1.012zM23.905 50.059a.696.696 0 00.454-.154.49.49 0 00.188-.398v-.3l-.336.013c-.48.016-.72.177-.72.484 0 .237.137.355.414.355zm1.083.873l-.28-.512h-.03c-.197.223-.397.376-.601.457-.205.082-.469.123-.793.123-.398 0-.712-.109-.94-.327-.23-.218-.344-.526-.344-.92 0-.412.157-.719.47-.92.314-.201.769-.314 1.364-.339l.706-.021v-.054c0-.318-.172-.478-.516-.478-.309 0-.7.096-1.176.287l-.422-.88c.493-.232 1.115-.348 1.867-.348.543 0 .963.123 1.26.368.298.246.447.59.447 1.03v2.534h-1.012z" fill="#457AE6"/></g></svg>
