<?xml version="1.0" encoding="UTF-8"?>
<svg width="64px" height="64px" viewBox="0 0 64 64" version="1.1" xmlns="http://www.w3.org/2000/svg" xmlns:xlink="http://www.w3.org/1999/xlink">
    <!-- Generator: Sketch 55.2 (78181) - https://sketchapp.com -->
    <title>icon/calendar</title>
    <desc>Created with Sketch.</desc>
    <g id="icon/calendar" stroke="none" stroke-width="1" fill="none" fill-rule="evenodd">
        <polygon id="Fill-1" fill="#FF881E" points="50.7440223 51.6106604 10.9421342 51.6106604 9.0128683 51.9004693 9.00018689 54.1271964 9.97158325 55.1106604 54.7344408 55.1106604 57.0001869 53.9076961 56.7837574 48.1106604"></polygon>
        <polygon id="Path-10" fill="#FFFFFF" points="52.0001869 45.1106604 52.0001869 50.1106604 57.0001869 45.349019"></polygon>
        <path d="M55.2106066,47.1106604 L57.0001869,47.1106604 L57.0001869,55.1742331 C57.0001869,55.6914076 56.5995757,56.1106604 56.1053967,56.1106604 L8.89497702,56.1106604 C8.40079808,56.1106604 8.00018689,55.6914076 8.00018689,55.1742331 L8.00018689,52.0597126 L9.78976716,52.0597126 L9.78976716,54.2378058 L55.2106066,54.2378058 L55.2106066,47.1106604 Z" id="Stroke-2" fill="#FF7020"></path>
        <polygon id="Fill-4" fill="#FDDCB9" points="7.00018689 24.1106604 58.0001869 24.1106604 58.0001869 17.1106604 7.00018689 17.1106604"></polygon>
        <polygon id="Fill-5" fill="#FEF3E7" points="7.00018689 18.1106604 58.0001869 18.1106604 58.0001869 15.1106604 7.00018689 15.1106604"></polygon>
        <path d="M7.00018689,23.1106604 L58.0001869,23.1106604 L58.0001869,44.8219222 C54.440194,44.7101082 52.3524747,45.0116535 51.737029,45.7265581 C49.9923671,47.7531653 51.804007,51.9395975 50.8422921,52.0590095 C49.3716965,52.2416071 34.7576614,51.9400618 7.00018689,51.1543736 L7.00018689,23.1106604 Z" id="Rectangle" fill="#FCAF5C"></path>
        <path d="M9.00018689,23.1106604 L57.0001869,23.1106604 L57.0001869,45.5244535 L51.5662246,45.5244535 C52.3712561,47.9152581 52.3712561,49.1106604 51.5662246,49.1106604 C50.7611932,49.1106604 36.5725139,49.1106604 9.00018689,49.1106604 L9.00018689,23.1106604 Z" id="Rectangle" fill="#FDDCB9"></path>
        <path d="M58.0976651,14.1106604 C58.5961141,14.1106604 59.0001869,14.5053632 59.0001869,14.9922537 L59.0001869,44.916526 C59.0001869,45.1488802 58.9062797,45.3718396 58.7388855,45.5369218 L52.3379347,51.8494628 C52.1684379,52.0166185 51.9375722,52.1106604 51.6967143,52.1106604 L6.90270867,52.1106604 C6.40425965,52.1106604 6.00018689,51.7159576 6.00018689,51.229067 L6.00018689,14.9922537 C6.00018689,14.5053632 6.40425965,14.1106604 6.90270867,14.1106604 L58.0976651,14.1106604 Z M57.1951433,15.8738471 L7.80523046,15.8738471 L7.80523046,50.3474737 L51.3203496,50.3474737 L57.1951433,44.5538225 L57.1951433,15.8738471 Z" id="Stroke-6" fill="#FF7020"></path>
        <path d="M52.5048453,51.8502166 C51.9519093,52.4043121 51.0001869,52.0156659 51.0001869,51.235773 L51.0001869,44.9837956 C51.0001869,44.5015763 51.3940295,44.1106604 51.879859,44.1106604 L58.1187533,44.1106604 C58.9004331,44.1106604 59.2938241,45.0470011 58.7437396,45.5982392 L52.5048453,51.8502166 Z M56.0093012,45.8569307 L52.7595311,45.8569307 L52.7595311,49.1135157 L56.0093012,45.8569307 Z" id="Stroke-8" fill="#FF7020"></path>
        <polygon id="Stroke-10" fill="#FF7020" points="6.00018689 24.1106604 6.00018689 22.1106604 58.0001869 22.1106604 58.0001869 24.1106604"></polygon>
        <path d="M27.4761131,35.0892129 C27.4761131,34.311354 27.4211665,33.6575254 27.3121059,33.1277271 C27.2013802,32.5987502 27.039038,32.1708046 26.8242468,31.8471758 C26.6077906,31.5210829 26.3463781,31.286986 26.0366792,31.1424209 C25.7278128,30.9986772 25.3781528,30.9263946 24.9885316,30.9263946 C24.5980778,30.9263946 24.2500828,30.9986772 23.9462116,31.1424209 C23.6406753,31.286986 23.3825929,31.5210829 23.1711318,31.8471758 C22.9596707,32.1708046 22.7998261,32.5987502 22.6891004,33.1277271 C22.5800398,33.6575254 22.5250932,34.311354 22.5250932,35.0892129 L22.5250932,39.0836457 C22.5250932,39.8697185 22.5817049,40.531761 22.6957606,41.0689519 C22.8098164,41.6069641 22.9721586,42.0423023 23.1836197,42.3741449 C23.3950807,42.7076304 23.6548282,42.9458342 23.9636946,43.0903994 C24.272561,43.2349645 24.622221,43.307247 25.0126747,43.307247 C25.4031285,43.307247 25.7527885,43.2349645 26.0616549,43.0903994 C26.3705213,42.9458342 26.6286037,42.7076304 26.8350696,42.3741449 C27.0432006,42.0423023 27.2013802,41.6069641 27.3121059,41.0689519 C27.4211665,40.531761 27.4761131,39.8697185 27.4761131,39.0836457 L27.4761131,35.0892129 Z M31.0001869,38.6269513 C31.0001869,39.9420011 30.8561602,41.0714161 30.5672744,42.0135535 C30.2783886,42.9565123 29.8729495,43.7319071 29.3476269,44.3422019 C28.8239693,44.9516753 28.1929162,45.3993343 27.4586301,45.6835362 C26.7218464,45.967738 25.9068055,46.1106604 25.0126747,46.1106604 C24.118544,46.1106604 23.3026706,45.967738 22.5675519,45.6835362 C21.8316008,45.3993343 21.1997151,44.9516753 20.6710624,44.3422019 C20.1424097,43.7319071 19.7319754,42.9565123 19.4397595,42.0135535 C19.1467111,41.0714161 19.0001869,39.9420011 19.0001869,38.6269513 L19.0001869,35.5828699 C19.0001869,34.2669988 19.1442135,33.1384052 19.4339319,32.1954464 C19.7219851,31.2533089 20.1307544,30.479557 20.6594071,29.8733691 C21.1872273,29.2680027 21.8174479,28.8228079 22.5492364,28.5369632 C23.281025,28.2535827 24.0944008,28.1106604 24.9885316,28.1106604 C25.8826623,28.1106604 26.6968707,28.2535827 27.4336543,28.5369632 C28.168773,28.8228079 28.8014912,29.2680027 29.3301439,29.8733691 C29.857964,30.479557 30.2683983,31.2533089 30.5614468,32.1954464 C30.8544952,33.1384052 31.0001869,34.2669988 31.0001869,35.5828699 L31.0001869,38.6269513 Z" id="Fill-12" fill="#FFFFFF"></path>
        <polygon id="Fill-14" fill="#FFFFFF" points="42.0001869 46.1106604 38.3537995 46.1106604 38.3537995 32.3576052 34.0001869 33.6782963 34.0001869 30.777327 41.6091026 28.1106604 42.0001869 28.1106604 42.0001869 29.0317481"></polygon>
        <path d="M28.4203425,35.0627283 L28.4203425,39.1094954 C28.4203425,39.9583143 28.3600666,40.6851508 28.2359723,41.294737 C28.103574,41.9363305 27.9076819,42.471648 27.6384552,42.8997223 C27.3411647,43.3786208 26.9492412,43.7403006 26.4693966,43.9642899 C26.0292009,44.1697714 25.540542,44.2705172 25.0128724,44.2705172 C24.4852028,44.2705172 23.9965439,44.1697714 23.5563482,43.9642899 C23.0794635,43.7416822 22.6878421,43.3831748 22.3866125,42.9093893 C22.1100812,42.4765965 21.9092474,41.9404238 21.7731198,41.3000179 C21.6435803,40.6915366 21.580877,39.9631255 21.580877,39.1094954 L21.580877,35.0627283 C21.580877,34.2216076 21.6412568,33.5023285 21.7658408,32.8987667 C21.899541,32.2617451 22.099714,31.7303682 22.3777174,31.3060509 C22.6792013,30.8423809 23.0663547,30.4915115 23.5352078,30.2702675 C23.9718949,30.0642502 24.4600857,29.9632858 24.9883471,29.9632858 C25.5142702,29.9632858 26.0023826,30.0636929 26.4431701,30.2682822 C26.9145701,30.4877381 27.3048792,30.8361336 27.6124308,31.2982199 C27.8977461,31.7269556 28.1015084,32.2609347 28.2359642,32.9015802 C28.3599626,33.5023285 28.4203425,34.2216076 28.4203425,35.0627283 Z M26.6102496,35.0627283 C26.6102496,34.3302671 26.5593536,33.7239642 26.462008,33.2523202 C26.3702758,32.8152567 26.243622,32.4833481 26.0938273,32.2582556 C25.9613701,32.059243 25.8204884,31.93349 25.6639487,31.8606137 C25.4756365,31.7732098 25.2531985,31.7274533 24.9883471,31.7274533 C24.7239258,31.7274533 24.5049842,31.7727333 24.3239304,31.8581496 C24.1709701,31.9303291 24.034101,32.0543709 23.9049857,32.2529351 C23.7572725,32.4783953 23.6316596,32.8118458 23.539797,33.2495068 C23.4418659,33.7239642 23.3909698,34.3302671 23.3909698,35.0627283 L23.3909698,39.1094954 C23.3909698,39.851273 23.4436666,40.4634392 23.5455195,40.9418698 C23.6414372,41.3931099 23.7707458,41.7383293 23.9241874,41.9784814 C24.0511774,42.1782143 24.1871147,42.3026574 24.3382348,42.3731996 C24.5255478,42.4606365 24.7472762,42.5063498 25.0128724,42.5063498 C25.2784685,42.5063498 25.5001969,42.4606365 25.68751,42.3731996 C25.8365143,42.303645 25.9684724,42.1818698 26.0924726,41.982149 C26.2416841,41.7448851 26.367938,41.3998689 26.4609504,40.9491521 C26.559221,40.466407 26.6102496,39.8510786 26.6102496,39.1094954 L26.6102496,35.0627283 Z M30.190094,38.6468175 L30.190094,35.5628531 C30.190094,34.3098396 30.0527812,33.2516421 29.7835316,32.3875849 C29.5202838,31.5435246 29.1604816,30.8668636 28.7102369,30.3511544 C28.2687616,29.8469713 27.7474302,29.4807246 27.1407111,29.2454329 C26.4992797,28.9993882 25.7841407,28.8748278 24.9883471,28.8748278 C24.1926158,28.8748278 23.479037,28.9993709 22.8463607,29.2437097 C22.239971,29.4799371 21.7207473,29.8460287 21.2795359,30.3507051 C20.8284706,30.8665393 20.4710904,31.5417266 20.2126593,32.3847096 C19.9461451,33.249819 19.8102797,34.3089315 19.8102797,35.5628531 L19.8102797,38.6468175 C19.8102797,39.8976712 19.9481229,40.956938 20.2179592,41.8221251 C20.4804075,42.6667553 20.8403821,43.3455366 21.2929391,43.8665834 C21.7351875,44.3750758 22.2548796,44.7418065 22.8619907,44.9756257 C23.5000501,45.2216424 24.2161877,45.3464929 25.0128724,45.3464929 C25.8092654,45.3464929 26.5248386,45.2217408 27.1642735,44.9757516 C27.7700417,44.7419206 28.2876035,44.3754866 28.7238336,43.8691301 C29.172376,43.3494321 29.5282697,42.67147 29.7884166,41.8245953 C30.0542837,40.9598532 30.190094,39.8996423 30.190094,38.6468175 Z M32.0001869,38.6468175 C32.0001869,40.0606178 31.8429315,41.288241 31.5223994,42.3307829 C31.1948381,43.3971162 30.7264293,44.2894148 30.1095461,45.0041583 C29.4820965,45.7324748 28.7178766,46.2735428 27.8298221,46.6163377 C26.9711935,46.9466511 26.030443,47.1106604 25.0128724,47.1106604 C23.9947477,47.1106604 23.0530089,46.9464788 22.1964432,46.6162125 C21.309796,46.2747345 20.5452261,45.7352011 19.9117752,45.0068658 C19.2898329,44.2907995 18.8163298,43.3979446 18.485837,42.334327 C18.1601227,41.2899782 18.0001869,40.0609384 18.0001869,38.6468175 L18.0001869,35.5628531 C18.0001869,34.1476717 18.1575665,32.9208489 18.4786766,31.878523 C18.8053759,30.812851 19.2781002,29.9197474 19.9018236,29.206463 C20.5322086,28.4854017 21.2930554,27.9489478 22.177038,27.6045845 C23.0313735,27.2746356 23.9708812,27.1106604 24.9883471,27.1106604 C26.0048977,27.1106604 26.9446558,27.2743441 27.8067641,27.6050443 C28.6920102,27.9483418 29.4556857,28.4848406 30.0879488,29.2069125 C30.7094839,29.9188155 31.183415,30.8101126 31.5154463,31.874716 C31.8408729,32.9190524 32.0001869,34.1468012 32.0001869,35.5628531 L32.0001869,38.6468175 Z" id="Stroke-16" fill="#FF7020"></path>
        <path d="M41.1271798,29.1619461 L34.8731939,31.3427574 L34.8731939,32.4124206 L38.0796475,31.4446071 C38.68278,31.2625618 39.2959163,31.6969942 39.2959163,32.3063839 L39.2959163,45.3046375 L41.1271798,45.3046375 L41.1271798,29.1619461 Z M34.2164557,34.5030842 C33.6133232,34.6851295 33.0001869,34.250697 33.0001869,33.6413074 L33.0001869,30.7090758 C33.0001869,30.32877 33.2472974,29.989225 33.6181996,29.8598887 L41.3479001,27.1644847 C41.4500242,27.1288732 41.5577938,27.1106604 41.6663909,27.1106604 L42.0636834,27.1106604 C42.5809,27.1106604 43.0001869,27.5149524 43.0001869,28.0136718 L43.0001869,46.2076489 C43.0001869,46.7063684 42.5809,47.1106604 42.0636834,47.1106604 L38.3594127,47.1106604 C37.8421961,47.1106604 37.4229092,46.7063684 37.4229092,46.2076489 L37.4229092,33.5352707 L34.2164557,34.5030842 Z" id="Stroke-18" fill="#FF7020"></path>
        <path d="M18.5006055,21.1106604 L18.5006055,21.1106604 C17.6758776,21.1106604 17.0001869,20.4119125 17.0001869,19.5590419 L17.0001869,9.66141301 C17.0001869,8.80854235 17.6758776,8.11066038 18.5006055,8.11066038 C19.3253334,8.11066038 20.0001869,8.80854235 20.0001869,9.66141301 L20.0001869,19.5590419 C20.0001869,20.4119125 19.3253334,21.1106604 18.5006055,21.1106604" id="Fill-24" fill="#FDDCB9"></path>
        <path d="M18.5006237,19.3784321 C18.8424529,19.3784321 19.1303462,19.1089589 19.1303462,18.780323 L19.1303462,9.44018063 C19.1303462,9.11184729 18.8427813,8.8428887 18.5006237,8.8428887 C18.1581376,8.8428887 17.8700276,9.11214986 17.8700276,9.44018063 L17.8700276,18.780323 C17.8700276,19.1086564 18.158466,19.3784321 18.5006237,19.3784321 Z M18.5006237,21.1106604 C17.1217616,21.1106604 16.0001869,20.0616547 16.0001869,18.780323 L16.0001869,9.44018063 C16.0001869,8.15885608 17.1217586,7.11066038 18.5006237,7.11066038 C19.8794858,7.11066038 21.0001869,8.15884897 21.0001869,9.44018063 L21.0001869,18.780323 C21.0001869,20.061662 19.8794831,21.1106604 18.5006237,21.1106604 Z" id="Stroke-26" fill="#FF7020"></path>
        <path d="M46.4997682,21.1106604 L46.4997682,21.1106604 C45.6750404,21.1106604 45.0001869,20.4119125 45.0001869,19.5590419 L45.0001869,9.66141301 C45.0001869,8.80854235 45.6750404,8.11066038 46.4997682,8.11066038 C47.3244961,8.11066038 48.0001869,8.80854235 48.0001869,9.66141301 L48.0001869,19.5590419 C48.0001869,20.4119125 47.3244961,21.1106604 46.4997682,21.1106604" id="Fill-28" fill="#FDDCB9"></path>
        <path d="M46.4997501,19.3784321 C46.8419077,19.3784321 47.1303462,19.1086564 47.1303462,18.780323 L47.1303462,9.44018063 C47.1303462,9.11214986 46.8422361,8.8428887 46.4997501,8.8428887 C46.1575924,8.8428887 45.8700276,9.11184729 45.8700276,9.44018063 L45.8700276,18.780323 C45.8700276,19.1089589 46.1579208,19.3784321 46.4997501,19.3784321 Z M46.4997501,21.1106604 C45.1208906,21.1106604 44.0001869,20.061662 44.0001869,18.780323 L44.0001869,9.44018063 C44.0001869,8.15884897 45.120888,7.11066038 46.4997501,7.11066038 C47.8786151,7.11066038 49.0001869,8.15885608 49.0001869,9.44018063 L49.0001869,18.780323 C49.0001869,20.0616547 47.8786122,21.1106604 46.4997501,21.1106604 Z" id="Stroke-30" fill="#FF7020"></path>
    </g>
</svg>