<?xml version="1.0" encoding="UTF-8"?>
<svg width="64px" height="64px" viewBox="0 0 64 64" version="1.1" xmlns="http://www.w3.org/2000/svg" xmlns:xlink="http://www.w3.org/1999/xlink">
    <!-- Generator: Sketch 51.1 (57501) - http://www.bohemiancoding.com/sketch -->
    <title>icon/component/calendar</title>
    <desc>Created with Sketch.</desc>
    <defs></defs>
    <g id="icon/component/calendar" stroke="none" stroke-width="1" fill="none" fill-rule="evenodd">
        <polygon id="Fill-1" fill="#CADEFF" points="52.2837211 54.9736165 8.33389941 54.9736165 6.20357606 55.2949011 6.18957306 57.7634693 7.262203 58.8537458 56.689999 58.8537458 59.1918687 57.5201295 58.9528841 51.0934872"></polygon>
        <path d="M57.9653935,50.0100547 L59.9653935,50.0100547 L59.9653935,58.6210521 C59.9653935,59.1733368 59.5176782,59.6210521 58.9653935,59.6210521 L6.20394947,59.6210521 C5.65166472,59.6210521 5.20394947,59.1733368 5.20394947,58.6210521 L5.20394947,55.2950912 L7.20394947,55.2950912 L7.20394947,57.6210521 L57.9653935,57.6210521 L57.9653935,50.0100547 Z" id="Stroke-2" fill="#457AE6" fill-rule="nonzero"></path>
        <polygon id="Fill-4" fill="#6DA3F2" points="4.02722951 23.8750742 59.9374819 23.8750742 59.9374819 16.2136724 4.02722951 16.2136724"></polygon>
        <polygon id="Fill-5" fill="#97BDFF" points="4.02722951 18 59.9374819 18 59.9374819 14.4000304 4.02722951 14.4000304"></polygon>
        <path d="M4,23 L61,23 L61,47 C57.0211845,46.8763989 54.6878511,47.2097323 54,48 C52.0500838,50.2402463 54.0748578,54.8679999 53,55 C51.3563931,55.2018465 35.0230598,54.8685131 4,54 L4,23 Z" id="Rectangle" fill="#CADEFF"></path>
        <path d="M7,23 L60,23 L60,48 L54,48 C54.8888889,50.6666667 54.8888889,52 54,52 C53.1111111,52 37.4444444,52 7,52 L7,23 Z" id="Rectangle" fill="#EFF5FF"></path>
        <g id="Group-32" transform="translate(3.000000, 4.000000)">
            <path d="M57.7241574,8.75566038 C58.2764421,8.75566038 58.7241574,9.20337563 58.7241574,9.75566038 L58.7241574,43.6990566 C58.7241574,43.9626182 58.6201076,44.2155233 58.4346338,44.4027776 L51.3423387,51.563155 C51.1545351,51.7527614 50.8987344,51.859434 50.6318623,51.859434 L0.999813115,51.859434 C0.447528365,51.859434 -0.000186885246,51.4117187 -0.000186885246,50.859434 L-0.000186885246,9.75566038 C-0.000186885246,9.20337563 0.447528365,8.75566038 0.999813115,8.75566038 L57.7241574,8.75566038 Z M56.7241574,10.7556604 L1.99981311,10.7556604 L1.99981311,49.859434 L50.2148478,49.859434 L56.7241574,43.2876384 L56.7241574,10.7556604 Z" id="Stroke-6" fill="#457AE6" fill-rule="nonzero"></path>
            <path d="M51.3424321,51.563438 C50.7138616,52.1980425 49.6319557,51.7529268 49.6319557,50.859717 L49.6319557,43.6993396 C49.6319557,43.1470549 50.079671,42.6993396 50.6319557,42.6993396 L57.7242508,42.6993396 C58.6128544,42.6993396 59.0600562,43.7717288 58.4347272,44.4030607 L51.3424321,51.563438 Z M55.3262527,44.6993396 L51.6319557,44.6993396 L51.6319557,48.4290999 L55.3262527,44.6993396 Z" id="Stroke-8" fill="#457AE6" fill-rule="nonzero"></path>
            <polygon id="Stroke-10" fill="#457AE6" fill-rule="nonzero" points="0.157544262 20.345283 0.157544262 18.345283 57.9633475 18.345283 57.9633475 20.345283"></polygon>
            <path d="M24.0921016,32.6790566 C24.0921016,31.7856604 24.0304295,31.034717 23.9080197,30.4262264 C23.783741,29.8186792 23.6015279,29.3271698 23.3604459,28.9554717 C23.1174951,28.5809434 22.8240852,28.3120755 22.4764787,28.1460377 C22.1298066,27.9809434 21.7373475,27.8979245 21.3000361,27.8979245 C20.8617902,27.8979245 20.4712,27.9809434 20.1301344,28.1460377 C19.7872,28.3120755 19.4975279,28.5809434 19.2601836,28.9554717 C19.0228393,29.3271698 18.8434295,29.8186792 18.7191508,30.4262264 C18.596741,31.034717 18.5350689,31.7856604 18.5350689,32.6790566 L18.5350689,37.2667925 C18.5350689,38.1696226 18.5986098,38.93 18.7266262,39.5469811 C18.8546426,40.1649057 19.0368557,40.6649057 19.2742,41.0460377 C19.5115443,41.4290566 19.8030852,41.7026415 20.1497574,41.8686792 C20.4964295,42.034717 20.8888885,42.1177358 21.3271344,42.1177358 C21.7653803,42.1177358 22.1578393,42.034717 22.5045115,41.8686792 C22.8511836,41.7026415 23.1408557,41.4290566 23.3725934,41.0460377 C23.6062,40.6649057 23.783741,40.1649057 23.9080197,39.5469811 C24.0304295,38.93 24.0921016,38.1696226 24.0921016,37.2667925 L24.0921016,32.6790566 Z M28.0475279,36.7422642 C28.0475279,38.2526415 27.8858721,39.5498113 27.5616262,40.6318868 C27.2373803,41.7149057 26.7823148,42.6054717 26.1926918,43.3064151 C25.6049377,44.0064151 24.8966426,44.520566 24.0724787,44.8469811 C23.2455115,45.1733962 22.3307082,45.3375472 21.3271344,45.3375472 C20.3235607,45.3375472 19.407823,45.1733962 18.5827246,44.8469811 C17.7566918,44.520566 17.0474623,44.0064151 16.4541016,43.3064151 C15.860741,42.6054717 15.4000689,41.7149057 15.0720852,40.6318868 C14.7431672,39.5498113 14.5787082,38.2526415 14.5787082,36.7422642 L14.5787082,33.2460377 C14.5787082,31.734717 14.7403639,30.4384906 15.0655443,29.3554717 C15.3888557,28.2733962 15.847659,27.384717 16.4410197,26.6884906 C17.0334459,25.9932075 17.7408066,25.4818868 18.5621672,25.1535849 C19.3835279,24.8281132 20.2964623,24.6639623 21.3000361,24.6639623 C22.3036098,24.6639623 23.2174787,24.8281132 24.0444459,25.1535849 C24.8695443,25.4818868 25.5797082,25.9932075 26.1730689,26.6884906 C26.7654951,27.384717 27.2261672,28.2733962 27.5550852,29.3554717 C27.8840033,30.4384906 28.0475279,31.734717 28.0475279,33.2460377 L28.0475279,36.7422642 Z" id="Fill-12" fill="#97BDFF"></path>
            <polygon id="Fill-14" fill="#97BDFF" points="40.3258885 45.0611321 36.3704623 45.0611321 36.3704623 29.6667925 31.6478721 31.1450943 31.6478721 27.8979245 39.901659 24.9130189 40.3258885 24.9130189"></polygon>
            <path d="M25.0921016,32.6790566 L25.0921016,37.2667925 C25.0921016,38.2290809 25.0255018,39.0530803 24.8883881,39.7441555 C24.7420992,40.4715168 24.5256549,41.0783951 24.2281821,41.5636941 C23.8997011,42.1066114 23.4666587,42.5166402 22.9364709,42.7705723 C22.4500917,43.0035223 21.9101649,43.1177358 21.3271344,43.1177358 C20.744104,43.1177358 20.2041771,43.0035223 19.717798,42.7705723 C19.1908806,42.5182066 18.758172,42.1117742 18.4253387,41.5746533 C18.1197949,41.0840051 17.8978905,40.4761573 17.7474809,39.7501424 C17.6043508,39.0603198 17.5350689,38.2345352 17.5350689,37.2667925 L17.5350689,32.6790566 C17.5350689,31.7254955 17.6017835,30.9100637 17.7394383,30.2258183 C17.8871657,29.5036401 18.1083401,28.9012291 18.4155103,28.4201894 C18.7486247,27.8945364 19.1763965,27.496763 19.6944396,27.2459433 C20.176942,27.0123858 20.7163518,26.8979245 21.3000361,26.8979245 C21.8811367,26.8979245 22.4204599,27.011754 22.9074928,27.2436926 C23.4283501,27.4924852 23.8596088,27.8874539 24.1994273,28.4113116 C24.5146767,28.8973604 24.7398168,29.5027213 24.8883792,30.2290078 C25.025387,30.9100637 25.0921016,31.7254955 25.0921016,32.6790566 Z M23.0921016,32.6790566 C23.0921016,31.8486805 23.0358658,31.1613275 22.9283072,30.6266345 C22.8269507,30.1311447 22.687009,29.7548669 22.5214985,29.4996842 C22.3751445,29.2740677 22.2194821,29.1315041 22.0465188,29.0488857 C21.8384498,28.9497978 21.5926745,28.8979245 21.3000361,28.8979245 C21.0078728,28.8979245 20.7659608,28.9492576 20.5659117,29.0460923 C20.3969034,29.1279206 20.2456745,29.2685442 20.1030131,29.4936524 C19.9398025,29.7492519 19.8010108,30.1272778 19.6995104,30.623445 C19.5913047,31.1613275 19.5350689,31.8486805 19.5350689,32.6790566 L19.5350689,37.2667925 C19.5350689,38.1077303 19.5932943,38.8017305 19.7058332,39.3441173 C19.8118142,39.8556788 19.9546892,40.2470469 20.1242293,40.5193024 C20.2645425,40.7457355 20.4147419,40.886814 20.5817168,40.9667862 C20.7886819,41.0659116 21.0336731,41.1177358 21.3271344,41.1177358 C21.6205958,41.1177358 21.8655869,41.0659116 22.0725521,40.9667862 C22.2371893,40.8879336 22.3829919,40.7498796 22.5200016,40.5234603 C22.6848678,40.2544791 22.8243677,39.8633414 22.9271386,39.3523731 C23.0357192,38.805095 23.0921016,38.10751 23.0921016,37.2667925 L23.0921016,32.6790566 Z M27.0475279,36.7422642 L27.0475279,33.2460377 C27.0475279,31.8255223 26.8958088,30.6258658 26.5983106,29.6463021 C26.3074441,28.6894085 25.9098929,27.9222919 25.4124106,27.3376431 C24.9246175,26.7660612 24.3485903,26.3508549 23.6782168,26.0841096 C22.9694892,25.8051738 22.1793209,25.6639623 21.3000361,25.6639623 C20.4208201,25.6639623 19.6323757,25.8051542 18.9333217,26.0821561 C18.2633122,26.3499621 17.6896137,26.7649925 17.2021124,27.3371337 C16.7037232,27.9219242 16.3088483,28.6873701 16.0233037,29.6430424 C15.728828,30.623799 15.5787082,31.8244928 15.5787082,33.2460377 L15.5787082,36.7422642 C15.5787082,38.160331 15.7310133,39.3611998 16.0291597,40.3420445 C16.3191429,41.2995842 16.7168845,42.0691045 17.2169218,42.6598044 C17.705569,43.2362717 18.279785,43.6520267 18.9505915,43.9171027 C19.6555934,44.1960067 20.446865,44.3375472 21.3271344,44.3375472 C22.2070816,44.3375472 22.9977297,44.1961182 23.7042512,43.9172454 C24.373574,43.6521561 24.9454363,43.2367374 25.4274337,42.6626916 C25.9230353,42.0735207 26.3162678,41.3049292 26.6037082,40.3448449 C26.8974689,39.3645047 27.0475279,38.1625656 27.0475279,36.7422642 Z M29.0475279,36.7422642 C29.0475279,38.3450603 28.8737739,39.7367912 28.519613,40.9186992 C28.1576854,42.1275793 27.6401331,43.1391597 26.9585291,43.9494494 C26.2652502,44.7751268 25.4208517,45.3885243 24.4396264,45.7771438 C23.4909142,46.1516133 22.4514642,46.3375472 21.3271344,46.3375472 C20.2021925,46.3375472 19.1616505,46.1514179 18.2152176,45.7770019 C17.2355472,45.3898754 16.3907619,44.7782176 15.6908521,43.9525189 C15.0036584,43.1407295 14.4804773,42.1285184 14.1153106,40.9227172 C13.7554238,39.7387606 13.5787082,38.3454237 13.5787082,36.7422642 L13.5787082,33.2460377 C13.5787082,31.641676 13.7525994,30.2508524 14.107399,29.0691891 C14.4683742,27.8610589 14.9906947,26.8485659 15.6798565,26.0399302 C16.3763788,25.222478 17.2170503,24.6143113 18.1937765,24.2239138 C19.1377453,23.8498576 20.175822,23.6639623 21.3000361,23.6639623 C22.4232388,23.6639623 23.4615922,23.8495271 24.4141493,24.2244351 C25.3922715,24.6136243 26.2360686,25.2218418 26.934666,26.0404397 C27.6214099,26.8475095 28.1450638,27.8579544 28.5119303,29.0648732 C28.8714994,30.2488158 29.0475279,31.6406891 29.0475279,33.2460377 L29.0475279,36.7422642 Z" id="Stroke-16" fill="#457AE6" fill-rule="nonzero"></path>
            <path d="M39.3258885,26.1846242 L32.6478721,28.5996671 L32.6478721,29.7842181 L36.0717285,28.712456 C36.7157544,28.510858 37.3704623,28.9919509 37.3704623,29.6667925 L37.3704623,44.0611321 L39.3258885,44.0611321 L39.3258885,26.1846242 Z M40.2417441,25.8534136 L39.901659,24.9130189 L39.901659,25.9130189 L40.0769249,25.9130189 L40.2417441,25.8534136 Z M31.946606,32.0994308 C31.3025801,32.3010288 30.6478721,31.8199359 30.6478721,31.1450943 L30.6478721,27.8979245 C30.6478721,27.4767716 30.9117371,27.1007576 31.3077871,26.9575298 L39.561574,23.9726242 C39.6706223,23.9331879 39.7856989,23.9130189 39.901659,23.9130189 L40.3258885,23.9130189 C40.8781733,23.9130189 41.3258885,24.3607341 41.3258885,24.9130189 L41.3258885,45.0611321 C41.3258885,45.6134168 40.8781733,46.0611321 40.3258885,46.0611321 L36.3704623,46.0611321 C35.8181775,46.0611321 35.3704623,45.6134168 35.3704623,45.0611321 L35.3704623,31.0276687 L31.946606,32.0994308 Z" id="Stroke-18" fill="#457AE6" fill-rule="nonzero"></path>
            <path d="M17.2399541,14.5084906 C17.2399541,16.2603774 15.8327082,17.6820755 14.0965443,17.6820755 C12.3594459,17.6820755 10.9522,16.2603774 10.9522,14.5084906 C10.9522,12.7556604 12.3594459,11.3349057 14.0965443,11.3349057 C15.8327082,11.3349057 17.2399541,12.7556604 17.2399541,14.5084906" id="Fill-20" fill="#457AE6"></path>
            <path d="M47.7064541,14.5084906 C47.7064541,16.2603774 46.2982738,17.6820755 44.5630443,17.6820755 C42.8259459,17.6820755 41.4187,16.2603774 41.4187,14.5084906 C41.4187,12.7556604 42.8259459,11.3349057 44.5630443,11.3349057 C46.2982738,11.3349057 47.7064541,12.7556604 47.7064541,14.5084906" id="Fill-22" fill="#457AE6"></path>
            <path d="M14.1291557,16.0534906 C13.2087459,16.0534906 12.4546639,15.2921698 12.4546639,14.3629245 L12.4546639,3.57896226 C12.4546639,2.64971698 13.2087459,1.88933962 14.1291557,1.88933962 C15.0495656,1.88933962 15.8027131,2.64971698 15.8027131,3.57896226 L15.8027131,14.3629245 C15.8027131,15.2921698 15.0495656,16.0534906 14.1291557,16.0534906" id="Fill-24" fill="#CADEFF"></path>
            <path d="M14.1291557,15.0534906 C14.4947797,15.0534906 14.8027131,14.7423617 14.8027131,14.3629245 L14.8027131,3.57896226 C14.8027131,3.19987443 14.4951309,2.88933962 14.1291557,2.88933962 C13.7628293,2.88933962 13.4546639,3.20022377 13.4546639,3.57896226 L13.4546639,14.3629245 C13.4546639,14.7420124 13.7631805,15.0534906 14.1291557,15.0534906 Z M14.1291557,17.0534906 C12.6543113,17.0534906 11.4546639,15.8423273 11.4546639,14.3629245 L11.4546639,3.57896226 C11.4546639,2.09956773 12.6543081,0.889339623 14.1291557,0.889339623 C15.6040002,0.889339623 16.8027131,2.09955953 16.8027131,3.57896226 L16.8027131,14.3629245 C16.8027131,15.8423358 15.6039974,17.0534906 14.1291557,17.0534906 Z" id="Stroke-26" fill="#457AE6" fill-rule="nonzero"></path>
            <path d="M44.5947213,16.0534906 C43.6743115,16.0534906 42.9211639,15.2921698 42.9211639,14.3629245 L42.9211639,3.57896226 C42.9211639,2.64971698 43.6743115,1.88933962 44.5947213,1.88933962 C45.5151311,1.88933962 46.2692131,2.64971698 46.2692131,3.57896226 L46.2692131,14.3629245 C46.2692131,15.2921698 45.5151311,16.0534906 44.5947213,16.0534906" id="Fill-28" fill="#CADEFF"></path>
            <path d="M44.5947213,15.0534906 C44.9606965,15.0534906 45.2692131,14.7420124 45.2692131,14.3629245 L45.2692131,3.57896226 C45.2692131,3.20022377 44.9610478,2.88933962 44.5947213,2.88933962 C44.2287461,2.88933962 43.9211639,3.19987443 43.9211639,3.57896226 L43.9211639,14.3629245 C43.9211639,14.7423617 44.2290974,15.0534906 44.5947213,15.0534906 Z M44.5947213,17.0534906 C43.1198797,17.0534906 41.9211639,15.8423358 41.9211639,14.3629245 L41.9211639,3.57896226 C41.9211639,2.09955953 43.1198768,0.889339623 44.5947213,0.889339623 C46.0695689,0.889339623 47.2692131,2.09956773 47.2692131,3.57896226 L47.2692131,14.3629245 C47.2692131,15.8423273 46.0695658,17.0534906 44.5947213,17.0534906 Z" id="Stroke-30" fill="#457AE6" fill-rule="nonzero"></path>
        </g>
    </g>
</svg>