<?xml version="1.0" encoding="UTF-8"?>
<svg width="57px" height="58px" viewBox="0 0 57 58" version="1.1" xmlns="http://www.w3.org/2000/svg" xmlns:xlink="http://www.w3.org/1999/xlink">
    <!-- Generator: sketchtool 50.2 (55047) - http://www.bohemiancoding.com/sketch -->
    <title>99B9075A-1274-4500-A235-3106F3DC93C5</title>
    <desc>Created with sketchtool.</desc>
    <defs></defs>
    <g id="Page-1" stroke="none" stroke-width="1" fill="none" fill-rule="evenodd">
        <g id="icon-source" transform="translate(-313.000000, -1050.000000)">
            <g id="Group" transform="translate(87.000000, 66.000000)">
                <g id="Group-6-Copy-3" transform="translate(0.000000, 587.000000)">
                    <g id="Group-3-Copy" transform="translate(0.000000, 197.000000)">
                        <g id="chat-ui" transform="translate(223.000000, 197.000000)">
                            <rect id="Background" x="0" y="0" width="64" height="64"></rect>
                            <path d="M11.9209906,32.8152452 L36.2583692,32.8152452 C40.2598465,32.8152452 43.5045165,36.058974 43.5045165,40.0604513 L43.5045165,45.988775 C43.5045165,49.9902523 40.2598465,53.2339811 36.2583692,53.2339811 L34.2223316,53.2339811 C27.6699243,53.2339811 21.1947038,54.6478176 15.2371996,57.3785364 L10.7942514,59.4155152 C11.0945269,57.7616465 9.46983866,56.1746104 7.81973522,55.0233973 C5.86182582,53.6575672 4.67578456,51.4398583 4.67578456,49.052715 L4.67578456,40.0604513 C4.67578456,36.058974 7.91951329,32.8152452 11.9209906,32.8152452" id="Fill-1" fill="#97BDFF"></path>
                            <path d="M15.5887762,36.4499911 L37.1003643,36.4499911 C40.6368382,36.4499911 43.5040459,39.2513076 43.5040459,42.7058881 L43.5040459,47.8237503 C43.5040459,51.2783308 40.6368382,54.0796473 37.1003643,54.0796473 L35.2996525,54.0796473 C29.5087589,54.0796473 24.0416735,53.3124857 18.7779094,55.6695074 L14.8498536,57.4278606 L13.0030179,58.0312356 C13.0030179,58.0312356 13.4209563,56.6173991 11.9628786,55.6233836 C10.2327644,54.4439314 9.18321202,52.5302633 9.18321202,50.4697519 L9.18321202,42.7058881 C9.18321202,39.2513076 12.051361,36.4499911 15.5887762,36.4499911" id="Fill-3" fill="#6DA3F2"></path>
                            <path d="M14.8205202,56.4694829 C20.9091527,53.6786592 27.5265372,52.2339811 34.2223316,52.2339811 L36.2583692,52.2339811 C39.7077815,52.2339811 42.5045165,49.4377479 42.5045165,45.988775 L42.5045165,40.0604513 C42.5045165,36.6114784 39.7077815,33.8152452 36.2583692,33.8152452 L11.9209906,33.8152452 C8.47179804,33.8152452 5.67578456,36.6112587 5.67578456,40.0604513 L5.67578456,49.052715 C5.67578456,51.0982704 6.68981545,53.015891 8.39190949,54.2032652 C10.0755975,55.377909 11.2483616,56.6049725 11.6659983,57.915751 L14.8205202,56.4694829 Z M11.9209906,31.8152452 L36.2583692,31.8152452 C40.8122706,31.8152452 44.5045165,35.5068285 44.5045165,40.0604513 L44.5045165,45.988775 C44.5045165,50.5423977 40.8122706,54.2339811 36.2583692,54.2339811 L34.2223316,54.2339811 C27.8142043,54.2339811 21.4810668,55.6166037 15.6539605,58.2875526 L11.2110122,60.3245314 C10.4761128,60.6614641 9.66591496,60.0323277 9.81033673,59.2368762 C9.97769771,58.3150792 9.03669759,57.0917405 7.24759679,55.8435544 C5.01272312,54.2845151 3.67578456,51.756248 3.67578456,49.052715 L3.67578456,40.0604513 C3.67578456,35.5066892 7.36722854,31.8152452 11.9209906,31.8152452 Z" id="Stroke-5" fill="#457AE6" fill-rule="nonzero"></path>
                            <path d="M51.1781094,4.7057848 L26.8407308,4.7057848 C22.8392535,4.7057848 19.5945835,7.94951354 19.5945835,11.9509909 L19.5945835,17.8793146 C19.5945835,21.8807919 22.8392535,25.1245206 26.8407308,25.1245206 L28.8767684,25.1245206 C35.4291757,25.1245206 41.9043962,26.5383571 47.8619004,29.269076 L52.3048486,31.3060548 C52.0045731,29.6521861 53.6292613,28.0651499 55.2793648,26.9139369 C57.2372742,25.5481068 58.4233154,23.3303979 58.4233154,20.9432545 L58.4233154,11.9509909 C58.4233154,7.94951354 55.1795867,4.7057848 51.1781094,4.7057848" id="Fill-7" fill="#CADEFF"></path>
                            <path d="M47.5103238,8.34053063 L25.9987357,8.34053063 C22.4622618,8.34053063 19.5950541,11.1418471 19.5950541,14.5964277 L19.5950541,19.7142899 C19.5950541,23.1688704 22.4622618,25.9701869 25.9987357,25.9701869 L27.7994475,25.9701869 C33.5903411,25.9701869 39.0574265,25.2030253 44.3211906,27.560047 L48.2492464,29.3184002 L50.0960821,29.9217752 C50.0960821,29.9217752 49.6781437,28.50888 51.1362214,27.5139231 C52.8663356,26.334471 53.915888,24.4208028 53.915888,22.3602915 L53.915888,14.5964277 C53.915888,11.1418471 51.047739,8.34053063 47.5103238,8.34053063" id="Fill-9" fill="#EFF5FF"></path>
                            <path d="M51.1781094,3.7057848 C55.7318715,3.7057848 59.4233154,7.39722879 59.4233154,11.9509909 L59.4233154,20.9432545 C59.4233154,23.6467876 58.0863769,26.1750547 55.8515391,27.7340689 C54.0624024,28.9822801 53.1214023,30.2056187 53.2887633,31.1274157 C53.433185,31.9228673 52.6229872,32.5520037 51.8880878,32.215071 L47.4452209,30.1781295 C41.6180332,27.5071433 35.2848957,26.1245206 28.8767684,26.1245206 L26.8407308,26.1245206 C22.2868294,26.1245206 18.5945835,22.4329373 18.5945835,17.8793146 L18.5945835,11.9509909 C18.5945835,7.39736813 22.2868294,3.7057848 26.8407308,3.7057848 L51.1781094,3.7057848 Z M54.7072264,26.0937798 C56.4092846,24.9064306 57.4233154,22.98881 57.4233154,20.9432545 L57.4233154,11.9509909 C57.4233154,8.50179829 54.627302,5.7057848 51.1781094,5.7057848 L26.8407308,5.7057848 C23.3913185,5.7057848 20.5945835,8.50201798 20.5945835,11.9509909 L20.5945835,17.8793146 C20.5945835,21.3282875 23.3913185,24.1245206 26.8407308,24.1245206 L28.8767684,24.1245206 C35.5725628,24.1245206 42.1899473,25.5691988 48.2786612,28.3600598 L51.4331024,29.8062909 C51.850741,28.4955105 53.0235126,27.2684415 54.7072264,26.0937798 Z" id="Stroke-11" fill="#457AE6" fill-rule="nonzero"></path>
                        </g>
                    </g>
                </g>
            </g>
        </g>
    </g>
</svg>