<?xml version="1.0" encoding="UTF-8"?>
<svg width="64px" height="64px" viewBox="0 0 64 64" version="1.1" xmlns="http://www.w3.org/2000/svg" xmlns:xlink="http://www.w3.org/1999/xlink">
    <!-- Generator: Sketch 54.1 (76490) - https://sketchapp.com -->
    <title>icon/component/checkbox</title>
    <desc>Created with Sketch.</desc>
    <g id="icon/component/checkbox" stroke="none" stroke-width="1" fill="none" fill-rule="evenodd">
        <g id="Page-1" transform="translate(11.000000, 10.000000)">
            <path d="M39.5927,44.1715 L1.0527,44.1715 C0.5877,44.1715 0.2107,43.7945 0.2107,43.3285 L0.2107,4.7885 C0.2107,4.3235 0.5877,3.9465 1.0527,3.9465 L39.5927,3.9465 C40.0577,3.9465 40.4347,4.3235 40.4347,4.7885 L40.4347,43.3285 C40.4347,43.7945 40.0577,44.1715 39.5927,44.1715" id="Fill-1" fill="#FDDCB9"></path>
            <path d="M39.6289,44.1432 L1.0169,44.1432 C0.5709,44.1432 0.2109,43.7832 0.2109,43.3372 L0.2109,8.1162 C0.2109,7.6702 0.5709,7.3092 1.0169,7.3092 L39.6289,7.3092 C40.0749,7.3092 40.4349,7.6702 40.4349,8.1162 L40.4349,43.3372 C40.4349,43.7832 40.0749,44.1432 39.6289,44.1432" id="Fill-3" fill="#FCAF5C"></path>
            <path d="M40.188,44.1432 L0.458,44.1432 C0.321,44.1432 0.21,44.0332 0.21,43.8962 L0.21,40.9282 C0.21,40.7922 0.321,40.6812 0.458,40.6812 L40.188,40.6812 C40.325,40.6812 40.435,40.7922 40.435,40.9282 L40.435,43.8962 C40.435,44.0332 40.325,44.1432 40.188,44.1432" id="Fill-5" fill="#FF881E"></path>
            <path d="M39.2248,4.9465 L0.9998,4.9465 L0.9998,43.1715 L39.2248,43.1715 L39.2248,4.9465 Z M39.3828,45.1715 L0.8418,45.1715 C-0.17498475,45.1715 -1.0002,44.3462847 -1.0002,43.3285 L-1.0002,4.7885 C-1.0002,3.77137668 -0.174646633,2.9465 0.8418,2.9465 L39.3828,2.9465 C40.4000847,2.9465 41.2248,3.77121525 41.2248,4.7885 L41.2248,43.3285 C41.2248,44.3464466 40.4004229,45.1715 39.3828,45.1715 Z" id="Stroke-7" fill="#FF7020" fill-rule="nonzero"></path>
            <path d="M35.4922278,18.2564858 L34.0779722,16.8423142 L36.1992296,14.7209309 L37.6134851,16.1351025 L35.4922278,18.2564858 Z M39.7347425,14.0137192 L38.320487,12.5995476 L40.4417443,10.4781643 L41.8559999,11.8923358 L39.7347425,14.0137192 Z M43.9772572,9.77095252 L42.5630017,8.35678094 L44.6842591,6.23539762 L46.0985146,7.6495692 L43.9772572,9.77095252 Z M48.219772,5.52818588 L46.8055164,4.1140143 L48.9267738,1.99263099 L50.3410293,3.40680256 L48.219772,5.52818588 Z" id="Stroke-9" fill="#FF7020" fill-rule="nonzero"></path>
            <path d="M31.7055202,19.2146662 L33.1196798,20.6289338 L20.0216798,33.7259338 C19.6311634,34.1164204 18.9980434,34.1164223 18.6075246,33.7259381 L7.32952457,22.4489381 L8.74367543,21.0346619 L19.3145956,31.6046448 L31.7055202,19.2146662 Z" id="Stroke-11" fill="#FF7020" fill-rule="nonzero"></path>
        </g>
    </g>
</svg>