<?xml version="1.0" encoding="UTF-8"?>
<svg width="64px" height="64px" viewBox="0 0 64 64" version="1.1" xmlns="http://www.w3.org/2000/svg" xmlns:xlink="http://www.w3.org/1999/xlink">
    <!-- Generator: Sketch 49 (51002) - http://www.bohemiancoding.com/sketch -->
    <title>icon/component/chips</title>
    <desc>Created with Sketch.</desc>
    <defs></defs>
    <g id="icon/component/chips" stroke="none" stroke-width="1" fill="none" fill-rule="evenodd">
        <g id="Page-1" transform="translate(2.000000, 10.000000)">
            <path d="M13.8562,33.5771 L45.3032,33.5771 C52.9242,33.5771 59.1602,27.3421 59.1602,19.7211 L59.1602,14.8491 C59.1602,7.2281 52.9242,0.9931 45.3032,0.9931 L13.8562,0.9931 C6.2352,0.9931 0.0002,7.2281 0.0002,14.8491 L0.0002,19.7211 C0.0002,27.3421 6.2352,33.5771 13.8562,33.5771" id="Fill-1" fill="#97BDFF"></path>
            <path d="M13.8562,5.1406 L45.3032,5.1406 C52.9242,5.1406 59.1602,11.3756 59.1602,18.9966 L59.1602,19.7206 C59.1602,27.3416 52.9242,33.5776 45.3032,33.5776 L13.8562,33.5776 C6.2352,33.5776 0.0002,27.3416 0.0002,19.7206 L0.0002,18.9966 C0.0002,11.3756 6.2352,5.1406 13.8562,5.1406" id="Fill-5" fill="#97BDFF"></path>
            <path d="M13.8562,29.7695 L45.3032,29.7695 C52.9242,29.7695 59.1602,23.5345 59.1602,15.9135 L59.1602,19.7205 C59.1602,27.3415 52.9242,33.5775 45.3032,33.5775 L13.8562,33.5775 C6.2352,33.5775 0.0002,27.3415 0.0002,19.7205 L0.0002,15.9135 C0.0002,23.5345 6.2352,29.7695 13.8562,29.7695" id="Fill-7" fill="#6DA3F2"></path>
            <path d="M16.2917,34.5771 C6.77941525,34.5771 -1.0003,26.7973847 -1.0003,17.2851 C-1.0003,7.77215059 6.77907989,-0.0069 16.2917,-0.0069 L42.8677,-0.0069 C52.3803201,-0.0069 60.1597,7.77215059 60.1597,17.2851 C60.1597,26.7973847 52.3799847,34.5771 42.8677,34.5771 L16.2917,34.5771 Z M16.2917,32.5771 L42.8677,32.5771 C51.2754153,32.5771 58.1597,25.6928153 58.1597,17.2851 C58.1597,8.87673904 51.2757696,1.9931 42.8677,1.9931 L16.2917,1.9931 C7.88363044,1.9931 0.9997,8.87673904 0.9997,17.2851 C0.9997,25.6928153 7.88398475,32.5771 16.2917,32.5771 Z" id="Stroke-9" fill="#457AE6" fill-rule="nonzero"></path>
            <path d="M36.8239,17.2265 C36.8239,21.4065 40.2129,24.7945 44.3919,24.7945 C48.5719,24.7945 51.9609,21.4065 51.9609,17.2265 C51.9609,13.0465 48.5719,9.6585 44.3919,9.6585 C40.2129,9.6585 36.8239,13.0465 36.8239,17.2265" id="Fill-11" fill="#FFFFFF"></path>
            <path d="M35.0134,17.2851 C35.0134,12.1214884 39.1994421,7.9351 44.3634,7.9351 C49.5265311,7.9351 53.7124,12.1216615 53.7124,17.2851 C53.7124,22.4485385 49.5265311,26.6351 44.3634,26.6351 C39.1994421,26.6351 35.0134,22.4487116 35.0134,17.2851 Z M37.0134,17.2851 C37.0134,21.3441792 40.3040486,24.6351 44.3634,24.6351 C48.4218875,24.6351 51.7124,21.344043 51.7124,17.2851 C51.7124,13.226157 48.4218875,9.9351 44.3634,9.9351 C40.3040486,9.9351 37.0134,13.2260208 37.0134,17.2851 Z" id="Stroke-13" fill="#457AE6" fill-rule="nonzero"></path>
            <polygon id="Stroke-15" fill="#457AE6" fill-rule="nonzero" points="13.5661 44.1094 13.5661 42.1094 45.5931 42.1094 45.5931 44.1094"></polygon>
            <polygon id="Stroke-17" fill="#457AE6" fill-rule="nonzero" points="46.9497618 13.4617864 48.3641136 14.8758618 41.8350382 21.4062136 40.4206864 19.9921382"></polygon>
            <polygon id="Stroke-19" fill="#457AE6" fill-rule="nonzero" points="48.3641136 19.9923382 46.9497618 21.4064136 40.4206864 14.8760618 41.8350382 13.4619864"></polygon>
        </g>
    </g>
</svg>