<?xml version="1.0" encoding="UTF-8"?>
<svg width="64px" height="64px" viewBox="0 0 64 64" version="1.1" xmlns="http://www.w3.org/2000/svg" xmlns:xlink="http://www.w3.org/1999/xlink">
    <!-- Generator: Sketch 49 (51002) - http://www.bohemiancoding.com/sketch -->
    <title>icon/component/context-menu</title>
    <desc>Created with Sketch.</desc>
    <defs></defs>
    <g id="icon/component/context-menu" stroke="none" stroke-width="1" fill="none" fill-rule="evenodd">
        <polygon id="Rectangle" fill="#CADEFF" points="7 7 57 57 7 57"></polygon>
        <polygon id="Rectangle" fill="#FFFFFF" opacity="0.7" points="7 7 57 57 7 57"></polygon>
        <g id="Page-1" transform="translate(7.000000, 7.000000)">
            <path d="M15.8644,32.5089 L15.8644,24.7659 L19.6554,28.5569 C19.7004,28.6019 19.7004,28.6729 19.6554,28.7169 L15.8644,32.5089 Z" id="Fill-1" fill="#457AE6"></path>
            <path d="M15.8644,44.7218 L15.8644,36.9778 L19.6554,40.7698 C19.7004,40.8138 19.7004,40.8858 19.6554,40.9298 L15.8644,44.7218 Z" id="Fill-3" fill="#457AE6"></path>
            <path d="M17.6163,13.6554 C17.6133,17.9544 14.1273,21.4364 9.8283,21.4334 C5.5293,21.4304 2.0473,17.9434 2.0503,13.6454 C2.0533,9.3464 5.5403,5.8644 9.8393,5.8674 C14.1373,5.8704 17.6193,9.3574 17.6163,13.6554" id="Fill-5" fill="#CADEFF"></path>
            <path d="M18.464,12.0489 C18.461,15.9819 15.272,19.1679 11.339,19.1649 C7.406,19.1619 4.22,15.9719 4.223,12.0389 C4.226,8.1069 7.416,4.9209 11.349,4.9239 C15.281,4.9259 18.467,8.1159 18.464,12.0489" id="Fill-7" fill="#CADEFF"></path>
            <path d="M17.8634,12.6495 C17.8664,8.7165 14.6794,5.5265 10.7474,5.5245 C8.4924,5.5225 6.4844,6.5735 5.1774,8.2095 C6.3964,7.2375 7.9374,6.6535 9.6174,6.6545 C13.5504,6.6575 16.7354,9.8475 16.7334,13.7805 C16.7314,15.4575 16.1474,16.9955 15.1764,18.2115 C16.8114,16.9075 17.8624,14.9025 17.8634,12.6495" id="Fill-9" fill="#97BDFF"></path>
            <path d="M9.7179,6.5548 C8.0379,6.5538 6.4959,7.1368 5.2789,8.1098 C4.3079,9.3258 3.7239,10.8638 3.7229,12.5398 C3.7199,16.4728 6.9049,19.6628 10.8379,19.6648 C12.5179,19.6658 14.0589,19.0818 15.2779,18.1108 C16.2479,16.8948 16.8319,15.3568 16.8329,13.6798 C16.8359,9.7468 13.6509,6.5568 9.7179,6.5548" id="Fill-11" fill="#6FA0EF"></path>
            <path d="M17.4640003,12.0481372 C17.4665788,8.66766655 14.7282529,5.92561898 11.3482372,5.92389971 C7.96785698,5.92132123 5.22557859,8.65961222 5.22299971,12.0396628 C5.22042113,15.420176 7.95884514,18.1623214 11.3397628,18.1649003 C14.720042,18.1674787 17.4614212,15.4292889 17.4640003,12.0481372 Z M19.4639997,12.0496628 C19.4605782,16.5352219 15.8232474,20.1683208 11.3382372,20.1648997 C6.85282541,20.1614783 3.21957912,16.5232946 3.22300029,12.038137 C3.2264219,7.55354887 6.86478188,3.92047925 11.3495086,3.92390013 C15.8340769,3.92618119 19.4674209,7.56446327 19.4639997,12.0496628 Z" id="Stroke-13" fill="#457AE6" fill-rule="nonzero"></path>
            <g id="Group-18" transform="translate(22.000000, 10.002200)">
                <path d="M0.6339,0.8358 L23.0539,0.8358" id="Fill-15" fill="#FFFFFF"></path>
                <polygon id="Stroke-17" fill="#457AE6" fill-rule="nonzero" points="0.6339 1.8358 0.6339 -0.1642 23.0539 -0.1642 23.0539 1.8358"></polygon>
            </g>
            <g id="Group-22" transform="translate(22.000000, 14.002200)">
                <path d="M0.6339,0.2762 L15.7439,0.2762" id="Fill-19" fill="#FFFFFF"></path>
                <polygon id="Stroke-21" fill="#457AE6" fill-rule="nonzero" points="0.6339 1.2762 0.6339 -0.7238 15.7439 -0.7238 15.7439 1.2762"></polygon>
            </g>
            <g id="Group-26" transform="translate(22.000000, 26.002200)">
                <path d="M0.8234,0.9247 L23.0234,0.9247" id="Fill-23" fill="#FFFFFF"></path>
                <polygon id="Stroke-25" fill="#457AE6" fill-rule="nonzero" points="0.8234 1.9247 0.8234 -0.0753 23.0234 -0.0753 23.0234 1.9247"></polygon>
            </g>
            <g id="Group-30" transform="translate(22.000000, 30.002200)">
                <path d="M0.8234,0.3661 L17.6814,0.3661" id="Fill-27" fill="#FFFFFF"></path>
                <polygon id="Stroke-29" fill="#457AE6" fill-rule="nonzero" points="0.8234 1.3661 0.8234 -0.6339 17.6814 -0.6339 17.6814 1.3661"></polygon>
            </g>
            <g id="Group-34" transform="translate(22.000000, 39.002200)">
                <path d="M0.8234,0.3348 L8.5434,0.3348" id="Fill-31" fill="#FFFFFF"></path>
                <polygon id="Stroke-33" fill="#457AE6" fill-rule="nonzero" points="0.8234 1.3348 0.8234 -0.6652 8.5434 -0.6652 8.5434 1.3348"></polygon>
            </g>
            <path d="M49.0021,49.0021 L49.0021,1.0001 L1.0001,1.0001 L1.0001,49.0021 L49.0021,49.0021 Z M49.2511,51.0021 L0.7511,51.0021 C-0.21618475,51.0021 -0.9999,50.2183847 -0.9999,49.2511 L-0.9999,0.7511 C-0.9999,-0.21618475 -0.21618475,-0.9999 0.7511,-0.9999 L49.2511,-0.9999 C50.2183847,-0.9999 51.0021,-0.21618475 51.0021,0.7511 L51.0021,49.2511 C51.0021,50.2183847 50.2183847,51.0021 49.2511,51.0021 Z" id="Stroke-35" fill="#457AE6" fill-rule="nonzero"></path>
            <g id="Group-40" transform="translate(22.000000, 42.002200)">
                <path d="M0.8234,0.7753 L13.0314,0.7753" id="Fill-37" fill="#FFFFFF"></path>
                <polygon id="Stroke-39" fill="#457AE6" fill-rule="nonzero" points="0.8234 1.7753 0.8234 -0.2247 13.0314 -0.2247 13.0314 1.7753"></polygon>
            </g>
        </g>
    </g>
</svg>