<?xml version="1.0" encoding="UTF-8"?>
<svg width="64px" height="64px" viewBox="0 0 64 64" version="1.1" xmlns="http://www.w3.org/2000/svg" xmlns:xlink="http://www.w3.org/1999/xlink">
    <!-- Generator: Sketch 59 (86127) - https://sketch.com -->
    <title>icon/component/datepicker</title>
    <desc>Created with Sketch.</desc>
    <defs>
        <polygon id="path-1" points="0.0004 0.2 47.6834 0.2 47.6834 8.1835 0.0004 8.1835"></polygon>
        <polygon id="path-3" points="0 0.2 9.5809 0.2 9.5809 8.1835 0 8.1835"></polygon>
    </defs>
    <g id="icon/component/datepicker" stroke="none" stroke-width="1" fill="none" fill-rule="evenodd">
        <polygon id="Fill-1" fill="#FCAF5C" points="52.2837211 54.9736165 8.33389941 54.9736165 6.20357606 55.2949011 6.18957306 57.7634693 7.262203 58.8537458 56.689999 58.8537458 59.1918687 57.5201295 58.9528841 51.0934872"></polygon>
        <path d="M57.9653935,50.0100547 L59.9653935,50.0100547 L59.9653935,58.6210521 C59.9653935,59.1733368 59.5176782,59.6210521 58.9653935,59.6210521 L6.20394947,59.6210521 C5.65166472,59.6210521 5.20394947,59.1733368 5.20394947,58.6210521 L5.20394947,55.2950912 L7.20394947,55.2950912 L7.20394947,57.6210521 L57.9653935,57.6210521 L57.9653935,50.0100547 Z" id="Stroke-2" fill="#FCAF5C"></path>
        <polygon id="Fill-4" fill="#FDDCB9" points="4.02722951 23.8750742 59.9374819 23.8750742 59.9374819 14.2640768 4.02722951 14.2640768"></polygon>
        <polygon id="Fill-5" fill="#FFFFFF" opacity="0.699841486" points="4.02722951 18 59.9374819 18 59.9374819 14.4000304 4.02722951 14.4000304"></polygon>
        <path d="M4,23 L61,23 L61,47 C57.0211845,46.8763989 54.6878511,47.2097323 54,48 C52.0500838,50.2402463 54.0748578,54.8679999 53,55 C51.3563931,55.2018465 35.0230598,54.8685131 4,54 L4,23 Z" id="Rectangle" fill="#FDDCB9"></path>
        <path d="M7,23 L60,23 L60,48 L54,48 C54.8888889,50.6666667 54.8888889,52 54,52 C53.1111111,52 37.4444444,52 7,52 L7,23 Z" id="Rectangle" fill="#FEF3E7"></path>
        <g id="Group-32" transform="translate(3.000000, 4.000000)">
            <path d="M57.7241574,8.75566038 C58.2764421,8.75566038 58.7241574,9.20337563 58.7241574,9.75566038 L58.7241574,43.6990566 C58.7241574,43.9626182 58.6201076,44.2155233 58.4346338,44.4027776 L51.3423387,51.563155 C51.1545351,51.7527614 50.8987344,51.859434 50.6318623,51.859434 L0.999813115,51.859434 C0.447528365,51.859434 -0.000186885246,51.4117187 -0.000186885246,50.859434 L-0.000186885246,9.75566038 C-0.000186885246,9.20337563 0.447528365,8.75566038 0.999813115,8.75566038 L57.7241574,8.75566038 Z M56.7241574,10.7556604 L1.99981311,10.7556604 L1.99981311,49.859434 L50.2148478,49.859434 L56.7241574,43.2876384 L56.7241574,10.7556604 Z" id="Stroke-6" fill="#FF7020" fill-rule="nonzero"></path>
            <path d="M51.3424321,51.563438 C50.7138616,52.1980425 49.6319557,51.7529268 49.6319557,50.859717 L49.6319557,43.6993396 C49.6319557,43.1470549 50.079671,42.6993396 50.6319557,42.6993396 L57.7242508,42.6993396 C58.6128544,42.6993396 59.0600562,43.7717288 58.4347272,44.4030607 L51.3424321,51.563438 Z M55.3262527,44.6993396 L51.6319557,44.6993396 L51.6319557,48.4290999 L55.3262527,44.6993396 Z" id="Stroke-8" fill="#FF7020" fill-rule="nonzero"></path>
            <polygon id="Stroke-10" fill="#FF7020" fill-rule="nonzero" points="0.157544262 20.345283 0.157544262 18.345283 57.9633475 18.345283 57.9633475 20.345283"></polygon>
            <path d="M17.2399541,14.5084906 C17.2399541,16.2603774 15.8327082,17.6820755 14.0965443,17.6820755 C12.3594459,17.6820755 10.9522,16.2603774 10.9522,14.5084906 C10.9522,12.7556604 12.3594459,11.3349057 14.0965443,11.3349057 C15.8327082,11.3349057 17.2399541,12.7556604 17.2399541,14.5084906" id="Fill-20" fill="#FF7020"></path>
            <path d="M47.7064541,14.5084906 C47.7064541,16.2603774 46.2982738,17.6820755 44.5630443,17.6820755 C42.8259459,17.6820755 41.4187,16.2603774 41.4187,14.5084906 C41.4187,12.7556604 42.8259459,11.3349057 44.5630443,11.3349057 C46.2982738,11.3349057 47.7064541,12.7556604 47.7064541,14.5084906" id="Fill-22" fill="#FF7020"></path>
            <path d="M14.1291557,16.0534906 L14.1291557,16.0534906 C13.2087459,16.0534906 12.4546639,15.2921698 12.4546639,14.3629245 L12.4546639,3.57896226 C12.4546639,2.64971698 13.2087459,1.88933962 14.1291557,1.88933962 C15.0495656,1.88933962 15.8027131,2.64971698 15.8027131,3.57896226 L15.8027131,14.3629245 C15.8027131,15.2921698 15.0495656,16.0534906 14.1291557,16.0534906" id="Fill-24" fill="#FDDCB9"></path>
            <path d="M14.1291557,15.0534906 C14.4947797,15.0534906 14.8027131,14.7423617 14.8027131,14.3629245 L14.8027131,3.57896226 C14.8027131,3.19987443 14.4951309,2.88933962 14.1291557,2.88933962 C13.7628293,2.88933962 13.4546639,3.20022377 13.4546639,3.57896226 L13.4546639,14.3629245 C13.4546639,14.7420124 13.7631805,15.0534906 14.1291557,15.0534906 Z M14.1291557,17.0534906 C12.6543113,17.0534906 11.4546639,15.8423273 11.4546639,14.3629245 L11.4546639,3.57896226 C11.4546639,2.09956773 12.6543081,0.889339623 14.1291557,0.889339623 C15.6040002,0.889339623 16.8027131,2.09955953 16.8027131,3.57896226 L16.8027131,14.3629245 C16.8027131,15.8423358 15.6039974,17.0534906 14.1291557,17.0534906 Z" id="Stroke-26" fill="#FF7020" fill-rule="nonzero"></path>
            <path d="M44.5947213,16.0534906 L44.5947213,16.0534906 C43.6743115,16.0534906 42.9211639,15.2921698 42.9211639,14.3629245 L42.9211639,3.57896226 C42.9211639,2.64971698 43.6743115,1.88933962 44.5947213,1.88933962 C45.5151311,1.88933962 46.2692131,2.64971698 46.2692131,3.57896226 L46.2692131,14.3629245 C46.2692131,15.2921698 45.5151311,16.0534906 44.5947213,16.0534906" id="Fill-28" fill="#FDDCB9"></path>
            <path d="M44.5947213,15.0534906 C44.9606965,15.0534906 45.2692131,14.7420124 45.2692131,14.3629245 L45.2692131,3.57896226 C45.2692131,3.20022377 44.9610478,2.88933962 44.5947213,2.88933962 C44.2287461,2.88933962 43.9211639,3.19987443 43.9211639,3.57896226 L43.9211639,14.3629245 C43.9211639,14.7423617 44.2290974,15.0534906 44.5947213,15.0534906 Z M44.5947213,17.0534906 C43.1198797,17.0534906 41.9211639,15.8423358 41.9211639,14.3629245 L41.9211639,3.57896226 C41.9211639,2.09955953 43.1198768,0.889339623 44.5947213,0.889339623 C46.0695689,0.889339623 47.2692131,2.09956773 47.2692131,3.57896226 L47.2692131,14.3629245 C47.2692131,15.8423273 46.0695658,17.0534906 44.5947213,17.0534906 Z" id="Stroke-30" fill="#FF7020" fill-rule="nonzero"></path>
        </g>
        <g id="Group-11" transform="translate(9.000000, 29.000000)">
            <g id="Group-3" transform="translate(0.000000, 0.800400)">
                <mask id="mask-2" fill="white">
                    <use xlink:href="#path-1"></use>
                </mask>
                <g id="Clip-2"></g>
                <path d="M43.6914,8.1835 L3.9924,8.1835 C1.7874,8.1835 0.0004,6.3965 0.0004,4.1915 C0.0004,1.9875 1.7874,0.1995 3.9924,0.1995 L43.6914,0.1995 C45.8964,0.1995 47.6834,1.9875 47.6834,4.1915 C47.6834,6.3965 45.8964,8.1835 43.6914,8.1835" id="Fill-1" fill="#FCAF5C" mask="url(#mask-2)"></path>
            </g>
            <path d="M25.0371,18.7876 L3.9921,18.7876 C1.7871,18.7876 0.0001,16.9996 0.0001,14.7956 C0.0001,12.5906 1.7871,10.8036 3.9921,10.8036 L25.0371,10.8036 C27.2421,10.8036 29.0291,12.5906 29.0291,14.7956 C29.0291,16.9996 27.2421,18.7876 25.0371,18.7876" id="Fill-4" fill="#FCAF5C"></path>
            <g id="Group-8" transform="translate(0.000000, 0.800400)">
                <mask id="mask-4" fill="white">
                    <use xlink:href="#path-3"></use>
                </mask>
                <g id="Clip-7"></g>
                <path d="M5.5889,8.1835 L3.9919,8.1835 C1.7869,8.1835 -0.0001,6.3965 -0.0001,4.1915 C-0.0001,1.9875 1.7869,0.1995 3.9919,0.1995 L5.5889,0.1995 C7.7939,0.1995 9.5809,1.9875 9.5809,4.1915 C9.5809,6.3965 7.7939,8.1835 5.5889,8.1835" id="Fill-6" fill="#FF7020" mask="url(#mask-4)"></path>
            </g>
            <path d="M25.0274,18.8003 L23.4294,18.8003 C21.2244,18.8003 19.4374,17.0133 19.4374,14.8083 C19.4374,12.6033 21.2244,10.8163 23.4294,10.8163 L25.0274,10.8163 C27.2314,10.8163 29.0184,12.6033 29.0184,14.8083 C29.0184,17.0133 27.2314,18.8003 25.0274,18.8003" id="Fill-9" fill="#FF7020"></path>
        </g>
    </g>
</svg>