<?xml version="1.0" encoding="UTF-8"?>
<svg width="64px" height="64px" viewBox="0 0 64 64" version="1.1" xmlns="http://www.w3.org/2000/svg" xmlns:xlink="http://www.w3.org/1999/xlink">
    <!-- Generator: Sketch 54.1 (76490) - https://sketchapp.com -->
    <title>icon/component/dialog</title>
    <desc>Created with Sketch.</desc>
    <defs>
        <polygon id="path-1" points="0 46.8220327 53.8227 46.8220327 53.8227 9.03846154e-05 0 9.03846154e-05"></polygon>
    </defs>
    <g id="icon/component/dialog" stroke="none" stroke-width="1" fill="none" fill-rule="evenodd">
        <g id="Group-15" transform="translate(5.000000, 9.000000)">
            <path d="M52.21422,45.917825 L1.60812,45.917825 C1.21752,45.917825 0.89982,45.5987673 0.89982,45.2064981 L0.89982,1.61580577 C0.89982,1.22263269 1.21752,0.903575 1.60812,0.903575 L52.21422,0.903575 C52.60572,0.903575 52.92252,1.22263269 52.92252,1.61580577 L52.92252,45.2064981 C52.92252,45.5987673 52.60572,45.917825 52.21422,45.917825" id="Fill-1" fill="#FDDCB9"></path>
            <mask id="mask-2" fill="white">
                <use xlink:href="#path-1"></use>
            </mask>
            <g id="Clip-4"></g>
            <polygon id="Fill-3" fill="#FCAF5C" mask="url(#mask-2)" points="27.0918 45.9181865 52.2144 45.9181865 52.2144 36.0029942 27.0918 36.0029942"></polygon>
            <polygon id="Fill-5" fill="#FCAF5C" mask="url(#mask-2)" points="1.0467 45.9181865 26.1693 45.9181865 26.1693 36.0029942 1.0467 36.0029942"></polygon>
            <polygon id="Fill-6" fill="#FF881E" mask="url(#mask-2)" points="1.4247 45.9181865 52.2144 45.9181865 52.2144 43.3259558 1.4247 43.3259558"></polygon>
            <polygon id="Fill-7" fill="#FDDCB9" mask="url(#mask-2)" points="1.4247 37.7058404 52.2144 37.7058404 52.2144 35.1127058 1.4247 35.1127058"></polygon>
            <path d="M50.39046,32 L4.46256,32 C4.10616,32 3.81816,31.7418699 3.81816,31.423429 L3.81816,1.30181713 C3.81816,0.984180401 4.10616,0.725246154 4.46256,0.725246154 L50.39046,0.725246154 C50.74686,0.725246154 51.03486,0.984180401 51.03486,1.30181713 L51.03486,31.423429 C51.03486,31.7418699 50.74686,32 50.39046,32" id="Fill-8" fill="#FFFFFF" opacity="0.699841486" mask="url(#mask-2)"></path>
            <path d="M52.02252,45.017825 L52.02252,1.803575 L1.79982,1.803575 L1.79982,45.017825 L52.02252,45.017825 Z M52.21422,46.817825 L1.60812,46.817825 C0.719602549,46.817825 -0.00018,46.0949665 -0.00018,45.2064981 L-0.00018,1.61580577 C-0.00018,0.726749209 0.719285762,0.003575 1.60812,0.003575 L52.21422,0.003575 C53.1038214,0.003575 53.82252,0.726612386 53.82252,1.61580577 L53.82252,45.2064981 C53.82252,46.0951028 53.1035045,46.817825 52.21422,46.817825 Z" id="Stroke-9" fill="#FF7020" fill-rule="nonzero" mask="url(#mask-2)"></path>
            <polygon id="Stroke-10" fill="#FF7020" fill-rule="nonzero" mask="url(#mask-2)" points="1.04427 36.526 1.04427 34.726 52.76907 34.726 52.76907 36.526"></polygon>
            <polygon id="Stroke-11" fill="#FF7020" fill-rule="nonzero" mask="url(#mask-2)" points="25.62732 35.0205135 27.42732 35.0205135 27.42732 45.1815519 25.62732 45.1815519"></polygon>
            <path d="M36.7168828,18.3107789 C36.7168828,23.7493638 32.326702,28.1575213 26.91126,28.1575213 C21.495818,28.1575213 17.1056372,23.7493638 17.1056372,18.3107789 C17.1056372,12.8714092 21.495818,8.46325175 26.91126,8.46325175 C32.326702,8.46325175 36.7168828,12.8714092 36.7168828,18.3107789" id="Fill-12" fill="#FF881E" mask="url(#mask-2)"></path>
            <path d="M27.84123,20.4609981 L26.05473,20.4609981 L26.05473,14.8399788 C26.05473,14.3437673 26.45433,13.9424596 26.94753,13.9424596 C27.44163,13.9424596 27.84123,14.3437673 27.84123,14.8399788 L27.84123,20.4609981 Z" id="Fill-13" fill="#FFFFFF" mask="url(#mask-2)"></path>
            <path d="M27.36756,23.4240769 L26.52696,23.4240769 C26.26596,23.4240769 26.05446,23.2116731 26.05446,22.9495577 L26.05446,22.0701154 C26.05446,21.808 26.26596,21.5955962 26.52696,21.5955962 L27.36756,21.5955962 C27.62946,21.5955962 27.84096,21.808 27.84096,22.0701154 L27.84096,22.9495577 C27.84096,23.2116731 27.62946,23.4240769 27.36756,23.4240769" id="Fill-14" fill="#FFFFFF" mask="url(#mask-2)"></path>
            <path d="M36.7168828,18.3107789 C36.7168828,23.7493638 32.326702,28.1575213 26.91126,28.1575213 C21.495818,28.1575213 17.1056372,23.7493638 17.1056372,18.3107789 C17.1056372,12.8714092 21.495818,8.46325175 26.91126,8.46325175 C32.326702,8.46325175 36.7168828,12.8714092 36.7168828,18.3107789" id="Fill-12" stroke="#FF7020" stroke-width="2" mask="url(#mask-2)"></path>
        </g>
    </g>
</svg>