<?xml version="1.0" encoding="UTF-8"?>
<svg width="64px" height="64px" viewBox="0 0 64 64" version="1.1" xmlns="http://www.w3.org/2000/svg" xmlns:xlink="http://www.w3.org/1999/xlink">
    <!-- Generator: Sketch 49 (51002) - http://www.bohemiancoding.com/sketch -->
    <title>icon/component/flip</title>
    <desc>Created with Sketch.</desc>
    <defs></defs>
    <g id="icon/component/flip" stroke="none" stroke-width="1" fill="none" fill-rule="evenodd">
        <g id="Page-1" transform="translate(5.000000, 5.000000)">
            <path d="M12.1717926,47.2332285 L11.8750074,45.2553715 C12.8026176,45.11618 13.8152844,44.9905388 14.8992746,44.8801369 L15.1019216,46.8698439 C14.0483142,46.9771514 13.0668648,47.0989195 12.1717926,47.2332285 Z M18.0597182,46.6201721 L17.9229121,44.6248566 C18.8981409,44.5579913 19.9080812,44.5025033 20.9448598,44.4589744 L21.0287554,46.457214 C20.0094169,46.5000107 19.0171049,46.5545302 18.0597182,46.6201721 Z M24.0041966,46.3674104 L23.966653,44.3677629 C24.832291,44.3515104 25.7082858,44.3433076 26.5911872,44.3433 C26.7909049,44.3433924 26.7909049,44.3433924 26.9888286,44.3438529 L26.9832455,46.3438451 C26.7881221,46.3433911 26.7881221,46.3433911 26.5911958,46.3433 C25.7207947,46.3433075 24.8573091,46.3513932 24.0041966,46.3674104 Z M29.9613063,46.3844392 L30.0106811,44.3850488 C31.0386034,44.4104332 32.0480791,44.4472498 33.032434,44.4950904 L32.9353467,46.4927325 C31.9670043,46.4456702 30.9734307,46.4094336 29.9613063,46.3844392 Z M35.9036272,46.677045 L36.0562007,44.6828732 C37.1160161,44.7639593 38.1272016,44.858577 39.0788306,44.965601 L38.8553118,46.9530716 C37.9278985,46.848771 36.9403095,46.7563613 35.9036272,46.677045 Z M41.775452,47.3543604 L42.1058675,45.3818428 C43.2983871,45.5816013 44.3215884,45.8045052 45.1522872,46.0473583 L44.591082,47.9670064 C43.8441066,47.7486297 42.8955602,47.5419892 41.775452,47.3543604 Z" id="Stroke-1" fill="#457AE6" fill-rule="nonzero"></path>
            <path d="M8.05597671,48.6131513 C9.01484895,48.9489612 10.4509095,49.2638311 12.2600555,49.5318189 C16.0226624,50.0891716 21.1337663,50.4094 26.5924,50.4094 C28.2313422,50.4094 29.8367733,50.3809985 31.3832479,50.3250537 L31.4555521,52.3237463 C29.8847198,52.3805723 28.2551946,52.4094 26.5924,52.4094 C14.2270371,52.4094 5.1164,51.0598467 5.1164,48.3764 C5.1164,47.0384767 6.5548457,46.3400874 9.27977846,45.7295903 L9.71702154,47.6812097 C8.72478526,47.9035115 7.96121664,48.1415031 7.46835559,48.3762518 C7.62947063,48.4527915 7.82619569,48.5326789 8.05597671,48.6131513 Z" id="Stroke-3" fill="#457AE6" fill-rule="nonzero"></path>
            <path d="M27.9021936,48.5607072 L29.3166064,47.1466928 L32.8656064,50.6966928 C33.2560368,51.0872332 33.2559922,51.7203214 32.8655068,52.1108068 L29.4605068,55.5158068 L28.0462932,54.1015932 L30.744286,51.4036004 L27.9021936,48.5607072 Z" id="Stroke-5" fill="#457AE6" fill-rule="nonzero"></path>
            <path d="M29.6133,39.2280381 L52.3633,40.0262133 C52.8173,40.0262133 53.1843,39.6689812 53.1843,39.2280381 L53.1843,0.890318335 C53.1843,0.449375181 52.8173,0.0921430903 52.3633,0.0921430903 L29.6133,1.69044035 C29.1593,1.69044035 28.7923,2.04767244 28.7923,2.48861559 L28.7923,38.4288894 C28.7923,38.870806 29.1593,39.2280381 29.6133,39.2280381" id="Fill-7" fill="#CADEFF"></path>
            <path d="M0.8208,40.0265053 L23.5708,39.2283301 C24.0248,39.2283301 24.3928,38.871098 24.3928,38.4282081 L24.3928,2.48890761 C24.3928,2.04699107 24.0248,1.68975898 23.5708,1.68975898 L0.8208,0.0924351056 C0.3678,0.0924351056 -0.0002,0.449667197 -0.0002,0.89061035 L-0.0002,39.2283301 C-0.0002,39.6692732 0.3678,40.0265053 0.8208,40.0265053" id="Fill-9" fill="#CADEFF"></path>
            <path d="M29.6133,39.2280381 L52.3633,40.0262133 C52.8173,40.0262133 53.1843,39.6689812 53.1843,39.2280381 L53.1843,0.890318335 C53.1843,0.449375181 52.8173,0.0921430903 52.3633,0.0921430903 L29.6133,1.69044035 C29.1593,1.69044035 28.7923,2.04767244 28.7923,2.48861559 L28.7923,38.4288894 C28.7923,38.870806 29.1593,39.2280381 29.6133,39.2280381" id="Fill-11" fill="#6DA3F2"></path>
            <path d="M0.8208,40.0265053 L23.5708,39.2283301 C24.0248,39.2283301 24.3928,38.871098 24.3928,38.4282081 L24.3928,2.48890761 C24.3928,2.04699107 24.0248,1.68975898 23.5708,1.68975898 L0.8208,0.0924351056 C0.3678,0.0924351056 -0.0002,0.449667197 -0.0002,0.89061035 L-0.0002,39.2283301 C-0.0002,39.6692732 0.3678,40.0265053 0.8208,40.0265053" id="Fill-13" fill="#CADEFF"></path>
            <path d="M3.9492,40.0265053 L23.6802,39.2351438 C24.0742,39.2351438 24.3922,38.8798584 24.3922,38.4418354 L24.3922,2.80039063 C24.3922,2.36334101 24.0742,1.79391111 23.6802,1.79391111 L3.9492,0.620009475 C3.5552,0.620009475 3.2372,0.975294797 3.2372,1.41234441 L3.2372,39.2351438 C3.2372,39.6721934 3.5552,40.0265053 3.9492,40.0265053" id="Fill-15" fill="#FFFFFF" opacity="0.7"></path>
            <path d="M29.5068,39.2479924 L49.3128,40.0267 C49.7078,40.0267 50.0278,39.677255 50.0278,39.2479924 L50.0278,1.06601423 C50.0278,0.635778303 49.7078,0.287306671 49.3128,0.287306671 L29.5838,2.17664588 C29.1888,2.17664588 28.7918,2.99331543 28.7918,3.42355135 L28.7918,38.4683115 C28.7918,38.8995208 29.1118,39.2479924 29.5068,39.2479924" id="Fill-17" fill="#97BDFF"></path>
            <path d="M0.855863053,41.0258904 C-0.17836344,41.0265053 -1.0002,40.227888 -1.0002,39.2283301 L-1.0002,0.89061035 C-1.0002,-0.108947577 -0.17836344,-0.907564894 0.890839612,-0.905109105 L23.5708,0.689758979 C24.570964,0.689758979 25.3928,1.48837688 25.3928,2.48890761 L25.3928,38.4282081 C25.3928,39.4293676 24.5713009,40.2283301 23.6058631,40.2277152 L0.855863053,41.0258904 Z M23.3928,38.2345703 L23.3928,2.67971135 L0.9998,1.10502249 L0.9998,39.0196157 L23.3928,38.2345703 Z" id="Stroke-19" fill="#457AE6" fill-rule="nonzero"></path>
            <path d="M27.7923,38.4288894 L27.7923,2.48861559 C27.7923,1.48891596 28.6132997,0.690440348 29.5432179,0.69289912 L52.3633,-0.90785691 C53.3633003,-0.90785691 54.1843,-0.109381296 54.1843,0.890318335 L54.1843,39.2280381 C54.1843,40.2277377 53.3633003,41.0262133 52.3282369,41.0255984 L29.5924696,40.2279225 C28.6015951,40.2169249 27.7923,39.4222659 27.7923,38.4288894 Z M29.7923,38.2337068 L52.1843,39.0199283 L52.1843,1.10715663 L29.7923,2.67788407 L29.7923,38.2337068 Z" id="Stroke-21" fill="#457AE6" fill-rule="nonzero"></path>
        </g>
    </g>
</svg>