<?xml version="1.0" encoding="utf-8"?>
<!-- Generator: Adobe Illustrator 21.0.0, SVG Export Plug-In . SVG Version: 6.00 Build 0)  -->
<svg version="1.1" xmlns="http://www.w3.org/2000/svg" xmlns:xlink="http://www.w3.org/1999/xlink" x="0px" y="0px"
	 viewBox="0 0 64 64" style="enable-background:new 0 0 64 64;" xml:space="preserve">
<style type="text/css">
	.st0{clip-path:url(#SVGID_2_);fill:#6DA3F2;}
	.st1{clip-path:url(#SVGID_4_);enable-background:new    ;}
	.st2{clip-path:url(#SVGID_6_);}
	.st3{clip-path:url(#SVGID_8_);}
	.st4{clip-path:url(#SVGID_10_);fill:#457AE6;}
	.st5{clip-path:url(#SVGID_12_);enable-background:new    ;}
	.st6{clip-path:url(#SVGID_14_);}
	.st7{clip-path:url(#SVGID_16_);}
	.st8{clip-path:url(#SVGID_18_);fill:#CADEFF;}
	.st9{clip-path:url(#SVGID_20_);enable-background:new    ;}
	.st10{clip-path:url(#SVGID_22_);}
	.st11{clip-path:url(#SVGID_24_);}
	.st12{clip-path:url(#SVGID_26_);fill:#CADEFF;}
	.st13{clip-path:url(#SVGID_28_);enable-background:new    ;}
	.st14{clip-path:url(#SVGID_30_);}
	.st15{clip-path:url(#SVGID_32_);}
	.st16{clip-path:url(#SVGID_34_);fill:#EFF5FF;}
	.st17{fill:none;stroke:#457AE6;stroke-width:2;stroke-miterlimit:10;}
	.st18{fill:#CADEFF;}
</style>
<g id="Layer_1">
	<g>
		<defs>
			<path id="SVGID_1_" d="M44.7,46.7c-0.4,0-0.7-0.1-1.1-0.3L32,40.4l-11.6,6.1c-0.8,0.4-1.7,0.3-2.4-0.2c-0.7-0.5-1.1-1.4-0.9-2.2
				l2.2-12.9L9.9,22c-0.6-0.6-0.9-1.5-0.6-2.4c0.3-0.8,1-1.4,1.8-1.6l13-1.9L30,4.5c0.8-1.6,3.3-1.6,4.1,0l5.8,11.7l13,1.9
				c0.9,0.1,1.6,0.7,1.8,1.6c0.3,0.8,0,1.7-0.6,2.4l-9.4,9.1L46.9,44c0.1,0.9-0.2,1.7-0.9,2.2C45.6,46.6,45.2,46.7,44.7,46.7"/>
		</defs>
		<clipPath id="SVGID_2_">
			<use xlink:href="#SVGID_1_"  style="overflow:visible;"/>
		</clipPath>
		<rect x="4.2" y="-1.7" class="st0" width="55.6" height="53.4"/>
	</g>
	<g>
		<defs>
			<path id="SVGID_3_" d="M44.7,46.7c-0.4,0-0.7-0.1-1.1-0.3L32,40.4l-11.6,6.1c-0.8,0.4-1.7,0.3-2.4-0.2c-0.7-0.5-1.1-1.4-0.9-2.2
				l2.2-12.9L9.9,22c-0.6-0.6-0.9-1.5-0.6-2.4c0.3-0.8,1-1.4,1.8-1.6l13-1.9L30,4.5c0.8-1.6,3.3-1.6,4.1,0l5.8,11.7l13,1.9
				c0.9,0.1,1.6,0.7,1.8,1.6c0.3,0.8,0,1.7-0.6,2.4l-9.4,9.1L46.9,44c0.1,0.9-0.2,1.7-0.9,2.2C45.6,46.6,45.2,46.7,44.7,46.7"/>
		</defs>
		<clipPath id="SVGID_4_">
			<use xlink:href="#SVGID_3_"  style="overflow:visible;"/>
		</clipPath>
		<g class="st1">
			<g>
				<defs>
					<rect id="SVGID_5_" x="18" y="26" width="14" height="20"/>
				</defs>
				<clipPath id="SVGID_6_">
					<use xlink:href="#SVGID_5_"  style="overflow:visible;"/>
				</clipPath>
				<g class="st2">
					<defs>
						<polygon id="SVGID_7_" points="18.3,45.3 20.1,30.5 32,26.7 32,39.3 						"/>
					</defs>
					<clipPath id="SVGID_8_">
						<use xlink:href="#SVGID_7_"  style="overflow:visible;"/>
					</clipPath>
					<g class="st3">
						<defs>
							<rect id="SVGID_9_" x="9" y="3" width="46" height="44"/>
						</defs>
						<clipPath id="SVGID_10_">
							<use xlink:href="#SVGID_9_"  style="overflow:visible;"/>
						</clipPath>
						<rect x="13.3" y="21.7" class="st4" width="23.7" height="28.7"/>
					</g>
				</g>
			</g>
		</g>
	</g>
	<g>
		<defs>
			<path id="SVGID_11_" d="M44.7,46.7c-0.4,0-0.7-0.1-1.1-0.3L32,40.4l-11.6,6.1c-0.8,0.4-1.7,0.3-2.4-0.2c-0.7-0.5-1.1-1.4-0.9-2.2
				l2.2-12.9L9.9,22c-0.6-0.6-0.9-1.5-0.6-2.4c0.3-0.8,1-1.4,1.8-1.6l13-1.9L30,4.5c0.8-1.6,3.3-1.6,4.1,0l5.8,11.7l13,1.9
				c0.9,0.1,1.6,0.7,1.8,1.6c0.3,0.8,0,1.7-0.6,2.4l-9.4,9.1L46.9,44c0.1,0.9-0.2,1.7-0.9,2.2C45.6,46.6,45.2,46.7,44.7,46.7"/>
		</defs>
		<clipPath id="SVGID_12_">
			<use xlink:href="#SVGID_11_"  style="overflow:visible;"/>
		</clipPath>
		<g class="st5">
			<g>
				<defs>
					<rect id="SVGID_13_" x="32" y="16" width="23" height="15"/>
				</defs>
				<clipPath id="SVGID_14_">
					<use xlink:href="#SVGID_13_"  style="overflow:visible;"/>
				</clipPath>
				<g class="st6">
					<defs>
						<polygon id="SVGID_15_" points="32,26.7 38.6,16.8 54.5,20 43.5,30.5 						"/>
					</defs>
					<clipPath id="SVGID_16_">
						<use xlink:href="#SVGID_15_"  style="overflow:visible;"/>
					</clipPath>
					<g class="st7">
						<defs>
							<rect id="SVGID_17_" x="9" y="3" width="46" height="44"/>
						</defs>
						<clipPath id="SVGID_18_">
							<use xlink:href="#SVGID_17_"  style="overflow:visible;"/>
						</clipPath>
						<rect x="27" y="11.8" class="st8" width="32.5" height="23.7"/>
					</g>
				</g>
			</g>
		</g>
	</g>
	<g>
		<defs>
			<path id="SVGID_19_" d="M44.7,46.7c-0.4,0-0.7-0.1-1.1-0.3L32,40.4l-11.6,6.1c-0.8,0.4-1.7,0.3-2.4-0.2c-0.7-0.5-1.1-1.4-0.9-2.2
				l2.2-12.9L9.9,22c-0.6-0.6-0.9-1.5-0.6-2.4c0.3-0.8,1-1.4,1.8-1.6l13-1.9L30,4.5c0.8-1.6,3.3-1.6,4.1,0l5.8,11.7l13,1.9
				c0.9,0.1,1.6,0.7,1.8,1.6c0.3,0.8,0,1.7-0.6,2.4l-9.4,9.1L46.9,44c0.1,0.9-0.2,1.7-0.9,2.2C45.6,46.6,45.2,46.7,44.7,46.7"/>
		</defs>
		<clipPath id="SVGID_20_">
			<use xlink:href="#SVGID_19_"  style="overflow:visible;"/>
		</clipPath>
		<g class="st9">
			<g>
				<defs>
					<rect id="SVGID_21_" x="10" y="17" width="23" height="14"/>
				</defs>
				<clipPath id="SVGID_22_">
					<use xlink:href="#SVGID_21_"  style="overflow:visible;"/>
				</clipPath>
				<g class="st10">
					<defs>
						<polygon id="SVGID_23_" points="32,26.7 24.9,17.3 10.6,20 21,30.5 						"/>
					</defs>
					<clipPath id="SVGID_24_">
						<use xlink:href="#SVGID_23_"  style="overflow:visible;"/>
					</clipPath>
					<g class="st11">
						<defs>
							<rect id="SVGID_25_" x="9" y="3" width="46" height="44"/>
						</defs>
						<clipPath id="SVGID_26_">
							<use xlink:href="#SVGID_25_"  style="overflow:visible;"/>
						</clipPath>
						<rect x="5.6" y="12.3" class="st12" width="31.4" height="23.2"/>
					</g>
				</g>
			</g>
		</g>
	</g>
	<g>
		<defs>
			<path id="SVGID_27_" d="M44.7,46.7c-0.4,0-0.7-0.1-1.1-0.3L32,40.4l-11.6,6.1c-0.8,0.4-1.7,0.3-2.4-0.2c-0.7-0.5-1.1-1.4-0.9-2.2
				l2.2-12.9L9.9,22c-0.6-0.6-0.9-1.5-0.6-2.4c0.3-0.8,1-1.4,1.8-1.6l13-1.9L30,4.5c0.8-1.6,3.3-1.6,4.1,0l5.8,11.7l13,1.9
				c0.9,0.1,1.6,0.7,1.8,1.6c0.3,0.8,0,1.7-0.6,2.4l-9.4,9.1L46.9,44c0.1,0.9-0.2,1.7-0.9,2.2C45.6,46.6,45.2,46.7,44.7,46.7"/>
		</defs>
		<clipPath id="SVGID_28_">
			<use xlink:href="#SVGID_27_"  style="overflow:visible;"/>
		</clipPath>
		<g class="st13">
			<g>
				<defs>
					<rect id="SVGID_29_" x="24" y="4" width="16" height="23"/>
				</defs>
				<clipPath id="SVGID_30_">
					<use xlink:href="#SVGID_29_"  style="overflow:visible;"/>
				</clipPath>
				<g class="st14">
					<defs>
						<polygon id="SVGID_31_" points="32,26.7 39.1,17.3 32,4.7 24.9,17.3 						"/>
					</defs>
					<clipPath id="SVGID_32_">
						<use xlink:href="#SVGID_31_"  style="overflow:visible;"/>
					</clipPath>
					<g class="st15">
						<defs>
							<rect id="SVGID_33_" x="9" y="3" width="46" height="44"/>
						</defs>
						<clipPath id="SVGID_34_">
							<use xlink:href="#SVGID_33_"  style="overflow:visible;"/>
						</clipPath>
						<rect x="19.9" y="-0.3" class="st16" width="24.2" height="32"/>
					</g>
				</g>
			</g>
		</g>
	</g>
	<path class="st17" d="M44.7,45.7c0.3,0,0.5-0.1,0.8-0.2c0.4-0.3,0.6-0.8,0.5-1.3l-2.3-13.4l9.8-9.5c0.4-0.3,0.5-0.9,0.3-1.3
		c-0.2-0.5-0.6-0.8-1-0.9l-13.5-2l-6-12.2c-0.4-0.8-1.9-0.8-2.3,0l-6,12.2l-0.5,0.1l-13,1.9c-0.5,0.1-0.9,0.4-1,0.9
		c-0.2,0.5,0,1,0.3,1.3l9.8,9.5l-0.1,0.5L18,44.2c-0.1,0.5,0.1,1,0.5,1.3c0.4,0.3,0.9,0.3,1.3,0.1L32,39.2l0.5,0.2l11.6,6.1
		C44.3,45.7,44.5,45.7,44.7,45.7z"/>
</g>
<g id="Layer_2">
	<g>
		<ellipse class="st18" cx="32" cy="57.5" rx="17" ry="2.5"/>
	</g>
</g>
</svg>
