<?xml version="1.0" encoding="UTF-8"?>
<svg width="64px" height="64px" viewBox="0 0 64 64" version="1.1" xmlns="http://www.w3.org/2000/svg" xmlns:xlink="http://www.w3.org/1999/xlink">
    <!-- Generator: Sketch 49 (51002) - http://www.bohemiancoding.com/sketch -->
    <title>icon/component/layout</title>
    <desc>Created with Sketch.</desc>
    <defs></defs>
    <g id="icon/component/layout" stroke="none" stroke-width="1" fill="none" fill-rule="evenodd">
        <g id="Page-1" transform="translate(6.000000, 8.000000)">
            <polygon id="Fill-1" fill="#CADEFF" points="12.531 48.5063 52.656 48.5063 52.656 9.5493 12.531 9.5493"></polygon>
            <g id="Group-18" transform="translate(0.000000, 0.637300)">
                <polygon id="Fill-2" fill="#EFF5FF" points="12.531 8.912 48.5 8.912 48.5 47.869 12.531 47.869"></polygon>
                <path d="M12.5315,47.9997 L0.4905,47.9997 C0.2195,47.9997 0.0005,47.7797 0.0005,47.5097 L0.0005,9.4017 C0.0005,9.1317 0.2195,8.9117 0.4905,8.9117 L12.5315,8.9117 C12.8025,8.9117 13.0215,9.1317 13.0215,9.4017 L13.0215,47.5097 C13.0215,47.7797 12.8025,47.9997 12.5315,47.9997" id="Fill-4" fill="#6DA3F2"></path>
                <path d="M12.4797,47.9997 L2.7727,47.9997 C2.5287,47.9997 2.3307,47.8017 2.3307,47.5577 L2.3307,9.3537 C2.3307,9.1097 2.5287,8.9117 2.7727,8.9117 L12.4797,8.9117 C12.7237,8.9117 12.9217,9.1097 12.9217,9.3537 L12.9217,47.5577 C12.9217,47.8017 12.7237,47.9997 12.4797,47.9997" id="Fill-6" fill="#97BDFF"></path>
                <path d="M12.0217,8.4021 L14.0217,8.4021 L14.0217,47.5091 C14.0217,48.331915 13.3544548,49.0001 12.5317,49.0001 L0.4907,49.0001 C-0.333025739,49.0001 -0.9993,48.3319463 -0.9993,47.5091 L-0.9993,8.4021 L1.0007,8.4021 L1.0007,47.0001 L12.0217,47.0001 L12.0217,8.4021 Z" id="Stroke-8" fill="#457AE6" fill-rule="nonzero"></path>
                <path d="M51.5354,46.9997 C51.6021153,46.9997 51.6564,46.9454153 51.6564,46.8787 L51.6564,1.4837 C51.6564,1.41698475 51.6021153,1.3627 51.5354,1.3627 L1.1214,1.3627 C1.05468475,1.3627 1.0004,1.41698475 1.0004,1.4837 L1.0004,46.8787 C1.0004,46.9454153 1.05468475,46.9997 1.1214,46.9997 L51.5354,46.9997 Z M51.5354,48.9997 L1.1214,48.9997 C-0.0498847498,48.9997 -0.9996,48.0499847 -0.9996,46.8787 L-0.9996,1.4837 C-0.9996,0.31241525 -0.0498847498,-0.6373 1.1214,-0.6373 L51.5354,-0.6373 C52.7066847,-0.6373 53.6564,0.31241525 53.6564,1.4837 L53.6564,46.8787 C53.6564,48.0499847 52.7066847,48.9997 51.5354,48.9997 Z" id="Stroke-10" fill="#457AE6" fill-rule="nonzero"></path>
                <polygon id="Fill-12" fill="#457AE6" points="2.683 5.281 4.183 5.281 4.183 3.78 2.683 3.78"></polygon>
                <polygon id="Fill-14" fill="#457AE6" points="5.725 5.281 7.226 5.281 7.226 3.78 5.725 3.78"></polygon>
                <polygon id="Fill-15" fill="#457AE6" points="8.767 5.281 10.268 5.281 10.268 3.78 8.767 3.78"></polygon>
                <polygon id="Stroke-16" fill="#457AE6" fill-rule="nonzero" points="53.4699 7.9382 53.4699 9.9382 -0.5091 9.9382 -0.5091 7.9382"></polygon>
                <polygon id="Stroke-17" fill="#457AE6" fill-rule="nonzero" points="12.0217 43.8708 12.0217 41.8708 41.8827 41.8708 41.8827 43.8708"></polygon>
            </g>
        </g>
    </g>
</svg>