<?xml version="1.0" encoding="UTF-8"?>
<svg width="64px" height="64px" viewBox="0 0 64 64" version="1.1" xmlns="http://www.w3.org/2000/svg" xmlns:xlink="http://www.w3.org/1999/xlink">
    <!-- Generator: Sketch 54.1 (76490) - https://sketchapp.com -->
    <title>icon/component/layout</title>
    <desc>Created with Sketch.</desc>
    <g id="icon/component/layout" stroke="none" stroke-width="1" fill="none" fill-rule="evenodd">
        <g id="Page-1" transform="translate(5.000000, 7.000000)">
            <polygon id="Fill-1" fill="#FDDCB9" points="13.531 49.5063 53.656 49.5063 53.656 10.5493 13.531 10.5493"></polygon>
            <g id="Group-18" transform="translate(0.000000, 0.637300)">
                <polygon id="Fill-2" fill="#FEF3E7" points="13.531 9.912 50.5010012 9.912 50.5010012 48.869 13.531 48.869"></polygon>
                <path d="M13.5315,48.9997 L1.4905,48.9997 C1.2195,48.9997 1.0005,48.7797 1.0005,48.5097 L1.0005,10.4017 C1.0005,10.1317 1.2195,9.9117 1.4905,9.9117 L13.5315,9.9117 C13.8025,9.9117 14.0215,10.1317 14.0215,10.4017 L14.0215,48.5097 C14.0215,48.7797 13.8025,48.9997 13.5315,48.9997" id="Fill-4" fill="#FF881E"></path>
                <path d="M13.4797,48.9997 L3.7727,48.9997 C3.5287,48.9997 3.3307,48.8017 3.3307,48.5577 L3.3307,10.3537 C3.3307,10.1097 3.5287,9.9117 3.7727,9.9117 L13.4797,9.9117 C13.7237,9.9117 13.9217,10.1097 13.9217,10.3537 L13.9217,48.5577 C13.9217,48.8017 13.7237,48.9997 13.4797,48.9997" id="Fill-6" fill="#FCAF5C"></path>
                <path d="M13.0217,9.4021 L15.0217,9.4021 L15.0217,48.5091 C15.0217,49.331915 14.3544548,50.0001 13.5317,50.0001 L1.4907,50.0001 C0.666974261,50.0001 0.0007,49.3319463 0.0007,48.5091 L0.0007,9.4021 L2.0007,9.4021 L2.0007,48.0001 L13.0217,48.0001 L13.0217,9.4021 Z" id="Stroke-8" fill="#FF7020" fill-rule="nonzero"></path>
                <path d="M52.5354,47.9997 C52.6021153,47.9997 52.6564,47.9454153 52.6564,47.8787 L52.6564,2.4837 C52.6564,2.41698475 52.6021153,2.3627 52.5354,2.3627 L2.1214,2.3627 C2.05468475,2.3627 2.0004,2.41698475 2.0004,2.4837 L2.0004,47.8787 C2.0004,47.9454153 2.05468475,47.9997 2.1214,47.9997 L52.5354,47.9997 Z M52.5354,49.9997 L2.1214,49.9997 C0.95011525,49.9997 0.0004,49.0499847 0.0004,47.8787 L0.0004,2.4837 C0.0004,1.31241525 0.95011525,0.3627 2.1214,0.3627 L52.5354,0.3627 C53.7066847,0.3627 54.6564,1.31241525 54.6564,2.4837 L54.6564,47.8787 C54.6564,49.0499847 53.7066847,49.9997 52.5354,49.9997 Z" id="Stroke-10" fill="#FF7020" fill-rule="nonzero"></path>
                <polygon id="Fill-12" fill="#FF7020" points="3.683 6.281 5.183 6.281 5.183 4.78 3.683 4.78"></polygon>
                <polygon id="Fill-14" fill="#FF7020" points="6.725 6.281 8.226 6.281 8.226 4.78 6.725 4.78"></polygon>
                <polygon id="Fill-15" fill="#FF7020" points="9.767 6.281 11.268 6.281 11.268 4.78 9.767 4.78"></polygon>
                <polygon id="Stroke-16" fill="#FF7020" fill-rule="nonzero" points="54.4699 8.9382 54.4699 10.9382 0.4909 10.9382 0.4909 8.9382"></polygon>
                <polygon id="Stroke-17" fill="#FF7020" fill-rule="nonzero" points="13.0217 44.8708 13.0217 42.8708 42.8827 42.8708 42.8827 44.8708"></polygon>
            </g>
        </g>
    </g>
</svg>