<?xml version="1.0" encoding="UTF-8"?>
<svg width="55px" height="50px" viewBox="0 0 55 50" version="1.1" xmlns="http://www.w3.org/2000/svg" xmlns:xlink="http://www.w3.org/1999/xlink">
    <!-- Generator: sketchtool 50.2 (55047) - http://www.bohemiancoding.com/sketch -->
    <title>80874A9B-A6FA-4172-A8E0-A6FCD6FC91D8</title>
    <desc>Created with sketchtool.</desc>
    <defs>
        <polygon id="path-1" points="0.317252794 0.0003 29.7127377 0.0003 29.7127377 1 0.317252794 1"></polygon>
    </defs>
    <g id="Page-1" stroke="none" stroke-width="1" fill="none" fill-rule="evenodd">
        <g id="icon-source" transform="translate(-504.000000, -1251.000000)">
            <g id="Group" transform="translate(87.000000, 66.000000)">
                <g id="Group-6-Copy-3" transform="translate(0.000000, 587.000000)">
                    <g id="Group-3-Copy-2" transform="translate(188.000000, 197.000000)">
                        <g id="list" transform="translate(224.000000, 394.000000)">
                            <rect id="Background" x="0" y="0" width="64" height="64"></rect>
                            <g id="Group" transform="translate(39.000000, 45.000000)">
                                <g id="Page-1">
                                    <g id="Group-23" transform="translate(0.000000, 0.939200)">
                                        <g id="Group-22"></g>
                                    </g>
                                </g>
                            </g>
                            <g id="Group-6" transform="translate(16.999900, 17.585400)">
                                <path d="M1.31725279,1 L30.7127377,1" id="Fill-3" fill="#FFFFFF"></path>
                                <polygon id="Stroke-5" fill="#457AE6" fill-rule="nonzero" points="0.194859327 2.1722 0.194859327 0.1722 31.8351312 0.1722 31.8351312 2.1722"></polygon>
                            </g>
                            <path d="M57.6085564,14.7087 L19.1194396,14.7087 C18.6760942,14.7087 18.3169283,14.3887 18.3169283,13.9937 L18.3169283,9.2707 C18.3169283,8.8757 18.6760942,8.5557 19.1194396,8.5557 L57.6085564,8.5557 C58.0519018,8.5557 58.4099453,8.8757 58.4099453,9.2707 L58.4099453,13.9937 C58.4099453,14.3887 58.0519018,14.7087 57.6085564,14.7087" id="Fill-11" fill="#6DA3F2"></path>
                            <path d="M57.7450394,12.283 L18.9820587,12.283 C18.615036,12.283 18.3176018,12.017 18.3176018,11.69 L18.3176018,9.148 C18.3176018,8.821 18.615036,8.555 18.9820587,8.555 L57.7450394,8.555 C58.1120621,8.555 58.4106188,8.821 58.4106188,9.148 L58.4106188,11.69 C58.4106188,12.017 58.1120621,12.283 57.7450394,12.283" id="Fill-13" fill="#97BDFF"></path>
                            <path d="M48.6546625,9.5554 L48.6546625,7.5554 L57.6091176,7.5554 C58.6726161,7.5554 59.5329,8.32335659 59.5329,9.2704 L59.5329,13.9934 C59.5329,14.9404434 58.6726161,15.7084 57.6091176,15.7084 L19.1188784,15.7084 C18.0563581,15.7084 17.195096,14.9403137 17.195096,13.9934 L17.195096,9.2704 C17.195096,8.32348627 18.0563581,7.5554 19.1188784,7.5554 L44.2245755,7.5554 L44.2245755,9.5554 L19.439883,9.5554 L19.439883,13.7084 L57.2881131,13.7084 L57.2881131,9.5554 L48.6546625,9.5554 Z" id="Stroke-15" fill="#457AE6" fill-rule="nonzero"></path>
                            <g id="Group-20" transform="translate(16.999900, 35.585400)">
                                <path d="M1.31725279,1 L16.3472237,1" id="Fill-17" fill="#FFFFFF"></path>
                                <polygon id="Stroke-19" fill="#457AE6" fill-rule="nonzero" points="0.194859327 2.4681 0.194859327 0.4681 17.4696172 0.4681 17.4696172 2.4681"></polygon>
                            </g>
                            <path d="M57.6085564,26.8513 L19.1194396,26.8513 C18.6760942,26.8513 18.3169283,27.1713 18.3169283,27.5663 L18.3169283,32.2893 C18.3169283,32.6843 18.6760942,33.0043 19.1194396,33.0043 L57.6085564,33.0043 C58.0519018,33.0043 58.4099453,32.6843 58.4099453,32.2893 L58.4099453,27.5663 C58.4099453,27.1713 58.0519018,26.8513 57.6085564,26.8513" id="Fill-21" fill="#CADEFF"></path>
                            <path d="M57.7450394,29.2771 L18.9820587,29.2771 C18.615036,29.2771 18.3176018,29.5431 18.3176018,29.8701 L18.3176018,32.4121 C18.3176018,32.7391 18.615036,33.0051 18.9820587,33.0051 L57.7450394,33.0051 C58.1120621,33.0051 58.4106188,32.7391 58.4106188,32.4121 L58.4106188,29.8701 C58.4106188,29.5431 58.1120621,29.2771 57.7450394,29.2771" id="Fill-23" fill="#EFF5FF"></path>
                            <path d="M44.2245755,32.0046 L44.2245755,34.0046 L19.1188784,34.0046 C18.0563581,34.0046 17.195096,33.2365137 17.195096,32.2896 L17.195096,27.5666 C17.195096,26.6196863 18.0563581,25.8516 19.1188784,25.8516 L57.6091176,25.8516 C58.6726161,25.8516 59.5329,26.6195566 59.5329,27.5666 L59.5329,32.2896 C59.5329,33.2366434 58.6726161,34.0046 57.6091176,34.0046 L48.6546625,34.0046 L48.6546625,32.0046 L57.2881131,32.0046 L57.2881131,27.8516 L19.439883,27.8516 L19.439883,32.0046 L44.2245755,32.0046 Z" id="Stroke-25" fill="#457AE6" fill-rule="nonzero"></path>
                            <g id="Group-30" transform="translate(17.999900, 55.585400)">
                                <mask id="mask-2" fill="white">
                                    <use xlink:href="#path-1"></use>
                                </mask>
                                <g id="Clip-28"></g>
                            </g>
                            <path d="M18.3171528,55 L47.7126377,55" id="Fill-27" fill="#FFFFFF"></path>
                            <polygon id="Stroke-29" fill="#457AE6" fill-rule="nonzero" points="17.1947593 56.5857 17.1947593 54.5857 48.8350312 54.5857 48.8350312 56.5857"></polygon>
                            <path d="M57.6085564,51.5359 L19.1194396,51.5359 C18.6760942,51.5359 18.3169283,51.2169 18.3169283,50.8219 L18.3169283,46.0979 C18.3169283,45.7029 18.6760942,45.3839 19.1194396,45.3839 L57.6085564,45.3839 C58.0519018,45.3839 58.4099453,45.7029 58.4099453,46.0979 L58.4099453,50.8219 C58.4099453,51.2169 58.0519018,51.5359 57.6085564,51.5359" id="Fill-31" fill="#CADEFF"></path>
                            <path d="M57.7450394,49.1101 L18.9820587,49.1101 C18.615036,49.1101 18.3176018,48.8441 18.3176018,48.5171 L18.3176018,45.9761 C18.3176018,45.6491 18.615036,45.3831 18.9820587,45.3831 L57.7450394,45.3831 C58.1120621,45.3831 58.4106188,45.6491 58.4106188,45.9761 L58.4106188,48.5171 C58.4106188,48.8441 58.1120621,49.1101 57.7450394,49.1101" id="Fill-33" fill="#EFF5FF"></path>
                            <path d="M19.4396585,46.3835 L19.4396585,50.5355 L57.2878886,50.5355 L57.2878886,46.3835 L19.4396585,46.3835 Z M57.6088931,44.3835 C58.6721193,44.3835 59.5326755,45.1502153 59.5326755,46.0975 L59.5326755,50.8215 C59.5326755,51.7687847 58.6721193,52.5355 57.6088931,52.5355 L19.118654,52.5355 C18.0564052,52.5355 17.1948716,51.7686562 17.1948716,50.8215 L17.1948716,46.0975 C17.1948716,45.1503438 18.0564052,44.3835 19.118654,44.3835 L57.6088931,44.3835 Z" id="Stroke-35" fill="#457AE6" fill-rule="nonzero"></path>
                            <path d="M9.87525988,16.8573975 C9.77823929,16.6720133 9.70790043,16.4414749 9.66424116,16.1657754 C9.45079588,16.398694 9.18278055,16.5959588 8.86018711,16.7575758 C8.53759367,16.9191927 8.14345347,17 7.67775468,17 C7.29937441,17 6.94646733,16.9429596 6.61902287,16.828877 C6.2915784,16.7147944 6.00779746,16.5555566 5.76767152,16.3511586 C5.52754558,16.1467607 5.33957102,15.9031506 5.2037422,15.6203209 C5.06791339,15.3374912 5,15.0273338 5,14.6898396 C5,14.2857971 5.07640256,13.9269178 5.22920998,13.6131907 C5.3820174,13.2994637 5.61122508,13.033275 5.91683992,12.8146168 C6.22245475,12.5959585 6.60204208,12.4295906 7.05561331,12.315508 C7.50918453,12.2014255 8.03672603,12.144385 8.63825364,12.144385 L9.57692308,12.144385 L9.57692308,11.7023173 C9.57692308,11.3458093 9.48354217,11.0606071 9.29677755,10.8467023 C9.11001293,10.6327975 8.81531733,10.5258467 8.41268191,10.5258467 C8.05855679,10.5258467 7.78083954,10.6090307 7.57952183,10.7754011 C7.37820412,10.9417715 7.27754678,11.1699332 7.27754678,11.459893 L5.17463617,11.459893 C5.17463617,11.1271522 5.25346422,10.8110532 5.41112266,10.5115865 C5.56878111,10.2121197 5.79313784,9.95068442 6.08419958,9.72727273 C6.37526133,9.50386103 6.72695567,9.32679804 7.13929314,9.19607843 C7.55163061,9.06535882 8.01247147,9 8.52182952,9 C8.97782626,9 9.39985946,9.05704043 9.78794179,9.17112299 C10.1760241,9.28520556 10.5107401,9.4551385 10.7920998,9.68092692 C11.0734595,9.90671533 11.2929653,10.1895408 11.4506237,10.5294118 C11.6082821,10.8692827 11.6871102,11.2650007 11.6871102,11.7165775 L11.6871102,14.9821747 C11.6871102,15.2008329 11.6943866,15.3969094 11.7089397,15.57041 C11.7234928,15.7439106 11.7428966,15.9007717 11.7671518,16.0409982 C11.7914069,16.1812247 11.8229381,16.307189 11.8617464,16.4188948 C11.9005546,16.5306007 11.9466387,16.6363631 12,16.7361854 L12,16.8573975 L9.87525988,16.8573975 Z M8.13617464,15.4242424 C8.31566271,15.4242424 8.48180797,15.4028523 8.63461538,15.3600713 C8.7874228,15.3172903 8.92446232,15.2614383 9.04573805,15.1925134 C9.16701377,15.1235885 9.27252207,15.0439696 9.36226611,14.9536542 C9.45201015,14.8633388 9.52356176,14.7706481 9.57692308,14.6755793 L9.57692308,13.3493761 L8.71101871,13.3493761 C8.43451005,13.3493761 8.19438771,13.3790847 7.99064449,13.4385027 C7.78690127,13.4979207 7.61954327,13.5811046 7.48856549,13.688057 C7.3575877,13.7950094 7.26056858,13.9209737 7.1975052,14.0659537 C7.13444182,14.2109336 7.1029106,14.3689831 7.1029106,14.540107 C7.1029106,14.7967927 7.19507877,15.0083176 7.37941788,15.1746881 C7.56375699,15.3410585 7.81600672,15.4242424 8.13617464,15.4242424 Z" id="a" fill="#5590EB"></path>
                            <path d="M12,33.1047558 C12,33.6797372 11.9377784,34.2052247 11.8133333,34.6812339 C11.6888883,35.1572432 11.5010269,35.5672648 11.2497436,35.9113111 C10.9984603,36.2553573 10.6837626,36.522814 10.305641,36.7136889 C9.92751948,36.9045639 9.48478886,37 8.9774359,37 C8.52751912,37 8.13863412,36.9163462 7.81076923,36.749036 C7.48290434,36.5817258 7.19931744,36.3472594 6.96,36.0456298 L6.86666667,36.8586118 L5,36.8586118 L5,26 L7.07487179,26 L7.07487179,29.8952442 C7.30461653,29.6313183 7.57384461,29.4274857 7.8825641,29.2837404 C8.19128359,29.139995 8.55145093,29.0681234 8.96307692,29.0681234 C9.47042989,29.0681234 9.91435707,29.1647377 10.2948718,29.3579692 C10.6753865,29.5512006 10.9924774,29.8198355 11.2461538,30.1638817 C11.4998303,30.507928 11.6888883,30.9179496 11.8133333,31.3939589 C11.9377784,31.8699681 12,32.3907427 12,32.9562982 L12,33.1047558 Z M9.92512821,32.9562982 C9.92512821,32.6546686 9.90358996,32.3683604 9.86051282,32.097365 C9.81743568,31.8263697 9.73965868,31.5895469 9.62717949,31.3868895 C9.51470029,31.1842321 9.362736,31.0239937 9.17128205,30.9061697 C8.9798281,30.7883456 8.73572798,30.7294344 8.43897436,30.7294344 C8.0895709,30.7294344 7.80478743,30.7989496 7.58461538,30.937982 C7.36444334,31.0770144 7.19453051,31.2737776 7.07487179,31.5282776 L7.07487179,34.5469152 C7.19453051,34.8014152 7.36444334,34.9993566 7.58461538,35.1407455 C7.80478743,35.2821344 8.09435718,35.3528278 8.45333333,35.3528278 C8.74530061,35.3528278 8.98581102,35.2962731 9.17487179,35.183162 C9.36393257,35.0700508 9.51470029,34.9145254 9.62717949,34.716581 C9.73965868,34.5186365 9.81743568,34.2818137 9.86051282,34.0061054 C9.90358996,33.7303971 9.92512821,33.4299502 9.92512821,33.1047558 L9.92512821,32.9562982 Z" id="b" fill="#5590EB"></path>
                            <path d="M8.13291139,53.3386809 C8.30168861,53.3386809 8.45569551,53.3113491 8.59493671,53.2566845 C8.73417791,53.2020199 8.85442987,53.1247777 8.9556962,53.0249554 C9.05696253,52.9251332 9.13607566,52.8051106 9.19303797,52.6648841 C9.25000028,52.5246576 9.2805907,52.3666081 9.28481013,52.1907308 L11,52.1907308 C10.9957806,52.5995267 10.919832,52.9762312 10.7721519,53.3208556 C10.6244718,53.66548 10.4240519,53.9625656 10.1708861,54.2121212 C9.91772025,54.4616768 9.61920003,54.6553766 9.27531646,54.7932264 C8.93143288,54.9310761 8.56118342,55 8.16455696,55 C7.63290873,55 7.16877835,54.8989909 6.7721519,54.6969697 C6.37552544,54.4949485 6.04641481,54.2192531 5.78481013,53.8698752 C5.52320544,53.5204974 5.32700487,53.1093309 5.19620253,52.6363636 C5.06540019,52.1633963 5,51.6535975 5,51.1069519 L5,50.9073084 C5,50.3606627 5.06540019,49.8496756 5.19620253,49.3743316 C5.32700487,48.8989875 5.52320544,48.4854444 5.78481013,48.1336898 C6.04641481,47.7819353 6.3744706,47.5050515 6.76898734,47.3030303 C7.16350408,47.1010091 7.62446994,47 8.15189873,47 C8.57384177,47 8.95885902,47.0701122 9.30696203,47.2103387 C9.65506503,47.3505652 9.95358525,47.551395 10.2025316,47.8128342 C10.451478,48.0742734 10.6455689,48.3915608 10.7848101,48.7647059 C10.9240513,49.1378509 10.9957806,49.5549591 11,50.0160428 L9.28481013,50.0160428 C9.2805907,49.8306586 9.25210997,49.6559723 9.19936709,49.4919786 C9.14662421,49.3279849 9.07173044,49.1853839 8.97468354,49.0641711 C8.87763665,48.9429584 8.75738468,48.8467027 8.61392405,48.7754011 C8.47046342,48.7040995 8.3059081,48.6684492 8.12025316,48.6684492 C7.85442905,48.6684492 7.63713165,48.730243 7.46835443,48.8538324 C7.29957722,48.9774219 7.16772199,49.1426015 7.07278481,49.3493761 C6.97784763,49.5561508 6.91350228,49.7950076 6.87974684,50.0659537 C6.84599139,50.3368998 6.82911392,50.6173485 6.82911392,50.9073084 L6.82911392,51.1069519 C6.82911392,51.4016652 6.84599139,51.6844906 6.87974684,51.9554367 C6.91350228,52.2263828 6.97784763,52.4640513 7.07278481,52.6684492 C7.16772199,52.8728471 7.29957722,53.03565 7.46835443,53.1568627 C7.63713165,53.2780755 7.85864842,53.3386809 8.13291139,53.3386809 Z" id="c" fill="#5590EB"></path>
                        </g>
                    </g>
                </g>
            </g>
        </g>
    </g>
</svg>