<?xml version="1.0" encoding="UTF-8"?>
<svg width="64px" height="64px" viewBox="0 0 64 64" version="1.1" xmlns="http://www.w3.org/2000/svg" xmlns:xlink="http://www.w3.org/1999/xlink">
    <!-- Generator: Sketch 49 (51002) - http://www.bohemiancoding.com/sketch -->
    <title>icon/component/menu</title>
    <desc>Created with Sketch.</desc>
    <defs>
        <polygon id="path-1" points="0 0.178198694 10.2633013 0.178198694 10.2633013 10.4412013 0 10.4412013"></polygon>
        <polygon id="path-3" points="0 0.678198694 10.2633013 0.678198694 10.2633013 10.9412013 0 10.9412013"></polygon>
        <polygon id="path-5" points="0 0.736798694 10.2633013 0.736798694 10.2633013 10.9998013 0 10.9998013"></polygon>
    </defs>
    <g id="icon/component/menu" stroke="none" stroke-width="1" fill="none" fill-rule="evenodd">
        <g id="Page-1" transform="translate(4.000000, 12.000000)">
            <path d="M55.7604,24.5626 L18.8354,24.5626 C18.3554,24.5626 17.9644,24.1726 17.9644,23.6926 L17.9644,15.9336 C17.9644,15.4526 18.3554,15.0626 18.8354,15.0626 L55.7604,15.0626 C56.2414,15.0626 56.6314,15.4526 56.6314,15.9336 L56.6314,23.6926 C56.6314,24.1726 56.2414,24.5626 55.7604,24.5626" id="Fill-1" fill="#CADEFF"></path>
            <path d="M55.9088,21.6056 L18.6868,21.6056 C18.2888,21.6056 17.9648,21.2826 17.9648,20.8826 L17.9648,15.7856 C17.9648,15.3856 18.2888,15.0626 18.6868,15.0626 L55.9088,15.0626 C56.3078,15.0626 56.6318,15.3856 56.6318,15.7856 L56.6318,20.8826 C56.6318,21.2826 56.3078,21.6056 55.9088,21.6056" id="Fill-3" fill="#FFFFFF" opacity="0.699048913"></path>
            <path d="M55.6314,16.0626 L18.9644,16.0626 L18.9644,23.5626 L55.6314,23.5626 L55.6314,16.0626 Z M55.7604,25.5626 L18.8354,25.5626 C17.8032795,25.5626 16.9644,24.7250499 16.9644,23.6926 L16.9644,15.9336 C16.9644,14.9004828 17.8029473,14.0626 18.8354,14.0626 L55.7604,14.0626 C56.7936847,14.0626 57.6314,14.9003153 57.6314,15.9336 L57.6314,23.6926 C57.6314,24.7252171 56.7933525,25.5626 55.7604,25.5626 Z" id="Stroke-5" fill="#457AE6" fill-rule="nonzero"></path>
            <path d="M55.7604,39.2716 L18.8354,39.2716 C18.3554,39.2716 17.9644,38.8806 17.9644,38.4006 L17.9644,30.6416 C17.9644,30.1616 18.3554,29.7716 18.8354,29.7716 L55.7604,29.7716 C56.2414,29.7716 56.6314,30.1616 56.6314,30.6416 L56.6314,38.4006 C56.6314,38.8806 56.2414,39.2716 55.7604,39.2716" id="Fill-7" fill="#CADEFF"></path>
            <path d="M55.9088,36.3146 L18.6868,36.3146 C18.2888,36.3146 17.9648,35.9906 17.9648,35.5916 L17.9648,30.4936 C17.9648,30.0946 18.2888,29.7716 18.6868,29.7716 L55.9088,29.7716 C56.3078,29.7716 56.6318,30.0946 56.6318,30.4936 L56.6318,35.5916 C56.6318,35.9906 56.3078,36.3146 55.9088,36.3146" id="Fill-9" fill="#FFFFFF" opacity="0.699048913"></path>
            <path d="M24.1315,38.2716 L24.1315,40.2716 L18.8355,40.2716 C17.8032153,40.2716 16.9645,39.4328847 16.9645,38.4006 L16.9645,30.6416 C16.9645,29.6091501 17.8033795,28.7716 18.8355,28.7716 L55.7605,28.7716 C56.7934525,28.7716 57.6315,29.6089829 57.6315,30.6416 L57.6315,38.4006 C57.6315,39.4330527 56.7936172,40.2716 55.7605,40.2716 L47.6315,40.2716 L47.6315,38.2716 L55.6315,38.2716 L55.6315,30.7716 L18.9645,30.7716 L18.9645,38.2716 L24.1315,38.2716 Z" id="Stroke-11" fill="#457AE6" fill-rule="nonzero"></path>
            <path d="M55.7604,9.8546 L18.8354,9.8546 C18.3554,9.8546 17.9644,9.4646 17.9644,8.9836 L17.9644,1.2246 C17.9644,0.7446 18.3554,0.3546 18.8354,0.3546 L55.7604,0.3546 C56.2414,0.3546 56.6314,0.7446 56.6314,1.2246 L56.6314,8.9836 C56.6314,9.4646 56.2414,9.8546 55.7604,9.8546" id="Fill-13" fill="#CADEFF"></path>
            <path d="M55.9088,6.8976 L18.6868,6.8976 C18.2888,6.8976 17.9648,6.5746 17.9648,6.1746 L17.9648,1.0776 C17.9648,0.6776 18.2888,0.3546 18.6868,0.3546 L55.9088,0.3546 C56.3078,0.3546 56.6318,0.6776 56.6318,1.0776 L56.6318,6.1746 C56.6318,6.5746 56.3078,6.8976 55.9088,6.8976" id="Fill-15" fill="#FFFFFF" opacity="0.699048913"></path>
            <path d="M55.6315,1.3546 L51.1315,1.3546 L51.1315,-0.6454 L55.7605,-0.6454 C56.7934525,-0.6454 57.6315,0.191982939 57.6315,1.2246 L57.6315,8.9836 C57.6315,10.0168847 56.7937847,10.8546 55.7605,10.8546 L18.8355,10.8546 C17.8030473,10.8546 16.9645,10.0167172 16.9645,8.9836 L16.9645,1.2246 C16.9645,0.192150066 17.8033795,-0.6454 18.8355,-0.6454 L45.8815,-0.6454 L45.8815,1.3546 L18.9645,1.3546 L18.9645,8.8546 L55.6315,8.8546 L55.6315,1.3546 Z" id="Stroke-17" fill="#457AE6" fill-rule="nonzero"></path>
            <g id="Group-21" transform="translate(0.000000, 0.443800)">
                <mask id="mask-2" fill="white">
                    <use xlink:href="#path-1"></use>
                </mask>
                <g id="Clip-20"></g>
                <path d="M10.2633,5.3132 C10.2613,8.1472 7.9613,10.4432 5.1273,10.4412 C2.2933,10.4392 -0.0027,8.1402 -0.0007,5.3062 C0.0013,2.4722 2.3013,0.1762 5.1353,0.1782 C7.9693,0.1802 10.2653,2.4792 10.2633,5.3132" id="Fill-19" fill="#CADEFF" mask="url(#mask-2)"></path>
            </g>
            <path d="M10.8219,4.6974 C10.8199,7.2904 8.7169,9.3904 6.1239,9.3884 C3.5309,9.3864 1.4309,7.2844 1.4319,4.6914 C1.4339,2.0984 3.5379,-0.0016 6.1309,0.0004 C8.7229,0.0024 10.8239,2.1044 10.8219,4.6974" id="Fill-22" fill="#CADEFF"></path>
            <path d="M10.4254,5.0939 C10.4274,2.5009 8.3264,0.3979 5.7344,0.3959 C4.2464,0.3949 2.9234,1.0879 2.0624,2.1659 C2.8654,1.5259 3.8814,1.1409 4.9884,1.1409 C7.5814,1.1429 9.6824,3.2459 9.6804,5.8389 C9.6794,6.9449 9.2944,7.9579 8.6544,8.7599 C9.7324,7.9009 10.4244,6.5789 10.4254,5.0939" id="Fill-24" fill="#97BDFF"></path>
            <path d="M5.0553,1.0753 C3.9483,1.0743 2.9313,1.4593 2.1283,2.0993 C1.4893,2.9013 1.1033,3.9163 1.1023,5.0213 C1.1013,7.6143 3.2013,9.7173 5.7933,9.7193 C6.9013,9.7203 7.9173,9.3353 8.7203,8.6943 C9.3603,7.8923 9.7453,6.8783 9.7463,5.7723 C9.7483,3.1793 7.6483,1.0773 5.0553,1.0753" id="Fill-26" fill="#6FA0EF"></path>
            <path d="M9.8219003,4.69662869 C9.82347378,2.65661021 8.17054121,1.00197409 6.13012869,1.0003997 C4.0892189,0.998825534 2.43347357,2.65165025 2.43189993,4.69178565 C2.4311129,6.73254102 4.08369476,8.38682608 6.12467131,8.3884003 C8.16532466,8.38997427 9.82032623,6.73740617 9.8219003,4.69662869 Z M11.8218997,4.69817131 C11.8194737,7.8434861 9.26838308,10.3908257 6.12312869,10.3883997 C2.97794097,10.3859738 0.430687163,7.83609473 0.431900297,4.69062869 C0.434326206,1.54543867 2.98629212,-1.00202576 6.1316716,-0.999599702 C9.27642383,-0.997173196 11.8243253,1.55335423 11.8218997,4.69817131 Z" id="Stroke-28" fill="#457AE6" fill-rule="nonzero"></path>
            <g id="Group-32" transform="translate(0.000000, 14.443800)">
                <mask id="mask-4" fill="white">
                    <use xlink:href="#path-3"></use>
                </mask>
                <g id="Clip-31"></g>
                <path d="M10.2633,5.8132 C10.2613,8.6472 7.9613,10.9432 5.1273,10.9412 C2.2933,10.9392 -0.0027,8.6402 -0.0007,5.8062 C0.0013,2.9722 2.3013,0.6762 5.1353,0.6782 C7.9693,0.6802 10.2653,2.9792 10.2633,5.8132" id="Fill-30" fill="#CADEFF" mask="url(#mask-4)"></path>
            </g>
            <path d="M10.8219,19.1974 C10.8199,21.7904 8.7169,23.8904 6.1239,23.8884 C3.5309,23.8864 1.4309,21.7844 1.4319,19.1914 C1.4339,16.5984 3.5379,14.4984 6.1309,14.5004 C8.7229,14.5024 10.8239,16.6044 10.8219,19.1974" id="Fill-33" fill="#CADEFF"></path>
            <path d="M10.4254,19.5939 C10.4274,17.0009 8.3264,14.8979 5.7344,14.8959 C4.2464,14.8949 2.9234,15.5879 2.0624,16.6659 C2.8654,16.0259 3.8814,15.6409 4.9884,15.6409 C7.5814,15.6429 9.6824,17.7459 9.6804,20.3389 C9.6794,21.4449 9.2944,22.4579 8.6544,23.2599 C9.7324,22.4009 10.4244,21.0789 10.4254,19.5939" id="Fill-35" fill="#97BDFF"></path>
            <path d="M5.0553,15.5753 C3.9483,15.5743 2.9313,15.9593 2.1283,16.5993 C1.4893,17.4013 1.1033,18.4163 1.1023,19.5213 C1.1013,22.1143 3.2013,24.2173 5.7933,24.2193 C6.9013,24.2203 7.9173,23.8353 8.7203,23.1943 C9.3603,22.3923 9.7453,21.3783 9.7463,20.2723 C9.7483,17.6793 7.6483,15.5773 5.0553,15.5753" id="Fill-37" fill="#6FA0EF"></path>
            <path d="M9.8219003,19.1966287 C9.82347378,17.1566102 8.17054121,15.5019741 6.13012869,15.5003997 C4.0892189,15.4988255 2.43347357,17.1516502 2.43189993,19.1917857 C2.4311129,21.232541 4.08369476,22.8868261 6.12467131,22.8884003 C8.16532466,22.8899743 9.82032623,21.2374062 9.8219003,19.1966287 Z M11.8218997,19.1981713 C11.8194737,22.3434861 9.26838308,24.8908257 6.12312869,24.8883997 C2.97794097,24.8859738 0.430687163,22.3360947 0.431900297,19.1906287 C0.434326206,16.0454387 2.98629212,13.4979742 6.1316716,13.5004003 C9.27642383,13.5028268 11.8243253,16.0533542 11.8218997,19.1981713 Z" id="Stroke-39" fill="#457AE6" fill-rule="nonzero"></path>
            <g id="Group-43" transform="translate(0.000000, 29.443800)">
                <mask id="mask-6" fill="white">
                    <use xlink:href="#path-5"></use>
                </mask>
                <g id="Clip-42"></g>
                <path d="M10.2633,5.8718 C10.2613,8.7058 7.9613,11.0018 5.1273,10.9998 C2.2933,10.9978 -0.0027,8.6988 -0.0007,5.8648 C0.0013,3.0308 2.3013,0.7348 5.1353,0.7368 C7.9693,0.7388 10.2653,3.0378 10.2633,5.8718" id="Fill-41" fill="#CADEFF" mask="url(#mask-6)"></path>
            </g>
            <path d="M10.8219,34.257 C10.8199,36.85 8.7169,38.949 6.1239,38.948 C3.5309,38.946 1.4309,36.843 1.4319,34.25 C1.4339,31.657 3.5379,29.557 6.1309,29.559 C8.7229,29.561 10.8239,31.664 10.8219,34.257" id="Fill-44" fill="#CADEFF"></path>
            <path d="M10.4254,34.6525 C10.4274,32.0595 8.3264,29.9565 5.7344,29.9555 C4.2464,29.9545 2.9234,30.6465 2.0624,31.7245 C2.8654,31.0845 3.8814,30.6995 4.9884,30.7005 C7.5814,30.7025 9.6824,32.8045 9.6804,35.3975 C9.6794,36.5035 9.2944,37.5175 8.6544,38.3185 C9.7324,37.4595 10.4244,36.1375 10.4254,34.6525" id="Fill-46" fill="#97BDFF"></path>
            <path d="M5.0553,30.6339 C3.9483,30.6329 2.9313,31.0189 2.1283,31.6589 C1.4893,32.4609 1.1033,33.4749 1.1023,34.5799 C1.1013,37.1729 3.2013,39.2769 5.7933,39.2779 C6.9013,39.2789 7.9173,38.8939 8.7203,38.2529 C9.3603,37.4509 9.7453,36.4379 9.7463,35.3319 C9.7483,32.7389 7.6483,30.6359 5.0553,30.6339" id="Fill-48" fill="#6FA0EF"></path>
            <path d="M9.8219003,34.2562287 C9.82347398,32.2159538 8.17028467,30.5605739 6.13012869,30.5589997 C4.0892189,30.5574255 2.43347357,32.2102502 2.43189993,34.2503857 C2.4311128,36.2913976 4.08395133,37.9464263 6.12428565,37.9480001 C8.16555454,37.9487873 9.82032647,36.2966918 9.8219003,34.2562287 Z M11.8218997,34.2577713 C11.819474,37.4027091 9.26884479,39.9492129 6.12312869,39.9479997 C2.97806587,39.9455739 0.430687114,37.3948196 0.431900297,34.2492287 C0.434326206,31.1040387 2.98629212,28.5565742 6.1316716,28.5590003 C9.27629891,28.5614267 11.8243254,31.1128296 11.8218997,34.2577713 Z" id="Stroke-50" fill="#457AE6" fill-rule="nonzero"></path>
        </g>
    </g>
</svg>