<?xml version="1.0" encoding="UTF-8"?>
<svg width="64px" height="64px" viewBox="0 0 64 64" version="1.1" xmlns="http://www.w3.org/2000/svg" xmlns:xlink="http://www.w3.org/1999/xlink">
    <!-- Generator: Sketch 51.1 (57501) - http://www.bohemiancoding.com/sketch -->
    <title>icon/component/dropdown</title>
    <desc>Created with Sketch.</desc>
    <defs></defs>
    <g id="icon/component/dropdown" stroke="none" stroke-width="1" fill="none" fill-rule="evenodd">
        <g id="Group-20" transform="translate(4.000000, 7.000000)">
            <g id="Group-2" transform="translate(2.000000, 0.000000)">
                <g id="Group">
                    <g id="Group-3">
                        <polygon id="Fill-1" fill="#97BDFF" points="1 17 52 17 52 1 1 1"></polygon>
                        <polygon id="Fill-2" fill="#6DA3F2" points="1 18 52 18 52 14 1 14"></polygon>
                        <path d="M0.747058815,19 C0.334469624,19 0,18.658677 0,18.2376338 L0,0.762366219 C0,0.341322983 0.334469624,0 0.747058815,0 L51.2529412,0 C51.6655304,0 52,0.341322983 52,0.762366219 L52,18.2376338 C52,18.658677 51.6655304,19 51.2529412,19 L0.747058815,19 Z M1.49411763,17.4752676 L50.5058824,17.4752676 L50.5058824,1.52473244 L1.49411763,1.52473244 L1.49411763,17.4752676 Z" id="Stroke-3" fill="#457AE6" fill-rule="nonzero"></path>
                        <path d="M8.63525766,8.55591723 L8.3811546,7.57521507 C8.32193274,7.35689375 8.24962699,7.07509881 8.16492597,6.72913276 C8.08022495,6.38316671 8.02444623,6.13485236 7.99758981,5.98488724 C7.97348789,6.12438968 7.92597268,6.35317368 7.85435556,6.67193676 C7.78342706,6.99069984 7.62504304,7.61846082 7.38058074,8.55591723 L8.63525766,8.55591723 Z M9.25639849,11 L8.96579823,9.8797954 L7.04935154,9.8797954 L6.7511764,11 L5,11 L6.9247102,5 L9.05118788,5 L11,11 L9.25639849,11 Z" id="Fill-5" fill="#FFFFFF"></path>
                        <path d="M15.3808765,9.82365779 C15.6015936,9.82365779 15.7912351,9.75963917 15.9482072,9.63160192 C16.1051793,9.50429216 16.1840637,9.33769824 16.1840637,9.13327513 L16.1840637,8.75789321 L15.7633466,8.77535283 C15.1633466,8.79499491 14.8629482,8.99650808 14.8629482,9.38061982 C14.8629482,9.67597847 15.0350598,9.82365779 15.3808765,9.82365779 Z M16.7346614,10.9148843 L16.3848606,10.2754256 L16.3474104,10.2754256 C16.1011952,10.5540521 15.850996,10.744653 15.5960159,10.8465008 C15.340239,10.9490761 15.0103586,11 14.6055777,11 C14.1075697,11 13.7155378,10.8639604 13.4294821,10.5911538 C13.1426295,10.3183472 13,9.93423541 13,9.44027353 C13,8.92594209 13.1960159,8.54255784 13.5880478,8.29157573 C13.9800797,8.03986614 14.5482072,7.89873418 15.2924303,7.86745235 L16.174502,7.84126291 L16.174502,7.77360687 C16.174502,7.37567292 15.9601594,7.17634221 15.5298805,7.17634221 C15.1442231,7.17634221 14.6541833,7.29564964 14.059761,7.534992 L13.5322709,6.43503565 C14.1482072,6.14476939 14.9266932,6 15.8661355,6 C16.5450199,6 17.0701195,6.1534992 17.4422311,6.4604976 C17.8143426,6.767496 18,7.19671177 18,7.74741743 L18,10.9148843 L16.7346614,10.9148843 Z" id="Fill-6" fill="#FFFFFF"></path>
                        <path d="M21.3808765,9.82365779 C21.6015936,9.82365779 21.7912351,9.75963917 21.9482072,9.63160192 C22.1051793,9.50429216 22.1840637,9.33769824 22.1840637,9.13327513 L22.1840637,8.75789321 L21.7633466,8.77535283 C21.1633466,8.79499491 20.8629482,8.99650808 20.8629482,9.38061982 C20.8629482,9.67597847 21.0350598,9.82365779 21.3808765,9.82365779 Z M22.7346614,10.9148843 L22.3848606,10.2754256 L22.3474104,10.2754256 C22.1011952,10.5540521 21.850996,10.744653 21.5960159,10.8465008 C21.340239,10.9490761 21.0103586,11 20.6055777,11 C20.1075697,11 19.7155378,10.8639604 19.4294821,10.5911538 C19.1426295,10.3183472 19,9.93423541 19,9.44027353 C19,8.92594209 19.1960159,8.54255784 19.5880478,8.29157573 C19.9800797,8.03986614 20.5482072,7.89873418 21.2924303,7.86745235 L22.174502,7.84126291 L22.174502,7.77360687 C22.174502,7.37567292 21.9601594,7.17634221 21.5298805,7.17634221 C21.1442231,7.17634221 20.6541833,7.29564964 20.059761,7.534992 L19.5322709,6.43503565 C20.1482072,6.14476939 20.9266932,6 21.8661355,6 C22.5450199,6 23.0701195,6.1534992 23.4422311,6.4604976 C23.8143426,6.767496 24,7.19671177 24,7.74741743 L24,10.9148843 L22.7346614,10.9148843 Z" id="Fill-7" fill="#FFFFFF"></path>
                        <path d="M46,11 L38,11 L41.9174362,6.04398021 C41.9630636,5.98533993 42.0369364,5.98533993 42.0832881,6.04398021 L46,11 Z" id="Fill-9" fill="#FFFFFF"></path>
                        <path d="M51.0190562,39 L1.98094377,39 C1.43942045,39 1,38.568131 1,38.0342517 L1,30.9657483 C1,30.4326136 1.43942045,30 1.98094377,30 L51.0190562,30 C51.5605795,30 52,30.4326136 52,30.9657483 L52,38.0342517 C52,38.568131 51.5605795,39 51.0190562,39" id="Fill-10" fill="#CADEFF"></path>
                        <path d="M51.1861903,36 L1.81380967,36 C1.36455043,36 1,35.6526126 1,35.2237838 L1,30.7754955 C1,30.3473874 1.36455043,30 1.81380967,30 L51.1861903,30 C51.6354496,30 52,30.3473874 52,30.7754955 L52,35.2237838 C52,35.6526126 51.6354496,36 51.1861903,36" id="Fill-11" fill="#FFFFFF" opacity="0.699841486"></path>
                        <path d="M51.0190562,49 L1.98094377,49 C1.43942045,49 1,48.5673864 1,48.0342517 L1,40.9657483 C1,40.431869 1.43942045,40 1.98094377,40 L51.0190562,40 C51.5605795,40 52,40.431869 52,40.9657483 L52,48.0342517 C52,48.5673864 51.5605795,49 51.0190562,49" id="Fill-13" fill="#CADEFF"></path>
                        <path d="M51.1861903,46 L1.81380967,46 C1.36455043,46 1,45.6532917 1,45.2244113 L1,40.7755887 C1,40.3467083 1.36455043,40 1.81380967,40 L51.1861903,40 C51.6354496,40 52,40.3467083 52,40.7755887 L52,45.2244113 C52,45.6532917 51.6354496,46 51.1861903,46" id="Fill-14" fill="#FFFFFF" opacity="0.699841486"></path>
                        <path d="M51.0190562,30 L1.98094377,30 C1.43942045,30 1,29.5674222 1,29.033587 L1,21.9656684 C1,21.4325778 1.43942045,21 1.98094377,21 L51.0190562,21 C51.5605795,21 52,21.4325778 52,21.9656684 L52,29.033587 C52,29.5674222 51.5605795,30 51.0190562,30" id="Fill-16" fill="#CADEFF"></path>
                        <path d="M51.1861903,27 L1.81380967,27 C1.36455043,27 1,26.6533333 1,26.2245045 L1,21.7762162 C1,21.3473874 1.36455043,21 1.81380967,21 L51.1861903,21 C51.6354496,21 52,21.3473874 52,21.7762162 L52,26.2245045 C52,26.6533333 51.6354496,27 51.1861903,27" id="Fill-17" fill="#FFFFFF" opacity="0.699841486"></path>
                    </g>
                    <path d="M0,41 L0,30 L52,30 L52,41 L0,41 Z M50.5058824,39.4357696 L50.5058824,31.5642304 L1.49411763,31.5642304 L1.49411763,39.4357696 L50.5058824,39.4357696 Z" id="Stroke-12" fill="#457AE6" fill-rule="nonzero"></path>
                    <path d="M0,50 L0,39 L52,39 L52,50 L0,50 Z M50.5058824,48.4357696 L50.5058824,40.5642304 L1.49411763,40.5642304 L1.49411763,48.4357696 L50.5058824,48.4357696 Z" id="Stroke-12-Copy-2" fill="#457AE6" fill-rule="nonzero"></path>
                    <path d="M0,32 L0,21 L52,21 L52,32 L0,32 Z M50.5058824,30.4357696 L50.5058824,22.5642304 L1.49411763,22.5642304 L1.49411763,30.4357696 L50.5058824,30.4357696 Z" id="Stroke-12-Copy" fill="#457AE6" fill-rule="nonzero"></path>
                </g>
            </g>
            <g id="Group-19" transform="translate(0.000000, 1.000000)">
                <g id="Group-8" transform="translate(5.000000, 5.000000)"></g>
            </g>
        </g>
    </g>
</svg>