<?xml version="1.0" encoding="UTF-8"?>
<svg width="64px" height="64px" viewBox="0 0 64 64" version="1.1" xmlns="http://www.w3.org/2000/svg" xmlns:xlink="http://www.w3.org/1999/xlink">
    <!-- Generator: Sketch 49 (51002) - http://www.bohemiancoding.com/sketch -->
    <title>icon/component/sidebar</title>
    <desc>Created with Sketch.</desc>
    <defs></defs>
    <g id="icon/component/sidebar" stroke="none" stroke-width="1" fill="none" fill-rule="evenodd">
        <g id="Page-1" transform="translate(8.000000, 6.000000)">
            <path d="M47.5625,47.7139 L16.5355,47.7139 C15.9115,47.7139 15.4055,47.2069 15.4055,46.5829 L15.4055,4.9259 C15.4055,4.3019 15.9115,3.7959 16.5355,3.7959 L47.5625,3.7959 C48.1865,3.7959 48.6925,4.3019 48.6925,4.9259 L48.6925,46.5829 C48.6925,47.2069 48.1865,47.7139 47.5625,47.7139" id="Fill-1" fill="#6DA3F2"></path>
            <path d="M44.3086,43.1153 L16.2276,43.1153 C15.6656,43.1153 15.2096,42.6603 15.2096,42.0973 L15.2096,4.8133 C15.2096,4.2513 15.6656,3.7963 16.2276,3.7963 L44.3086,3.7963 C44.8706,3.7963 45.3266,4.2513 45.3266,4.8133 L45.3266,42.0973 C45.3266,42.6603 44.8706,43.1153 44.3086,43.1153" id="Fill-3" fill="#97BDFF"></path>
            <path d="M16.5352,46.5489 L17.5352,46.5489 L17.5352,48.5489 L16.5352,48.5489 C15.3586239,48.5489 14.4052,47.5948934 14.4052,46.4179 L14.4052,4.7619 C14.4052,3.58490664 15.3586239,2.6309 16.5352,2.6309 L47.5622,2.6309 C48.7387761,2.6309 49.6922,3.58490664 49.6922,4.7619 L49.6922,46.4179 C49.6922,47.5948934 48.7387761,48.5489 47.5622,48.5489 L29.2412,48.5489 L29.2412,46.5489 L47.5622,46.5489 C47.633933,46.5489 47.6922,46.4905973 47.6922,46.4179 L47.6922,4.7619 C47.6922,4.68920265 47.633933,4.6309 47.5622,4.6309 L16.5352,4.6309 C16.463467,4.6309 16.4052,4.68920265 16.4052,4.7619 L16.4052,46.4179 C16.4052,46.4905973 16.463467,46.5489 16.5352,46.5489 Z" id="Stroke-5" fill="#457AE6" fill-rule="nonzero"></path>
            <path d="M21.9249,51.1797 L0.6049,51.1797 C0.2759,51.1797 0.0059,50.9097 0.0059,50.5807 L0.0059,0.5987 C0.0059,0.2697 0.2759,-0.0003 0.6049,-0.0003 L21.9249,-0.0003 C22.2539,-0.0003 22.5239,0.2697 22.5239,0.5987 L22.5239,50.5807 C22.5239,50.9097 22.2539,51.1797 21.9249,51.1797" id="Fill-7" fill="#CADEFF"></path>
            <path d="M21.9825,49.2921 L3.9465,49.2921 C3.6485,49.2921 3.4055,49.0481 3.4055,48.7501 L3.4055,0.5421 C3.4055,0.2441 3.6485,0.0001 3.9465,0.0001 L21.9825,0.0001 C22.2805,0.0001 22.5235,0.2441 22.5235,0.5421 L22.5235,48.7501 C22.5235,49.0481 22.2805,49.2921 21.9825,49.2921" id="Fill-9" fill="#FFFFFF" opacity="0.7"></path>
            <path d="M21.5239,0.9997 L1.0059,0.9997 L1.0059,50.1797 L21.5239,50.1797 L21.5239,0.9997 Z M21.9249,52.1797 L0.6049,52.1797 C-0.27638475,52.1797 -0.9941,51.4619847 -0.9941,50.5807 L-0.9941,0.5987 C-0.9941,-0.28258475 -0.27638475,-1.0003 0.6049,-1.0003 L21.9249,-1.0003 C22.8061847,-1.0003 23.5239,-0.28258475 23.5239,0.5987 L23.5239,50.5807 C23.5239,51.4619847 22.8061847,52.1797 21.9249,52.1797 Z" id="Stroke-11" fill="#457AE6" fill-rule="nonzero"></path>
            <polygon id="Stroke-13" fill="#457AE6" fill-rule="nonzero" points="-1 9.9962 -1 7.9962 23.365 7.9962 23.365 9.9962"></polygon>
            <polygon id="Stroke-15" fill="#457AE6" fill-rule="nonzero" points="-1 15.0469 -1 13.0469 23.365 13.0469 23.365 15.0469"></polygon>
            <path d="M23.0186,43.2237 L23.0186,31.2447 L28.8846,37.1107 C28.9536,37.1787 28.9536,37.2887 28.8846,37.3577 L23.0186,43.2237 Z" id="Fill-17" fill="#457AE6"></path>
        </g>
    </g>
</svg>