<?xml version="1.0" encoding="UTF-8"?>
<svg width="47px" height="58px" viewBox="0 0 47 58" version="1.1" xmlns="http://www.w3.org/2000/svg" xmlns:xlink="http://www.w3.org/1999/xlink">
    <!-- Generator: sketchtool 50.2 (55047) - http://www.bohemiancoding.com/sketch -->
    <title>4132A270-0635-4179-BE32-E6BD0F1089CF</title>
    <desc>Created with sketchtool.</desc>
    <defs>
        <polygon id="path-1" points="0.1296 0.1454 22.5506 0.1454 22.5506 5 0.1296 5"></polygon>
    </defs>
    <g id="Page-1" stroke="none" stroke-width="1" fill="none" fill-rule="evenodd">
        <g id="icon-source" transform="translate(-128.000000, -1050.000000)">
            <g id="Group" transform="translate(87.000000, 66.000000)">
                <g id="Group-6-Copy-3" transform="translate(0.000000, 587.000000)">
                    <g id="Group-4">
                        <g id="spinner" transform="translate(32.000000, 394.000000)">
                            <rect id="Background" x="0" y="0" width="64" height="64"></rect>
                            <path d="M24.1573635,40.448419 C16.3653635,35.928419 13.7123635,25.948419 18.2323635,18.157419 C22.7513635,10.365419 32.7323635,7.71241905 40.5233635,12.231419 C48.3153635,16.751419 50.9683635,26.731419 46.4493635,34.523419 C41.9293635,42.315419 31.9493635,44.968419 24.1573635,40.448419 M43.5473635,7.01841905 C32.8763635,0.829419049 19.2083635,4.46241905 13.0193635,15.133419 C6.82936349,25.803419 10.4623635,39.471419 21.1333635,45.661419 C31.8043635,51.851419 45.4723635,48.218419 51.6613635,37.547419 C57.8513635,26.876419 54.2183635,13.208419 43.5473635,7.01841905" id="Fill-1" fill="#49A4F5"></path>
                            <path d="M51.6617635,37.547019 C57.8507635,26.876019 54.2187635,13.208019 43.5477635,7.01901905 C32.8767635,0.829019049 19.2087635,4.46201905 13.0187635,15.133019 L18.2317635,18.157019 C22.7517635,10.365019 32.7317635,7.71201905 40.5237635,12.232019 C48.3157635,16.751019 50.9687635,26.732019 46.4487635,34.524019 C42.5537635,41.239019 34.6017635,44.124019 27.4907635,41.902019 L25.6947635,47.663019 C35.4347635,50.708019 46.3267635,46.746019 51.6617635,37.547019" id="Fill-3" fill="#6DA3F2"></path>
                            <path d="M24.1573635,40.448419 C16.3653635,35.928419 13.7123635,25.948419 18.2323635,18.157419 L13.0193635,15.133419 C6.82936349,25.803419 10.4623635,39.471419 21.1333635,45.661419 C22.6053635,46.515419 24.1363635,47.176419 25.6953635,47.663419 L27.4903635,41.902419 C26.3513635,41.546419 25.2323635,41.072419 24.1573635,40.448419" id="Fill-5" fill="#CADEFF"></path>
                            <path d="M18.7574159,18.331 L14.7394159,16 C8.38841588,26.32 13.9954159,38.714 22.2214159,43.486 C23.3564159,44.144 24.5364159,44.654 25.7384159,45.029 L26.57,42.121 C25.692,41.847 24.829,41.481 24,41 C17.993,37.517 13.1514159,26.659 18.7574159,18.331 Z" id="Fill-7" fill="#EEF5FF"></path>
                            <path d="M50.796726,37.0453119 C56.7088442,26.851708 53.2389584,13.7957679 43.0459957,7.88402139 C32.8528625,1.97122087 19.7967279,5.44137525 13.8837658,15.6347869 C7.97108454,25.8277145 11.4419203,38.8838942 21.6355313,44.7960167 C31.8287008,50.7088383 44.884779,47.2386204 50.796726,37.0453119 Z M52.526801,38.0487262 C46.0606538,49.1975801 31.7806638,52.9931056 20.6320563,46.5260566 C9.48299326,40.0597881 5.68679825,25.7797102 12.1537611,14.6312512 C18.6209497,3.48240324 32.9009241,-0.313032181 44.0494707,6.15398153 C55.1979143,12.6198908 58.9930622,26.8996758 52.526801,38.0487262 Z" id="Stroke-9" fill="#457AE6" fill-rule="nonzero"></path>
                            <path d="M45.7981418,34.1458846 C50.1090575,26.7135953 47.5786632,17.1935245 40.146429,12.8826407 C32.7141718,8.57174363 23.1940319,11.102079 18.8822326,18.5342717 C14.5719229,25.9671363 17.1021979,35.4870488 24.5348979,39.7985974 C31.9669396,44.1093694 41.4871144,41.5783664 45.7981418,34.1458846 Z M47.5281852,35.1493535 C42.66298,43.5372726 31.9189865,46.3936362 23.5313947,41.5286208 C15.1432644,36.6628479 12.2877456,25.9192373 17.1521893,17.5308028 C22.0183223,9.14311206 32.7622022,6.28752174 41.1498979,11.1525974 C49.5376136,16.0176845 52.3932986,26.7615926 47.5281852,35.1493535 Z" id="Stroke-11" fill="#457AE6" fill-rule="nonzero"></path>
                            <polygon id="Stroke-13" fill="#457AE6" fill-rule="nonzero" points="19.3843899 17.66902 18.3810625 19.3991455 11.6519371 15.4968181 12.6552645 13.7666926"></polygon>
                            <polygon id="Stroke-15" fill="#457AE6" fill-rule="nonzero" points="26.3717354 48.9049838 24.4531987 48.339991 26.4081915 41.7014543 28.3267282 42.2664471"></polygon>
                            <g id="Group-19" transform="translate(21.000263, 55.998119)">
                                <mask id="mask-2" fill="white">
                                    <use xlink:href="#path-1"></use>
                                </mask>
                                <g id="Clip-18"></g>
                                <path d="M22.5506,2.5724 C22.5506,3.9134 17.5316,5.0004 11.3406,5.0004 C5.1486,5.0004 0.1296,3.9134 0.1296,2.5724 C0.1296,1.2324 5.1486,0.1454 11.3406,0.1454 C17.5316,0.1454 22.5506,1.2324 22.5506,2.5724" id="Fill-17" fill="#CADEFF" mask="url(#mask-2)"></path>
                            </g>
                        </g>
                    </g>
                </g>
            </g>
        </g>
    </g>
</svg>