<?xml version="1.0" encoding="UTF-8"?>
<svg width="54px" height="48px" viewBox="0 0 54 48" version="1.1" xmlns="http://www.w3.org/2000/svg" xmlns:xlink="http://www.w3.org/1999/xlink">
    <!-- Generator: sketchtool 51.1 (57501) - http://www.bohemiancoding.com/sketch -->
    <title>1DDCAB3B-0C14-4E2E-BC91-888F7E220093</title>
    <desc>Created with sketchtool.</desc>
    <defs></defs>
    <g id="Page-1" stroke="none" stroke-width="1" fill="none" fill-rule="evenodd">
        <g id="icon-source" transform="translate(-124.000000, -1252.000000)">
            <g id="Group" transform="translate(87.000000, 66.000000)">
                <g id="Group-6-Copy-3" transform="translate(0.000000, 587.000000)">
                    <g id="Group-3-Copy" transform="translate(0.000000, 197.000000)">
                        <g id="icon/component/reveal-copy" transform="translate(32.000000, 394.000000)">
                            <g id="Group" transform="translate(5.000000, 8.000000)">
                                <rect id="Rectangle-2" fill="#6DA3F2" x="0" y="0" width="54" height="14" rx="2"></rect>
                                <rect id="Rectangle-2-Copy" fill="#6DA3F2" x="0" y="17" width="54" height="14" rx="2"></rect>
                                <rect id="Rectangle-2-Copy-2" fill="#6DA3F2" x="0" y="34" width="54" height="14" rx="2"></rect>
                                <rect id="Rectangle-2" fill="#97BDFF" x="0" y="0" width="46" height="14" rx="2"></rect>
                                <rect id="Rectangle-2-Copy" fill="#97BDFF" x="1" y="17" width="45" height="14" rx="2"></rect>
                                <rect id="Rectangle-2-Copy-2" fill="#97BDFF" x="0" y="34" width="46" height="14" rx="2"></rect>
                                <path d="M2,2 L2,12 L52,12 L52,2 L2,2 Z M2,0 L52,0 C53.1045695,-4.4408921e-15 54,0.8954305 54,2 L54,12 C54,13.1045695 53.1045695,14 52,14 L2,14 C0.8954305,14 0,13.1045695 0,12 L0,2 C0,0.8954305 0.8954305,0 2,0 Z" id="Rectangle-2" fill="#457AE6" fill-rule="nonzero"></path>
                                <path d="M2,19 L2,29 L52,29 L52,19 L2,19 Z M2,17 L52,17 C53.1045695,17 54,17.8954305 54,19 L54,29 C54,30.1045695 53.1045695,31 52,31 L2,31 C0.8954305,31 0,30.1045695 0,29 L0,19 C0,17.8954305 0.8954305,17 2,17 Z" id="Rectangle-2-Copy" fill="#457AE6" fill-rule="nonzero"></path>
                                <path d="M2,36 L2,46 L52,46 L52,36 L2,36 Z M2,34 L52,34 C53.1045695,34 54,34.8954305 54,36 L54,46 C54,47.1045695 53.1045695,48 52,48 L2,48 C0.8954305,48 0,47.1045695 0,46 L0,36 C0,34.8954305 0.8954305,34 2,34 Z" id="Rectangle-2-Copy-2" fill="#457AE6" fill-rule="nonzero"></path>
                                <polygon id="Triangle" fill="#EFF5FF" points="8.5 4 12 10 5 10"></polygon>
                                <path d="M10.1520017,21.4700011 C10.444712,21.0016645 11.0616624,20.8592914 11.5299989,21.1520017 C11.9983355,21.444712 12.1407086,22.0616624 11.8479983,22.5299989 L8.67902902,27.6003498 L5.290079,24.184262 C4.90111517,23.7921835 4.90364014,23.1590235 5.29571869,22.7700597 C5.68779723,22.3810959 6.32095718,22.3836208 6.709921,22.7756994 L8.32097098,24.3996502 L10.1520017,21.4700011 Z" id="Path-4" fill="#EFF5FF" fill-rule="nonzero"></path>
                                <circle id="Oval-3" fill="#EFF5FF" cx="8" cy="41" r="3"></circle>
                            </g>
                        </g>
                    </g>
                </g>
            </g>
        </g>
    </g>
</svg>