<?xml version="1.0" encoding="UTF-8"?>
<svg width="64px" height="64px" viewBox="0 0 64 64" version="1.1" xmlns="http://www.w3.org/2000/svg" xmlns:xlink="http://www.w3.org/1999/xlink">
    <!-- Generator: Sketch 54.1 (76490) - https://sketchapp.com -->
    <title>icon/component/tooltip</title>
    <desc>Created with Sketch.</desc>
    <g id="icon/component/tooltip" stroke="none" stroke-width="1" fill="none" fill-rule="evenodd">
        <g id="Group-29" transform="translate(3.000000, 5.000000)">
            <path d="M7.449,13.8979 L35.064,13.8979 C38.611,13.8979 41.513,10.9959 41.513,7.4489 C41.513,3.9019 38.611,1.0009 35.064,1.0009 L7.449,1.0009 C3.902,1.0009 1,3.9019 1,7.4489 C1,10.9959 3.902,13.8979 7.449,13.8979 Z" id="Stroke-27" fill="#FDDCB9"></path>
            <path d="M55.9617,51.2944 L2.2877,51.2944 C1.8237,51.2944 1.4467,50.9184 1.4467,50.4544 L1.4467,24.7314 C1.4467,24.2674 1.8237,23.8904 2.2877,23.8904 L11.0667,23.8904 L16.2827,18.6754 L21.4977,23.8904 L55.9617,23.8904 C56.4267,23.8904 56.8027,24.2674 56.8027,24.7314 L56.8027,50.4544 C56.8027,50.9184 56.4267,51.2944 55.9617,51.2944" id="Fill-1" fill="#FF881E"></path>
            <path d="M2.2879,50.9555 L51.9619,50.9555 C52.4269,50.9555 52.8029,50.5795 52.8029,50.1155 L52.8029,28.7305 C52.8029,28.2675 52.4269,27.8905 51.9619,27.8905 L15.4979,27.8905 L10.2829,22.6755 L5.0669,24.1105 L2.2879,24.1105 C1.8239,24.1105 1.4469,28.2675 1.4469,28.7305 L1.4469,50.1155 C1.4469,50.5795 1.8239,50.9555 2.2879,50.9555" id="Fill-3" fill="#FCAF5C"></path>
            <path d="M55.8027,50.2944 L55.8027,24.8904 L21.4977,24.8904 C21.2324835,24.8904 20.9781296,24.7850432 20.7905932,24.5975068 L16.2826322,20.0895458 L11.773739,24.5975746 C11.5862081,24.7850695 11.3318833,24.8904 11.0667,24.8904 L2.4467,24.8904 L2.4467,50.2944 L55.8027,50.2944 Z M21.9119136,22.8904 L55.9617,22.8904 C56.9788235,22.8904 57.8027,23.7149535 57.8027,24.7314 L57.8027,50.4544 C57.8027,51.4710233 56.9786462,52.2944 55.9617,52.2944 L2.2877,52.2944 C1.27159201,52.2944 0.4467,51.4708625 0.4467,50.4544 L0.4467,24.7314 C0.4467,23.7151153 1.27141525,22.8904 2.2877,22.8904 L10.6525426,22.8904 L15.575661,17.9682254 C15.9661963,17.5777651 16.599309,17.5777954 16.9898068,17.9682932 L21.9119136,22.8904 Z" id="Stroke-5" fill="#FF7020" fill-rule="nonzero"></path>
            <polygon id="Stroke-7" fill="#FF7020" fill-rule="nonzero" points="25.406 40.2163 25.406 38.2163 39.415 38.2163 39.415 40.2163"></polygon>
            <polygon id="Stroke-9" fill="#FF7020" fill-rule="nonzero" points="39.3025 40.2163 39.3025 38.2163 50.9115 38.2163 50.9115 40.2163"></polygon>
            <polygon id="Stroke-11" fill="#FF7020" fill-rule="nonzero" points="25.406 45.2329 25.406 43.2329 33.392 43.2329 33.392 45.2329"></polygon>
            <polygon id="Stroke-13" fill="#FF7020" fill-rule="nonzero" points="36.8484 45.2329 36.8484 43.2329 42.2554 43.2329 42.2554 45.2329"></polygon>
            <polygon id="Stroke-15" fill="#FF7020" fill-rule="nonzero" points="25.406 35.3969 25.406 33.3969 42.407 33.3969 42.407 35.3969"></polygon>
            <polygon id="Stroke-17" fill="#FF7020" fill-rule="nonzero" points="45.6013 35.3969 45.6013 33.3969 50.9753 33.3969 50.9753 35.3969"></polygon>
            <polygon id="Fill-19" fill="#FFFFFF" points="6.2468 44.4936 13.4098 33.0116 20.5718 44.4936"></polygon>
            <path d="M18.7694507,43.4936 L13.4097408,34.9010016 L8.04928246,43.4936 L18.7694507,43.4936 Z M5.39836195,43.9643053 L12.561362,32.4823053 C12.9529066,31.854675 13.8667659,31.8547037 14.2582712,32.4823585 L21.4202712,43.9643585 C21.8357442,44.6304378 21.3568347,45.4936 20.5718,45.4936 L6.2468,45.4936 C5.4617372,45.4936 4.98283237,44.6303824 5.39836195,43.9643053 Z" id="Stroke-21" fill="#FF7020" fill-rule="nonzero"></path>
            <path d="M6.8894,0.5415 L36.4334,0.5415 C39.4504,0.5415 41.9184,3.0095 41.9184,6.0255 L41.9184,6.3125 C41.9184,9.3285 39.4504,11.7975 36.4334,11.7975 L6.8894,11.7975 C3.8724,11.7975 1.4054,9.3285 1.4054,6.3125 L1.4054,6.0255 C1.4054,3.0095 3.8724,0.5415 6.8894,0.5415" id="Fill-23" fill="#FFFFFF" opacity="0.699841486"></path>
            <path d="M6.4841,11.2016 L36.0281,11.2016 C39.0451,11.2016 41.5131,9.4246 41.5131,6.0296 L41.5131,7.7256 C41.5131,11.1206 39.0451,13.8976 36.0281,13.8976 L6.4841,13.8976 C3.4671,13.8976 1.0001,11.1206 1.0001,7.7256 L1.0001,6.0296 C1.0001,9.4246 3.4671,11.2016 6.4841,11.2016" id="Fill-25" fill="#FDDCB9"></path>
            <path d="M7.449,14.8979 C3.34971525,14.8979 0,11.5481847 0,7.4489 C0,3.34975702 3.34957343,0.0009 7.449,0.0009 L35.064,0.0009 C39.1634266,0.0009 42.513,3.34975702 42.513,7.4489 C42.513,11.5481847 39.1632847,14.8979 35.064,14.8979 L7.449,14.8979 Z M7.449,12.8979 L35.064,12.8979 C38.0587153,12.8979 40.513,10.4436153 40.513,7.4489 C40.513,4.4544223 38.0589528,2.0009 35.064,2.0009 L7.449,2.0009 C4.45404717,2.0009 2,4.4544223 2,7.4489 C2,10.4436153 4.45428475,12.8979 7.449,12.8979 Z" id="Stroke-27" fill="#FF7020" fill-rule="nonzero"></path>
        </g>
    </g>
</svg>