<?xml version="1.0" encoding="UTF-8"?>
<svg width="64px" height="64px" viewBox="0 0 64 64" version="1.1" xmlns="http://www.w3.org/2000/svg" xmlns:xlink="http://www.w3.org/1999/xlink">
    <!-- Generator: Sketch 52.5 (67469) - http://www.bohemiancoding.com/sketch -->
    <title>icon/component/tree</title>
    <desc>Created with Sketch.</desc>
    <g id="icon/component/tree" stroke="none" stroke-width="1" fill="none" fill-rule="evenodd">
        <path d="M57.5704094,14.7087 L17.250706,14.7087 C16.7862746,14.7087 16.4100263,14.3887 16.4100263,13.9937 L16.4100263,9.2707 C16.4100263,8.8757 16.7862746,8.5557 17.250706,8.5557 L57.5704094,8.5557 C58.0348408,8.5557 58.4099133,8.8757 58.4099133,9.2707 L58.4099133,13.9937 C58.4099133,14.3887 58.0348408,14.7087 57.5704094,14.7087" id="Fill-11" fill="#6DA3F2"></path>
        <path d="M57.7133837,11.283 L17.1067911,11.283 C16.7223124,11.283 16.4107318,11.0883519 16.4107318,10.8490665 L16.4107318,8.98893348 C16.4107318,8.74964807 16.7223124,8.555 17.1067911,8.555 L57.7133837,8.555 C58.0978624,8.555 58.4106188,8.74964807 58.4106188,8.98893348 L58.4106188,10.8490665 C58.4106188,11.0883519 58.0978624,11.283 57.7133837,11.283" id="Fill-13" fill="#97BDFF"></path>
        <path d="M39,8.9624678 L39,7 L57.091567,7 C58.1465802,7 59,7.75354504 59,8.68281614 L59,13.3171839 C59,14.246455 58.1465802,15 57.091567,15 L17.908433,15 C16.8543902,15 16,14.2463277 16,13.3171839 L16,8.68281614 C16,7.75367228 16.8543902,7 17.908433,7 L43.8138172,7 L43.8138172,8.9624678 L18.2268763,8.9624678 L18.2268763,13.0375322 L56.7731237,13.0375322 L56.7731237,8.9624678 L39,8.9624678 Z" id="Stroke-15" fill="#457AE6" fill-rule="nonzero"></path>
        <g id="Group-2" transform="translate(24.000000, 23.000000)">
            <path d="M33.3598495,1 L2.64050882,1 C2.28666129,1 2,1.32 2,1.715 L2,6.438 C2,6.833 2.28666129,7.153 2.64050882,7.153 L33.3598495,7.153 C33.713697,7.153 33.9994625,6.833 33.9994625,6.438 L33.9994625,1.715 C33.9994625,1.32 33.713697,1 33.3598495,1" id="Fill-21" fill="#CADEFF"></path>
            <path d="M33.4682433,4 L2.53032339,4 C2.23739138,4 2,4.19464807 2,4.43393348 L2,6.29406652 C2,6.53335193 2.23739138,6.728 2.53032339,6.728 L33.4682433,6.728 C33.7611753,6.728 33.9994625,6.53335193 33.9994625,6.29406652 L33.9994625,4.43393348 C33.9994625,4.19464807 33.7611753,4 33.4682433,4" id="Fill-23" fill="#EFF5FF"></path>
            <path d="M25.0294795,6.153 L25.0294795,8.153 L1.9237824,8.153 C0.861262064,8.153 0,7.38491373 0,6.438 L0,1.715 C0,0.768086265 0.861262064,0 1.9237824,0 L33.4140216,0 C34.4775201,0 35.337804,0.767956589 35.337804,1.715 L35.337804,6.438 C35.337804,7.38504341 34.4775201,8.153 33.4140216,8.153 L21.9211639,8.153 L21.9211639,6.153 L33.093017,6.153 L33.093017,2 L2.24478693,2 L2.24478693,6.153 L25.0294795,6.153 Z" id="Stroke-25" fill="#457AE6" fill-rule="nonzero"></path>
        </g>
        <g id="Group" transform="translate(24.000000, 36.000000)">
            <path d="M33.4682433,1 L2.53032339,1 C2.23739138,1 2,1.48005579 2,2.07019957 L2,6.65780043 C2,7.24794421 2.23739138,7.728 2.53032339,7.728 L33.4682433,7.728 C33.7611753,7.728 33.9994625,7.24794421 33.9994625,6.65780043 L33.9994625,2.07019957 C33.9994625,1.48005579 33.7611753,1 33.4682433,1" id="Fill-23-Copy" fill="#EFF5FF"></path>
            <path d="M25.0294795,6.153 L25.0294795,8.153 L1.9237824,8.153 C0.861262064,8.153 0,7.38491373 0,6.438 L0,1.715 C0,0.768086265 0.861262064,0 1.9237824,0 L33.4140216,0 C34.4775201,0 35.337804,0.767956589 35.337804,1.715 L35.337804,6.438 C35.337804,7.38504341 34.4775201,8.153 33.4140216,8.153 L19.6814269,8.153 L19.6814269,6.153 L33.093017,6.153 L33.093017,2 L2.24478693,2 L2.24478693,6.153 L25.0294795,6.153 Z" id="Stroke-25-Copy" fill="#457AE6" fill-rule="nonzero"></path>
        </g>
        <g id="Group-Copy" transform="translate(24.000000, 49.000000)">
            <path d="M33.4682433,1 L2.53032339,1 C2.23739138,1 2,1.48005579 2,2.07019957 L2,6.65780043 C2,7.24794421 2.23739138,7.728 2.53032339,7.728 L33.4682433,7.728 C33.7611753,7.728 33.9994625,7.24794421 33.9994625,6.65780043 L33.9994625,2.07019957 C33.9994625,1.48005579 33.7611753,1 33.4682433,1" id="Fill-23-Copy" fill="#EFF5FF"></path>
            <path d="M25.0294795,6.153 L25.0294795,8.153 L1.9237824,8.153 C0.861262064,8.153 0,7.38491373 0,6.438 L0,1.715 C0,0.768086265 0.861262064,0 1.9237824,0 L33.4140216,0 C34.4775201,0 35.337804,0.767956589 35.337804,1.715 L35.337804,6.438 C35.337804,7.38504341 34.4775201,8.153 33.4140216,8.153 L28.4595665,8.153 L28.4595665,6.153 L33.093017,6.153 L33.093017,2 L2.24478693,2 L2.24478693,6.153 L25.0294795,6.153 Z" id="Stroke-25-Copy" fill="#457AE6" fill-rule="nonzero"></path>
        </g>
        <path d="M13,15 L4,15 L8.40664907,9.05203731 C8.45853764,8.98265423 8.5419473,8.98265423 8.59335093,9.05203731 L13,15 Z" id="Fill-11" fill="#457AE6" transform="translate(8.500000, 12.000000) rotate(-360.000000) translate(-8.500000, -12.000000) "></path>
        <path d="M15.6514025,27 L15.6514025,27 C15.6514025,26.4477153 16.0991178,26 16.6514025,26 L19.6402718,26 C20.1925566,26 20.6402718,26.4477153 20.6402718,27 L20.6402718,27 C20.6402718,27.5522847 20.1925566,28 19.6402718,28 L16.6514025,28 C16.0991178,28 15.6514025,27.5522847 15.6514025,27 Z" id="Stroke-29-Copy" fill="#457AE6" fill-rule="nonzero"></path>
        <path d="M15.6514025,40 L15.6514025,40 C15.6514025,39.4477153 16.0991178,39 16.6514025,39 L19.6402718,39 C20.1925566,39 20.6402718,39.4477153 20.6402718,40 L20.6402718,40 C20.6402718,40.5522847 20.1925566,41 19.6402718,41 L16.6514025,41 C16.0991178,41 15.6514025,40.5522847 15.6514025,40 Z" id="Stroke-29-Copy-2" fill="#457AE6" fill-rule="nonzero"></path>
        <path d="M15.6514025,53 L15.6514025,53 C15.6514025,52.4477153 16.0991178,52 16.6514025,52 L19.6402718,52 C20.1925566,52 20.6402718,52.4477153 20.6402718,53 L20.6402718,53 C20.6402718,53.5522847 20.1925566,54 19.6402718,54 L16.6514025,54 C16.0991178,54 15.6514025,53.5522847 15.6514025,53 Z" id="Stroke-29-Copy-3" fill="#457AE6" fill-rule="nonzero"></path>
    </g>
</svg>