<?xml version="1.0" encoding="UTF-8"?>
<svg width="64px" height="64px" viewBox="0 0 64 64" version="1.1" xmlns="http://www.w3.org/2000/svg" xmlns:xlink="http://www.w3.org/1999/xlink">
    <!-- Generator: Sketch 49 (51002) - http://www.bohemiancoding.com/sketch -->
    <title>icon/component/user</title>
    <desc>Created with Sketch.</desc>
    <defs></defs>
    <g id="icon/component/user" stroke="none" stroke-width="1" fill="none" fill-rule="evenodd">
        <g id="Page-1" transform="translate(4.000000, 4.000000)">
            <path d="M23.7753,36.2617 L37.3523,36.2617 C38.1663,36.2617 38.9443,36.4147 39.6673,36.6867 C38.4683,35.5157 36.8353,34.7887 35.0373,34.7887 L21.4613,34.7887 C18.0873,34.7887 15.2793,37.3387 14.8723,40.6077 L14.7373,51.2537 L22.1453,54.2127 L41.3673,51.5917 L40.2453,41.1627 C40.6523,37.8947 20.4013,36.2617 23.7753,36.2617" id="Fill-1" fill="#6FA0EF"></path>
            <path d="M41.662,40.9756 C41.548,39.3006 40.802,37.7946 39.667,36.6866 C38.945,36.4146 36.921,35.2366 36.107,35.2366 L23.775,36.2616 C20.402,36.2616 17.594,38.8116 17.186,42.0796 L17.033,52.6066 L28.146,55.3116 L41.75,51.8456 C41.702,51.5476 41.683,41.2776 41.662,40.9756" id="Fill-3" fill="#97BDFF"></path>
            <path d="M15.8719,51.4151 L13.8719,51.4151 L13.8719,40.6071 L13.8796034,40.4832148 C14.353381,36.6883492 17.6088,33.7891 21.4609,33.7891 L35.0379,33.7891 C39.0479557,33.7891 42.3876876,36.924509 42.6619,40.9761 L42.6619,51.6081 L40.6619,51.6081 L40.6619,50.6081 L40.6642212,41.044196 C40.4637971,38.10777 37.994028,35.7891 35.0379,35.7891 L21.4609,35.7891 C18.6413098,35.7891 16.2474724,37.9033059 15.8719,40.6718406 L15.8719,51.4151 Z" id="Stroke-5" fill="#457AE6" fill-rule="nonzero"></path>
            <path d="M28.2494,36.6397 C29.2984,36.6397 30.1564,35.7817 30.1564,34.7327 L30.1564,31.2027 C30.1564,30.1547 29.2984,29.2957 28.2494,29.2957 C27.2004,29.2957 26.3414,30.1547 26.3414,31.2027 L26.3414,34.7327 C26.3414,35.7817 27.2004,36.6397 28.2494,36.6397" id="Fill-7" fill="#C7E3FF"></path>
            <path d="M28.2494,36.6397 C29.2984,36.6397 30.1564,35.7817 30.1564,34.7327 L30.1564,31.2027 C30.1564,30.1547 29.2984,29.2957 28.2494,29.2957 C27.2004,29.2957 26.3414,30.1547 26.3414,31.2027 L26.3414,34.7327 C26.3414,35.7817 27.2004,36.6397 28.2494,36.6397 Z" id="Stroke-9" stroke="#457AE6" stroke-width="2" stroke-linecap="round"></path>
            <path d="M28.1962,32.2666 C32.4262,32.2666 35.8872,27.1796 35.8872,22.9506 L35.8872,15.4296 C35.8872,13.3476 34.1832,11.6436 32.1012,11.6436 L24.2922,11.6436 C22.2092,11.6436 20.5062,13.3476 20.5062,15.4296 L20.5062,22.9506 C20.5062,27.1796 23.9672,32.2666 28.1962,32.2666" id="Fill-11" fill="#CADEFF"></path>
            <path d="M32.9974,22.9502 L32.9974,15.4292 C32.9974,13.3472 31.2934,11.6432 29.2114,11.6432 L31.0934,11.6432 C33.1754,11.6432 34.8794,13.3472 34.8794,15.4292 L34.8794,22.9502 C34.8794,27.1792 31.4184,32.2662 27.1884,32.2662 C26.8694,32.2662 26.5574,32.2282 26.2474,32.1742 C30.0374,31.4952 32.9974,26.8612 32.9974,22.9502" id="Fill-13" fill="#FFFFFF"></path>
            <path d="M28.1962,33.2666 C23.5895931,33.2666 19.5062,27.9923546 19.5062,22.9506 L19.5062,15.4296 C19.5062,12.7950112 21.6572193,10.6436 24.2922,10.6436 L32.1012,10.6436 C34.7354847,10.6436 36.8872,12.7953153 36.8872,15.4296 L36.8872,22.9506 C36.8872,27.992568 32.803606,33.2666 28.1962,33.2666 Z M28.1962,31.2666 C31.5710157,31.2666 34.8872,26.9836909 34.8872,22.9506 L34.8872,15.4296 C34.8872,13.8998847 33.6309153,12.6436 32.1012,12.6436 L24.2922,12.6436 C22.7618703,12.6436 21.5062,13.8994991 21.5062,15.4296 L21.5062,22.9506 C21.5062,26.9835035 24.822232,31.2666 28.1962,31.2666 Z" id="Stroke-15" fill="#457AE6" fill-rule="nonzero"></path>
            <path d="M35.9056,15.1748 L20.6296,15.1178 L20.5506,20.6828 C18.0066,18.1388 18.1406,9.2998 18.1406,9.2998 L21.6216,8.7648 L20.4176,6.3548 C37.8986,9.9548 35.9056,15.1748 35.9056,15.1748" id="Fill-17" fill="#6FA0EF"></path>
            <path d="M20.4173,6.3545 L20.0153,5.5505 C20.0153,5.5505 34.2773,7.4925 37.2903,10.5045 C40.3033,13.5185 35.9913,20.1475 35.9913,20.1475 L35.9053,15.1745 C35.9053,15.1745 37.8983,9.9555 20.4173,6.3545" id="Fill-19" fill="#97BDFF"></path>
            <path d="M19.7611088,16.3341551 C20.1875249,15.0463358 21.4036201,14.1209143 22.8313604,14.1256071 L33.7347356,14.1666086 C35.1308124,14.1723822 36.3190862,15.0657355 36.7604277,16.3147666 C36.9955621,15.6631054 37.1693014,15.0305806 37.2677999,14.4331198 C37.5039055,13.0009779 37.2881887,11.9176365 36.5824932,11.2117068 C35.5830105,10.212224 32.7161395,9.14869723 28.6976178,8.19174389 C26.7710737,7.73296505 24.7022106,7.32468734 22.6326973,6.97256059 C22.3367649,6.92220783 22.049494,6.874502 21.7720768,6.82948566 L23.1296199,9.54457181 L19.1450933,10.1569595 C19.1520355,10.5293721 19.1655656,10.9546034 19.1879475,11.4200873 C19.2500548,12.7117494 19.3672723,13.9892225 19.5518256,15.1761626 C19.6148428,15.5814529 19.6847147,15.9680456 19.7611088,16.3341551 Z M18.2734159,4.30429976 L20.1495117,4.55974237 C20.2933743,4.5793302 20.5592364,4.61733655 20.9297464,4.67318164 C21.5451736,4.76594188 22.230419,4.8753688 22.9681749,5.00089764 C25.0774158,5.35978402 27.1873068,5.77615833 29.1609333,6.24614919 C33.5612987,7.29403313 36.6326179,8.43340438 37.9968241,9.79761055 C39.2299174,11.0311131 39.5722367,12.750259 39.2411623,14.758452 C39.0502781,15.9162951 38.6431911,17.1285001 38.0852788,18.353085 C37.8131304,18.9504349 37.5220912,19.5127351 37.2305646,20.0248822 C37.0538578,20.3353166 36.9141864,20.5632025 36.8299194,20.6927795 L35.0478357,23.4330793 L34.9917472,20.1647587 L34.9437508,17.3679671 C34.9321976,16.7028315 34.3916042,16.1693422 33.7268396,16.1665929 L22.8243132,16.1255946 C22.1550071,16.1233947 21.6078471,16.6610508 21.5984983,17.3308588 L21.516757,23.0629706 L19.8434932,21.3897068 C18.7006443,20.2468578 17.9995265,18.2100743 17.5755719,15.4834436 C17.3789961,14.2191817 17.2555234,12.8735363 17.1902555,11.5161427 C17.1479089,10.6354481 17.1357614,9.88950193 17.1400226,9.35027498 C17.1405133,9.29800451 17.1405133,9.29800451 17.1407149,9.28444166 L17.1535233,8.43956366 L20.1135801,7.98462819 L18.2734159,4.30429976 Z" id="Stroke-21" fill="#457AE6" fill-rule="nonzero"></path>
            <path d="M14.9969,2.3086 L15.6019,3.5706" id="Fill-23" fill="#728BB7"></path>
            <polygon id="Fill-25" fill="#FFFFFF" points="25.2572 40.7793 28.0692 36.6393 26.1942 32.7203 21.4272 35.4223"></polygon>
            <path d="M25.2782242,42.5281094 L19.967592,35.1001572 L26.6336397,31.3217513 L29.2192125,36.7259431 L25.2782242,42.5281094 Z M26.9191875,36.5526569 L25.7547603,34.1188487 L22.886808,35.7444428 L25.2361758,39.0304906 L26.9191875,36.5526569 Z" id="Stroke-27" fill="#457AE6" fill-rule="nonzero"></path>
            <polygon id="Fill-29" fill="#FFFFFF" points="31.4545 40.7793 28.6425 36.6393 30.5175 32.7203 35.2845 35.4223"></polygon>
            <path d="M33.824892,35.7444428 L30.9569397,34.1188487 L29.7925125,36.5526569 L31.4755242,39.0304906 L33.824892,35.7444428 Z M27.4924875,36.7259431 L30.0780603,31.3217513 L36.744108,35.1001572 L31.4334758,42.5281094 L27.4924875,36.7259431 Z" id="Stroke-31" fill="#457AE6" fill-rule="nonzero"></path>
            <polygon id="Stroke-33" fill="#457AE6" fill-rule="nonzero" points="27.0687 47.3858 29.0687 47.3858 29.0687 54.8018 27.0687 54.8018"></polygon>
            <polygon id="Stroke-35" fill="#457AE6" fill-rule="nonzero" points="31.8417 44.5459 31.8417 42.5459 39.1347 42.5459 39.1347 44.5459"></polygon>
            <path d="M13.6841873,5.52493631 L12.855551,6.08472365 L11.7359763,4.42745104 L12.5646127,3.86766369 C17.2349793,0.712585742 22.7408292,-0.9997 28.4994,-0.9997 C44.2396847,-0.9997 56.9994,11.7600153 56.9994,27.5003 C56.9994,43.2399245 44.239345,56.0003 28.4994,56.0003 C12.7601153,56.0003 -0.0006,43.2395847 -0.0006,27.5003 C-0.0006,22.9718282 1.05811968,18.5918004 3.06137837,14.6383073 L3.51337109,13.7462857 L5.29741434,14.6502711 L4.84542163,15.5422927 C2.9833199,19.2172081 1.9994,23.287782 1.9994,27.5003 C1.9994,42.1350153 13.8646847,54.0003 28.4994,54.0003 C43.1347643,54.0003 54.9994,42.1353662 54.9994,27.5003 C54.9994,12.8645847 43.1351153,1.0003 28.4994,1.0003 C23.1429963,1.0003 18.0264366,2.59151887 13.6841873,5.52493631 Z" id="Stroke-37" fill="#457AE6" fill-rule="nonzero"></path>
        </g>
    </g>
</svg>