<?xml version="1.0" encoding="UTF-8"?>
<svg width="64px" height="64px" viewBox="0 0 64 64" version="1.1" xmlns="http://www.w3.org/2000/svg" xmlns:xlink="http://www.w3.org/1999/xlink">
    <!-- Generator: Sketch 54.1 (76490) - https://sketchapp.com -->
    <title>icon/component/user</title>
    <desc>Created with Sketch.</desc>
    <g id="icon/component/user" stroke="none" stroke-width="1" fill="none" fill-rule="evenodd">
        <g id="Page-1" transform="translate(3.000000, 3.000000)">
            <path d="M24.7753,37.2617 L38.3523,37.2617 C39.1663,37.2617 39.9443,37.4147 40.6673,37.6867 C39.4683,36.5157 37.8353,35.7887 36.0373,35.7887 L22.4613,35.7887 C19.0873,35.7887 16.2793,38.3387 15.8723,41.6077 L15.7373,52.2537 L23.1453,55.2127 L42.3673,52.5917 L41.2453,42.1627 C41.6523,38.8947 21.4013,37.2617 24.7753,37.2617" id="Fill-1" fill="#FF881E"></path>
            <path d="M42.662,41.9756 C42.548,40.3006 41.802,38.7946 40.667,37.6866 C39.945,37.4146 37.921,36.2366 37.107,36.2366 L24.775,37.2616 C21.402,37.2616 18.594,39.8116 18.186,43.0796 L18.033,53.6066 L29.146,56.3116 L42.75,52.8456 C42.702,52.5476 42.683,42.2776 42.662,41.9756" id="Fill-3" fill="#FCAF5C"></path>
            <path d="M16.8719,52.4151 L14.8719,52.4151 L14.8719,41.6071 L14.8796034,41.4832148 C15.353381,37.6883492 18.6088,34.7891 22.4609,34.7891 L36.0379,34.7891 C40.0479557,34.7891 43.3876876,37.924509 43.6619,41.9761 L43.6619,52.6081 L41.6619,52.6081 L41.6619,51.6081 L41.6642212,42.044196 C41.4637971,39.10777 38.994028,36.7891 36.0379,36.7891 L22.4609,36.7891 C19.6413098,36.7891 17.2474724,38.9033059 16.8719,41.6718406 L16.8719,52.4151 Z" id="Stroke-5" fill="#FF7020" fill-rule="nonzero"></path>
            <path d="M29.2494,37.6397 L29.2494,37.6397 C30.2984,37.6397 31.1564,36.7817 31.1564,35.7327 L31.1564,32.2027 C31.1564,31.1547 30.2984,30.2957 29.2494,30.2957 C28.2004,30.2957 27.3414,31.1547 27.3414,32.2027 L27.3414,35.7327 C27.3414,36.7817 28.2004,37.6397 29.2494,37.6397" id="Fill-7" fill="#C7E3FF"></path>
            <path d="M29.2494,37.6397 L29.2494,37.6397 C30.2984,37.6397 31.1564,36.7817 31.1564,35.7327 L31.1564,32.2027 C31.1564,31.1547 30.2984,30.2957 29.2494,30.2957 C28.2004,30.2957 27.3414,31.1547 27.3414,32.2027 L27.3414,35.7327 C27.3414,36.7817 28.2004,37.6397 29.2494,37.6397 Z" id="Stroke-9" stroke="#FF7020" stroke-width="2" stroke-linecap="round"></path>
            <path d="M29.1962,33.2666 L29.1962,33.2666 C33.4262,33.2666 36.8872,28.1796 36.8872,23.9506 L36.8872,16.4296 C36.8872,14.3476 35.1832,12.6436 33.1012,12.6436 L25.2922,12.6436 C23.2092,12.6436 21.5062,14.3476 21.5062,16.4296 L21.5062,23.9506 C21.5062,28.1796 24.9672,33.2666 29.1962,33.2666" id="Fill-11" fill="#FDDCB9"></path>
            <path d="M33.9974,23.9502 L33.9974,16.4292 C33.9974,14.3472 32.2934,12.6432 30.2114,12.6432 L32.0934,12.6432 C34.1754,12.6432 35.8794,14.3472 35.8794,16.4292 L35.8794,23.9502 C35.8794,28.1792 32.4184,33.2662 28.1884,33.2662 C27.8694,33.2662 27.5574,33.2282 27.2474,33.1742 C31.0374,32.4952 33.9974,27.8612 33.9974,23.9502" id="Fill-13" fill="#FFFFFF"></path>
            <path d="M29.1962,34.2666 C24.5895931,34.2666 20.5062,28.9923546 20.5062,23.9506 L20.5062,16.4296 C20.5062,13.7950112 22.6572193,11.6436 25.2922,11.6436 L33.1012,11.6436 C35.7354847,11.6436 37.8872,13.7953153 37.8872,16.4296 L37.8872,23.9506 C37.8872,28.992568 33.803606,34.2666 29.1962,34.2666 Z M29.1962,32.2666 C32.5710157,32.2666 35.8872,27.9836909 35.8872,23.9506 L35.8872,16.4296 C35.8872,14.8998847 34.6309153,13.6436 33.1012,13.6436 L25.2922,13.6436 C23.7618703,13.6436 22.5062,14.8994991 22.5062,16.4296 L22.5062,23.9506 C22.5062,27.9835035 25.822232,32.2666 29.1962,32.2666 Z" id="Stroke-15" fill="#FF7020" fill-rule="nonzero"></path>
            <path d="M21.6296,16.1178 L21.5506,21.6828 C19.0066,19.1388 19.1406,10.2998 19.1406,10.2998 L22.6216,9.7648 L21.4176,7.3548 C38.8986,10.9548 36.9056,16.1748 36.9056,16.1748 L21.6296,16.1178 Z" id="Fill-17" fill="#FF881E"></path>
            <path d="M21.4173,7.3545 L21.0153,6.5505 C21.0153,6.5505 35.2773,8.4925 38.2903,11.5045 C41.3033,14.5185 36.9913,21.1475 36.9913,21.1475 L36.9053,16.1745 C36.9053,16.1745 38.8983,10.9555 21.4173,7.3545" id="Fill-19" fill="#FCAF5C"></path>
            <path d="M20.7611088,17.3341551 C21.1875249,16.0463358 22.4036201,15.1209143 23.8313604,15.1256071 L34.7347356,15.1666086 C36.1308124,15.1723822 37.3190862,16.0657355 37.7604277,17.3147666 C37.9955621,16.6631054 38.1693014,16.0305806 38.2677999,15.4331198 C38.5039055,14.0009779 38.2881887,12.9176365 37.5824932,12.2117068 C36.5830105,11.212224 33.7161395,10.1486972 29.6976178,9.19174389 C27.7710737,8.73296505 25.7022106,8.32468734 23.6326973,7.97256059 C23.3367649,7.92220783 23.049494,7.874502 22.7720768,7.82948566 L24.1296199,10.5445718 L20.1450933,11.1569595 C20.1520355,11.5293721 20.1655656,11.9546034 20.1879475,12.4200873 C20.2500548,13.7117494 20.3672723,14.9892225 20.5518256,16.1761626 C20.6148428,16.5814529 20.6847147,16.9680456 20.7611088,17.3341551 Z M19.2734159,5.30429976 L21.1495117,5.55974237 C21.2933743,5.5793302 21.5592364,5.61733655 21.9297464,5.67318164 C22.5451736,5.76594188 23.230419,5.8753688 23.9681749,6.00089764 C26.0774158,6.35978402 28.1873068,6.77615833 30.1609333,7.24614919 C34.5612987,8.29403313 37.6326179,9.43340438 38.9968241,10.7976106 C40.2299174,12.0311131 40.5722367,13.750259 40.2411623,15.758452 C40.0502781,16.9162951 39.6431911,18.1285001 39.0852788,19.353085 C38.8131304,19.9504349 38.5220912,20.5127351 38.2305646,21.0248822 C38.0538578,21.3353166 37.9141864,21.5632025 37.8299194,21.6927795 L36.0478357,24.4330793 L35.9917472,21.1647587 L35.9437508,18.3679671 C35.9321976,17.7028315 35.3916042,17.1693422 34.7268396,17.1665929 L23.8243132,17.1255946 C23.1550071,17.1233947 22.6078471,17.6610508 22.5984983,18.3308588 L22.516757,24.0629706 L20.8434932,22.3897068 C19.7006443,21.2468578 18.9995265,19.2100743 18.5755719,16.4834436 C18.3789961,15.2191817 18.2555234,13.8735363 18.1902555,12.5161427 C18.1479089,11.6354481 18.1357614,10.8895019 18.1400226,10.350275 C18.1405133,10.2980045 18.1405133,10.2980045 18.1407149,10.2844417 L18.1535233,9.43956366 L21.1135801,8.98462819 L19.2734159,5.30429976 Z" id="Stroke-21" fill="#FF7020" fill-rule="nonzero"></path>
            <path d="M15.9969,3.3086 L16.6019,4.5706" id="Fill-23" fill="#728BB7"></path>
            <polygon id="Fill-25" fill="#FFFFFF" points="26.2572 41.7793 29.0692 37.6393 27.1942 33.7203 22.4272 36.4223"></polygon>
            <path d="M26.2782242,43.5281094 L20.967592,36.1001572 L27.6336397,32.3217513 L30.2192125,37.7259431 L26.2782242,43.5281094 Z M27.9191875,37.5526569 L26.7547603,35.1188487 L23.886808,36.7444428 L26.2361758,40.0304906 L27.9191875,37.5526569 Z" id="Stroke-27" fill="#FF7020" fill-rule="nonzero"></path>
            <polygon id="Fill-29" fill="#FFFFFF" points="32.4545 41.7793 29.6425 37.6393 31.5175 33.7203 36.2845 36.4223"></polygon>
            <path d="M34.824892,36.7444428 L31.9569397,35.1188487 L30.7925125,37.5526569 L32.4755242,40.0304906 L34.824892,36.7444428 Z M28.4924875,37.7259431 L31.0780603,32.3217513 L37.744108,36.1001572 L32.4334758,43.5281094 L28.4924875,37.7259431 Z" id="Stroke-31" fill="#FF7020" fill-rule="nonzero"></path>
            <polygon id="Stroke-33" fill="#FF7020" fill-rule="nonzero" points="28.0687 48.3858 30.0687 48.3858 30.0687 55.8018 28.0687 55.8018"></polygon>
            <polygon id="Stroke-35" fill="#FF7020" fill-rule="nonzero" points="32.8417 45.5459 32.8417 43.5459 40.1347 43.5459 40.1347 45.5459"></polygon>
            <path d="M14.6841873,6.52493631 L13.855551,7.08472365 L12.7359763,5.42745104 L13.5646127,4.86766369 C18.2349793,1.71258574 23.7408292,0.0003 29.4994,0.0003 C45.2396847,0.0003 57.9994,12.7600153 57.9994,28.5003 C57.9994,44.2399245 45.239345,57.0003 29.4994,57.0003 C13.7601153,57.0003 0.9994,44.2395847 0.9994,28.5003 C0.9994,23.9718282 2.05811968,19.5918004 4.06137837,15.6383073 L4.51337109,14.7462857 L6.29741434,15.6502711 L5.84542163,16.5422927 C3.9833199,20.2172081 2.9994,24.287782 2.9994,28.5003 C2.9994,43.1350153 14.8646847,55.0003 29.4994,55.0003 C44.1347643,55.0003 55.9994,43.1353662 55.9994,28.5003 C55.9994,13.8645847 44.1351153,2.0003 29.4994,2.0003 C24.1429963,2.0003 19.0264366,3.59151887 14.6841873,6.52493631 Z" id="Stroke-37" fill="#FF7020" fill-rule="nonzero"></path>
        </g>
    </g>
</svg>