<?xml version="1.0" encoding="UTF-8"?>
<svg width="64px" height="64px" viewBox="0 0 64 64" version="1.1" xmlns="http://www.w3.org/2000/svg" xmlns:xlink="http://www.w3.org/1999/xlink">
    <!-- Generator: Sketch 54.1 (76490) - https://sketchapp.com -->
    <title>icon/component/radiobutton</title>
    <desc>Created with Sketch.</desc>
    <g id="icon/component/radiobutton" stroke="none" stroke-width="1" fill="none" fill-rule="evenodd">
        <g id="Group-23" transform="translate(5.000000, 4.000000)">
            <g id="Group-4" transform="translate(0.000000, 32.000000)">
                <path d="M11.5762,2.1426 C6.2962,2.1426 2.0002,6.4386 2.0002,11.7186 C2.0002,16.9986 6.2962,21.2946 11.5762,21.2946 C16.8562,21.2946 21.1522,16.9986 21.1522,11.7186 C21.1522,6.4386 16.8562,2.1426 11.5762,2.1426 M11.5762,23.2946 C5.1932,23.2946 0.0002,18.1016 0.0002,11.7186 C0.0002,5.3356 5.1932,0.1426 11.5762,0.1426 C17.9592,0.1426 23.1522,5.3356 23.1522,11.7186 C23.1522,18.1016 17.9592,23.2946 11.5762,23.2946" id="Fill-9" fill="#FF7020"></path>
                <path d="M30.8612552,16.8500615 C31.0844966,16.8805231 31.3525655,16.8805231 31.7398759,16.8805231 C32.7664276,16.8805231 33.675531,16.4826769 33.675531,15.3934462 C33.675531,14.3512923 32.7664276,13.9377538 31.6358759,13.9377538 L30.8612552,13.9377538 L30.8612552,16.8500615 Z M30.8612552,12.2660615 L31.6062897,12.2660615 C32.7969103,12.2660615 33.4370483,11.7611385 33.4370483,10.9949846 C33.4370483,10.2140615 32.8560828,9.79867692 31.829531,9.79867692 C31.3382207,9.79867692 31.0549103,9.83006154 30.8612552,9.86052308 L30.8612552,12.2660615 Z M28.6136,8.31252308 C29.2089103,8.18975385 30.4147724,8.09744615 31.5462207,8.09744615 C32.9304966,8.09744615 33.779531,8.23590769 34.5084276,8.67990769 C35.2086345,9.06298462 35.7151862,9.76821538 35.7151862,10.7042154 C35.7151862,11.6236 35.1933931,12.4820615 34.0619448,12.9103692 L34.0619448,12.9417538 C35.2086345,13.2629846 36.0567724,14.1519077 36.0567724,15.4857538 C36.0567724,16.4208308 35.6407724,17.1565231 35.0149793,17.6771385 C34.2851862,18.2752923 33.0649793,18.6131385 31.0692552,18.6131385 C29.9530483,18.6131385 29.1192552,18.5356 28.6136,18.4589846 L28.6136,8.31252308 Z" id="Fill-17" fill="#FDDCB9"></path>
                <path d="M39.7921655,15.3175692 C39.7921655,15.4708 39.8074069,15.6083385 39.8369931,15.7311077 C39.9858207,16.3597231 40.5067172,16.8351077 41.1620966,16.8351077 C42.1294759,16.8351077 42.7247862,16.0671077 42.7247862,14.7194154 C42.7247862,13.5544923 42.219131,12.6341846 41.1620966,12.6341846 C40.5515448,12.6341846 39.9858207,13.1095692 39.8369931,13.7843385 C39.8074069,13.9218769 39.7921655,14.0603385 39.7921655,14.2135692 L39.7921655,15.3175692 Z M37.4700966,18.5049538 C37.4996828,18.0148 37.529269,17.1092615 37.529269,16.2674154 L37.529269,7.6228 L39.7921655,7.6228 L39.7921655,11.8984923 L39.8217517,11.8984923 C40.2538897,11.2560308 41.013269,10.8415692 42.0254759,10.8415692 C43.7674759,10.8415692 45.0468552,12.3277231 45.0325103,14.6280308 C45.0325103,17.3252615 43.3649241,18.6748 41.6973379,18.6748 C40.8492,18.6748 40.0306483,18.3517231 39.5097517,17.4628 L39.479269,17.4628 L39.3905103,18.5049538 L37.4700966,18.5049538 Z" id="Fill-19" fill="#FDDCB9"></path>
                <path d="M48.6937586,15.3175692 C48.6937586,15.4708 48.7081034,15.6083385 48.7376897,15.7311077 C48.8874138,16.3597231 49.4083103,16.8351077 50.0636897,16.8351077 C51.031069,16.8351077 51.6263793,16.0671077 51.6263793,14.7194154 C51.6263793,13.5544923 51.1207241,12.6341846 50.0636897,12.6341846 C49.4531379,12.6341846 48.8874138,13.1095692 48.7376897,13.7843385 C48.7081034,13.9218769 48.6937586,14.0603385 48.6937586,14.2135692 L48.6937586,15.3175692 Z M46.3716897,18.5049538 C46.4003793,18.0148 46.4308621,17.1092615 46.4308621,16.2674154 L46.4308621,7.6228 L48.6937586,7.6228 L48.6937586,11.8984923 L48.7233448,11.8984923 C49.1554828,11.2560308 49.9139655,10.8415692 50.9261724,10.8415692 C52.6681724,10.8415692 53.9484483,12.3277231 53.9341034,14.6280308 C53.9341034,17.3252615 52.2665172,18.6748 50.598931,18.6748 C49.7507931,18.6748 48.9322414,18.3517231 48.4104483,17.4628 L48.3808621,17.4628 L48.2912069,18.5049538 L46.3716897,18.5049538 Z" id="Fill-21" fill="#FDDCB9"></path>
            </g>
            <g id="Group-3">
                <path d="M11.5762,2 C6.2962,2 2.0002,6.296 2.0002,11.576 C2.0002,16.856 6.2962,21.152 11.5762,21.152 C16.8562,21.152 21.1522,16.856 21.1522,11.576 C21.1522,6.296 16.8562,2 11.5762,2 M11.5762,23.152 C5.1932,23.152 0.0002,17.959 0.0002,11.576 C0.0002,5.193 5.1932,-7.10542736e-15 11.5762,-7.10542736e-15 C17.9592,-7.10542736e-15 23.1522,5.193 23.1522,11.576 C23.1522,17.959 17.9592,23.152 11.5762,23.152" id="Fill-1" fill="#FF7020"></path>
                <path d="M11.5762,18.0918 C7.9832,18.0918 5.0602,15.1688 5.0602,11.5758 C5.0602,7.9838 7.9832,5.0608 11.5762,5.0608 C15.1692,5.0608 18.0922,7.9838 18.0922,11.5758 C18.0922,15.1688 15.1692,18.0918 11.5762,18.0918" id="Fill-3" fill="#FF881E"></path>
                <path d="M12.605,12.874 C10.952,12.874 9.607,11.597 9.607,10.026 C9.607,8.456 10.952,7.179 12.605,7.179 C14.258,7.179 15.604,8.456 15.604,10.026 C15.604,11.597 14.258,12.874 12.605,12.874" id="Fill-5" fill="#FCAF5C"></path>
                <path d="M11.5762,4.0605 C7.4252,4.0605 4.0602,7.4245 4.0602,11.5765 C4.0602,15.7265 7.4252,19.0915 11.5762,19.0915 C15.7272,19.0915 19.0922,15.7265 19.0922,11.5765 C19.0922,7.4245 15.7272,4.0605 11.5762,4.0605 M11.5762,6.0605 C14.6182,6.0605 17.0922,8.5345 17.0922,11.5765 C17.0922,14.6175 14.6182,17.0915 11.5762,17.0915 C8.5342,17.0915 6.0602,14.6175 6.0602,11.5765 C6.0602,8.5345 8.5342,6.0605 11.5762,6.0605" id="Fill-7" fill="#FF7020"></path>
                <path d="M34.2002679,12.5237538 L33.5779464,10.3323692 C33.399375,9.71944615 33.2216964,8.95329231 33.0734821,8.34036923 L33.0440179,8.34036923 C32.8958036,8.95329231 32.7475893,9.73513846 32.5841964,10.3323692 L31.9913393,12.5237538 L34.2002679,12.5237538 Z M31.6654464,14.2729846 L30.9529464,16.9240615 L28.6109821,16.9240615 L31.6654464,6.59298462 L34.6297321,6.59298462 L37.7288393,16.9240615 L35.2975893,16.9240615 L34.5261607,14.2729846 L31.6654464,14.2729846 Z" id="Fill-11" fill="#FDDCB9"></path>
                <path d="M42.8419643,13.3827692 C41.6553571,13.3670769 40.7366071,13.6596923 40.7366071,14.5624615 C40.7366071,15.1606154 41.1223214,15.4523077 41.6258929,15.4523077 C42.1892857,15.4523077 42.6491071,15.0692308 42.7973214,14.5938462 C42.8267857,14.4710769 42.8419643,14.3335385 42.8419643,14.1950769 L42.8419643,13.3827692 Z M43.1089286,16.9236923 L42.975,16.1723077 L42.93125,16.1723077 C42.45625,16.7704615 41.7151786,17.0926154 40.8553571,17.0926154 C39.3875,17.0926154 38.5125,15.9886154 38.5125,14.7923077 C38.5125,12.8464615 40.2026786,11.9104615 42.7678571,11.9270769 L42.7678571,11.82 C42.7678571,11.4203077 42.5598214,10.8544615 41.4482143,10.8544615 C40.7071429,10.8544615 39.9214286,11.1138462 39.4464286,11.4203077 L39.03125,9.91938462 C39.5357143,9.62769231 40.5285714,9.25938462 41.8482143,9.25938462 C44.2651786,9.25938462 45.0366071,10.7316923 45.0366071,12.4938462 L45.0366071,15.0987692 C45.0366071,15.8206154 45.0660714,16.5092308 45.1401786,16.9236923 L43.1089286,16.9236923 Z" id="Fill-13" fill="#FDDCB9"></path>
                <path d="M50.6684821,13.3827692 C49.4827679,13.3670769 48.5640179,13.6596923 48.5640179,14.5624615 C48.5640179,15.1606154 48.9488393,15.4523077 49.4541964,15.4523077 C50.0166964,15.4523077 50.4765179,15.0692308 50.6247321,14.5938462 C50.6541964,14.4710769 50.6684821,14.3335385 50.6684821,14.1950769 L50.6684821,13.3827692 Z M50.9363393,16.9236923 L50.8024107,16.1723077 L50.7586607,16.1723077 C50.2836607,16.7704615 49.5416964,17.0926154 48.6827679,17.0926154 C47.2149107,17.0926154 46.3399107,15.9886154 46.3399107,14.7923077 C46.3399107,12.8464615 48.0300893,11.9104615 50.5952679,11.9270769 L50.5952679,11.82 C50.5952679,11.4203077 50.388125,10.8544615 49.275625,10.8544615 C48.5336607,10.8544615 47.7479464,11.1138462 47.2738393,11.4203077 L46.8586607,9.91938462 C47.363125,9.62769231 48.3559821,9.25938462 49.675625,9.25938462 C52.0925893,9.25938462 52.863125,10.7316923 52.863125,12.4938462 L52.863125,15.0987692 C52.863125,15.8206154 52.8934821,16.5092308 52.9666964,16.9236923 L50.9363393,16.9236923 Z" id="Fill-15" fill="#FDDCB9"></path>
            </g>
            <g id="Group" transform="translate(26.000000, 6.000000)"></g>
            <g id="Group-2" transform="translate(26.000000, 39.000000)"></g>
        </g>
    </g>
</svg>