<svg xmlns="http://www.w3.org/2000/svg" xmlns:xlink="http://www.w3.org/1999/xlink" viewBox="0 0 360 231"><defs><style>.cls-1{fill:#fff;}.cls-2{mask:url(#mask);}.cls-3{fill:url(#linear-gradient);}.cls-4{fill:url(#linear-gradient-2);}.cls-5{fill:url(#linear-gradient-3);}.cls-6{fill:url(#linear-gradient-4);}.cls-7{filter:url(#luminosity-invert-noclip);}</style><filter id="luminosity-invert-noclip" x="49.23" y="-8315" width="260" height="32766" filterUnits="userSpaceOnUse" color-interpolation-filters="sRGB"><feColorMatrix values="-1 0 0 0 1 0 -1 0 0 1 0 0 -1 0 1 0 0 0 1 0" result="invert"/><feFlood flood-color="#fff" result="bg"/><feBlend in="invert" in2="bg"/></filter><mask id="mask" x="49.23" y="-8315" width="260" height="32766" maskUnits="userSpaceOnUse"><g class="cls-7"/></mask><linearGradient id="linear-gradient" x1="179.23" y1="231" x2="179.23" y2="39.6" gradientUnits="userSpaceOnUse"><stop offset="0.25" stop-color="#fff"/><stop offset="1" stop-color="#c0d7ff"/></linearGradient><linearGradient id="linear-gradient-2" x1="178.44" y1="126" x2="178.44" y2="51.94" gradientUnits="userSpaceOnUse"><stop offset="0" stop-color="#8c96ff"/><stop offset="1" stop-color="#4757ff"/></linearGradient><linearGradient id="linear-gradient-3" x1="178.44" y1="100.03" x2="178.44" y2="25.97" gradientUnits="userSpaceOnUse"><stop offset="0" stop-color="#7396ff"/><stop offset="1" stop-color="#36f"/></linearGradient><linearGradient id="linear-gradient-4" x1="178.44" y1="74.06" x2="178.44" gradientUnits="userSpaceOnUse"><stop offset="0" stop-color="#73adff"/><stop offset="1" stop-color="#006aff"/></linearGradient></defs><title>2</title><g id="Layer_2" data-name="Layer 2"><g id="Layer_9" data-name="Layer 9"><rect class="cls-1" width="360" height="231"/><g class="cls-2"><rect class="cls-3" x="49.23" y="39.6" width="260" height="191.4" rx="40" ry="40"/></g><polygon class="cls-4" points="178.44 126 109.44 84.64 178.44 51.94 247.44 84.64 230.26 94.94 178.44 126"/><polygon class="cls-1" points="277.44 189.86 208.44 147.83 277.44 106.47 352.69 140.94 277.44 189.86"/><polygon class="cls-1" points="277.44 209.86 208.44 167.83 277.44 126.47 352.69 160.94 277.44 209.86"/><polygon class="cls-1" points="277.44 229.86 208.44 187.83 277.44 146.47 352.69 180.94 277.44 229.86"/><polygon class="cls-1" points="79.44 190.2 148.44 148.17 79.44 106.81 4.18 141.27 79.44 190.2"/><polygon class="cls-1" points="79.44 210.2 148.44 168.17 79.44 126.81 4.18 161.27 79.44 210.2"/><polygon class="cls-1" points="79.44 230.2 148.44 188.17 79.44 146.81 4.18 181.27 79.44 230.2"/><polygon class="cls-5" points="178.44 100.03 109.44 58.67 178.44 25.97 247.44 58.67 178.44 100.03"/><polygon class="cls-6" points="178.44 74.06 109.44 32.7 178.44 0 247.44 32.7 178.44 74.06"/></g></g></svg>