<svg width="80" height="80" viewBox="0 0 80 80" xmlns="http://www.w3.org/2000/svg" xmlns:xlink="http://www.w3.org/1999/xlink">
  <g fill="none" fill-rule="evenodd">
    <path d="M77 40C77 19.565 60.435 3 40 3S3 19.565 3 40s16.565 37 37 37 37-16.565 37-37" fill="#FFF"/>
    <path d="M49.9 30.1c-5.468-5.466-14.333-5.466-19.8 0-5.467 5.468-5.467 14.333 0 19.8 5.467 5.467 14.332 5.467 19.8 0 5.466-5.467 5.466-14.332 0-19.8" fill="#D9E4FF"/>
    <path d="M40 40v14c3.719 0 7.289-1.476 9.919-4.101 5.441-5.43 5.441-14.368 0-19.798A14.045 14.045 0 0 0 40 26v14z" fill="#A6C1FF"/>
    <path d="M44.243 35.757a6 6 0 1 0-8.485 8.486 6 6 0 0 0 8.485-8.486" fill="#FFF"/>
    <path d="M49.188 30.812A12.884 12.884 0 0 0 41 27.055v7.044a5.954 5.954 0 0 1 3.241 1.66 5.998 5.998 0 0 1 0 8.482A5.954 5.954 0 0 1 41 45.901v7.044a12.884 12.884 0 0 0 8.188-3.757c5.066-5.066 5.066-13.31 0-18.376zM39 52.945v-7.044a5.954 5.954 0 0 1-3.241-1.66 5.998 5.998 0 0 1 0-8.482A5.954 5.954 0 0 1 39 34.099v-7.044a12.884 12.884 0 0 0-8.188 3.757c-5.066 5.066-5.066 13.31 0 18.376A12.884 12.884 0 0 0 39 52.945zm3.827-10.118a4.002 4.002 0 0 0 0-5.654A3.972 3.972 0 0 0 40 36.002a3.972 3.972 0 0 0-2.827 1.171 4.002 4.002 0 0 0 0 5.654A3.972 3.972 0 0 0 40 43.998a3.972 3.972 0 0 0 2.827-1.171zm-5.69 22.161L40 68.425l2.863-3.437h-5.726zM15.012 37.137L11.575 40l3.437 2.863v-5.726zm27.851-22.125L40 11.575l-2.863 3.437h5.726zm22.125 27.851L68.425 40l-3.437-2.863v5.726zm-1.999 4.269V41h-8.044a14.917 14.917 0 0 1-4.343 9.602A14.917 14.917 0 0 1 41 54.945v8.044h6.132L40 71.547l-7.132-8.558H39v-8.044a14.917 14.917 0 0 1-9.602-4.343A14.917 14.917 0 0 1 25.055 41h-8.044v6.132L8.453 40l8.558-7.132V39h8.044a14.917 14.917 0 0 1 4.343-9.602A14.917 14.917 0 0 1 39 25.055v-8.044h-6.132L40 8.453l7.132 8.558H41v8.044a14.917 14.917 0 0 1 9.602 4.343A14.917 14.917 0 0 1 54.945 39h8.044v-6.132L71.547 40l-8.558 7.132zm7.41-33.129a39.077 39.077 0 0 0-2.115-2.287l-2.12 2.12a36.896 36.896 0 0 1 1.956 2.115l2.279-1.948zm3.666 5.034a40.004 40.004 0 0 0-1.735-2.589l-2.423 1.765a37.09 37.09 0 0 1 1.603 2.393l2.555-1.569zm2.839 5.538a39.515 39.515 0 0 0-1.312-2.826l-2.668 1.368c.437.852.845 1.731 1.213 2.612l2.767-1.154zm1.948 5.91a40.374 40.374 0 0 0-.859-2.993l-2.848.938c.299.909.566 1.84.794 2.768l2.913-.713zm1.005 6.141a39.488 39.488 0 0 0-.383-3.09l-2.959.484a37.5 37.5 0 0 1 .355 2.859l2.987-.253zM80 39.991l-.001-.254-2.999.018.001.254L80 39.991zm-77 .254l-.001-.254L0 40.009l.001.254L3 40.245zm.485 5.734a37.411 37.411 0 0 1-.355-2.858l-2.987.253c.087 1.027.215 2.067.383 3.09l2.959-.485zm1.37 5.591a37.627 37.627 0 0 1-.794-2.768l-2.913.713c.247 1.004.535 2.011.859 2.993l2.848-.938zm2.221 5.313a36.793 36.793 0 0 1-1.213-2.613l-2.767 1.155c.398.954.839 1.905 1.312 2.826l2.668-1.368zm3.017 4.904a37.09 37.09 0 0 1-1.603-2.393l-2.555 1.569c.54.878 1.123 1.749 1.735 2.589l2.423-1.765zm3.743 4.377a36.896 36.896 0 0 1-1.956-2.115l-2.279 1.948a39.077 39.077 0 0 0 2.115 2.287l2.12-2.12zm54.448 2.12C75.73 60.838 80 50.529 80 40h-2.999c0 9.74-3.95 19.276-10.837 26.164C59.276 73.051 49.74 77.001 40 77.001V80c10.529 0 20.838-4.27 28.284-11.716zM2.999 40H0c0-10.529 4.27-20.838 11.716-28.284C19.162 4.27 29.471 0 40 0v2.999c-9.74 0-19.276 3.95-26.164 10.837C6.949 20.724 2.999 30.26 2.999 40z" fill="#36F"/>
  </g>
</svg>
