<svg xmlns="http://www.w3.org/2000/svg" xmlns:xlink="http://www.w3.org/1999/xlink" viewBox="0 0 360 231"><defs><style>.cls-1{fill:url(#linear-gradient);filter:url(#luminosity-invert-noclip);}.cls-2{fill:#fff;}.cls-3{mask:url(#mask);}.cls-4{fill:url(#linear-gradient-2);}.cls-5{fill:url(#linear-gradient-3);}.cls-6{fill:url(#linear-gradient-4);}.cls-7{fill:url(#linear-gradient-5);}</style><linearGradient id="linear-gradient" x1="179" y1="240.67" x2="179" y2="121.33" gradientUnits="userSpaceOnUse"><stop offset="0" stop-color="#fff"/><stop offset="1" stop-color="#c0d7ff"/></linearGradient><filter id="luminosity-invert-noclip" x="48.33" y="39.6" width="261.33" height="201.07" filterUnits="userSpaceOnUse" color-interpolation-filters="sRGB"><feColorMatrix values="-1 0 0 0 1 0 -1 0 0 1 0 0 -1 0 1 0 0 0 1 0" result="invert"/><feFlood flood-color="#fff" result="bg"/><feBlend in="invert" in2="bg"/></filter><mask id="mask" x="48.33" y="39.6" width="261.33" height="201.07" maskUnits="userSpaceOnUse"><path class="cls-1" d="M48.33,152.5c18.17-14.5,51.74-22.6,85.24-14.1S197,167.33,243.67,160s66-38.67,66-38.67V240.67H48.33Z"/></mask><linearGradient id="linear-gradient-2" x1="179.23" y1="231" x2="179.23" y2="39.6" gradientUnits="userSpaceOnUse"><stop offset="0.25" stop-color="#fff"/><stop offset="1" stop-color="#c0d7ff"/></linearGradient><linearGradient id="linear-gradient-3" x1="177.87" y1="114.85" x2="177.87" y2="63.2" gradientUnits="userSpaceOnUse"><stop offset="0" stop-color="#7396ff"/><stop offset="1" stop-color="#36f"/></linearGradient><linearGradient id="linear-gradient-4" x1="179.91" y1="63.31" x2="179.91" gradientUnits="userSpaceOnUse"><stop offset="0" stop-color="#73adff"/><stop offset="1" stop-color="#006aff"/></linearGradient><linearGradient id="linear-gradient-5" x1="234.92" y1="114.59" x2="234.92" y2="82.67" xlink:href="#linear-gradient-3"/></defs><title>4</title><g id="Layer_2" data-name="Layer 2"><g id="Layer_11" data-name="Layer 11"><rect class="cls-2" width="360" height="231"/><g class="cls-3"><rect class="cls-4" x="49.23" y="39.6" width="260" height="191.4" rx="40" ry="40"/></g><polygon class="cls-5" points="166.56 114.85 120.44 68.73 124.52 63.31 235.3 63.2 166.56 114.85"/><polygon class="cls-6" points="124.52 63.31 172.09 0 235.3 63.2 124.52 63.31"/><rect class="cls-2" x="128.76" y="33.82" width="63.84" height="6.38" transform="translate(21.2 -50.92) rotate(19.26)"/><path class="cls-7" d="M234.92,82.67c-3.87,11-10.65,14.82-10.65,20.9a10.65,10.65,0,1,0,21.29,0C245.56,97.49,238.78,93.72,234.92,82.67Z"/></g></g></svg>