<?xml version="1.0" encoding="UTF-8"?>
<svg width="16px" height="14px" viewBox="0 0 16 14" version="1.1" xmlns="http://www.w3.org/2000/svg" xmlns:xlink="http://www.w3.org/1999/xlink">
    <!-- Generator: Sketch 55.1 (78136) - https://sketchapp.com -->
    <title>arrow-right-white</title>
    <desc>Created with Sketch.</desc>
    <defs>
        <path d="M5,13 L16.865,13 L13.232,17.36 C12.878,17.784 12.936,18.415 13.36,18.768 C13.785,19.122 14.415,19.064 14.769,18.64 L19.769,12.64 C19.808,12.593 19.827,12.538 19.856,12.486 C19.88,12.444 19.909,12.408 19.927,12.362 C19.972,12.247 19.999,12.126 19.999,12.004 C19.999,12.003 20,12.001 20,12 C20,11.999 19.999,11.997 19.999,11.996 C19.999,11.874 19.972,11.753 19.927,11.638 C19.909,11.592 19.88,11.556 19.856,11.514 C19.827,11.462 19.808,11.407 19.769,11.36 L14.769,5.36 C14.57,5.123 14.286,5 14,5 C13.774,5 13.547,5.076 13.36,5.232 C12.936,5.585 12.878,6.216 13.232,6.64 L16.865,11 L5,11 C4.448,11 4,11.448 4,12 C4,12.552 4.448,13 5,13" id="path-1"></path>
    </defs>
    <g id="Page-1" stroke="none" stroke-width="1" fill="none" fill-rule="evenodd">
        <g id="arrow-right" transform="translate(-4.000000, -5.000000)">
            <mask id="mask-2" fill="white">
                <use xlink:href="#path-1"></use>
            </mask>
            <use id="🎨-Icon-color" fill="#FFFFFF" fill-rule="evenodd" xlink:href="#path-1"></use>
        </g>
    </g>
</svg>