<?xml version="1.0" encoding="UTF-8"?>
<svg width="285px" height="569px" viewBox="0 0 285 569" version="1.1" xmlns="http://www.w3.org/2000/svg" xmlns:xlink="http://www.w3.org/1999/xlink">
    <!-- Generator: Sketch 55.1 (78136) - https://sketchapp.com -->
    <title>iPhoneX</title>
    <desc>Created with Sketch.</desc>
    <defs>
        <linearGradient x1="100%" y1="50%" x2="0%" y2="50%" id="linearGradient-1">
            <stop stop-color="#FFFFFF" stop-opacity="0.5" offset="0%"></stop>
            <stop stop-color="#FFFFFF" stop-opacity="0.5" offset="96.6884854%"></stop>
            <stop stop-color="#000000" stop-opacity="0.5" offset="100%"></stop>
        </linearGradient>
        <path d="M157.066899,569 C156.489168,568.23049 155.569351,567.732739 154.533333,567.732739 L130.466667,567.732739 C129.430649,567.732739 128.510832,568.23049 127.933101,569 L56.2970977,569 C37.3820417,569 30.5229854,567.029627 23.6079237,563.329677 C16.6928619,559.629728 11.265881,554.200202 7.56766553,547.281898 C3.86945005,540.363594 1.9,533.501322 1.9,514.577397 L1.9,54.4226033 C1.9,35.4986785 3.86945005,28.6364061 7.56766553,21.718102 C11.265881,14.799798 16.6928619,9.37027247 23.6079237,5.67032298 C30.5229854,1.97037348 37.3820417,0 56.2970977,0 L228.702902,0 C247.617958,0 254.477015,1.97037348 261.392076,5.67032298 C268.307138,9.37027247 273.734119,14.799798 277.432334,21.718102 C281.13055,28.6364061 283.1,35.4986785 283.1,54.4226033 L283.1,514.577397 C283.1,533.501322 281.13055,540.363594 277.432334,547.281898 C273.734119,554.200202 268.307138,559.629728 261.392076,563.329677 C254.477015,567.029627 247.617958,569 228.702902,569 L157.066899,569 L157.066899,569 Z" id="path-2"></path>
    </defs>
    <g id="Page-1" stroke="none" stroke-width="1" fill="none" fill-rule="evenodd">
        <g id="iPhoneX">
            <g id="Body">
                <g id="buttons" transform="translate(0.000000, 76.669265)" fill="#FFFFFF">
                    <path d="M283.733333,54.4922049 C284.432894,54.4922049 285,55.0595768 285,55.7594655 L285,119.122494 C285,119.822383 284.432894,120.389755 283.733333,120.389755 C283.033773,120.389755 282.466667,119.822383 282.466667,119.122494 L282.466667,55.7594655 C282.466667,55.0595768 283.033773,54.4922049 283.733333,54.4922049 Z" id="but-4"></path>
                    <path d="M1.26666667,92.5100223 C1.96622735,92.5100223 2.53333333,93.0773942 2.53333333,93.7772829 L2.53333333,133.062361 C2.53333333,133.762249 1.96622735,134.329621 1.26666667,134.329621 C0.567105984,134.329621 0,133.762249 0,133.062361 L0,93.7772829 C0,93.0773942 0.567105984,92.5100223 1.26666667,92.5100223 Z" id="but-3"></path>
                    <path d="M1.26666667,40.5523385 C1.96622735,40.5523385 2.53333333,41.1197104 2.53333333,41.8195991 L2.53333333,81.1046771 C2.53333333,81.8045658 1.96622735,82.3719376 1.26666667,82.3719376 C0.567105984,82.3719376 0,81.8045658 0,81.1046771 L0,41.8195991 C0,41.1197104 0.567105984,40.5523385 1.26666667,40.5523385 Z" id="but-2"></path>
                    <path d="M1.26666667,0 C1.96622735,0 2.53333333,0.567371887 2.53333333,1.26726058 L2.53333333,20.9097996 C2.53333333,21.6096882 1.96622735,22.1770601 1.26666667,22.1770601 C0.567105984,22.1770601 0,21.6096882 0,20.9097996 L0,1.26726058 C0,0.567371887 0.567105984,0 1.26666667,0 Z" id="but-1"></path>
                </g>
                <g id="Combined-Shape">
                    <use fill="#FFFFFF" xlink:href="#path-2"></use>
                    <use fill-opacity="0.06" fill="url(#linearGradient-1)" xlink:href="#path-2"></use>
                </g>
                <path d="M55.0471521,4.93541203 C39.6791494,4.93541203 32.964469,6.23268461 26.0091504,9.95417382 C19.903689,13.2209413 15.1150623,18.0118132 11.8498073,24.1201721 C8.13001769,31.0788351 6.83333333,37.7967662 6.83333333,53.1720717 L6.83333333,515.827928 C6.83333333,531.203234 8.13001769,537.921165 11.8498073,544.879828 C15.1150623,550.988187 19.903689,555.779059 26.0091504,559.045826 C32.964469,562.767315 39.6791494,564.064588 55.0471521,564.064588 L229.952848,564.064588 C245.320851,564.064588 252.035531,562.767315 258.99085,559.045826 C265.096311,555.779059 269.884938,550.988187 273.150193,544.879828 C276.869982,537.921165 278.166667,531.203234 278.166667,515.827928 L278.166667,53.1720717 C278.166667,37.7967662 276.869982,31.0788351 273.150193,24.1201721 C269.884938,18.0118132 265.096311,13.2209413 258.99085,9.95417382 C252.035531,6.23268461 245.320851,4.93541203 229.952848,4.93541203 L55.0471521,4.93541203 Z" id="in" stroke="#F0F0F0" fill="#FFFFFF"></path>
            </g>
        </g>
    </g>
</svg>