<?xml version="1.0" encoding="UTF-8"?>
<svg width="52px" height="52px" viewBox="0 0 52 52" version="1.1" xmlns="http://www.w3.org/2000/svg" xmlns:xlink="http://www.w3.org/1999/xlink">
    <!-- Generator: sketchtool 51.1 (57501) - http://www.bohemiancoding.com/sketch -->
    <title>3A27C349-F717-4DA7-9AA4-797074273C2B</title>
    <desc>Created with sketchtool.</desc>
    <defs></defs>
    <g id="Page-1" stroke="none" stroke-width="1" fill="none" fill-rule="evenodd">
        <g id="icon-source" transform="translate(-313.000000, -1250.000000)">
            <g id="Group" transform="translate(87.000000, 66.000000)">
                <g id="Group-6-Copy-3" transform="translate(0.000000, 587.000000)">
                    <g id="Group-3-Copy-2" transform="translate(188.000000, 197.000000)">
                        <g id="icon/component/collapsable" transform="translate(32.000000, 394.000000)">
                            <g id="Page-1" transform="translate(6.000000, 6.000000)">
                                <path d="M50.016,32 L1.788,32 C1.353,32 1,31.7802743 1,31.5095075 L1,1.48987009 C1,1.21972572 1.353,1 1.788,1 L50.016,1 C50.451,1 50.804,1.21972572 50.804,1.48987009 L50.804,31.5095075 C50.804,31.7802743 50.451,32 50.016,32" id="Fill-1" fill="#CADEFF"></path>
                                <g id="Group" transform="translate(26.000000, 44.500000) rotate(-180.000000) translate(-26.000000, -44.500000) translate(1.000000, 38.000000)">
                                    <path d="M49.016,13 L0.788,13 C0.353,13 0,12.907857 0,12.7943096 L0,0.205429392 C0,0.0921430436 0.353,0 0.788,0 L49.016,0 C49.451,0 49.804,0.0921430436 49.804,0.205429392 L49.804,12.7943096 C49.804,12.907857 49.451,13 49.016,13 M49.016,13 L0.788,13 C0.353,13 0,12.9511285 0,12.8909045 L0,6.21392685 C0,6.15384125 0.353,6.10496979 0.788,6.10496979 L49.016,6.10496979 C49.451,6.10496979 49.804,6.15384125 49.804,6.21392685 L49.804,12.8909045 C49.804,12.9511285 49.451,13 49.016,13" id="Fill-1-Copy" fill="#6DA3F2"></path>
                                    <path d="M49.016,13 L0.788,13 C0.353,13 0,12.9511285 0,12.8909045 L0,6.21392685 C0,6.15384125 0.353,6.10496979 0.788,6.10496979 L49.016,6.10496979 C49.451,6.10496979 49.804,6.15384125 49.804,6.21392685 L49.804,12.8909045 C49.804,12.9511285 49.451,13 49.016,13" id="Path" fill="#97BDFF"></path>
                                </g>
                                <path d="M4.717,29.1974 C4.321,29.1974 4,28.9653883 4,28.6782738 L4,1.51985127 C4,1.23273676 4.321,1 4.717,1 L47.747,1 C48.143,1 48.464,1.23273676 48.464,1.51985127 L48.464,28.6782738 C48.464,28.9653883 48.143,29.1974 47.747,29.1974 L4.717,29.1974 Z" id="Fill-8" fill="#FFFFFF" opacity="0.699841486"></path>
                                <path d="M49.804,32 L49.804,2 L2,2 L2,32 L49.804,32 Z M50.016,34 L1.788,34 C0.80071525,34 0,33.1992847 0,32.212 L0,1.787 C0,0.800364186 0.80106626,-7.10542736e-15 1.788,-7.10542736e-15 L50.016,-7.10542736e-15 C51.0029337,-7.10542736e-15 51.804,0.800364186 51.804,1.787 L51.804,32.212 C51.804,33.1992847 51.0032847,34 50.016,34 Z" id="Stroke-9" fill="#457AE6" fill-rule="nonzero"></path>
                                <path d="M49.804,50 L49.804,39 L2,39 L2,50 L49.804,50 Z M50.016,51.788 L1.788,51.788 C0.80071525,51.788 0,50.9872847 0,50 L0,38.787 C0,37.8003642 0.80106626,37 1.788,37 L50.016,37 C51.0029337,37 51.804,37.8003642 51.804,38.787 L51.804,50 C51.804,50.9872847 51.0032847,51.788 50.016,51.788 Z" id="Stroke-9-Copy" fill="#457AE6" fill-rule="nonzero"></path>
                                <polygon id="Stroke-12" fill="#457AE6" fill-rule="nonzero" points="0 14 0 12 46.244 12 46.244 14"></polygon>
                                <polygon id="Stroke-14" fill="#457AE6" fill-rule="nonzero" points="20 8 20 6 26.122 6 26.122 8"></polygon>
                                <polygon id="Stroke-14-Copy-2" fill="#EFF5FF" fill-rule="nonzero" points="20 45 20 43 26.122 43 26.122 45"></polygon>
                                <path d="M42.0360145,6.0360145 L42.0360145,3.4750145 L44.0360145,3.4750145 L44.0360145,6.0360145 L46.5970145,6.0360145 L46.5970145,8.0360145 L44.0360145,8.0360145 L44.0360145,10.5970145 L42.0360145,10.5970145 L42.0360145,8.0360145 L39.4750145,8.0360145 L39.4750145,6.0360145 L42.0360145,6.0360145 Z" id="Combined-Shape" fill="#457AE6" fill-rule="nonzero" transform="translate(43.036014, 7.036014) rotate(-315.000000) translate(-43.036014, -7.036014) "></path>
                                <path d="M42.0360145,43.0360145 L42.0360145,40.4750145 L44.0360145,40.4750145 L44.0360145,43.0360145 L46.5970145,43.0360145 L46.5970145,45.0360145 L44.0360145,45.0360145 L44.0360145,47.5970145 L42.0360145,47.5970145 L42.0360145,45.0360145 L39.4750145,45.0360145 L39.4750145,43.0360145 L42.0360145,43.0360145 Z" id="Combined-Shape-Copy" fill="#EFF5FF" fill-rule="nonzero" transform="translate(43.036014, 44.036014) rotate(-315.000000) translate(-43.036014, -44.036014) "></path>
                                <polygon id="Fill-1" fill="#467AE5" transform="translate(33.000000, 7.000000) rotate(-180.000000) translate(-33.000000, -7.000000) " points="30 4 30 6 34 6 34 10 36 10 36 4"></polygon>
                                <polygon id="Fill-1-Copy-2" fill="#EFF5FF" points="30 41 30 43 34 43 34 47 36 47 36 41"></polygon>
                            </g>
                        </g>
                    </g>
                </g>
            </g>
        </g>
    </g>
</svg>