<?xml version="1.0" encoding="UTF-8"?>
<svg width="64px" height="64px" viewBox="0 0 64 64" version="1.1" xmlns="http://www.w3.org/2000/svg" xmlns:xlink="http://www.w3.org/1999/xlink">
    <!-- Generator: Sketch 54.1 (76490) - https://sketchapp.com -->
    <title>icon/component/menu</title>
    <desc>Created with Sketch.</desc>
    <defs>
        <polygon id="path-1" points="0 0.178198694 10.2633013 0.178198694 10.2633013 10.4412013 0 10.4412013"></polygon>
        <polygon id="path-3" points="0 0.678198694 10.2633013 0.678198694 10.2633013 10.9412013 0 10.9412013"></polygon>
        <polygon id="path-5" points="0 0.736798694 10.2633013 0.736798694 10.2633013 10.9998013 0 10.9998013"></polygon>
    </defs>
    <g id="icon/component/menu" stroke="none" stroke-width="1" fill="none" fill-rule="evenodd">
        <g id="Page-1" transform="translate(4.000000, 11.000000)">
            <path d="M55.7604,25.5626 L18.8354,25.5626 C18.3554,25.5626 17.9644,25.1726 17.9644,24.6926 L17.9644,16.9336 C17.9644,16.4526 18.3554,16.0626 18.8354,16.0626 L55.7604,16.0626 C56.2414,16.0626 56.6314,16.4526 56.6314,16.9336 L56.6314,24.6926 C56.6314,25.1726 56.2414,25.5626 55.7604,25.5626" id="Fill-1" fill="#FDDCB9"></path>
            <path d="M55.9088,22.6056 L18.6868,22.6056 C18.2888,22.6056 17.9648,22.2826 17.9648,21.8826 L17.9648,16.7856 C17.9648,16.3856 18.2888,16.0626 18.6868,16.0626 L55.9088,16.0626 C56.3078,16.0626 56.6318,16.3856 56.6318,16.7856 L56.6318,21.8826 C56.6318,22.2826 56.3078,22.6056 55.9088,22.6056" id="Fill-3" fill="#FFFFFF" opacity="0.699048913"></path>
            <path d="M55.6314,17.0626 L18.9644,17.0626 L18.9644,24.5626 L55.6314,24.5626 L55.6314,17.0626 Z M55.7604,26.5626 L18.8354,26.5626 C17.8032795,26.5626 16.9644,25.7250499 16.9644,24.6926 L16.9644,16.9336 C16.9644,15.9004828 17.8029473,15.0626 18.8354,15.0626 L55.7604,15.0626 C56.7936847,15.0626 57.6314,15.9003153 57.6314,16.9336 L57.6314,24.6926 C57.6314,25.7252171 56.7933525,26.5626 55.7604,26.5626 Z" id="Stroke-5" fill="#FF7020" fill-rule="nonzero"></path>
            <path d="M55.7604,40.2716 L18.8354,40.2716 C18.3554,40.2716 17.9644,39.8806 17.9644,39.4006 L17.9644,31.6416 C17.9644,31.1616 18.3554,30.7716 18.8354,30.7716 L55.7604,30.7716 C56.2414,30.7716 56.6314,31.1616 56.6314,31.6416 L56.6314,39.4006 C56.6314,39.8806 56.2414,40.2716 55.7604,40.2716" id="Fill-7" fill="#FDDCB9"></path>
            <path d="M55.9088,37.3146 L18.6868,37.3146 C18.2888,37.3146 17.9648,36.9906 17.9648,36.5916 L17.9648,31.4936 C17.9648,31.0946 18.2888,30.7716 18.6868,30.7716 L55.9088,30.7716 C56.3078,30.7716 56.6318,31.0946 56.6318,31.4936 L56.6318,36.5916 C56.6318,36.9906 56.3078,37.3146 55.9088,37.3146" id="Fill-9" fill="#FFFFFF" opacity="0.699048913"></path>
            <path d="M24.1315,39.2716 L24.1315,41.2716 L18.8355,41.2716 C17.8032153,41.2716 16.9645,40.4328847 16.9645,39.4006 L16.9645,31.6416 C16.9645,30.6091501 17.8033795,29.7716 18.8355,29.7716 L55.7605,29.7716 C56.7934525,29.7716 57.6315,30.6089829 57.6315,31.6416 L57.6315,39.4006 C57.6315,40.4330527 56.7936172,41.2716 55.7605,41.2716 L47.6315,41.2716 L47.6315,39.2716 L55.6315,39.2716 L55.6315,31.7716 L18.9645,31.7716 L18.9645,39.2716 L24.1315,39.2716 Z" id="Stroke-11" fill="#FF7020" fill-rule="nonzero"></path>
            <path d="M55.7604,10.8546 L18.8354,10.8546 C18.3554,10.8546 17.9644,10.4646 17.9644,9.9836 L17.9644,2.2246 C17.9644,1.7446 18.3554,1.3546 18.8354,1.3546 L55.7604,1.3546 C56.2414,1.3546 56.6314,1.7446 56.6314,2.2246 L56.6314,9.9836 C56.6314,10.4646 56.2414,10.8546 55.7604,10.8546" id="Fill-13" fill="#FDDCB9"></path>
            <path d="M55.9088,7.8976 L18.6868,7.8976 C18.2888,7.8976 17.9648,7.5746 17.9648,7.1746 L17.9648,2.0776 C17.9648,1.6776 18.2888,1.3546 18.6868,1.3546 L55.9088,1.3546 C56.3078,1.3546 56.6318,1.6776 56.6318,2.0776 L56.6318,7.1746 C56.6318,7.5746 56.3078,7.8976 55.9088,7.8976" id="Fill-15" fill="#FFFFFF" opacity="0.699048913"></path>
            <path d="M55.6315,2.3546 L51.1315,2.3546 L51.1315,0.3546 L55.7605,0.3546 C56.7934525,0.3546 57.6315,1.19198294 57.6315,2.2246 L57.6315,9.9836 C57.6315,11.0168847 56.7937847,11.8546 55.7605,11.8546 L18.8355,11.8546 C17.8030473,11.8546 16.9645,11.0167172 16.9645,9.9836 L16.9645,2.2246 C16.9645,1.19215007 17.8033795,0.3546 18.8355,0.3546 L45.8815,0.3546 L45.8815,2.3546 L18.9645,2.3546 L18.9645,9.8546 L55.6315,9.8546 L55.6315,2.3546 Z" id="Stroke-17" fill="#FF7020" fill-rule="nonzero"></path>
            <g id="Group-21" transform="translate(0.000000, 1.443800)">
                <mask id="mask-2" fill="white">
                    <use xlink:href="#path-1"></use>
                </mask>
                <g id="Clip-20"></g>
                <path d="M10.2633,5.3132 C10.2613,8.1472 7.9613,10.4432 5.1273,10.4412 C2.2933,10.4392 -0.0027,8.1402 -0.0007,5.3062 C0.0013,2.4722 2.3013,0.1762 5.1353,0.1782 C7.9693,0.1802 10.2653,2.4792 10.2633,5.3132" id="Fill-19" fill="#FDDCB9" mask="url(#mask-2)"></path>
            </g>
            <path d="M10.8219,5.6974 C10.8199,8.2904 8.7169,10.3904 6.1239,10.3884 C3.5309,10.3864 1.4309,8.2844 1.4319,5.6914 C1.4339,3.0984 3.5379,0.9984 6.1309,1.0004 C8.7229,1.0024 10.8239,3.1044 10.8219,5.6974" id="Fill-22" fill="#FDDCB9"></path>
            <path d="M10.4254,6.0939 C10.4274,3.5009 8.3264,1.3979 5.7344,1.3959 C4.2464,1.3949 2.9234,2.0879 2.0624,3.1659 C2.8654,2.5259 3.8814,2.1409 4.9884,2.1409 C7.5814,2.1429 9.6824,4.2459 9.6804,6.8389 C9.6794,7.9449 9.2944,8.9579 8.6544,9.7599 C9.7324,8.9009 10.4244,7.5789 10.4254,6.0939" id="Fill-24" fill="#FCAF5C"></path>
            <path d="M5.0553,2.0753 C3.9483,2.0743 2.9313,2.4593 2.1283,3.0993 C1.4893,3.9013 1.1033,4.9163 1.1023,6.0213 C1.1013,8.6143 3.2013,10.7173 5.7933,10.7193 C6.9013,10.7203 7.9173,10.3353 8.7203,9.6943 C9.3603,8.8923 9.7453,7.8783 9.7463,6.7723 C9.7483,4.1793 7.6483,2.0773 5.0553,2.0753" id="Fill-26" fill="#FF881E"></path>
            <path d="M9.8219003,5.69662869 C9.82347378,3.65661021 8.17054121,2.00197409 6.13012869,2.0003997 C4.0892189,1.99882553 2.43347357,3.65165025 2.43189993,5.69178565 C2.4311129,7.73254102 4.08369476,9.38682608 6.12467131,9.3884003 C8.16532466,9.38997427 9.82032623,7.73740617 9.8219003,5.69662869 Z M11.8218997,5.69817131 C11.8194737,8.8434861 9.26838308,11.3908257 6.12312869,11.3883997 C2.97794097,11.3859738 0.430687163,8.83609473 0.431900297,5.69062869 C0.434326206,2.54543867 2.98629212,-0.00202575668 6.1316716,0.000400297687 C9.27642383,0.00282680403 11.8243253,2.55335423 11.8218997,5.69817131 Z" id="Stroke-28" fill="#FF7020" fill-rule="nonzero"></path>
            <g id="Group-32" transform="translate(0.000000, 15.443800)">
                <mask id="mask-4" fill="white">
                    <use xlink:href="#path-3"></use>
                </mask>
                <g id="Clip-31"></g>
                <path d="M10.2633,5.8132 C10.2613,8.6472 7.9613,10.9432 5.1273,10.9412 C2.2933,10.9392 -0.0027,8.6402 -0.0007,5.8062 C0.0013,2.9722 2.3013,0.6762 5.1353,0.6782 C7.9693,0.6802 10.2653,2.9792 10.2633,5.8132" id="Fill-30" fill="#FDDCB9" mask="url(#mask-4)"></path>
            </g>
            <path d="M10.8219,20.1974 C10.8199,22.7904 8.7169,24.8904 6.1239,24.8884 C3.5309,24.8864 1.4309,22.7844 1.4319,20.1914 C1.4339,17.5984 3.5379,15.4984 6.1309,15.5004 C8.7229,15.5024 10.8239,17.6044 10.8219,20.1974" id="Fill-33" fill="#FDDCB9"></path>
            <path d="M10.4254,20.5939 C10.4274,18.0009 8.3264,15.8979 5.7344,15.8959 C4.2464,15.8949 2.9234,16.5879 2.0624,17.6659 C2.8654,17.0259 3.8814,16.6409 4.9884,16.6409 C7.5814,16.6429 9.6824,18.7459 9.6804,21.3389 C9.6794,22.4449 9.2944,23.4579 8.6544,24.2599 C9.7324,23.4009 10.4244,22.0789 10.4254,20.5939" id="Fill-35" fill="#FCAF5C"></path>
            <path d="M5.0553,16.5753 C3.9483,16.5743 2.9313,16.9593 2.1283,17.5993 C1.4893,18.4013 1.1033,19.4163 1.1023,20.5213 C1.1013,23.1143 3.2013,25.2173 5.7933,25.2193 C6.9013,25.2203 7.9173,24.8353 8.7203,24.1943 C9.3603,23.3923 9.7453,22.3783 9.7463,21.2723 C9.7483,18.6793 7.6483,16.5773 5.0553,16.5753" id="Fill-37" fill="#FF881E"></path>
            <path d="M9.8219003,20.1966287 C9.82347378,18.1566102 8.17054121,16.5019741 6.13012869,16.5003997 C4.0892189,16.4988255 2.43347357,18.1516502 2.43189993,20.1917857 C2.4311129,22.232541 4.08369476,23.8868261 6.12467131,23.8884003 C8.16532466,23.8899743 9.82032623,22.2374062 9.8219003,20.1966287 Z M11.8218997,20.1981713 C11.8194737,23.3434861 9.26838308,25.8908257 6.12312869,25.8883997 C2.97794097,25.8859738 0.430687163,23.3360947 0.431900297,20.1906287 C0.434326206,17.0454387 2.98629212,14.4979742 6.1316716,14.5004003 C9.27642383,14.5028268 11.8243253,17.0533542 11.8218997,20.1981713 Z" id="Stroke-39" fill="#FF7020" fill-rule="nonzero"></path>
            <g id="Group-43" transform="translate(0.000000, 30.443800)">
                <mask id="mask-6" fill="white">
                    <use xlink:href="#path-5"></use>
                </mask>
                <g id="Clip-42"></g>
                <path d="M10.2633,5.8718 C10.2613,8.7058 7.9613,11.0018 5.1273,10.9998 C2.2933,10.9978 -0.0027,8.6988 -0.0007,5.8648 C0.0013,3.0308 2.3013,0.7348 5.1353,0.7368 C7.9693,0.7388 10.2653,3.0378 10.2633,5.8718" id="Fill-41" fill="#FDDCB9" mask="url(#mask-6)"></path>
            </g>
            <path d="M10.8219,35.257 C10.8199,37.85 8.7169,39.949 6.1239,39.948 C3.5309,39.946 1.4309,37.843 1.4319,35.25 C1.4339,32.657 3.5379,30.557 6.1309,30.559 C8.7229,30.561 10.8239,32.664 10.8219,35.257" id="Fill-44" fill="#FDDCB9"></path>
            <path d="M10.4254,35.6525 C10.4274,33.0595 8.3264,30.9565 5.7344,30.9555 C4.2464,30.9545 2.9234,31.6465 2.0624,32.7245 C2.8654,32.0845 3.8814,31.6995 4.9884,31.7005 C7.5814,31.7025 9.6824,33.8045 9.6804,36.3975 C9.6794,37.5035 9.2944,38.5175 8.6544,39.3185 C9.7324,38.4595 10.4244,37.1375 10.4254,35.6525" id="Fill-46" fill="#FCAF5C"></path>
            <path d="M5.0553,31.6339 C3.9483,31.6329 2.9313,32.0189 2.1283,32.6589 C1.4893,33.4609 1.1033,34.4749 1.1023,35.5799 C1.1013,38.1729 3.2013,40.2769 5.7933,40.2779 C6.9013,40.2789 7.9173,39.8939 8.7203,39.2529 C9.3603,38.4509 9.7453,37.4379 9.7463,36.3319 C9.7483,33.7389 7.6483,31.6359 5.0553,31.6339" id="Fill-48" fill="#FF881E"></path>
            <path d="M9.8219003,35.2562287 C9.82347398,33.2159538 8.17028467,31.5605739 6.13012869,31.5589997 C4.0892189,31.5574255 2.43347357,33.2102502 2.43189993,35.2503857 C2.4311128,37.2913976 4.08395133,38.9464263 6.12428565,38.9480001 C8.16555454,38.9487873 9.82032647,37.2966918 9.8219003,35.2562287 Z M11.8218997,35.2577713 C11.819474,38.4027091 9.26884479,40.9492129 6.12312869,40.9479997 C2.97806587,40.9455739 0.430687114,38.3948196 0.431900297,35.2492287 C0.434326206,32.1040387 2.98629212,29.5565742 6.1316716,29.5590003 C9.27629891,29.5614267 11.8243254,32.1128296 11.8218997,35.2577713 Z" id="Stroke-50" fill="#FF7020" fill-rule="nonzero"></path>
        </g>
    </g>
</svg>