<?xml version="1.0" encoding="UTF-8"?>
<svg width="64px" height="64px" viewBox="0 0 64 64" version="1.1" xmlns="http://www.w3.org/2000/svg" xmlns:xlink="http://www.w3.org/1999/xlink">
    <!-- Generator: Sketch 49 (51002) - http://www.bohemiancoding.com/sketch -->
    <title>icon/component/reveal</title>
    <desc>Created with Sketch.</desc>
    <defs></defs>
    <g id="icon/component/reveal" stroke="none" stroke-width="1" fill="none" fill-rule="evenodd">
        <g id="Page-1" transform="translate(7.000000, 6.000000)">
            <path d="M48.816,46.7338 L1.768,46.7338 C1.344,46.7338 1,46.3898 1,45.9648 L1,1.7678 C1,1.3438 1.344,1.0008 1.768,1.0008 L48.816,1.0008 C49.24,1.0008 49.585,1.3438 49.585,1.7678 L49.585,45.9648 C49.585,46.3898 49.24,46.7338 48.816,46.7338" id="Fill-1" fill="#97BDFF"></path>
            <path d="M48.8267,51.7338 L1.7577,51.7338 C1.3397,51.7338 0.9997,51.3948 0.9997,50.9758 L0.9997,8.0238 C0.9997,7.6048 1.3397,7.2658 1.7577,7.2658 L48.8267,7.2658 C49.2447,7.2658 49.5847,7.6048 49.5847,8.0238 L49.5847,50.9758 C49.5847,51.3948 49.2447,51.7338 48.8267,51.7338" id="Fill-3" fill="#6DA3F2"></path>
            <path d="M48.585,45.7338 L48.585,2.0008 L2,2.0008 L2,45.7338 L48.585,45.7338 Z M48.816,47.7338 L1.768,47.7338 C0.791359393,47.7338 0,46.941729 0,45.9648 L0,1.7678 C0,0.791302513 0.791926842,0.0008 1.768,0.0008 L48.816,0.0008 C49.7918631,0.0008 50.585,0.791089019 50.585,1.7678 L50.585,45.9648 C50.585,46.9419407 49.7924293,47.7338 48.816,47.7338 Z" id="Stroke-5" fill="#457AE6" fill-rule="nonzero"></path>
            <path d="M48.816,51.3842 L1.768,51.3842 C1.344,51.3842 1,51.0402 1,50.6152 L1,10.3192 C1,9.8942 1.344,9.5502 1.768,9.5502 L48.816,9.5502 C49.24,9.5502 49.585,9.8942 49.585,10.3192 L49.585,50.6152 C49.585,51.0402 49.24,51.3842 48.816,51.3842" id="Fill-7" fill="#CADEFF"></path>
            <path d="M46.8394,47.6098 L4.8614,47.6098 C4.4764,47.6098 4.1624,47.2978 4.1624,46.9108 L4.1624,10.0568 C4.1624,9.6718 4.4764,9.3578 4.8614,9.3578 L46.8394,9.3578 C47.2254,9.3578 47.5374,9.6718 47.5374,10.0568 L47.5374,46.9108 C47.5374,47.2978 47.2254,47.6098 46.8394,47.6098" id="Fill-9" fill="#FFFFFF" opacity="0.7"></path>
            <path d="M48.585,50.3842 L48.585,10.5502 L2,10.5502 L2,50.3842 L48.585,50.3842 Z M48.816,52.3842 L1.768,52.3842 C0.791359393,52.3842 0,51.592129 0,50.6152 L0,10.3192 C0,9.34227105 0.791359393,8.5502 1.768,8.5502 L48.816,8.5502 C49.7924293,8.5502 50.585,9.34205926 50.585,10.3192 L50.585,50.6152 C50.585,51.5923407 49.7924293,52.3842 48.816,52.3842 Z" id="Stroke-11" fill="#457AE6" fill-rule="nonzero"></path>
            <path d="M12,27 L14,27 L14,30 L12,30 L12,27 Z M12,33 L14,33 L14,36 L12,36 L12,33 Z M12,39 L14,39 L14,42 L12,42 L12,39 Z" id="Stroke-13" fill="#457AE6" fill-rule="nonzero"></path>
            <polygon id="Stroke-13-Copy" fill="#457AE6" fill-rule="nonzero" points="12 17.9479218 14 17.9479218 14 25.03917 12 25.03917"></polygon>
            <polyline id="Stroke-15" stroke="#457AE6" stroke-width="2" stroke-linejoin="round" points="9.4908 20.391 13.0408 16.841 16.4458 20.247"></polyline>
            <path d="M37,27 L39,27 L39,30 L37,30 L37,27 Z M37,33 L39,33 L39,36 L37,36 L37,33 Z M37,39 L39,39 L39,42 L37,42 L37,39 Z" id="Stroke-17" fill="#457AE6" fill-rule="nonzero"></path>
            <polygon id="Stroke-17-Copy" fill="#457AE6" fill-rule="nonzero" points="37 17.9479218 39 17.9479218 39 25.03917 37 25.03917"></polygon>
            <path d="M37.9030996,18.2553132 L35.0612064,21.0980072 L33.6467936,19.6839928 L37.1957936,16.1339928 C37.5863018,15.7433746 38.2195436,15.74333 38.6101068,16.1338932 L42.0161068,19.5398932 L40.6018932,20.9541068 L37.9030996,18.2553132 Z" id="Stroke-19" fill="#457AE6" fill-rule="nonzero"></path>
        </g>
    </g>
</svg>