<?xml version="1.0" encoding="UTF-8"?>
<svg width="64px" height="64px" viewBox="0 0 64 64" version="1.1" xmlns="http://www.w3.org/2000/svg" xmlns:xlink="http://www.w3.org/1999/xlink">
    <!-- Generator: Sketch 49 (51002) - http://www.bohemiancoding.com/sketch -->
    <title>icon/component/search</title>
    <desc>Created with Sketch.</desc>
    <defs></defs>
    <g id="icon/component/search" stroke="none" stroke-width="1" fill="none" fill-rule="evenodd">
        <g id="Page-1" transform="translate(6.000000, 6.000000)">
            <path d="M38.8553104,21.2943104 C38.3813104,32.0183104 29.3043104,40.3283104 18.5803104,39.8553104 C7.85531037,39.3813104 -0.454689631,30.3043104 0.0193103686,19.5793104 C0.492310369,8.85531039 9.57031037,0.545310389 20.2943104,1.01931039 C31.0193104,1.49131039 39.3283104,10.5693104 38.8553104,21.2943104" id="Fill-1" fill="#97BDFF"></path>
            <path d="M38.7486,19.1789 C38.3286,28.6949 30.2736,36.0679 20.7586,35.6479 C11.2426,35.2279 3.8696,27.1729 4.2896,17.6579 C4.7086,8.1419 12.7636,0.7689 22.2796,1.1889 C31.7956,1.6089 39.1686,9.6629 38.7486,19.1789" id="Fill-3" fill="#CADEFF"></path>
            <path d="M38.7486,19.1789 C39.1686,9.6629 31.7956,1.6089 22.2796,1.1889 C16.9776,0.9539 12.1346,3.1439 8.8076,6.7709 C11.9126,4.3899 15.8366,3.0419 20.0516,3.2289 C29.5666,3.6489 36.9406,11.7029 36.5196,21.2189 C36.3336,25.4339 34.6456,29.2229 32.0006,32.1069 C35.9066,29.1119 38.5146,24.4809 38.7486,19.1789" id="Fill-5" fill="#FFFFFF" opacity="0.7"></path>
            <path d="M22.2593104,1.65233199 C12.9992786,1.24459234 5.16194813,8.41884043 4.75332731,17.6783957 C4.34466588,26.9369837 11.5194779,34.7746384 20.7783912,35.1832725 C30.0382109,35.5919466 37.8756459,28.4178947 38.2842723,19.1582133 C38.6929162,9.89907821 31.5185631,2.06192488 22.2593104,1.65233199 Z M20.6902088,37.1813275 C10.327782,36.7239908 2.29790499,27.9522762 2.75527229,17.5902133 C3.21258979,7.22716652 11.9839142,-0.802054299 22.3474928,-0.345723019 C32.710331,0.112688127 40.7396708,8.88381588 40.2823275,19.2463912 C39.825002,29.6096206 31.0534739,37.6387013 20.6902088,37.1813275 Z" id="Stroke-7" fill="#457AE6" fill-rule="nonzero"></path>
            <path d="M36.5177,34.5695 L33.7867,31.5865 L31.5757,33.6105 L34.3067,36.5935 C35.0807,37.4395 35.0227,38.7545 34.1767,39.5285 L45.8947,52.3285 L51.1697,47.4985 L39.4527,34.6995 C38.6067,35.4735 37.2927,35.4165 36.5177,34.5695" id="Fill-9" fill="#C7E3FF"></path>
            <path d="M36.6451,35.6759 L33.9141,32.6919 L34.3951,32.2509 L33.7861,31.5859 L31.5751,33.6109 L34.3061,36.5939 C35.0811,37.4399 35.0231,38.7539 34.1771,39.5289 L45.8941,52.3279 L47.6241,50.7449 L36.5161,38.6109 C37.3621,37.8359 37.4201,36.5219 36.6451,35.6759" id="Fill-11" fill="#6DA3F2"></path>
            <path d="M39.4527,34.6994 C38.6067,35.4734 37.2927,35.4164 36.5177,34.5694 L34.3957,32.2514 L33.9137,32.6914 L36.6447,35.6764 C37.4197,36.5214 37.3617,37.8364 36.5157,38.6104 L47.6237,50.7454 L51.1697,47.4984 L39.4527,34.6994 Z" id="Fill-13" fill="#97BDFF"></path>
            <path d="M37.2552748,33.8942346 C37.6571428,34.3334373 38.3385829,34.3634277 38.7776865,33.9616946 L39.5152637,33.2868899 L52.582473,47.5607835 L45.8324131,53.7414071 L32.7636502,39.4659194 L33.5016865,38.7906946 C33.9400506,38.3896381 33.9702388,37.707192 33.5691252,37.2687654 L30.1628236,33.5481511 L33.8490455,30.1736992 L37.2552748,33.8942346 Z M33.7243545,32.9993008 L32.9885764,33.6728489 L35.0445054,35.9184865 C35.9549743,36.9136503 36.0883139,38.3462623 35.4773791,39.4683339 L45.9569869,50.9155929 L49.756927,47.4362165 L39.2780534,35.9896769 C38.1062023,36.4995105 36.6912653,36.2404535 35.7800376,35.2446697 L33.7243545,32.9993008 Z" id="Stroke-15" fill="#457AE6" fill-rule="nonzero"></path>
        </g>
    </g>
</svg>