<?xml version="1.0" encoding="UTF-8"?>
<svg width="1915px" height="400px" viewBox="0 0 1915 400" version="1.1" xmlns="http://www.w3.org/2000/svg" xmlns:xlink="http://www.w3.org/1999/xlink">
    <!-- Generator: Sketch 55.1 (78136) - https://sketchapp.com -->
    <title>Group 2</title>
    <desc>Created with Sketch.</desc>
    <defs>
        <rect id="path-1" x="0" y="0" width="1920" height="400" rx="2"></rect>
        <linearGradient x1="50%" y1="0%" x2="50%" y2="100%" id="linearGradient-3">
            <stop stop-color="#FFFFFF" stop-opacity="0" offset="0%"></stop>
            <stop stop-color="#FFFFFF" stop-opacity="0.504725743" offset="100%"></stop>
        </linearGradient>
        <linearGradient x1="50%" y1="0%" x2="50%" y2="100%" id="linearGradient-4">
            <stop stop-color="#FFFFFF" stop-opacity="0" offset="0%"></stop>
            <stop stop-color="#FFFFFF" stop-opacity="0.504725743" offset="100%"></stop>
        </linearGradient>
        <linearGradient x1="50%" y1="0%" x2="50%" y2="100%" id="linearGradient-5">
            <stop stop-color="#FFFFFF" stop-opacity="0" offset="0%"></stop>
            <stop stop-color="#FFFFFF" stop-opacity="0.504725743" offset="100%"></stop>
        </linearGradient>
        <linearGradient x1="50%" y1="0%" x2="50%" y2="100%" id="linearGradient-6">
            <stop stop-color="#FFFFFF" stop-opacity="0" offset="0%"></stop>
            <stop stop-color="#FFFFFF" stop-opacity="0.504725743" offset="100%"></stop>
        </linearGradient>
        <linearGradient x1="50%" y1="0%" x2="50%" y2="100%" id="linearGradient-7">
            <stop stop-color="#FFFFFF" stop-opacity="0" offset="0%"></stop>
            <stop stop-color="#FFFFFF" stop-opacity="0.504725743" offset="100%"></stop>
        </linearGradient>
        <linearGradient x1="50%" y1="0%" x2="50%" y2="100%" id="linearGradient-8">
            <stop stop-color="#FFFFFF" stop-opacity="0" offset="0%"></stop>
            <stop stop-color="#FFFFFF" stop-opacity="0.504725743" offset="100%"></stop>
        </linearGradient>
        <linearGradient x1="50%" y1="0%" x2="50%" y2="100%" id="linearGradient-9">
            <stop stop-color="#FFFFFF" stop-opacity="0" offset="0%"></stop>
            <stop stop-color="#FFFFFF" stop-opacity="0.504725743" offset="100%"></stop>
        </linearGradient>
        <linearGradient x1="50%" y1="0%" x2="50%" y2="100%" id="linearGradient-10">
            <stop stop-color="#FFFFFF" stop-opacity="0" offset="0%"></stop>
            <stop stop-color="#FFFFFF" stop-opacity="0.504725743" offset="100%"></stop>
        </linearGradient>
        <linearGradient x1="50%" y1="0%" x2="50%" y2="100%" id="linearGradient-11">
            <stop stop-color="#FFFFFF" stop-opacity="0" offset="0%"></stop>
            <stop stop-color="#FFFFFF" stop-opacity="0.504725743" offset="100%"></stop>
        </linearGradient>
        <linearGradient x1="50%" y1="0%" x2="50%" y2="100%" id="linearGradient-12">
            <stop stop-color="#FFFFFF" stop-opacity="0" offset="0%"></stop>
            <stop stop-color="#FFFFFF" stop-opacity="0.504725743" offset="100%"></stop>
        </linearGradient>
        <linearGradient x1="50%" y1="0%" x2="50%" y2="100%" id="linearGradient-13">
            <stop stop-color="#FFFFFF" stop-opacity="0" offset="0%"></stop>
            <stop stop-color="#FFFFFF" stop-opacity="0.504725743" offset="100%"></stop>
        </linearGradient>
        <linearGradient x1="50%" y1="0%" x2="50%" y2="100%" id="linearGradient-14">
            <stop stop-color="#FFFFFF" stop-opacity="0" offset="0%"></stop>
            <stop stop-color="#FFFFFF" stop-opacity="0.504725743" offset="100%"></stop>
        </linearGradient>
        <linearGradient x1="50%" y1="0%" x2="50%" y2="100%" id="linearGradient-15">
            <stop stop-color="#FFFFFF" stop-opacity="0" offset="0%"></stop>
            <stop stop-color="#FFFFFF" stop-opacity="0.504725743" offset="100%"></stop>
        </linearGradient>
        <linearGradient x1="50%" y1="0%" x2="50%" y2="100%" id="linearGradient-16">
            <stop stop-color="#FFFFFF" stop-opacity="0" offset="0%"></stop>
            <stop stop-color="#FFFFFF" stop-opacity="0.504725743" offset="100%"></stop>
        </linearGradient>
        <linearGradient x1="50%" y1="0%" x2="50%" y2="100%" id="linearGradient-17">
            <stop stop-color="#FFFFFF" stop-opacity="0" offset="0%"></stop>
            <stop stop-color="#FFFFFF" stop-opacity="0.504725743" offset="100%"></stop>
        </linearGradient>
        <linearGradient x1="50%" y1="0%" x2="50%" y2="100%" id="linearGradient-18">
            <stop stop-color="#FFFFFF" stop-opacity="0" offset="0%"></stop>
            <stop stop-color="#FFFFFF" stop-opacity="0.504725743" offset="100%"></stop>
        </linearGradient>
        <linearGradient x1="50%" y1="0%" x2="50%" y2="100%" id="linearGradient-19">
            <stop stop-color="#FFFFFF" stop-opacity="0" offset="0%"></stop>
            <stop stop-color="#FFFFFF" stop-opacity="0.504725743" offset="100%"></stop>
        </linearGradient>
        <linearGradient x1="50%" y1="0%" x2="50%" y2="100%" id="linearGradient-20">
            <stop stop-color="#FFFFFF" stop-opacity="0" offset="0%"></stop>
            <stop stop-color="#FFFFFF" stop-opacity="0.504725743" offset="100%"></stop>
        </linearGradient>
        <linearGradient x1="50%" y1="0%" x2="50%" y2="100%" id="linearGradient-21">
            <stop stop-color="#FFFFFF" stop-opacity="0" offset="0%"></stop>
            <stop stop-color="#FFFFFF" stop-opacity="0.504725743" offset="100%"></stop>
        </linearGradient>
    </defs>
    <g id="Page-1" stroke="none" stroke-width="1" fill="none" fill-rule="evenodd">
        <g id="Artboard" transform="translate(-164.000000, -175.000000)">
            <g id="Group-2" transform="translate(163.000000, 175.000000)">
                <mask id="mask-2" fill="white">
                    <use xlink:href="#path-1"></use>
                </mask>
                <g id="Rectangle"></g>
                <g id="pattern" opacity="0.599144345" mask="url(#mask-2)">
                    <g transform="translate(0.000000, -38.000000)">
                        <g id="Group-4" transform="translate(54.000000, 20.000000)">
                            <path d="M608.853131,19.8947368 L611.008059,27.5084867 C612.162159,31.5861323 615.459159,34.7026535 619.595254,35.6256159 C623.664645,36.5336936 626.795289,39.7892896 627.543491,43.8910872 L628.101113,46.9480905 C629.072785,52.2749992 632.753256,56.7089984 637.810159,58.6449332 C642.844486,60.5722259 646.455928,65.0547034 647.267947,70.383825 L648.669044,79.5789474" id="Path-6" stroke="#FFFFFF" stroke-width="3" stroke-dasharray="3.779999899864197,3.779999899864197"></path>
                            <path d="M362.373672,325.894737 L364.5286,333.508487 C365.6827,337.586132 368.9797,340.702653 373.115795,341.625616 C377.185186,342.533694 380.31583,345.78929 381.064031,349.891087 L381.621654,352.94809 C382.593325,358.274999 386.273797,362.708998 391.330699,364.644933 C396.365027,366.572226 399.976469,371.054703 400.788488,376.383825 L402.189585,385.578947" id="Path-6-Copy-2" stroke="#FFFFFF" stroke-width="3" stroke-dasharray="3.779999899864197,3.779999899864197"></path>
                            <path d="M523.533318,102.315789 L525.688246,109.929539 C526.842346,114.007185 530.139347,117.123706 534.275441,118.046669 C538.344833,118.954746 541.475476,122.210342 542.223678,126.31214 L542.7813,129.369143 C543.752972,134.696052 547.433444,139.130051 552.490346,141.065986 C557.524673,142.993279 561.136115,147.475756 561.948134,152.804878 L563.349231,162" id="Path-6-Copy-11" stroke="#FFFFFF" stroke-width="3"></path>
                            <path d="M177.514078,372.315789 L179.669005,379.929539 C180.823106,384.007185 184.120106,387.123706 188.256201,388.046669 C192.325592,388.954746 195.456236,392.210342 196.204437,396.31214 L196.762059,399.369143 C197.733731,404.696052 201.414203,409.130051 206.471105,411.065986 C211.505433,412.993279 215.116874,417.475756 215.928894,422.804878 L217.32999,432" id="Path-6-Copy-25" stroke="#FFFFFF" stroke-width="3"></path>
                            <path d="M1265.83422,358.095284 L1267.98891,365.718843 C1269.14055,369.793471 1272.43395,372.908367 1276.56636,373.831409 C1280.63219,374.739579 1283.7595,377.993241 1284.506,382.091839 L1285.06602,385.166598 C1286.03558,390.489941 1289.71197,394.921865 1294.76454,396.858257 C1299.79458,398.786016 1303.40205,403.26631 1304.21226,408.591825 L1305.61308,417.799453" id="Path-6-Copy-20" stroke="#FFFFFF" stroke-width="3" transform="translate(1285.723646, 387.947368) rotate(62.000000) translate(-1285.723646, -387.947368) "></path>
                            <path d="M1590.03098,348.631579 L1592.18591,356.245329 C1593.34001,360.322974 1596.63701,363.439496 1600.7731,364.362458 C1604.84249,365.270536 1607.97314,368.526132 1608.72134,372.627929 L1609.27896,375.684933 C1610.25063,381.011841 1613.9311,385.445841 1618.98801,387.381775 C1624.02233,389.309068 1627.63378,393.791545 1628.44579,399.120667 L1629.84689,408.315789" id="Path-6-Copy-15" stroke="#FFFFFF" stroke-width="3"></path>
                            <path d="M248.613922,141.157895 L250.768849,148.771645 C251.92295,152.84929 255.21995,155.965811 259.356045,156.888774 C263.425436,157.796851 266.55608,161.052447 267.304281,165.154245 L267.861903,168.211248 C268.833575,173.538157 272.514047,177.972156 277.570949,179.908091 C282.605277,181.835384 286.216718,186.317861 287.028738,191.646983 L288.429834,200.842105" id="Path-6-Copy-4" stroke="#FFFFFF" stroke-width="3" stroke-dasharray="3.779999899864197,3.779999899864197"></path>
                            <path d="M26.7824084,0 L28.937336,7.61374988 C30.0914363,11.6913954 33.3884365,14.8079166 37.5245314,15.7308791 C41.5939226,16.6389568 44.7245663,19.8945527 45.4727677,23.9963504 L46.0303901,27.0533536 C47.0020618,32.3802623 50.6825337,36.8142616 55.7394357,38.7501964 C60.7737634,40.677489 64.3852052,45.1599665 65.1972242,50.4890881 L66.598321,59.6842105" id="Path-6-Copy-24" stroke="#FFFFFF" stroke-width="3" stroke-dasharray="3.779999899864197,3.779999899864197"></path>
                            <path d="M1509.45116,150.631579 L1511.60608,158.245329 C1512.76018,162.322974 1516.05718,165.439496 1520.19328,166.362458 C1524.26267,167.270536 1527.39331,170.526132 1528.14151,174.627929 L1528.69914,177.684933 C1529.67081,183.011841 1533.35128,187.445841 1538.40818,189.381775 C1543.44251,191.309068 1547.05395,195.791545 1547.86597,201.120667 L1549.26707,210.315789" id="Path-6-Copy-13" stroke="#FFFFFF" stroke-width="3" stroke-dasharray="3.779999899864197,3.779999899864197"></path>
                            <path d="M1671.57394,307.876499 L1673.7294,315.502853 C1674.8812,319.578082 1678.17494,322.693527 1682.3079,323.616988 C1686.37428,324.525574 1689.50193,327.779781 1690.24859,331.878987 L1690.8091,334.956218 C1691.7789,340.280458 1695.45573,344.713213 1700.50901,346.650332 C1705.53976,348.578817 1709.14768,353.059941 1709.95811,358.386358 L1711.35958,367.597186" id="Path-6-Copy-21" stroke="#FFFFFF" stroke-width="3" stroke-dasharray="3.779999899864197,3.779999899864197" transform="translate(1691.466756, 337.736842) rotate(-96.000000) translate(-1691.466756, -337.736842) "></path>
                            <path d="M819.319037,64.4153218 L821.49154,72.1654628 C822.637115,76.2521664 825.932325,79.3809876 830.072852,80.3134699 C834.147148,81.2310363 837.276847,84.4976435 838.019238,88.6074695 L840.154256,100.426783" id="Path-6-Copy" stroke="#FFFFFF" stroke-width="3" stroke-dasharray="3.779999899864197,3.779999899864197" transform="translate(829.736647, 82.421053) rotate(59.000000) translate(-829.736647, -82.421053) "></path>
                            <path d="M1479.12559,229.257427 L1481.29809,237.007568 C1482.44367,241.094272 1485.73888,244.223093 1489.8794,245.155575 C1493.9537,246.073142 1497.0834,249.339749 1497.82579,253.449575 L1499.96081,265.268889" id="Path-6-Copy-27" stroke="#FFFFFF" stroke-width="3" stroke-linejoin="round" stroke-dasharray="3.779999899864197,3.779999899864197" transform="translate(1489.543199, 247.263158) rotate(59.000000) translate(-1489.543199, -247.263158) "></path>
                            <path d="M1459.21763,266.204796 L1461.39014,273.954936 C1462.53571,278.04164 1465.83092,281.170461 1469.97145,282.102944 C1474.04574,283.02051 1477.17544,286.287117 1477.91783,290.396943 L1480.05285,302.216257" id="Path-6-Copy-14" stroke="#FFFFFF" stroke-width="3" stroke-linejoin="round" stroke-dasharray="3.779999899864197,3.779999899864197" transform="translate(1469.635242, 284.210526) rotate(59.000000) translate(-1469.635242, -284.210526) "></path>
                            <path d="M1373.89782,35.0469008 L1376.07032,42.7970417 C1377.2159,46.8837453 1380.51111,50.0125665 1384.65164,50.9450489 C1388.72593,51.8626153 1391.85563,55.1292225 1392.59802,59.2390484 L1394.73304,71.0583624" id="Path-6-Copy-34" stroke="#FFFFFF" stroke-width="3" stroke-linejoin="round" stroke-dasharray="3.779999899864197,3.779999899864197" transform="translate(1384.315430, 53.052632) rotate(59.000000) translate(-1384.315430, -53.052632) "></path>
                            <path d="M1737.92902,71.0469008 L1740.10152,78.7970417 C1741.2471,82.8837453 1744.54231,86.0125665 1748.68284,86.9450489 C1752.75713,87.8626153 1755.88683,91.1292225 1756.62922,95.2390484 L1758.76424,107.058362" id="Path-6-Copy-33" stroke="#FFFFFF" stroke-width="3" stroke-linejoin="round" stroke-dasharray="3.779999899864197,3.779999899864197" transform="translate(1748.346631, 89.052632) rotate(59.000000) translate(-1748.346631, -89.052632) "></path>
                            <path d="M1626.06003,298.421779 L1628.23229,306.164177 C1629.37933,310.252479 1632.67664,313.382043 1636.81922,314.314246 C1640.89548,315.231526 1644.02711,318.499072 1644.77049,322.610606 L1646.90573,334.420326" id="Path-6-Copy-31" stroke="#FFFFFF" stroke-width="3" stroke-linejoin="round" stroke-dasharray="3.779999899864197,3.779999899864197" transform="translate(1636.482876, 316.421053) rotate(22.000000) translate(-1636.482876, -316.421053) "></path>
                            <path d="M1193.76444,142.098552 L1195.93844,149.842269 C1197.08696,153.93326 1200.38671,157.064742 1204.53216,157.997757 C1208.61126,158.915838 1211.74521,162.185437 1212.48972,166.299758 L1214.62721,178.111974" id="Path-6-Copy-19" stroke="#FFFFFF" stroke-width="3" stroke-dasharray="3.779999899864197,3.779999899864197" transform="translate(1204.195825, 160.105263) rotate(147.000000) translate(-1204.195825, -160.105263) "></path>
                            <path d="M1134.98857,246.309079 L1137.16257,254.052796 C1138.31108,258.143786 1141.61084,261.275268 1145.75629,262.208283 C1149.83539,263.126364 1152.96934,266.395963 1153.71385,270.510284 L1155.85134,282.3225" id="Path-6-Copy-30" stroke="#FFFFFF" stroke-width="3" stroke-dasharray="3.779999899864197,3.779999899864197" transform="translate(1145.419954, 264.315789) rotate(147.000000) translate(-1145.419954, -264.315789) "></path>
                            <path d="M1073.3687,386.519605 L1075.5427,394.263322 C1076.69122,398.354312 1079.99097,401.485795 1084.13643,402.41881 C1088.21553,403.336891 1091.34947,406.60649 1092.09398,410.72081 L1094.23148,422.533027" id="Path-6-Copy-29" stroke="#FFFFFF" stroke-width="3" stroke-dasharray="3.779999899864197,3.779999899864197" transform="translate(1083.800089, 404.526316) rotate(147.000000) translate(-1083.800089, -404.526316) "></path>
                            <path d="M1793.84712,120.309079 L1796.02112,128.052796 C1797.16964,132.143786 1800.46939,135.275268 1804.61485,136.208283 C1808.69395,137.126364 1811.82789,140.395963 1812.5724,144.510284 L1814.70989,156.3225" id="Path-6-Copy-23" stroke="#FFFFFF" stroke-width="3" stroke-dasharray="3.779999899864197,3.779999899864197" transform="translate(1804.278508, 138.315789) rotate(147.000000) translate(-1804.278508, -138.315789) "></path>
                            <path d="M311.192152,118.415322 L313.364655,126.165463 C314.51023,130.252166 317.80544,133.380988 321.945967,134.31347 C326.020263,135.231036 329.149962,138.497644 329.892353,142.607469 L332.027371,154.426783" id="Path-6-Copy-5" stroke="#FFFFFF" stroke-width="3" transform="translate(321.609761, 136.421053) rotate(59.000000) translate(-321.609761, -136.421053) "></path>
                            <path d="M537.763655,385.573217 L539.936157,393.323358 C541.081733,397.410061 544.376943,400.538882 548.51747,401.471365 C552.591766,402.388931 555.721465,405.655538 556.463856,409.765364 L558.598874,421.584678" id="Path-6-Copy-26" stroke="#FFFFFF" stroke-width="3" transform="translate(548.181264, 403.578947) rotate(59.000000) translate(-548.181264, -403.578947) "></path>
                            <path d="M204.068387,294.625848 L206.24089,302.375989 C207.386465,306.462693 210.681675,309.591514 214.822202,310.523996 C218.896498,311.441563 222.026197,314.70817 222.768588,318.817996 L224.903606,330.63731" id="Path-6-Copy-6" stroke="#FFFFFF" stroke-width="3" stroke-dasharray="3.779999899864197,3.779999899864197" transform="translate(214.485996, 312.631579) rotate(59.000000) translate(-214.485996, -312.631579) "></path>
                            <path d="M388.927982,87.1521639 L391.100484,94.9023049 C392.24606,98.9890085 395.54127,102.11783 399.681797,103.050312 C403.756093,103.967878 406.885791,107.234486 407.628182,111.344312 L409.7632,123.163626" id="Path-6-Copy-3" stroke="#FFFFFF" stroke-width="3" stroke-dasharray="3.779999899864197,3.779999899864197" transform="translate(399.345591, 105.157895) rotate(59.000000) translate(-399.345591, -105.157895) "></path>
                            <path d="M55.2327139,249.152164 L57.4052161,256.902305 C58.5507918,260.989008 61.8460017,264.11783 65.986529,265.050312 C70.0608247,265.967878 73.1905235,269.234486 73.9329144,273.344312 L76.0679323,285.163626" id="Path-6-Copy-18" stroke="#FFFFFF" stroke-width="3" stroke-dasharray="3.779999899864197,3.779999899864197" transform="translate(65.650323, 267.157895) rotate(59.000000) translate(-65.650323, -267.157895) "></path>
                            <path d="M1341.66589,149.67848 L1343.83839,157.428621 C1344.98397,161.515324 1348.27918,164.644145 1352.41971,165.576628 C1356.494,166.494194 1359.6237,169.760801 1360.36609,173.870627 L1362.50111,185.689941" id="Path-6-Copy-12" stroke="#FFFFFF" stroke-width="3" transform="translate(1352.083500, 167.684211) rotate(59.000000) translate(-1352.083500, -167.684211) "></path>
                            <path d="M1763.52497,212.204796 L1765.69747,219.954936 C1766.84304,224.04164 1770.13825,227.170461 1774.27878,228.102944 C1778.35308,229.02051 1781.48278,232.287117 1782.22517,236.396943 L1784.36018,248.216257" id="Path-6-Copy-28" stroke="#FFFFFF" stroke-width="3" transform="translate(1773.942575, 230.210526) rotate(59.000000) translate(-1773.942575, -230.210526) "></path>
                            <path d="M1572.97738,118.415322 L1575.14989,126.165463 C1576.29546,130.252166 1579.59067,133.380988 1583.7312,134.31347 C1587.80549,135.231036 1590.93519,138.497644 1591.67758,142.607469 L1593.8126,154.426783" id="Path-6-Copy-16" stroke="#FFFFFF" stroke-width="3" transform="translate(1583.394993, 136.421053) rotate(59.000000) translate(-1583.394993, -136.421053) "></path>
                            <path d="M1651.64746,125.99305 L1653.82149,133.736968 C1654.96999,137.82795 1658.26972,140.959436 1662.41515,141.892467 C1666.49424,142.810564 1669.62816,146.080164 1670.37266,150.194475 L1672.51018,162.00695" id="Path-6-Copy-32" stroke="#FFFFFF" stroke-width="3" transform="translate(1662.078820, 144.000000) rotate(-34.000000) translate(-1662.078820, -144.000000) "></path>
                            <path d="M1436.45202,78.6270273 L1438.62575,86.3691261 C1439.77435,90.4600721 1443.07419,93.5914483 1447.21966,94.5243074 C1451.29876,95.4422328 1454.43277,98.7117452 1455.17733,102.826029 L1457.31457,114.636131" id="Path-6-Copy-22" stroke="#FFFFFF" stroke-width="3" transform="translate(1446.883292, 96.631579) rotate(-24.000000) translate(-1446.883292, -96.631579) "></path>
                            <path d="M443.903292,232.092576 L446.077482,239.84365 C447.224565,243.933048 450.522249,247.063773 454.665678,247.997034 C458.742831,248.915367 461.874874,252.184018 462.618415,256.29664 L464.755649,268.11795" id="Path-6-Copy-9" stroke="#FFFFFF" stroke-width="3" transform="translate(454.329470, 250.105263) rotate(112.000000) translate(-454.329470, -250.105263) "></path>
                            <path d="M6.63714985,247.636958 L8.01283326,252.504481 C8.74768943,255.104592 10.8490462,257.092425 13.4859233,257.681891 C16.0803401,258.261865 18.0757562,260.338205 18.5521871,262.953618 L19.9067919,270.389849" id="Path-6-Copy-41" stroke="#FFFFFF" stroke-width="3" transform="translate(13.271971, 259.013403) rotate(112.000000) translate(-13.271971, -259.013403) "></path>
                            <path d="M72.9970042,111.767775 L74.3726877,116.635298 C75.1075438,119.23541 77.2089006,121.223242 79.8457777,121.812708 C82.4401944,122.392682 84.4356106,124.469023 84.9120415,127.084435 L86.2666463,134.520666" id="Path-6-Copy-42" stroke="#FFFFFF" stroke-width="3" transform="translate(79.631825, 123.144221) rotate(112.000000) translate(-79.631825, -123.144221) "></path>
                            <path d="M225.86377,194.197839 L228.03796,201.948913 C229.185044,206.038311 232.482727,209.169036 236.626156,210.102297 C240.703309,211.02063 243.835352,214.289281 244.578894,218.401903 L246.716127,230.223213" id="Path-6-Copy-35" stroke="#FFFFFF" stroke-width="3" transform="translate(236.289949, 212.210526) rotate(112.000000) translate(-236.289949, -212.210526) "></path>
                            <path d="M578.52611,292.726614 L580.699294,300.479488 C581.844957,304.566664 585.140404,307.695939 589.281339,308.628787 C593.356052,309.546717 596.485994,312.813767 597.228493,316.924068 L599.364239,328.74707" id="Path-6-Copy-10" stroke="#FFFFFF" stroke-width="3" stroke-dasharray="3.779999899864197,3.779999899864197" transform="translate(588.945175, 310.736842) rotate(79.000000) translate(-588.945175, -310.736842) "></path>
                            <path d="M264.284825,291.511172 L265.371417,295.387609 C265.944248,297.431197 267.591971,298.995834 269.662439,299.462258 C271.699796,299.921223 273.264767,301.554748 273.636016,303.609899 L274.703889,309.5214" id="Path-6-Copy-38" stroke="#FFFFFF" stroke-width="3" stroke-dasharray="3.779999899864197,3.779999899864197" transform="translate(269.494357, 300.516286) rotate(79.000000) translate(-269.494357, -300.516286) "></path>
                            <path d="M344.247581,372.037488 L345.334172,375.913925 C345.907004,377.957513 347.554727,379.52215 349.625195,379.988574 C351.662551,380.447539 353.227522,382.081064 353.598772,384.136215 L354.666645,390.047716" id="Path-6-Copy-39" stroke="#FFFFFF" stroke-width="3" stroke-dasharray="3.779999899864197,3.779999899864197" transform="translate(349.457113, 381.042602) rotate(79.000000) translate(-349.457113, -381.042602) "></path>
                            <path d="M439.047373,52.7743296 L440.133964,56.6507666 C440.706796,58.6943546 442.354519,60.258992 444.424987,60.7254161 C446.462343,61.184381 448.027314,62.8179062 448.398564,64.8730568 L449.466437,70.7845577" id="Path-6-Copy-40" stroke="#FFFFFF" stroke-width="3" stroke-dasharray="3.779999899864197,3.779999899864197" transform="translate(444.256905, 61.779444) rotate(79.000000) translate(-444.256905, -61.779444) "></path>
                            <path d="M495.102293,42.6213509 L497.275477,50.3742249 C498.42114,54.4614009 501.716587,57.5906757 505.857522,58.5235238 C509.932235,59.4414537 513.062177,62.708504 513.804676,66.8188053 L515.940422,78.641807" id="Path-6-Copy-37" stroke="#FFFFFF" stroke-width="3" stroke-dasharray="3.779999899864197,3.779999899864197" transform="translate(505.521358, 60.631579) rotate(79.000000) translate(-505.521358, -60.631579) "></path>
                            <path d="M104.52715,132.621351 L106.700334,140.374225 C107.845997,144.461401 111.141444,147.590676 115.282379,148.523524 C119.357092,149.441454 122.487034,152.708504 123.229533,156.818805 L125.365279,168.641807" id="Path-6-Copy-36" stroke="#FFFFFF" stroke-width="3" stroke-dasharray="3.779999899864197,3.779999899864197" transform="translate(114.946215, 150.631579) rotate(79.000000) translate(-114.946215, -150.631579) "></path>
                            <path d="M803.201617,369.463456 L805.374801,377.21633 C806.520464,381.303506 809.815911,384.432781 813.956846,385.365629 C818.031559,386.283559 821.161501,389.550609 821.904,393.660911 L824.039746,405.483912" id="Path-6-Copy-17" stroke="#FFFFFF" stroke-width="3" stroke-dasharray="3.779999899864197,3.779999899864197" transform="translate(813.620682, 387.473684) rotate(79.000000) translate(-813.620682, -387.473684) "></path>
                            <ellipse id="Oval" stroke="#FFFFFF" stroke-width="3" cx="578.043199" cy="241.105263" rx="4.26599064" ry="4.26315789"></ellipse>
                            <ellipse id="Oval-Copy-18" stroke="#FFFFFF" stroke-width="3" cx="1134.51798" cy="389.842105" rx="4.26599064" ry="4.26315789"></ellipse>
                            <ellipse id="Oval-Copy-16" stroke="#FFFFFF" stroke-width="3" cx="1316.53358" cy="219.315789" rx="4.26599064" ry="4.26315789"></ellipse>
                            <ellipse id="Oval-Copy-15" stroke="#FFFFFF" stroke-width="3" cx="1421.76135" cy="378.473684" rx="4.26599064" ry="4.26315789"></ellipse>
                            <ellipse id="Oval-Copy-9" stroke="#FFFFFF" stroke-width="3" cx="68.0203179" cy="212.684211" rx="4.26599064" ry="4.26315789"></ellipse>
                            <ellipse id="Oval-Copy-7" stroke="#FFFFFF" stroke-width="3" cx="1026.44621" cy="50.6842105" rx="9.00598024" ry="9"></ellipse>
                            <ellipse id="Oval-Copy-6" stroke="#FFFFFF" stroke-width="3" cx="730.670864" cy="81" rx="4.26599064" ry="4.26315789"></ellipse>
                            <ellipse id="Oval-Copy-13" stroke="#FFFFFF" stroke-width="3" cx="1781.05256" cy="194.684211" rx="4.26599064" ry="4.26315789"></ellipse>
                            <ellipse id="Oval-Copy-3" stroke="#FFFFFF" stroke-width="3" cx="578.517198" cy="89.0526316" rx="7.58398336" ry="7.57894737"></ellipse>
                            <ellipse id="Oval-Copy-12" stroke="#FFFFFF" stroke-width="3" cx="1752.13862" cy="148.736842" rx="7.58398336" ry="7.57894737"></ellipse>
                            <ellipse id="Oval-Copy-8" stroke="#FFFFFF" stroke-width="3" cx="256.197905" cy="255.789474" rx="7.58398336" ry="7.57894737"></ellipse>
                            <ellipse id="Oval-Copy-11" stroke="#FFFFFF" stroke-width="3" cx="1560.64304" cy="253.894737" rx="7.58398336" ry="7.57894737"></ellipse>
                            <ellipse id="Oval-Copy-17" stroke="#FFFFFF" stroke-width="3" cx="1278.13966" cy="126" rx="7.58398336" ry="7.57894737"></ellipse>
                            <ellipse id="Oval-Copy-10" stroke="#FFFFFF" stroke-width="3" cx="17.3024292" cy="332.526316" rx="7.58398336" ry="7.57894737"></ellipse>
                        </g>
                        <g id="Group-37-Copy">
                            <polygon id="K" stroke="#FFFFFF" stroke-width="3" fill="url(#linearGradient-3)" stroke-linejoin="round" transform="translate(1294.217757, 249.134800) rotate(59.000000) translate(-1294.217757, -249.134800) " points="1307.48325 266.196187 1299.54217 266.196002 1290.9015 251.81875 1287.94619 254.012582 1287.94638 266.195732 1280.95282 266.195569 1280.95227 232.073412 1287.94583 232.073576 1287.94608 247.687613 1290.69833 243.673306 1299.63185 232.073848 1307.39246 232.074029 1295.88716 247.174332"></polygon>
                            <polygon id="K-Copy" stroke="#FFFFFF" stroke-width="3" fill="url(#linearGradient-4)" stroke-linejoin="round" transform="translate(1742.685840, 83.765614) rotate(-330.000000) translate(-1742.685840, -83.765614) " points="1773.96222 123.092297 1755.2394 123.091935 1734.86705 89.9521913 1727.89928 95.0090348 1727.89982 123.091405 1711.41098 123.091085 1711.40946 44.4389303 1727.89831 44.4392499 1727.899 80.4298734 1734.38798 71.1768045 1755.45064 44.439784 1773.74794 44.4401387 1746.6218 79.2466882"></polygon>
                            <polygon id="K-Copy-2" stroke="#FFFFFF" stroke-width="3" fill="url(#linearGradient-5)" stroke-linejoin="round" transform="translate(200.075382, 248.658654) rotate(-381.000000) translate(-200.075382, -248.658654) " points="231.361898 287.983592 212.632555 287.983872 192.254249 254.845392 185.283878 259.902388 185.283458 287.984279 168.788866 287.984525 168.790044 209.333712 185.284636 209.333466 185.284096 245.323476 191.775655 236.070342 212.846566 209.333055 231.150242 209.332782 204.013457 244.139669"></polygon>
                            <g id="Group-52" transform="translate(1443.075028, 157.210381)" stroke="#FFFFFF" stroke-width="3">
                                <path d="M50.2500315,3.78417646 C50.2500315,3.78417646 33.1874233,20.0494086 33.1879306,42.2548313 C33.1883602,61.0655433 42.4310911,76.7661322 42.4310911,76.7661322 L50.2516986,76.7661322 L58.072306,76.7661322 C58.072306,76.7661322 67.3152206,61.0662293 67.314791,42.2555173 C67.3142837,20.0500946 50.2500315,3.78417646 50.2500315,3.78417646 Z" id="Stroke-1" transform="translate(50.251361, 40.275154) rotate(37.000000) translate(-50.251361, -40.275154) "></path>
                                <path d="M67.7906854,9.47459917 C67.7906854,9.47459917 61.7063904,15.2735496 56.8894011,24.6370831 L78.6926752,24.6375124 C73.8761303,15.2737892 67.7906854,9.47459917 67.7906854,9.47459917 Z" id="Stroke-3" transform="translate(67.791038, 17.056056) rotate(37.000000) translate(-67.791038, -17.056056) "></path>
                                <path d="M27.4941891,51.453424 C27.4941891,51.453424 17.2447211,51.8435042 19.245796,61.6012249 C19.245796,61.6012249 10.8402984,51.7133288 15.7763581,45.3386561 C20.7124178,38.9639834 23.113271,35.0607629 23.113271,35.0607629" id="Stroke-23" transform="translate(20.858572, 48.330994) rotate(37.000000) translate(-20.858572, -48.330994) "></path>
                                <path d="M44.5628761,74.1973122 C44.5628761,74.1973122 54.8138532,74.5876741 52.8122885,84.3446264 C52.8122885,84.3446264 61.2176928,74.4577018 56.2810062,68.0833423 C51.3443196,61.7089828 48.9431165,57.8059729 48.9431165,57.8059729" id="Stroke-25" transform="translate(51.198817, 71.075300) rotate(37.000000) translate(-51.198817, -71.075300) "></path>
                                <path d="M65.4213482,41.7162214 C65.4213482,51.3020757 62.9873407,60.0673788 60.6164137,66.3372093 L36.0925042,66.3372093 C33.7224784,60.0673788 31.2884709,51.3020757 31.2884709,41.7162214 C31.2884709,32.9909669 33.9621844,25.1966198 37.1910066,18.9534884 L59.5179113,18.9534884 C62.7467335,25.1966198 65.4213482,32.9909669 65.4213482,41.7162214 Z M57.2177247,32.4989031 C57.2177247,27.6645924 53.249959,23.7460596 48.3549095,23.7460596 C43.45986,23.7460596 39.4911933,27.6645924 39.4911933,32.4989031 C39.4911933,37.3332138 43.45986,41.2517466 48.3549095,41.2517466 C53.249959,41.2517466 57.2177247,37.3332138 57.2177247,32.4989031 Z M50.1233273,58.7746991 C50.1233273,57.8099729 49.331216,57.0285802 48.3543688,57.0285802 C47.3775217,57.0285802 46.5863116,57.8099729 46.5863116,58.7746991 C46.5863116,59.7394253 47.3775217,60.5217079 48.3543688,60.5217079 C49.331216,60.5217079 50.1233273,59.7394253 50.1233273,58.7746991 Z" id="Combined-Shape" fill="url(#linearGradient-6)" transform="translate(48.354910, 42.645349) rotate(37.000000) translate(-48.354910, -42.645349) "></path>
                                <path d="M31.2893337,70.1273674 L39.1506373,70.1274651 C39.1506373,70.1274651 41.3531393,66.4932682 43.6126312,60.6540764 L18.9654518,60.6537701 C21.2253038,66.4930181 23.42803,70.1272697 23.42803,70.1272697 L31.2893337,70.1273674 Z" id="Stroke-7" transform="translate(31.289041, 65.390618) rotate(37.000000) translate(-31.289041, -65.390618) "></path>
                                <path d="M6.63695435,78.6581453 L6.63695435,78.6581453 C6.11596657,78.6581453 5.69029045,78.194238 5.69029045,77.6284826 L5.69029045,66.417946 C5.69029045,65.8521906 6.11595461,65.3883664 6.63694239,65.3883664 C7.15793016,65.3883664 7.58360628,65.8522736 7.58360628,66.418029 L7.58360628,77.6285656 C7.58360628,78.194321 7.15794212,78.6581453 6.63695435,78.6581453 Z" id="Stroke-17" transform="translate(6.636948, 72.023256) rotate(37.000000) translate(-6.636948, -72.023256) "></path>
                                <path d="M32.2366123,97.6116336 L32.2366123,97.6116336 C31.7156246,97.6116336 31.2899484,97.1477264 31.2899484,96.581971 L31.2899484,85.3714344 C31.2899484,84.805679 31.7156126,84.3418547 32.2366004,84.3418547 C32.7575881,84.3418547 33.1832643,84.805762 33.1832643,85.3715174 L33.1832643,96.582054 C33.1832643,97.1478094 32.7576001,97.6116336 32.2366123,97.6116336 Z" id="Stroke-19" transform="translate(32.236606, 90.976744) rotate(37.000000) translate(-32.236606, -90.976744) "></path>
                                <path d="M26.0049713,67.2843558 L21.8072448,67.3222247 L17.6104083,67.2843558 C17.6104083,67.2843558 15.1716079,68.852629 15.1716079,74.6817127 C15.1716079,80.5089978 21.8076454,88.1358844 21.8076454,88.1358844 C21.8076454,88.1358844 28.4431651,80.5093125 28.4431651,74.6820274 C28.4431651,68.8529437 26.0049713,67.2843558 26.0049713,67.2843558 Z" id="Stroke-21" transform="translate(21.807386, 77.710120) rotate(37.000000) translate(-21.807386, -77.710120) "></path>
                                <path d="M5.68881878,92.8732615 L5.68881878,92.8732615 C5.16783095,92.8732615 4.74215478,92.4093542 4.74215478,91.8435988 L4.74215478,80.633956 C4.74215478,80.0673069 5.16781899,79.6034826 5.68880682,79.6034826 C6.20979465,79.6034826 6.63547082,80.0673899 6.63547082,80.634039 L6.63547082,91.8436818 C6.63547082,92.4094372 6.20980661,92.8732615 5.68881878,92.8732615 Z" id="Stroke-27" transform="translate(5.688813, 86.238372) rotate(37.000000) translate(-5.688813, -86.238372) "></path>
                                <path d="M18.01458,102.350006 L18.01458,102.350006 C17.4935922,102.350006 17.067916,101.886098 17.067916,101.320343 L17.067916,90.1107002 C17.067916,89.5440511 17.4935802,89.0802268 18.0145681,89.0802268 C18.5347342,89.0802268 18.9612321,89.544134 18.9612321,90.1107832 L18.9612321,101.320426 C18.9612321,101.886181 18.5347461,102.350006 18.01458,102.350006 Z" id="Stroke-29" transform="translate(18.014574, 95.715116) rotate(37.000000) translate(-18.014574, -95.715116) "></path>
                                <path d="M6.63695437,105.193029 L6.63695437,105.193029 C6.11678834,105.193029 5.69029028,104.729153 5.69029028,104.163436 L5.69029028,92.9536541 C5.69029028,92.3870431 6.11677617,91.92325 6.6369422,91.92325 C7.15792997,91.92325 7.58360629,92.387126 7.58360629,92.953737 L7.58360629,104.163519 C7.58360629,104.729236 7.15794214,105.193029 6.63695437,105.193029 Z" id="Stroke-31" transform="translate(6.636948, 98.558139) rotate(37.000000) translate(-6.636948, -98.558139) "></path>
                            </g>
                            <g id="Group-42" transform="translate(365.044986, 28.326660)" stroke="#FFFFFF" stroke-width="3">
                                <g id="Group-46">
                                    <path d="M39.6519681,15.8756262 C35.5706136,11.1381464 30.4118139,8.52906977 25.125531,8.52906977 C19.8392481,8.52906977 14.6803299,11.1381464 10.5992124,15.8756262 C6.93075627,20.1339135 4.74067741,25.500597 4.74067741,30.2314704 C4.74067741,32.5295901 5.47145406,34.2800611 6.91262903,35.4344744 C8.33508436,36.5739663 10.2130903,36.9593023 12.3082677,36.9593023 C14.5376815,36.9593023 17.0131756,36.5228236 19.4454249,36.0938625 C21.5708144,35.7190057 23.5783176,35.3649932 25.1256495,35.3649932 C26.4611414,35.3649932 28.3441235,35.7010089 30.3372908,36.0567299 C34.995518,36.8882264 40.275403,37.8304373 43.3254003,35.3924439 C44.7753427,34.2334745 45.5105031,32.4970136 45.5105031,30.2314704 C45.5105031,25.500597 43.3205427,20.1339135 39.6519681,15.8756262 Z" id="Combined-Shape" fill="url(#linearGradient-7)" transform="translate(25.125590, 22.744186) rotate(-209.000000) translate(-25.125590, -22.744186) "></path>
                                    <path d="M38.6246697,42.3037529 C37.1194075,40.1108999 34.9639462,38.8534056 32.7108856,38.8534056 C30.4577056,38.8534056 28.302315,40.1111808 26.7969676,42.3039714 C25.4141596,44.3184547 24.6524444,46.9638974 24.6524444,49.7530558 C24.6524444,52.5422142 25.4138292,55.1876289 26.7966785,57.202061 C28.3019407,59.394796 30.457402,60.6524084 32.7104626,60.6524084 C34.9636426,60.6524084 37.1190332,59.3946331 38.6243806,57.2018426 C40.0071886,55.1873593 40.7689038,52.5419165 40.7689038,49.7527581 C40.7689038,46.9635997 40.007519,44.3180671 38.6246697,42.3037529 Z" id="Path" transform="translate(32.710674, 49.752907) rotate(-209.000000) translate(-32.710674, -49.752907) "></path>
                                    <path d="M53.7948374,33.7746645 C52.2895752,31.5818234 50.1342333,30.3243358 47.8810533,30.3243358 C45.6278732,30.3243358 43.4723631,31.5821043 41.9671352,33.774883 C40.5843272,35.7893553 39.822612,38.4347838 39.822612,41.2239271 C39.822612,44.0130704 40.5839968,46.6584707 41.9668461,48.672892 C43.4721083,50.8657331 45.6274502,52.1233386 47.8806302,52.1233386 C50.1338102,52.1233386 52.2892009,50.8655702 53.7945483,48.6726735 C55.1773563,46.6582011 55.9390715,44.0128907 55.9390715,41.2236294 C55.9390715,38.4344861 55.1775673,35.7889678 53.7948374,33.7746645 Z" id="Path" transform="translate(47.880842, 41.223837) rotate(-209.000000) translate(-47.880842, -41.223837) "></path>
                                    <path d="M21.4363433,41.3833517 C20.8061773,39.3823498 19.4554006,37.9283943 17.633059,37.289493 C16.1665534,36.7753853 14.511146,36.8626072 12.9716986,37.5351738 C10.8501833,38.4618777 9.11612171,40.3754195 8.21440894,42.7850256 C7.47753472,44.7541113 7.38560671,46.8353635 7.95574505,48.6456891 C8.58591102,50.6466911 9.93668778,52.1006465 11.7591534,52.7395478 C12.3898351,52.960657 13.055246,53.0704891 13.7314486,53.0704891 C14.6278016,53.0704891 15.543133,52.877215 16.4206378,52.4938671 C18.5421531,51.5671632 20.2762147,49.6536214 21.1779275,47.244131 L21.1779275,47.2440153 C21.9146777,45.2750453 22.0066057,43.1936774 21.4363433,41.3833517 Z" id="Path" transform="translate(14.696100, 45.014535) rotate(-209.000000) translate(-14.696100, -45.014535) "></path>
                                    <path d="M60.0519255,20.9878911 C59.1500824,18.578192 57.4159487,16.6647474 55.2944378,15.7381039 C53.7547796,15.0655811 52.0991408,14.9785597 50.6326511,15.4926614 C48.810051,16.131815 47.4591529,17.5859293 46.8289011,19.5869675 C46.2586851,21.3974307 46.3505732,23.4789162 47.0874525,25.4479622 L47.0874525,25.4480779 C47.9894197,27.8577771 49.7234294,29.7712217 51.8449402,30.6978652 C52.7226186,31.0811881 53.6378821,31.2743754 54.5342942,31.2743754 C55.2105414,31.2743754 55.8761228,31.1643483 56.506727,30.9433076 C58.3295751,30.3041541 59.6803492,28.8500398 60.310601,26.8490016 C60.8805689,25.0386542 60.7886808,22.9571687 60.0519255,20.9878911 Z" id="Path" transform="translate(53.569655, 23.218023) rotate(-209.000000) translate(-53.569655, -23.218023) "></path>
                                </g>
                            </g>
                            <g id="Group-41" transform="translate(286.627368, 356.739232)" stroke="#FFFFFF" stroke-width="3">
                                <g id="Group-49" transform="translate(0.000000, 0.757803)">
                                    <path d="M39.6519681,31.2282885 C35.5706136,26.4908087 30.4118139,23.8817321 25.125531,23.8817321 C19.8392481,23.8817321 14.6803299,26.4908087 10.5992124,31.2282885 C6.93075627,35.4865758 4.74067741,40.8532593 4.74067741,45.5841327 C4.74067741,47.8822524 5.47145406,49.6327234 6.91262903,50.7871367 C8.33508436,51.9266287 10.2130903,52.3119647 12.3082677,52.3119647 C14.5376815,52.3119647 17.0131756,51.8754859 19.4454249,51.4465248 C21.5708144,51.071668 23.5783176,50.7176555 25.1256495,50.7176555 C26.4611414,50.7176555 28.3441235,51.0536712 30.3372908,51.4093923 C34.995518,52.2408888 40.275403,53.1830996 43.3254003,50.7451063 C44.7753427,49.5861368 45.5105031,47.849676 45.5105031,45.5841327 C45.5105031,40.8532593 43.3205427,35.4865758 39.6519681,31.2282885 Z" id="Combined-Shape" fill="url(#linearGradient-7)" transform="translate(25.125590, 38.096848) rotate(-314.000000) translate(-25.125590, -38.096848) "></path>
                                    <path d="M56.638117,18.8009793 C55.132969,16.6077644 52.9777508,15.3499196 50.7249998,15.3499196 C48.4721293,15.3499196 46.3170879,16.6076898 44.8120398,18.8007209 C43.4295068,20.8154252 42.6681256,23.4612006 42.6681256,26.2507421 C42.6681256,29.0402836 43.4296352,31.6860923 44.8123794,33.700857 C46.3175274,35.8939538 48.4727456,37.1519167 50.7254967,37.1519167 C52.9783671,37.1519167 55.1334086,35.8941465 56.6384566,33.7011154 C58.0209897,31.6864111 58.7823709,29.0406357 58.7823709,26.2510942 C58.7823709,23.4615527 58.0208613,20.8156259 56.638117,18.8009793 Z" id="Path" transform="translate(50.725248, 26.250918) rotate(-314.000000) translate(-50.725248, -26.250918) "></path>
                                    <path d="M45.2604913,6.48119322 C43.7553433,4.2879902 41.6002445,3.03015219 39.347374,3.03015219 C37.0945036,3.03015219 34.9393427,4.2879156 33.4344141,6.48093483 C32.051881,8.49562815 31.2904998,11.1413893 31.2904998,13.9309157 C31.2904998,16.7204421 32.0520094,19.3662365 33.4347537,21.3809902 C34.9399017,23.5741932 37.0950005,24.8321492 39.3478709,24.8321492 C41.6007414,24.8321492 43.7557828,23.5743858 45.2608309,21.3812486 C46.6433639,19.3665553 47.4047451,16.7209122 47.4047451,13.9312677 C47.4045621,11.1417413 46.6431161,8.49582893 45.2604913,6.48119322 Z" id="Path" transform="translate(39.347622, 13.931151) rotate(-314.000000) translate(-39.347622, -13.931151) "></path>
                                    <path d="M58.4131335,42.5205766 C57.7829575,40.5191407 56.4322273,39.0648171 54.6099803,38.4256814 C53.1435507,37.911385 51.4882452,37.9985262 49.9489068,38.6711351 C47.8275417,39.5978973 46.0936306,41.5117158 45.19203,43.9217463 C44.4552475,45.8911787 44.363375,47.9728381 44.9335224,49.7835563 C45.5636984,51.7849922 46.9144286,53.2393158 48.7367997,53.8784515 C49.3674487,54.0996418 50.0328221,54.2095751 50.708984,54.2095751 C51.6052828,54.2095751 52.5205544,54.0163698 53.3979972,53.6329978 C55.5193623,52.7062356 57.2532734,50.7924171 58.1548739,48.3825024 L58.1548739,48.3823866 C58.8915325,46.4130699 58.983405,44.3312948 58.4131335,42.5205766 Z" id="Path" transform="translate(51.673384, 46.152081) rotate(-314.000000) translate(-51.673384, -46.152081) "></path>
                                    <path d="M26.6991772,8.66833648 C25.7974697,6.2583997 24.063662,4.34470616 21.9425839,3.41786635 C20.4032398,2.74520113 18.7479539,2.65807509 17.2817911,3.17212945 C15.4595972,3.81122408 14.1090238,5.26536969 13.4789552,7.26652367 C12.9089049,9.07709156 13.0008232,11.1587417 13.7375918,13.1279819 L13.7375918,13.1280977 C14.6394233,15.5380344 16.3731071,17.451728 18.4941851,18.3785678 C19.3716844,18.7619719 20.2867563,18.9552811 21.1829761,18.9552811 C21.8590784,18.9552811 22.5245143,18.8453249 23.154978,18.6243047 C24.9774198,17.9852101 26.3278692,16.5310644 26.9579379,14.5299105 C27.5277401,12.7194584 27.4358218,10.6378082 26.6991772,8.66833648 Z" id="Path" transform="translate(20.218350, 10.898256) rotate(-314.000000) translate(-20.218350, -10.898256) "></path>
                                </g>
                            </g>
                            <g id="Group-43" transform="translate(1317.711791, 296.419715)" stroke="#FFFFFF" stroke-width="3">
                                <g id="Group-53" transform="translate(0.751531, 0.000000)">
                                    <path d="M38.3666159,24.5858483 C35.2344137,20.9537804 31.2753348,18.9534884 27.21842,18.9534884 C23.1615053,18.9534884 19.2023354,20.9537804 16.070315,24.5858483 C13.2549882,27.8505352 11.57423,31.9649926 11.57423,35.5919955 C11.57423,37.3538873 12.1350586,38.695915 13.2410766,39.5809652 C14.3327284,40.4545757 15.7739888,40.75 17.3819156,40.75 C19.0928611,40.75 20.9926589,40.4153663 22.8592688,40.0864961 C24.4903817,39.7991059 26.0310237,39.5276963 27.2185109,39.5276963 C28.2434234,39.5276963 29.6885026,39.7853084 31.2181426,40.0580278 C34.7930612,40.6955085 38.845066,41.4178701 41.1857616,39.5487419 C42.2985081,38.6601987 42.8627009,37.328912 42.8627009,35.5919955 C42.8627009,31.9649926 41.1820336,27.8505352 38.3666159,24.5858483 Z" id="Combined-Shape" fill="url(#linearGradient-8)" transform="translate(27.218465, 29.851744) rotate(-401.000000) translate(-27.218465, -29.851744) "></path>
                                    <path d="M26.0517541,5.39185883 C24.9007995,3.77089468 23.2526731,2.84133714 21.5299082,2.84133714 C19.8070519,2.84133714 18.1589579,3.77106852 17.0079004,5.39197502 C15.9505422,6.8810771 15.3680627,8.83658724 15.3680627,10.898335 C15.3680627,12.9600827 15.950196,14.9155779 17.0075511,16.4046528 C18.1585057,18.0255297 19.8066321,18.9551745 21.529397,18.9551745 C23.2522532,18.9551745 24.9003473,18.0254431 26.0514048,16.4045366 C27.108763,14.9154345 27.6912425,12.9599244 27.6912425,10.8981767 C27.6912425,8.83642891 27.1091092,6.88084651 26.0517541,5.39185883 Z" id="Path" transform="translate(21.529653, 10.898256) rotate(-401.000000) translate(-21.529653, -10.898256) "></path>
                                    <path d="M15.6222639,14.8685892 C14.4713093,13.2476338 12.8232742,12.3180813 11.1004179,12.3180813 C9.37756168,12.3180813 7.72937626,13.2478076 6.57841011,14.8687054 C5.52105186,16.3577994 4.93857234,18.3132989 4.93857234,20.3750355 C4.93857234,22.4367721 5.52070565,24.3922567 6.57806075,25.8813235 C7.72901538,27.5022789 9.37705049,28.4319186 11.0999067,28.4319186 C12.822763,28.4319186 14.4708571,27.5021923 15.6219146,25.8812073 C16.6792728,24.3921133 17.2617523,22.436701 17.2617523,20.3748772 C17.2617523,18.3131406 16.6795277,16.3575688 15.6222639,14.8685892 Z" id="Path" transform="translate(11.100162, 20.375000) rotate(-401.000000) translate(-11.100162, -20.375000) "></path>
                                    <path d="M41.6174389,10.0166003 C41.1133769,8.48628095 40.0328791,7.37432553 38.5751594,6.88570073 C37.4020785,6.49251669 36.0778854,6.55921356 34.8464452,7.07356798 C33.1493951,7.78227737 31.7622669,9.24569755 31.0409455,11.0884995 C30.4514861,12.5944033 30.3779304,14.1860923 30.833977,15.5705869 C31.338039,17.1009062 32.4185369,18.2128616 33.8763558,18.7014864 C34.380848,18.8705883 34.9131219,18.9545919 35.4540294,18.9545919 C36.1710393,18.9545919 36.9032324,18.8067897 37.6051692,18.5136192 C39.3022193,17.8049098 40.6893475,16.3414896 41.4106688,14.4987762 L41.4106688,14.4986877 C42.0000291,12.9928725 42.0735847,11.4010948 41.6174389,10.0166003 Z" id="Path" transform="translate(36.225753, 12.793605) rotate(-401.000000) translate(-36.225753, -12.793605) "></path>
                                    <path d="M13.7185961,33.2086562 C12.9972099,31.3657569 11.6100455,29.90238 9.91299733,29.193689 C8.68138722,28.679348 7.35699505,28.6127873 6.18390268,29.0059558 C4.72594621,29.49476 3.64530959,30.6068338 3.14113318,32.137189 C2.68498302,33.521796 2.75846622,35.1136794 3.34789759,36.6195742 L3.34789758,36.6196628 C4.06938301,38.4625621 5.45644816,39.925939 7.15349636,40.63463 C7.85557266,40.9277928 8.58771632,41.075548 9.3047821,41.075548 C9.84573168,41.075548 10.3781504,40.9914079 10.882591,40.8223632 C12.3407459,40.333559 13.4212833,39.2214852 13.9254597,37.69113 C14.3814115,36.3066116 14.3079282,34.7147281 13.7185961,33.2086562 Z" id="Path" transform="translate(8.533219, 34.914189) rotate(-401.000000) translate(-8.533219, -34.914189) "></path>
                                </g>
                            </g>
                            <g id="Group-43-Copy" transform="translate(1826.121762, 42.541777)" stroke="#FFFFFF" stroke-width="3">
                                <g id="Group-59" transform="translate(0.082368, 0.132761)">
                                    <path d="M76.6125133,46.0837881 C70.5379392,38.9775684 62.8597256,35.0639535 54.9917697,35.0639535 C47.1238138,35.0639535 39.4454239,38.9775684 33.3712025,46.0837881 C27.9111748,52.471219 24.6515225,60.5212443 24.6515225,67.6175544 C24.6515225,71.0647339 25.7391901,73.6904405 27.8841947,75.4220604 C30.0013375,77.1312983 32.7965092,77.7093023 35.9149128,77.7093023 C39.23311,77.7093023 42.9175663,77.0545842 46.5376584,76.4111426 C49.7010288,75.8488573 52.6889405,75.3178386 54.9919461,75.3178386 C56.979655,75.3178386 59.782233,75.8218622 62.7488075,76.3554437 C69.6819829,77.6026885 77.5404165,79.0160047 82.0799473,75.3590148 C84.2380011,73.6205606 85.3321933,71.0158693 85.3321933,67.6175544 C85.3321933,60.5212443 82.0727174,52.471219 76.6125133,46.0837881 Z" id="Combined-Shape" fill="url(#linearGradient-9)" transform="translate(54.991858, 56.386628) rotate(-401.000000) translate(-54.991858, -56.386628) "></path>
                                    <path d="M48.9884296,9.8388014 C46.7739721,6.59617043 43.6038767,4.7360052 40.2908668,4.73499783 C36.9776813,4.73399123 33.8088903,6.59240428 31.5964008,9.83351526 C29.5640141,12.8110745 28.4452933,16.7217399 28.4465438,20.8452358 C28.4477965,24.9687316 29.568716,28.8800777 31.6030863,31.858873 C33.8175437,35.1013295 36.9876392,36.9616692 40.3006491,36.9626766 C43.6138346,36.9636832 46.7826256,35.1052701 48.9951151,31.8641592 C51.0275018,28.8865999 52.1462226,24.9759346 52.144972,20.8524387 C52.1437194,16.7289428 51.0227998,12.8174223 48.9884296,9.8388014 Z" id="Path" transform="translate(40.295758, 20.848837) rotate(-401.000000) translate(-40.295758, -20.848837) "></path>
                                    <path d="M29.0775845,27.8445878 C26.863127,24.6019743 23.6932073,22.7418192 20.3800217,22.7408118 C17.0668362,22.7398052 13.8978696,24.5982081 11.6855557,27.8393016 C9.65316902,30.8168448 8.53444815,34.7274889 8.53569872,38.8509625 C8.53695139,42.9744361 9.65787088,46.8857609 11.6922412,49.8645401 C13.9066987,53.1071536 17.0766184,54.9674831 20.389804,54.9684906 C23.7029895,54.9694972 26.8717805,53.1110942 29.0842699,49.8698263 C31.1166566,46.8922831 32.2353776,42.9818134 32.2341269,38.8581654 C32.2326986,34.7346918 31.1117791,30.8231925 29.0775845,27.8445878 Z" id="Path" transform="translate(20.384913, 38.854651) rotate(-401.000000) translate(-20.384913, -38.854651) "></path>
                                    <path d="M80.0207988,16.9330786 C79.0536634,13.9897252 76.9819002,11.8505935 74.1874853,10.9099895 C71.9387163,10.1531092 69.4005914,10.2805574 67.0405349,11.268978 C63.7881365,12.6308849 61.1302624,15.4444094 59.7488234,18.9879563 C58.6199198,21.8836774 58.4799367,24.9446965 59.3549459,27.6075764 C60.3220813,30.5509298 62.3938445,32.6900615 65.1884496,33.6306655 C66.1555496,33.9561871 67.1758467,34.1180891 68.2126392,34.1184041 C69.5869787,34.1188205 70.9903275,33.8350547 72.3355902,33.2716771 C75.5879886,31.9097702 78.2458626,29.0962457 79.6273017,25.5528691 L79.6273016,25.5526988 C80.7560151,22.6571479 80.8959982,19.5959585 80.0207988,16.9330786 Z" id="Path" transform="translate(69.687958, 22.270349) rotate(-401.000000) translate(-69.687958, -22.270349) "></path>
                                    <path d="M29.3738306,63.5345189 C27.9900798,59.9901779 25.3305592,57.175246 22.0776019,55.8113828 C19.7168115,54.8215426 17.1784808,54.6927263 14.930417,55.4480627 C12.1364521,56.3871298 10.0660405,58.524978 9.10071878,61.4675378 C8.22735058,64.1298537 8.36919211,67.19109 9.4998294,70.0872899 L9.49982946,70.0874602 C10.8837704,73.6318012 13.5431008,76.4467331 16.7960581,77.8105963 C18.1418209,78.3747831 19.5451179,78.6593968 20.9194237,78.6598141 C21.9561908,78.6601282 22.9765547,78.498677 23.943243,78.1739164 C26.7375882,77.2348494 28.8078097,75.0970011 29.7731314,72.1544414 C30.6461193,69.4922956 30.5042778,66.4310593 29.3738306,63.5345189 Z" id="Path" transform="translate(19.436777, 66.811046) rotate(-401.000000) translate(-19.436777, -66.811046) "></path>
                                </g>
                            </g>
                            <g id="Group" transform="translate(360.304308, 215.018521)" stroke="#FFFFFF" stroke-width="3">
                                <path d="M46.4574563,3.78533488 C46.4574563,3.78533488 29.3942857,20.0500878 29.3947681,42.2548325 C29.3951768,61.0649703 38.638185,76.7650547 38.638185,76.7650547 L46.4590419,76.7650547 L54.2798987,76.7650547 C54.2798987,76.7650547 63.5231257,61.0656216 63.5227171,42.2554839 C63.5222347,20.0507392 46.4574563,3.78533488 46.4574563,3.78533488 Z" id="Stroke-1" transform="translate(46.458743, 40.275195) rotate(33.000000) translate(-46.458743, -40.275195) "></path>
                                <path d="M62.1017854,8.52725447 C62.1017854,8.52725447 56.0172897,14.3260786 51.2001362,23.6894031 L73.0041054,23.6898107 C68.1874177,14.3263061 62.1017854,8.52725447 62.1017854,8.52725447 Z" id="Stroke-3" transform="translate(62.102121, 16.108533) rotate(33.000000) translate(-62.102121, -16.108533) "></path>
                                <path d="M24.6499969,53.3487107 C24.6499969,53.3487107 14.4001876,53.7387857 16.4013156,63.4961762 C16.4013156,63.4961762 7.99555212,53.6086196 12.9317847,47.2341578 C17.8680172,40.859696 20.2689557,36.9566051 20.2689557,36.9566051" id="Stroke-23" transform="translate(18.014160, 50.226391) rotate(33.000000) translate(-18.014160, -50.226391) "></path>
                                <path d="M42.6664088,73.2495964 C42.6664088,73.2495964 52.9176983,73.6399387 50.9160591,83.3965991 C50.9160591,83.3965991 59.3217336,73.5099654 54.3849051,67.1358015 C49.4480766,60.7616375 47.0468055,56.8587468 47.0468055,56.8587468" id="Stroke-25" transform="translate(49.302553, 70.127673) rotate(33.000000) translate(-49.302553, -70.127673) "></path>
                                <path d="M61.6288063,41.7162214 C61.6288063,51.3020757 59.1947988,60.0673788 56.8238718,66.3372093 L32.2999622,66.3372093 C29.9299364,60.0673788 27.4959289,51.3020757 27.4959289,41.7162214 C27.4959289,32.9909669 30.1696425,25.1966198 33.3984647,18.9534884 L55.7253694,18.9534884 C58.9541916,25.1966198 61.6288063,32.9909669 61.6288063,41.7162214 Z M44.561917,54.1605666 C45.7045759,54.1605666 46.6390689,53.237669 46.6390689,52.1091885 L46.6390689,46.2131449 C46.6390689,45.0855544 45.7045759,44.1626567 44.561917,44.1626567 C43.4201594,44.1626567 42.4856663,45.0855544 42.4856663,46.2131449 L42.4856663,52.1091885 C42.4856663,53.237669 43.4201594,54.1605666 44.561917,54.1605666 Z" id="Combined-Shape" fill="url(#linearGradient-6)" transform="translate(44.562368, 42.645349) rotate(33.000000) translate(-44.562368, -42.645349) "></path>
                                <path d="M29.3930905,71.0750115 L37.2546448,71.0750115 C37.2546448,71.0750115 39.4572225,67.4408344 41.7167953,61.6016753 L17.06883,61.6013844 C19.3287452,67.4405969 21.5315361,71.0748259 21.5315361,71.0748259 L29.3930905,71.0750115 Z" id="Stroke-7" transform="translate(29.392813, 66.338198) rotate(33.000000) translate(-29.392813, -66.338198) "></path>
                                <path d="M54.043175,34.1163563 C54.043175,36.2102807 52.3450266,37.9075236 50.2508907,37.9075236 C48.1567549,37.9075236 46.4591859,36.2101264 46.4591859,34.116202 C46.4591859,32.0222776 48.1565998,30.3250347 50.2507356,30.3250347 C52.3448715,30.3250347 54.043175,32.0224319 54.043175,34.1163563 Z" id="Stroke-9" transform="translate(50.251180, 34.116279) rotate(33.000000) translate(-50.251180, -34.116279) "></path>
                                <path d="M4.74068329,81.500957 L4.74068329,81.500957 C4.21964303,81.500957 3.79392421,81.0370666 3.79392421,80.4713293 L3.79392421,69.2611501 C3.79392421,68.6954127 4.21963126,68.2316011 4.74067152,68.2316011 C5.26171178,68.2316011 5.6874306,68.6954915 5.6874306,69.2612289 L5.6874306,80.4714081 C5.6874306,81.0371454 5.26172355,81.500957 4.74068329,81.500957 Z" id="Stroke-17" transform="translate(4.740677, 74.866279) rotate(33.000000) translate(-4.740677, -74.866279) "></path>
                                <path d="M31.2884768,98.5590965 L31.2884768,98.5590965 C30.7674365,98.5590965 30.3417177,98.0952061 30.3417177,97.5294688 L30.3417177,86.3192896 C30.3417177,85.7535523 30.7674247,85.2897407 31.288465,85.2897407 C31.8095052,85.2897407 32.2352241,85.7536311 32.2352241,86.3193684 L32.2352241,97.5295476 C32.2352241,98.0952849 31.809517,98.5590965 31.2884768,98.5590965 Z" id="Stroke-19" transform="translate(31.288471, 91.924419) rotate(33.000000) translate(-31.288471, -91.924419) "></path>
                                <path d="M25.0570168,69.1799522 L20.8591564,69.2178151 L16.6621861,69.1799522 C16.6621861,69.1799522 14.2233009,70.7481824 14.2233009,76.5770953 C14.2233009,82.4042097 20.8595374,90.0308648 20.8595374,90.0308648 C20.8595374,90.0308648 27.4952814,82.4045085 27.4952814,76.5773941 C27.4952814,70.7484813 25.0570168,69.1799522 25.0570168,69.1799522 Z" id="Stroke-21" transform="translate(20.859291, 79.605409) rotate(33.000000) translate(-20.859291, -79.605409) "></path>
                                <path d="M4.74068321,95.7160732 L4.74068321,95.7160732 C4.21964289,95.7160732 3.79392402,95.2521828 3.79392402,94.6864455 L3.79392402,83.47716 C3.79392402,82.910529 4.21963113,82.4467174 4.74067144,82.4467174 C5.26171175,82.4467174 5.68743062,82.9106078 5.68743062,83.4772388 L5.68743062,94.6865243 C5.68743062,95.2522616 5.26172352,95.7160732 4.74068321,95.7160732 Z" id="Stroke-27" transform="translate(4.740677, 89.081395) rotate(33.000000) translate(-4.740677, -89.081395) "></path>
                                <path d="M18.0145799,104.245143 L18.0145799,104.245143 C17.4935396,104.245143 17.0678208,103.781253 17.0678208,103.215515 L17.0678208,92.0062298 C17.0678208,91.4395987 17.4935279,90.9757871 18.0145682,90.9757871 C18.5347867,90.9757871 18.9613274,91.4396775 18.9613274,92.0063086 L18.9613274,103.215594 C18.9613274,103.781331 18.5347984,104.245143 18.0145799,104.245143 Z" id="Stroke-29" transform="translate(18.014574, 97.610465) rotate(33.000000) translate(-18.014574, -97.610465) "></path>
                                <path d="M6.63695427,107.088166 L6.63695427,107.088166 C6.11673584,107.088166 5.690195,106.624307 5.690195,106.058608 L5.690195,94.8491837 C5.690195,94.2825908 6.11672387,93.8188104 6.6369423,93.8188104 C7.15798256,93.8188104 7.58370157,94.2826695 7.58370157,94.8492624 L7.58370157,106.058687 C7.58370157,106.624386 7.15799452,107.088166 6.63695427,107.088166 Z" id="Stroke-31" transform="translate(6.636948, 100.453488) rotate(33.000000) translate(-6.636948, -100.453488) "></path>
                            </g>
                            <g id="Group-58" transform="translate(1522.718408, 310.733637)" stroke="#FFFFFF" stroke-linecap="round" stroke-linejoin="round" stroke-width="3">
                                <path d="M45.1169456,76.7699091 L44.9559251,30.3173002" id="Stroke-1" transform="translate(45.036435, 53.543605) rotate(59.000000) translate(-45.036435, -53.543605) "></path>
                                <path d="M83.4337212,8.51886818 C83.4337212,8.51886818 66.239579,20.3038088 61.6350479,43.8743172 C61.6350479,43.8743172 67.4693828,51.1794576 83.4345057,51.1794576 C99.4014967,51.1794576 105.233695,43.8752352 105.233695,43.8752352 C100.628297,20.3045329 83.4337212,8.51886818 83.4337212,8.51886818 Z" id="Stroke-2" fill="url(#linearGradient-10)" transform="translate(83.434371, 29.849163) rotate(59.000000) translate(-83.434371, -29.849163) "></path>
                                <path d="M23.7016273,51.1698762 L23.7016273,51.1698762 C23.7016273,59.0257537 17.3059774,65.3933287 9.41537575,65.3931409 L0.951453622,65.3929395 C0.951453622,65.3929395 1.31610882,53.6156183 10.4147629,52.6187925 C19.5152784,51.62382 23.7016273,51.1698762 23.7016273,51.1698762 Z" id="Stroke-4" transform="translate(12.326540, 58.281509) rotate(59.000000) translate(-12.326540, -58.281509) "></path>
                                <path d="M13.2794884,71.0754833 L13.2794884,71.0754833 C13.2794884,78.9264831 19.6756048,85.2904081 27.5620726,85.2905951 L36.0235566,85.2907958 C36.0235566,85.2907958 35.6586355,73.5207697 26.562571,72.5241309 C17.4646457,71.529344 13.2794884,71.0754833 13.2794884,71.0754833 Z" id="Stroke-6" transform="translate(24.651523, 78.183140) rotate(59.000000) translate(-24.651523, -78.183140) "></path>
                                <path d="M39.8264677,32.2221871 C39.8264677,32.2221871 47.6960599,38.8531562 62.5721642,38.8533943" id="Stroke-8" transform="translate(51.199316, 35.537791) rotate(59.000000) translate(-51.199316, -35.537791) "></path>
                                <path d="M73.9512154,52.1184651 C73.9512154,52.1184651 66.0808398,58.7596842 51.2026692,58.7594412" id="Stroke-10" transform="translate(62.576942, 55.438953) rotate(59.000000) translate(-62.576942, -55.438953) "></path>
                                <path d="M33.188096,43.594347 C37.0373847,45.0146212 42.7596685,46.4348608 50.2478263,46.4347227" id="Stroke-12" transform="translate(41.717961, 45.014535) rotate(59.000000) translate(-41.717961, -45.014535) "></path>
                                <path d="M58.7816568,57.8057998 C54.9321939,59.2295667 49.2095613,60.6533673 41.7207052,60.653502" id="Stroke-14" transform="translate(50.251181, 59.229651) rotate(59.000000) translate(-50.251181, -59.229651) "></path>
                                <path d="M26.5501989,52.1230773 C29.8734392,53.2062923 33.9904301,54.0162441 38.8711492,54.0164576" id="Stroke-16" transform="translate(32.710674, 53.069767) rotate(59.000000) translate(-32.710674, -53.069767) "></path>
                                <path d="M44.5603698,62.5448502 C41.2374133,63.6314219 37.1207764,64.4437391 32.2386054,64.4435212" id="Stroke-18" transform="translate(38.399488, 63.494186) rotate(59.000000) translate(-38.399488, -63.494186) "></path>
                                <path d="M75.8545328,24.6387578 L89.1210408,36.9600794" id="Stroke-20" transform="translate(82.487787, 30.799419) rotate(59.000000) translate(-82.487787, -30.799419) "></path>
                                <path d="M75.8518867,36.9629291 L89.123687,24.6359081" id="Stroke-22" transform="translate(82.487787, 30.799419) rotate(59.000000) translate(-82.487787, -30.799419) "></path>
                            </g>
                            <g id="Group-40" transform="translate(76.811799, 339.163870)" stroke="#FFFFFF" stroke-linecap="round" stroke-width="3">
                                <g id="Group-50" transform="translate(0.756611, 0.909869)">
                                    <path d="M86.6545843,32.5210172 L41.7267543,64.2173838" id="Stroke-1"></path>
                                    <path d="M0.000721418591,93.5815693 C0.000721418591,93.5815693 23.1622834,102.461351 49.0597484,91.0487517 C49.0597484,91.0487517 52.1057425,80.3997121 41.1568822,64.7624232 C30.2067407,49.1233045 19.1598534,48.3453761 19.1598534,48.3453761 C-0.421454214,68.7787842 0.000721418591,93.5815693 0.000721418591,93.5815693 Z" id="Stroke-2" fill="url(#linearGradient-11)"></path>
                                    <path d="M90.0849827,32.5283334 L90.0849827,32.5283334 C97.8069824,27.1211446 108.498999,29.0692995 113.96776,36.8799308 L119.833875,45.2580721 C119.833875,45.2580721 108.004391,53.0032481 100.718299,44.683055 C93.4327382,36.3597438 90.0849827,32.5283334 90.0849827,32.5283334 Z" id="Stroke-4"></path>
                                    <path d="M89.7376962,32.2965406 L89.7376962,32.2965406 C97.4545462,26.8929567 99.2768322,16.1820114 93.8110207,8.37559543 L87.9466874,3.55271368e-14 C87.9466874,3.55271368e-14 76.630568,8.46194721 81.9552967,18.1514714 C87.2831356,27.8415629 89.7376962,32.2965406 89.7376962,32.2965406 Z" id="Stroke-6"></path>
                                    <path d="M65.379121,83.2080191 C65.379121,83.2080191 66.3200182,71.3406896 56.3652692,57.1234052" id="Stroke-8"></path>
                                    <path d="M34.0336291,38.7277288 C34.0336291,38.7277288 45.5179515,41.8959536 55.4741533,56.1153244" id="Stroke-10"></path>
                                    <path d="M75.9326147,68.0317856 C74.9078999,63.2669062 72.6298148,56.7119813 67.6188916,49.5554526" id="Stroke-12"></path>
                                    <path d="M53.1345973,34.6715679 C57.2656744,37.2617513 62.6502441,41.6421568 67.6616559,48.7993923" id="Stroke-14"></path>
                                    <path d="M85.3051339,55.1230797 C83.8460761,51.1513697 81.602829,46.5361329 78.1572174,41.6153213" id="Stroke-16"></path>
                                    <path d="M68.0706639,30.3826813 C71.3067979,33.1095282 74.8786027,36.79389 78.3252474,41.7161858" id="Stroke-18"></path>
                                    <path d="M22.0321998,89.2536071 L25.7576229,68.1359567" id="Stroke-20"></path>
                                    <path d="M34.4588736,80.5565877 L13.330949,76.8329761" id="Stroke-22"></path>
                                </g>
                            </g>
                            <g id="Group-55" transform="translate(1321.713686, 42.541777)" stroke="#FFFFFF" stroke-linecap="round" stroke-linejoin="round" stroke-width="3">
                                <path d="M44.1417447,63.4979138 L44.0348551,29.3741792" id="Stroke-1" transform="translate(44.088300, 46.436047) rotate(-42.000000) translate(-44.088300, -46.436047) "></path>
                                <path d="M22.2836457,6.62880563 C22.2836457,6.62880563 9.94661708,15.0085157 6.64214803,31.7675542 C6.64214803,31.7675542 10.8279988,36.9609897 22.282838,36.9609897 C33.7390176,36.9609897 37.9238046,31.7669953 37.9238046,31.7669953 C34.6202281,15.0080749 22.2836457,6.62880563 22.2836457,6.62880563 Z" id="Stroke-2" transform="translate(22.282976, 21.794898) rotate(-42.000000) translate(-22.282976, -21.794898) "></path>
                                <path d="M60.6776551,63.4949994 L60.6776551,63.4949994 C60.6776551,69.2513509 56.1478812,73.9174153 50.5596489,73.9175967 L44.5653833,73.9177913 C44.5653833,73.9177913 44.8238747,65.2880085 51.2676864,64.557222 C57.7128163,63.8277935 60.6776551,63.4949994 60.6776551,63.4949994 Z" id="Stroke-4" transform="translate(52.621519, 68.706395) rotate(-42.000000) translate(-52.621519, -68.706395) "></path>
                                <path d="M57.8362731,52.1191952 L57.8362731,52.1191952 C57.8362731,57.8795216 62.3685991,62.5485134 67.9573508,62.5483315 L73.9535881,62.5481363 C73.9535881,62.5481363 73.695224,53.9124111 67.2493108,53.1815392 C60.8020789,52.4520262 57.8362731,52.1191952 57.8362731,52.1191952 Z" id="Stroke-6" transform="translate(65.894931, 57.333763) rotate(-42.000000) translate(-65.894931, -57.333763) "></path>
                                <path d="M22.7564327,41.6952097 C22.7564327,41.6952097 28.3320939,46.4386905 38.8723728,46.4385104" id="Stroke-8" transform="translate(30.814403, 44.066860) rotate(-42.000000) translate(-30.814403, -44.066860) "></path>
                                <path d="M51.1969881,31.2746885 C51.1969881,31.2746885 45.6219487,36.0100195 35.0833407,36.0101952" id="Stroke-10" transform="translate(43.140164, 33.642442) rotate(-42.000000) translate(-43.140164, -33.642442) "></path>
                                <path d="M33.1857393,48.3295956 C35.9663963,49.7531124 40.1000958,51.1765467 45.5095047,51.1762173" id="Stroke-12" transform="translate(39.347622, 49.752906) rotate(-42.000000) translate(-39.347622, -49.752906) "></path>
                                <path d="M54.0420367,40.7511806 C51.2617077,42.1713083 47.1284801,43.5915174 41.7196469,43.5918427" id="Stroke-14" transform="translate(47.880842, 42.171512) rotate(-42.000000) translate(-47.880842, -42.171512) "></path>
                                <path d="M41.7187752,54.0163071 C44.0199131,54.5597706 46.8706983,54.9661365 50.2503659,54.9662504" id="Stroke-16" transform="translate(45.984571, 54.491279) rotate(-42.000000) translate(-45.984571, -54.491279) "></path>
                                <path d="M55.9389498,48.3323238 C53.6382322,48.8736023 50.7880177,49.2782576 47.4078176,49.2781413" id="Stroke-18" transform="translate(51.673384, 48.805233) rotate(-42.000000) translate(-51.673384, -48.805233) "></path>
                                <path d="M18.9625954,18.0036354 L28.4441786,27.4847367" id="Stroke-20" transform="translate(23.703387, 22.744186) rotate(-42.000000) translate(-23.703387, -22.744186) "></path>
                                <path d="M18.9648881,27.482444 L28.4418859,18.0059281" id="Stroke-22" transform="translate(23.703387, 22.744186) rotate(-42.000000) translate(-23.703387, -22.744186) "></path>
                            </g>
                            <g id="Group-48" transform="translate(660.863256, 382.756893)" stroke="#FFFFFF" stroke-width="3">
                                <path d="M54.1400442,33.6659837 C64.9876043,52.413428 68.6438215,70.5706 62.3069398,74.2212809 C55.9700582,77.8722576 42.0396436,65.6335015 31.1920835,46.886353 C20.3448198,28.1389087 16.6883062,9.98144084 23.0251879,6.3310558 C29.3620695,2.68007911 43.2927805,14.9185394 54.1400442,33.6659837 Z" id="Stroke-1" transform="translate(42.666097, 40.276163) rotate(18.000000) translate(-42.666097, -40.276163) "></path>
                                <path d="M41.7177677,27.4819655 C20.2493836,27.4819655 2.84621245,33.2097983 2.84621245,40.2755859 C2.84621245,47.3419462 20.2497706,53.0703601 41.7181547,53.0703601 C63.1865388,53.0703601 80.5897099,47.3428136 80.5897099,40.2764534 C80.5897099,33.2106657 63.1861518,27.4819655 41.7177677,27.4819655 Z" id="Stroke-3" transform="translate(41.717961, 40.276163) rotate(18.000000) translate(-41.717961, -40.276163) "></path>
                                <path d="M31.1878574,33.6646323 C20.3372017,52.4146767 16.6798303,70.5745615 23.0190459,74.2259887 C29.3582615,77.8777118 43.2936144,65.6374529 54.1442702,46.8877044 C64.9952225,28.13766 68.6522973,9.97747929 62.3130817,6.32634797 C55.9738661,2.67462491 42.0388097,14.9145879 31.1878574,33.6646323 Z" id="Stroke-5" transform="translate(42.666097, 40.276163) rotate(18.000000) translate(-42.666097, -40.276163) "></path>
                                <path d="M48.3546012,39.8024122 C48.3546012,43.4663913 45.383254,46.4363545 41.7181878,46.4363545 C38.0528434,46.4363545 35.0813211,43.4662179 35.0813211,39.8022389 C35.0813211,36.1382598 38.0526684,33.1682966 41.7180127,33.1682966 C45.3830789,33.1682966 48.3546012,36.1384332 48.3546012,39.8024122 Z" id="Stroke-7" fill="url(#linearGradient-12)" stroke-linejoin="round" transform="translate(41.717961, 39.802326) rotate(18.000000) translate(-41.717961, -39.802326) "></path>
                            </g>
                            <g id="Group-45" transform="translate(151.714502, 0.844102)" stroke="#FFFFFF" stroke-width="3">
                                <path d="M93.5613988,62.146865 C112.994454,95.5336284 119.544557,127.869135 108.19237,134.370451 C96.840184,140.872294 71.8844026,119.076601 52.4513478,85.6903641 C33.0188241,52.3036007 26.4681898,19.9675672 37.8203762,13.4667778 C49.1725626,6.96493472 74.1288751,28.7601015 93.5613988,62.146865 Z" id="Stroke-1" transform="translate(73.006432, 73.918605) rotate(27.000000) translate(-73.006432, -73.918605) "></path>
                                <path d="M73.4800432,48.3290254 C34.9961086,48.3283762 3.79952948,58.9363205 3.79952948,72.0218151 C3.79952948,85.1083702 34.9970219,95.716837 73.4809565,95.7174862 C111.964891,95.7181355 143.16147,85.1107214 143.16147,72.0241663 C143.16147,58.9386717 111.963978,48.3296747 73.4800432,48.3290254 Z" id="Stroke-3" transform="translate(73.480500, 72.023256) rotate(27.000000) translate(-73.480500, -72.023256) "></path>
                                <path d="M52.4409427,62.1435678 C33.0001198,95.536747 26.4474159,127.878931 37.8053488,134.382068 C49.1632817,140.885732 74.1309807,119.086313 93.5718036,85.6936612 C113.013158,52.3004821 119.56533,19.9577715 108.207398,13.4551612 C96.8494647,6.95149716 71.8822971,28.7503888 52.4409427,62.1435678 Z" id="Stroke-5" transform="translate(73.006432, 73.918605) rotate(27.000000) translate(-73.006432, -73.918605) "></path>
                                <path d="M86.2790926,73.9188265 C86.2790926,80.7237248 80.7612343,86.2396066 73.9550492,86.2396066 C67.1483477,86.2396066 61.6300425,80.7232811 61.6300425,73.9183827 C61.6300425,67.1134844 67.1479008,61.5976026 73.9546023,61.5976026 C80.7607874,61.5976026 86.2790926,67.1139281 86.2790926,73.9188265 Z" id="Stroke-7" fill="url(#linearGradient-13)" stroke-linejoin="round" transform="translate(73.954568, 73.918605) rotate(27.000000) translate(-73.954568, -73.918605) "></path>
                            </g>
                            <g id="Group-57" transform="translate(1668.731272, 189.418279)" stroke="#FFFFFF" stroke-width="3">
                                <path d="M73.8539614,50.299116 C89.4456154,77.0085174 94.7009494,102.876921 85.5928058,108.077982 C76.4846623,113.279464 56.4619915,95.8429223 40.8703375,69.1339423 C25.2791096,42.4245409 20.0233495,16.5557156 29.1314931,11.3550766 C38.2396366,6.15359473 58.2627335,23.5897146 73.8539614,50.299116 Z" id="Stroke-1" transform="translate(57.362197, 59.716521) rotate(27.000000) translate(-57.362197, -59.716521) "></path>
                                <path d="M58.3100233,39.813415 C27.6799529,39.8127943 2.84996801,48.5112371 2.84996801,59.2413429 C2.84996801,69.9723181 27.6805706,78.6713324 58.3106409,78.6719531 C88.9407113,78.6725737 113.770696,69.9745657 113.770696,59.2435905 C113.770696,48.5134848 88.9400937,39.8140357 58.3100233,39.813415 Z" id="Stroke-3" transform="translate(58.310332, 59.242684) rotate(27.000000) translate(-58.310332, -59.242684) "></path>
                                <path d="M40.8619676,50.2965053 C25.2641151,77.0110579 20.0067318,102.884806 29.1194979,108.087309 C38.2322639,113.290232 58.2644786,95.850684 73.8623311,69.136553 C89.46061,42.4220004 94.7175669,16.5478303 85.6048009,11.3457496 C76.4920348,6.14282579 56.4602465,23.5819527 40.8619676,50.2965053 Z" id="Stroke-5" transform="translate(57.362197, 59.716521) rotate(27.000000) translate(-57.362197, -59.716521) "></path>
                                <path d="M67.3166207,59.2428632 C67.3166207,64.7391272 62.859889,69.1942625 57.3625857,69.1942625 C51.8648652,69.1942625 47.4077725,64.7387689 47.4077725,59.2425048 C47.4077725,53.7462407 51.8645042,49.2911054 57.3622247,49.2911054 C62.8595281,49.2911054 67.3166207,53.7465991 67.3166207,59.2428632 Z" id="Stroke-7" fill="url(#linearGradient-14)" transform="translate(57.362197, 59.242684) rotate(27.000000) translate(-57.362197, -59.242684) "></path>
                            </g>
                            <g id="Group-47" transform="translate(528.124288, 309.785963)" stroke="#FFFFFF" stroke-width="3">
                                <path d="M0,43.7890767 C0,54.6719838 8.91443785,63.494186 19.9108451,63.494186 L19.9108451,63.494186 C30.9072524,63.494186 39.8216902,54.6719838 39.8216902,43.7890767 C39.8216902,32.8418075 34.2909069,24.0839674 38.0017369,16.4209038 C38.0017369,16.4209038 32.0784933,17.5156803 28.7601235,26.2733964 C28.7601235,26.2733964 17.6985568,15.3261272 22.3201154,0 C22.3201154,0 11.061692,4.37885807 12.2390729,18.6103328 C13.2487936,30.8138419 11.061692,32.8418075 11.061692,32.8418075 C11.061692,22.9893149 3.27827164,18.6103328 3.27827164,18.6103328 C5.53078334,30.6523785 0,33.9365841 0,43.7890767 Z" id="Path" fill-rule="nonzero" transform="translate(19.910845, 31.747093) rotate(-360.000000) translate(-19.910845, -31.747093) "></path>
                                <path d="M13.807256,41.6247192 C12.6812916,48.1856088 10.4294903,50.5741908 10.4294903,54.7463745 C10.4294903,59.1203422 14.4623255,63.494186 19.4368231,63.494186 L19.4368231,63.494186 C24.4472883,63.494186 28.4579308,59.518336 28.4440644,54.6522335 C28.4064027,41.5829751 20.5627875,35.0639535 20.5627875,35.0639535 C21.688752,41.6248431 18.3109862,44.905164 18.3109862,44.905164 C16.9039133,42.8556138 13.807256,41.6247192 13.807256,41.6247192 Z" id="Path" fill="url(#linearGradient-15)" transform="translate(19.436777, 49.279070) rotate(-360.000000) translate(-19.436777, -49.279070) "></path>
                            </g>
                            <g id="Group-56" transform="translate(1825.545145, 387.433175) rotate(48.000000) translate(-1825.545145, -387.433175) translate(1793.545145, 335.433175)" stroke="#FFFFFF" stroke-width="3">
                                <path d="M0,71.2389457 C0,88.9439736 14.2206509,103.296512 31.7625386,103.296512 L31.7625386,103.296512 C49.3044264,103.296512 63.5250772,88.9439736 63.5250772,71.2389457 C63.5250772,53.4292093 54.7021609,39.1813798 60.6218184,26.7146046 C60.6218184,26.7146046 51.1728345,28.495659 45.8792447,42.7432867 C45.8792447,42.7432867 28.2334121,24.9335503 35.6058983,0 C35.6058983,0 17.6460325,7.12381387 19.5242354,30.2765116 C21.1349803,50.1299816 17.6460325,53.4292093 17.6460325,53.4292093 C17.6460325,37.4005272 5.22962381,30.2765116 5.22962381,30.2765116 C8.82291629,49.8673023 0,55.2102636 0,71.2389457 Z" id="Path" fill-rule="nonzero" transform="translate(31.762539, 51.648256) rotate(-360.000000) translate(-31.762539, -51.648256) "></path>
                                <path d="M23.3478885,67.5763825 C21.5700499,78.2925021 18.0145741,82.1938527 18.0145741,89.0084195 C18.0145741,96.1525667 24.3822087,103.296512 32.2366786,103.296512 L32.2366786,103.296512 C40.1479394,103.296512 46.4805328,96.8026232 46.4586386,88.8546557 C46.3991727,67.5082004 34.0145172,56.8604651 34.0145172,56.8604651 C35.7923558,67.5765848 30.4590414,72.9344423 30.4590414,72.9344423 C28.2373473,69.5868435 23.3478885,67.5763825 23.3478885,67.5763825 Z" id="Path" fill="url(#linearGradient-16)" transform="translate(32.236606, 80.078488) rotate(-360.000000) translate(-32.236606, -80.078488) "></path>
                            </g>
                            <path d="M1217.41878,360.0127 C1217.41878,364.723212 1221.4515,368.541777 1226.42607,368.541777 L1226.42607,368.541777 C1231.40064,368.541777 1235.43336,364.723212 1235.43336,360.0127 C1235.43336,355.274329 1232.93134,351.483622 1234.61005,348.166774 C1234.61005,348.166774 1231.93048,348.640632 1230.42932,352.431286 C1230.42932,352.431286 1225.42527,347.692915 1227.51598,341.059219 C1227.51598,341.059219 1222.42288,342.954545 1222.95551,349.114437 C1223.41228,354.396553 1222.42288,355.274329 1222.42288,355.274329 C1222.42288,351.009818 1218.90181,349.114437 1218.90181,349.114437 C1219.9208,354.326666 1217.41878,355.748188 1217.41878,360.0127 Z" id="Path" stroke="#FFFFFF" stroke-width="3" fill-rule="nonzero" transform="translate(1226.426070, 354.800498) rotate(-360.000000) translate(-1226.426070, -354.800498) "></path>
                            <path d="M528.12747,31.1708872 C528.128322,35.8833118 532.160098,39.7041561 537.132644,39.7050551 L537.132644,39.7050551 C542.10519,39.7059538 546.135585,35.8865669 546.134734,31.1741422 C546.133877,26.4338481 543.632186,22.6411499 545.309614,19.323258 C545.309614,19.323258 542.631225,19.7968248 541.131352,23.5887459 C541.131352,23.5887459 536.128484,18.8475476 538.217142,12.211535 C538.217142,12.211535 533.126455,14.1067109 533.659977,20.2692003 C534.117525,25.5535434 533.128682,26.4314972 533.128682,26.4314972 C533.127911,22.1652539 529.607926,20.2684678 529.607926,20.2684678 C530.627448,25.482997 528.1267,26.9046439 528.12747,31.1708872 Z" id="Path-Copy" stroke="#FFFFFF" stroke-width="3" fill-rule="nonzero" transform="translate(537.131102, 25.958295) rotate(-246.000000) translate(-537.131102, -25.958295) "></path>
                            <g id="Group-51" transform="translate(1534.096034, 43.489451)" stroke="#FFFFFF" stroke-width="3">
                                <path d="M21.8137125,54.8424664 C21.8137125,68.004001 32.4218682,78.6729077 45.5081508,78.6729077 L45.5081508,78.6729077 C58.5944334,78.6729077 69.2035444,68.003082 69.2035444,54.8415474 C69.2035444,41.6021747 62.6221093,31.0107742 67.0383712,21.7431577 C67.0383712,21.7431577 59.9893841,23.0672916 56.0401434,33.6587464 C56.0401434,33.6587464 42.8765832,20.419629 48.3768439,1.88446059 C48.3768439,1.88446059 34.9786426,7.18040951 36.3794407,24.3915968 C37.5807637,39.1502135 34.9779526,41.6028385 34.9779526,41.6028385 C34.9781915,29.687463 25.7156325,24.3918036 25.7156325,24.3918036 C28.3959438,38.9551216 21.8137125,42.927091 21.8137125,54.8424664 Z" id="Path" fill-rule="nonzero" transform="translate(45.508628, 40.278684) rotate(-239.000000) translate(-45.508628, -40.278684) "></path>
                                <path d="M21.1572436,20.4093783 C19.794544,28.5039849 17.0694775,31.4509765 17.0694775,36.5984625 C17.0694775,41.994902 21.9493437,47.3909988 27.9689464,47.3909988 L27.9689464,47.3909988 C34.0320733,47.3909988 38.8854301,42.4855519 38.8687822,36.4819349 C38.8235641,20.3575682 29.3322407,12.3148059 29.3322407,12.3148059 C30.6945835,20.409365 26.607085,24.4565748 26.607085,24.4565748 C24.9044522,21.9279452 21.1572436,20.4093783 21.1572436,20.4093783 Z" id="Path" fill="url(#linearGradient-17)" transform="translate(27.969130, 29.852902) rotate(-239.000000) translate(-27.969130, -29.852902) "></path>
                            </g>
                            <g id="Group-54" transform="translate(1211.729970, 102.245265)" stroke="#FFFFFF" stroke-width="3">
                                <path d="M5.67636893,2.82527694 C8.48049239,4.13372658 11.0249752,5.89035173 13.238155,8.04584362 L14.2209632,9.00384001 L13.2382145,9.96182334 C11.0251687,12.1172858 8.48079494,13.8738771 5.67675279,15.18317 L3.68516623,16.1120899 C2.56450456,11.4330769 2.56435364,6.57444817 3.68472464,1.89545002 L5.67636893,2.82527694 Z" id="Fill-1" transform="translate(8.532761, 9.003770) rotate(28.000000) translate(-8.532761, -9.003770) "></path>
                                <path d="M32.0514148,16.5830058 C32.0513662,13.5712108 33.2064037,10.8412612 35.0786189,8.84334135 C32.5428764,8.01223095 29.8729124,7.5790316 27.1379431,7.5790316 C20.1086,7.5790316 13.4996562,10.4284714 8.52852549,15.6028922 L7.58719887,16.5824936 L8.52855708,17.5621346 C13.4998547,22.7367635 20.1088903,25.5867742 27.1382334,25.5867742 C29.8732027,25.5867742 32.5431528,25.1538012 35.0786189,24.3227969 L35.0786189,24.3218966 C33.2065888,22.3247987 32.0514633,19.5948007 32.0514148,16.5830058" id="Fill-3" fill="url(#linearGradient-18)" transform="translate(21.332909, 16.582903) rotate(28.000000) translate(-21.332909, -16.582903) "></path>
                                <path d="M44.362474,24.4572196 C41.2153466,21.359389 37.4332987,19.1145072 33.3070423,17.8345985 C31.3662709,19.7918778 30.1694504,22.4662803 30.1694504,25.4167789 C30.1694504,28.3672775 31.3665939,31.041701 33.3074776,32.9981323 L33.3074777,32.9990144 C37.4336605,31.7182961 41.2155796,29.4734806 44.3625291,26.3765873 L45.3379912,25.416912 L44.362474,24.4572196 Z" id="Fill-5" stroke-linejoin="round" transform="translate(37.753721, 25.416806) rotate(28.000000) translate(-37.753721, -25.416806) "></path>
                            </g>
                            <g id="Group-44" transform="translate(29.405025, 67.181312)" stroke="#FFFFFF" stroke-width="3">
                                <path d="M7.33260941,4.08289217 C10.8377395,5.82754341 14.0183105,8.16975722 16.7847453,11.0437872 L18.0132379,12.3211339 L16.7847843,13.5984269 C14.018437,16.472336 10.8379373,18.8144108 7.33286043,20.560083 L4.84336004,21.7986061 C3.44261959,15.5599014 3.4425209,9.08172977 4.84307127,2.84308621 L7.33260941,4.08289217 Z" id="Fill-1" transform="translate(10.902985, 12.320846) rotate(28.000000) translate(-10.902985, -12.320846) "></path>
                                <path d="M42.4888325,22.2686624 C42.4887772,18.3057743 44.0022827,14.7137386 46.4554937,12.084902 C43.1328408,10.9913285 39.6342672,10.421314 36.050513,10.421314 C26.8396463,10.421314 18.17964,14.1705383 11.6657278,20.9789726 L10.4322622,22.2679193 L11.6657638,23.5569231 C18.1798659,30.3656595 26.8399767,34.1157123 36.0508434,34.1157123 C39.6345976,34.1157123 43.1331553,33.5460261 46.4554937,32.4526067 L46.4554937,32.451422 C44.0024934,29.8236563 42.4888878,26.2315505 42.4888325,22.2686624" id="Fill-3" fill="url(#linearGradient-19)" transform="translate(28.443878, 22.268513) rotate(28.000000) translate(-28.443878, -22.268513) "></path>
                                <path d="M58.1725107,32.017359 C54.0419505,27.7577969 49.0780449,24.6710302 43.6623518,22.9110968 C41.1150613,25.6023281 39.5441533,29.2796144 39.5441533,33.33655 C39.5441533,37.3934855 41.1153234,41.070835 43.6627051,43.7609558 L43.6627051,43.7621687 C49.0783386,42.00124 54.0421396,38.9146728 58.1725554,34.6564896 L59.4528632,33.33695 L58.1725107,32.017359 Z" id="Fill-5" stroke-linejoin="round" transform="translate(49.498508, 33.336633) rotate(28.000000) translate(-49.498508, -33.336633) "></path>
                            </g>
                            <g id="Group-39" transform="translate(460.639953, 134.859599)" stroke="#FFFFFF" stroke-width="3">
                                <path d="M58.7843998,29.3783023 C58.7843998,45.603132 45.6253188,58.755814 29.3925954,58.755814 C13.159872,58.755814 0,45.603132 0,29.3783023 C0,13.1534725 13.159872,0 29.3925954,0 C45.6253188,0 58.7843998,13.1534725 58.7843998,29.3783023 Z" id="Stroke-1" fill="url(#linearGradient-20)"></path>
                                <path d="M51.199316,10.4244186 C41.5164261,11.5915408 32.2403927,16.7527772 25.003056,25.0252182 C17.9739298,33.0588533 13.5110158,43.2930351 12.3257613,54.0174419" id="Stroke-3"></path>
                                <path d="M46.4586386,4.73837209 C36.3706611,6.13767127 26.7474758,11.3039862 19.1844721,19.425894 C11.934508,27.2116288 7.21269576,37.0357329 5.68881289,47.3837209" id="Stroke-5"></path>
                                <path d="M57.8362643,19.9011628 C49.43715,21.1261501 42.2310189,24.3573104 34.623961,31.6023931 C27.6974236,38.2002978 22.9383023,48.5582988 21.8071161,56.8604651" id="Stroke-9"></path>
                                <path d="M23.703387,15.1627907 C18.2517921,13.3069128 12.5065635,12.0244803 6.63694837,11.372093" id="Stroke-11"></path>
                                <path d="M51.199316,52.122093 C49.6090217,43.5084682 45.6744752,35.3180977 39.8216902,28.4302326" id="Stroke-13"></path>
                                <path d="M51.199316,51.1744186 L53.105799,58.110931 C54.0790976,61.6521623 56.917895,64.373204 60.4971607,65.1956924 C64.038366,66.0094348 66.7809252,68.8117062 67.5182173,72.3696147 L69.2138901,80.5523256" id="Path-6"></path>
                                <path d="M33.1847418,8.52906977 C27.4767971,6.26900375 21.4043184,4.6667645 15.1701677,3.79069767" id="Stroke-15"></path>
                                <path d="M56.8881289,38.8546512 C55.4631543,33.0795779 52.5423539,27.5716606 48.3549095,22.744186" id="Stroke-17"></path>
                                <path d="M17.0664387,21.7965116 C11.6317603,19.9684886 6.0863349,18.6739585 0.948135481,18.005814" id="Stroke-19"></path>
                                <path d="M43.6142321,55.9127907 C42.0602035,48.0280887 38.3671277,41.2179628 32.2366064,34.1162791" id="Stroke-21"></path>
                            </g>
                            <g id="Group-39-Copy-2" transform="translate(54.159307, 199.393984) rotate(99.000000) translate(-54.159307, -199.393984) translate(13.159307, 151.893984)" stroke="#FFFFFF" stroke-width="3">
                                <path d="M70.0072558,34.7555428 C70.0072558,53.8589713 54.5134991,69.3451936 35.4007764,69.3451936 C16.2880536,69.3451936 0.793365669,53.8589713 0.793365669,34.7555428 C0.793365669,15.6521142 16.2880536,0.164961072 35.4007764,0.164961072 C54.5134991,0.164961072 70.0072558,15.6521142 70.0072558,34.7555428 Z" id="Stroke-1" fill="url(#linearGradient-21)"></path>
                                <path d="M61.0158419,12.0732701 C49.6797757,13.4433701 38.8200292,19.5022128 30.3470497,29.2133393 C22.1178288,38.6441283 16.8929539,50.6581678 15.5053388,63.2476887" id="Stroke-3"></path>
                                <path d="M53.1823666,5.40641721 C41.9213685,7.05448068 31.1792082,13.1392516 22.7367855,22.7050542 C14.6438023,31.8749195 9.3729421,43.445531 7.67186355,55.6331614" id="Stroke-5"></path>
                                <path d="M69.4308501,23.4217936 C59.4845305,24.8666504 50.9509542,28.6777625 41.9425961,37.2232447 C33.7401176,45.0053887 28.1043161,57.222518 26.7647534,67.0148168" id="Stroke-9"></path>
                                <path d="M28.8338757,17.6715882 C22.4736816,15.3517408 15.7709149,13.7487002 8.9230306,12.9332161" id="Stroke-11"></path>
                                <path d="M61.3408792,61.2719906 C59.4855359,51.2801858 54.8952316,41.779356 48.0669824,33.7894324" id="Stroke-13"></path>
                                <path d="M61.0231363,60.4436973 L63.23535,68.5161782 C64.3594087,72.6179258 67.6447204,75.7713355 71.7890617,76.7264669 C75.8894469,77.6714678 79.0635367,80.9186288 79.9149837,85.0394568 L81.8821169,94.5599764" id="Path-6"></path>
                                <path d="M40.049636,10.2082683 C33.4404369,7.49618906 26.4091457,5.57350197 19.1906554,4.52222178" id="Stroke-15"></path>
                                <path d="M68.1941595,45.6227686 C66.4525239,38.8285648 62.8826568,32.348662 57.7646692,26.6692802" id="Stroke-17"></path>
                                <path d="M21.0440547,26.0258809 C14.6503155,23.7408521 8.1262856,22.1226895 2.0813451,21.2875088" id="Stroke-19"></path>
                                <path d="M52.5695398,65.5508334 C50.7565064,56.2948789 46.4479181,48.3003833 39.2956431,39.9636241" id="Stroke-21"></path>
                            </g>
                        </g>
                    </g>
                </g>
            </g>
        </g>
    </g>
</svg>