<?xml version="1.0" encoding="UTF-8"?>
<svg width="1306px" height="833px" viewBox="0 0 1306 833" version="1.1" xmlns="http://www.w3.org/2000/svg" xmlns:xlink="http://www.w3.org/1999/xlink">
    <!-- Generator: Sketch 54.1 (76490) - https://sketchapp.com -->
    <title>placeholder 1</title>
    <desc>Created with Sketch.</desc>
    <defs>
        <rect id="path-1" x="0.5" y="0" width="1305" height="833"></rect>
        <linearGradient x1="-2.22044605e-14%" y1="50%" x2="100%" y2="50%" id="linearGradient-3">
            <stop stop-color="#505050" offset="0%"></stop>
            <stop stop-color="#6C6C6C" offset="100%"></stop>
        </linearGradient>
        <linearGradient x1="-2.22044605e-14%" y1="50%" x2="100%" y2="50%" id="linearGradient-4">
            <stop stop-color="#505050" offset="0%"></stop>
            <stop stop-color="#6C6C6C" offset="100%"></stop>
        </linearGradient>
        <linearGradient x1="-2.22044605e-14%" y1="50%" x2="100%" y2="50%" id="linearGradient-5">
            <stop stop-color="#222222" offset="0%"></stop>
            <stop stop-color="#1F1F1F" offset="100%"></stop>
        </linearGradient>
        <linearGradient x1="100%" y1="50%" x2="-2.22044605e-14%" y2="50%" id="linearGradient-6">
            <stop stop-color="#393939" offset="0%"></stop>
            <stop stop-color="#303030" offset="100%"></stop>
        </linearGradient>
        <linearGradient x1="100%" y1="50%" x2="-2.22044605e-14%" y2="50%" id="linearGradient-7">
            <stop stop-color="#565656" offset="0%"></stop>
            <stop stop-color="#7A7A7A" offset="100%"></stop>
        </linearGradient>
        <linearGradient x1="-2.22044605e-14%" y1="50%" x2="100%" y2="50%" id="linearGradient-8">
            <stop stop-color="#3F3F3F" offset="0%"></stop>
            <stop stop-color="#000000" offset="100%"></stop>
        </linearGradient>
    </defs>
    <g id="Illustrations-Dark-V2" stroke="none" stroke-width="1" fill="none" fill-rule="evenodd">
        <g id="placeholder-1">
            <mask id="mask-2" fill="white">
                <use xlink:href="#path-1"></use>
            </mask>
            <use id="Shape" fill="#000000" xlink:href="#path-1"></use>
            <circle id="Shape" fill="url(#linearGradient-3)" opacity="0.345354353" mask="url(#mask-2)" cx="434" cy="489" r="359"></circle>
            <circle id="Shape" fill="url(#linearGradient-3)" opacity="0.400000006" mask="url(#mask-2)" cx="434" cy="489" r="199"></circle>
            <ellipse id="Shape" fill="url(#linearGradient-4)" mask="url(#mask-2)" cx="434" cy="489" rx="90" ry="90.0540541"></ellipse>
            <path d="M-47.721811,832.516216 C279.456218,832.516216 458.30879,389 797.806265,389 C1137.30374,389 1350.26387,832.516216 1647.7802,832.516216 C1945.29653,832.516216 -254.793721,832.516216 -47.721811,832.516216 Z" id="Shape" fill="url(#linearGradient-5)" mask="url(#mask-2)"></path>
            <path d="M-638.274807,837.018919 C-336.101317,837.018919 -170.91753,447.535135 142.633895,447.535135 C456.18532,447.535135 652.87,837.018919 927.648684,837.018919 C1202.42737,837.018919 -829.521273,837.018919 -638.274807,837.018919 Z" id="Shape" fill="url(#linearGradient-6)" mask="url(#mask-2)"></path>
            <path d="M490.957482,832.516216 C786.773886,832.516216 948.482558,443.032432 1255.43753,443.032432 C1562.3925,443.032432 1754.93935,832.516216 2023.93728,832.516216 C2292.93521,832.516216 303.734434,832.516216 490.957482,832.516216 Z" id="Shape" fill="url(#linearGradient-7)" opacity="0.800000012" mask="url(#mask-2)"></path>
            <path d="M-641.291017,933.827027 C-410.740696,933.827027 -284.709869,582.616216 -45.4784866,582.616216 C193.752895,582.616216 343.818065,933.827027 553.466878,933.827027 C763.115692,933.827027 -787.206974,933.827027 -641.291017,933.827027 Z" id="Shape" fill="url(#linearGradient-8)" mask="url(#mask-2)"></path>
        </g>
    </g>
</svg>