<svg xmlns="http://www.w3.org/2000/svg" viewBox="0 0 444 444"><defs><style>.cls-1{fill:#fff;}</style></defs><title>Asset 13100</title><g id="Layer_2" data-name="Layer 2"><g id="Layer_1-2" data-name="Layer 1"><path class="cls-1" d="M222,0C99.39,0,0,99.39,0,222S99.39,444,222,444s222-99.39,222-222S344.61,0,222,0ZM323.62,204.95c-6,37.52-39.17,51.8-71.12,55.08,11,6.94,14.18,15.65,14.18,39.19s-.31,26.72-.24,32.14c.12,8.89,13.15,13.13,12.66,16s-10.9,2.4-15.77.69c-13.79-4.79-12.41-16.28-12.41-16.28l-2.07-31.48s-1.19-16.94-6.94-16.94v51.55c0,11.19,9.47,14.6,9.47,18.73,0,7.13-13.53-.67-17.94-5.12-6.73-6.76-5.56-21.07-5.4-32.4.15-10.93.1-34.87.1-34.87l-4.46.1s1.92,52.26-2.36,61.8c-5.53,12.21-22.21,16.43-22.21,10.85,0-3.74,4.13-2.55,6.4-10.95,1.94-7.14,1.29-60.43,1.29-60.43s-5.35,3.18-5.35,13.16c0,4.57-.12,30.66-.12,38.42,0,9.77-13.87,15.32-20.54,15.32-3.37,0-7.57-.17-7.57-2,0-4.51,12.69-7.15,12.69-16.55,0-8.17-.17-29.11-.17-29.11A103.17,103.17,0,0,1,170.19,303c-23,0-30.28-14.67-33.74-22.89-4.5-10.7-10.35-15.71-16.55-19.73-3.82-2.48-4.69-5.38-.29-6.21,20.37-3.84,25.57,23.09,39.17,27.39,9.71,3.05,22.19,1.73,28.39-2.29.82-8.23,6.75-15.33,11.69-19.08C166,257,132.63,238.82,124.62,196.65a131.38,131.38,0,0,1-.89-15.21c0-22.25,6.94-30.64,16.25-42.51-7.12-25.38,2.56-42.74,2.56-42.74s15-3.09,43.27,17.17c15.34-6.58,56.24-7.13,75.59-1.47,11.87-7.84,33.59-19,42.36-15.87,2.38,3.81,7.48,14.95,3.1,39.42,3,5.36,18.44,16.79,18.5,49.1A149.45,149.45,0,0,1,323.62,204.95Z"/></g></g></svg>