<svg xmlns="http://www.w3.org/2000/svg" viewBox="0 0 444 444"><defs><style>.cls-1{fill:#fff;}</style></defs><title>Asset 12100</title><g id="Layer_2" data-name="Layer 2"><g id="Layer_1-2" data-name="Layer 1"><path class="cls-1" d="M222,0C99.39,0,0,99.39,0,222S99.39,444,222,444s222-99.39,222-222S344.61,0,222,0ZM338,172.16l.18,7.14c0,72.85-55.44,156.85-156.85,156.85a155.84,155.84,0,0,1-84.51-24.8,117.18,117.18,0,0,0,13.15.76,110.61,110.61,0,0,0,68.47-23.56A55.16,55.16,0,0,1,127,250.25a52.91,52.91,0,0,0,10.38,1,55.85,55.85,0,0,0,14.53-1.93,55.19,55.19,0,0,1-44.22-54.06v-.69a55.14,55.14,0,0,0,25,6.92,55.2,55.2,0,0,1-17.06-73.59,156.52,156.52,0,0,0,113.63,57.6,55.16,55.16,0,0,1,93.94-50.26,111.14,111.14,0,0,0,35-13.38A55.36,55.36,0,0,1,334,152.36a110.1,110.1,0,0,0,31.66-8.68A110.09,110.09,0,0,1,338,172.16Z"/></g></g></svg>