<svg width="70" height="71" viewBox="0 0 70 71" xmlns="http://www.w3.org/2000/svg" xmlns:xlink="http://www.w3.org/1999/xlink">
  <g fill="none" fill-rule="evenodd">
    <path d="M-5 75h80V-5H-5z"/>
    <path fill="#F2F6FF" d="M3 67.5h64v-64H3z"/>
    <path fill="#FFF" d="M61 37.5l-4-27L45.5 16 35 14.5 24.5 16 13 10.5l-4 27 6 12 13 3-3 6v9h20v-9l-3-6 13-3zM9 37.5l13-1-13 1z"/>
    <path d="M9 37.5l13-1" stroke="#4065F5" stroke-width="3"/>
    <path d="M13 45.5l9-3" fill="#FFF"/>
    <path d="M13 45.5l9-3" stroke="#4065F5" stroke-width="3"/>
    <path d="M0 59.182h3v-2.773H0v2.773zm0-5.546h3v-2.773H0v2.773zm0-11.091h3v-2.773H0v2.773zm0 5.546h3v-2.773H0v2.773zm0 16.636h3v-2.773H0v2.773zM0 70.5h3v-3H0v3zm16.863 0h2.773v-3h-2.773v3zm-5.545 0h2.773v-3h-2.773v3zm-5.546 0h2.773v-3H5.772v3zM43.5 58.854l-3.694-7.387 14.168-3.27.911-1.821-7.359-2.453.948-2.846 7.766 2.589 2.421-4.841-10.776-.829.23-2.992 11.126.856-3.427-23.13-10.077 4.819L35 16.015l-10.737 1.534-10.077-4.819-3.427 23.13 11.126-.856.23 2.992-10.776.829 2.421 4.841 7.766-2.589.948 2.846-7.359 2.453.911 1.821 14.168 3.27-3.694 7.387V67.5h17v-8.646zM67 34h3v36.5H22.409v-3H23.5v-3H18l-7-7-5-3v-3l7 3 6 5 4.5-.9v-.454l2.306-4.613-11.832-2.73-6.527-13.055L11.814 8.27l12.923 6.181L35 12.985l10.263 1.466L58.186 8.27l4.367 29.478-6.527 13.055-11.832 2.73 2.306 4.613V67.5H67V34zm0-8.318h3v-2.773h-3v2.773zm0-11.091h3v-2.773h-3v2.773zm0-5.545h3V6.273h-3v2.773zm0 22.182h3v-2.773h-3v2.773zm0-11.091h3v-2.773h-3v2.773zM67 3.5h3v-3h-3v3zm-5.545 0h2.773v-3h-2.773v3zm-5.546 0h2.773v-3h-2.773v3zm-5.545 0h2.773v-3h-2.773v3zm-11.091 0h2.773v-3h-2.773v3zm5.545 0h2.773v-3h-2.773v3zM35 3.5H3V37H0V.5h36.5v3H35z" fill="#36F"/>
  </g>
</svg>
