<svg xmlns="http://www.w3.org/2000/svg" xmlns:xlink="http://www.w3.org/1999/xlink" viewBox="0 0 360 231"><defs><style>.cls-1{opacity:0.43;fill:url(#linear-gradient);}.cls-2{fill:#fff;}.cls-3{mask:url(#mask);}.cls-4{fill:url(#linear-gradient-2);}.cls-5,.cls-6{fill-rule:evenodd;}.cls-5{fill:url(#linear-gradient-3);}.cls-6{fill:url(#linear-gradient-4);}.cls-7{filter:url(#luminosity-invert-noclip);}</style><linearGradient id="linear-gradient" x1="39.77" y1="102.67" x2="39.77" y2="102.67" gradientUnits="userSpaceOnUse"><stop offset="0" stop-color="#fff"/><stop offset="1" stop-color="#c0d7ff"/></linearGradient><filter id="luminosity-invert-noclip" x="39.77" y="39.6" width="269.45" height="201.4" filterUnits="userSpaceOnUse" color-interpolation-filters="sRGB"><feColorMatrix values="-1 0 0 0 1 0 -1 0 0 1 0 0 -1 0 1 0 0 0 1 0" result="invert"/><feFlood flood-color="#fff" result="bg"/><feBlend in="invert" in2="bg"/></filter><mask id="mask" x="39.77" y="39.6" width="269.45" height="201.4" maskUnits="userSpaceOnUse"><g class="cls-7"><path class="cls-1" d="M39.77,102.67"/><polygon class="cls-2" points="49.23 108.89 179.23 181.71 309.23 108.89 309.23 241 49.23 241 49.23 108.89"/></g></mask><linearGradient id="linear-gradient-2" x1="179.23" y1="231" x2="179.23" y2="39.6" gradientUnits="userSpaceOnUse"><stop offset="0.25" stop-color="#fff"/><stop offset="1" stop-color="#c0d7ff"/></linearGradient><linearGradient id="linear-gradient-3" x1="192.82" y1="112.82" x2="135.67" y2="13.83" gradientUnits="userSpaceOnUse"><stop offset="0" stop-color="#73adff"/><stop offset="1" stop-color="#006aff"/></linearGradient><linearGradient id="linear-gradient-4" x1="221.45" y1="97.1" x2="169.14" y2="6.5" gradientUnits="userSpaceOnUse"><stop offset="0" stop-color="#7396ff"/><stop offset="1" stop-color="#36f"/></linearGradient></defs><title>6</title><g id="Layer_2" data-name="Layer 2"><g id="Layer_12" data-name="Layer 12"><rect class="cls-2" width="360" height="231"/><g class="cls-3"><rect class="cls-4" x="49.23" y="39.6" width="260" height="191.4" rx="40" ry="40"/></g><polygon class="cls-5" points="178.77 0.93 178.77 120.93 131.73 94.58 123.77 20.7 178.77 0.93"/><polyline class="cls-6" points="178.77 120.93 225.82 94.58 233.77 20.7 178.77 0.93"/><rect class="cls-2" x="156.89" y="59.82" width="20" height="8" transform="translate(66.84 -84.22) rotate(35.02)"/><rect class="cls-2" x="166.69" y="53.12" width="44" height="8" transform="translate(33.64 178.87) rotate(-54.98)"/></g></g></svg>