<svg xmlns="http://www.w3.org/2000/svg" xmlns:xlink="http://www.w3.org/1999/xlink" viewBox="0 0 360 232"><defs><style>.cls-1{fill:#fff;}.cls-2{mask:url(#mask);}.cls-3{fill:url(#linear-gradient);}.cls-4{fill:url(#linear-gradient-2);}.cls-5{fill:url(#linear-gradient-3);}.cls-6{fill:url(#linear-gradient-4);}.cls-7{fill:url(#linear-gradient-5);}.cls-8{filter:url(#luminosity-invert-noclip);}</style><filter id="luminosity-invert-noclip" x="23.55" y="39" width="314.45" height="232.06" filterUnits="userSpaceOnUse" color-interpolation-filters="sRGB"><feColorMatrix values="-1 0 0 0 1 0 -1 0 0 1 0 0 -1 0 1 0 0 0 1 0" result="invert"/><feFlood flood-color="#fff" result="bg"/><feBlend in="invert" in2="bg"/></filter><mask id="mask" x="23.55" y="39" width="314.45" height="232.06" maskUnits="userSpaceOnUse"><g class="cls-8"><path class="cls-1" d="M180.77,223V91.84l-20.58,5.75c-5.42,11.36,10.5,21.48,11.07,26.58,1.3,11.55-18,11.93-5.47,33.27,4.73,9.61-1.68,18.72-17.15,10.49,0,0-15.87-1.18-15.87,20.94C132.77,223,163.44,223,180.77,223Z"/><ellipse class="cls-1" cx="138.79" cy="183.11" rx="27" ry="27.08"/><ellipse class="cls-1" cx="106.07" cy="175.28" rx="20.46" ry="20.52"/><ellipse class="cls-1" cx="106.07" cy="226.88" rx="44.04" ry="44.18"/><ellipse class="cls-1" cx="64.81" cy="138.11" rx="41.26" ry="41.39"/><ellipse class="cls-1" cx="65.81" cy="194.15" rx="32.63" ry="32.73"/><ellipse class="cls-1" cx="222.76" cy="183.11" rx="27" ry="27.08"/><ellipse class="cls-1" cx="255.48" cy="175.28" rx="20.46" ry="20.52"/><ellipse class="cls-1" cx="255.48" cy="226.88" rx="44.04" ry="44.18"/><ellipse class="cls-1" cx="296.74" cy="138.11" rx="41.26" ry="41.39"/><path class="cls-1" d="M212.91,167.93c-15.47,8.23-21.89-.88-17.15-10.49,12.5-21.34-6.77-21.72-5.47-33.27.57-5.1,16.48-15.22,11.07-26.58l-20.59-5.75-20.58,5.75c-5.42,11.36,10.5,21.48,11.07,26.58,1.3,11.55-18,11.93-5.47,33.27,4.73,9.61-1.68,18.72-17.15,10.49,0,0-15.87-1.18-15.87,20.94,0,34.11,30.67,34.11,48,34.11s48,0,48-34.11C228.77,166.75,212.91,167.93,212.91,167.93Z"/><ellipse class="cls-1" cx="295.74" cy="194.15" rx="32.63" ry="32.73"/><ellipse class="cls-1" cx="180.77" cy="226.88" rx="44.04" ry="44.18"/></g></mask><linearGradient id="linear-gradient" x1="180" y1="231" x2="180" y2="39" gradientUnits="userSpaceOnUse"><stop offset="0.25" stop-color="#fff"/><stop offset="1" stop-color="#c0d7ff"/></linearGradient><linearGradient id="linear-gradient-2" x1="180.52" y1="91.84" x2="135.09" y2="37.69" gradientUnits="userSpaceOnUse"><stop offset="0" stop-color="#73adff"/><stop offset="1" stop-color="#006aff"/></linearGradient><linearGradient id="linear-gradient-3" x1="241.33" y1="54.67" x2="180" y2="54.67" gradientUnits="userSpaceOnUse"><stop offset="0" stop-color="#7396ff"/><stop offset="1" stop-color="#36f"/></linearGradient><linearGradient id="linear-gradient-4" x1="149.33" y1="109.33" x2="149.33" y2="92.27" gradientUnits="userSpaceOnUse"><stop offset="0" stop-color="#8c96ff"/><stop offset="1" stop-color="#4757ff"/></linearGradient><linearGradient id="linear-gradient-5" x1="210.67" y1="109.33" x2="210.67" y2="92.27" xlink:href="#linear-gradient-4"/></defs><title>1</title><g id="Layer_2" data-name="Layer 2"><g id="Layer_8" data-name="Layer 8"><rect class="cls-1" width="360" height="232"/><g class="cls-2"><rect class="cls-3" x="50" y="39" width="260" height="192" rx="40" ry="40"/></g><polygon class="cls-4" points="180 92.27 180 0 118.67 109.33 180 92.27"/><polyline class="cls-5" points="241.33 109.33 180 92.27 180 0"/><polygon class="cls-6" points="180 92.27 180 98 118.67 109.33 180 92.27"/><polygon class="cls-7" points="180 92.27 180 98 241.33 109.33 180 92.27"/></g></g></svg>