<svg width="70" height="69" viewBox="0 0 70 69" xmlns="http://www.w3.org/2000/svg" xmlns:xlink="http://www.w3.org/1999/xlink">
  <g fill="none" fill-rule="evenodd">
    <path d="M-5 76h80V-4H-5z"/>
    <path d="M63 39.226c0-15.464-12.536-28-28-28s-28 12.536-28 28 12.536 28 28 28 28-12.536 28-28" fill="#FFF"/>
    <path d="M16 33L2 42l14 9 15-9-15-9zm37 0l-14 9 14 9 15-9-15-9zm-4-22l-15 9-14-9 14-9 15 9z" fill="#FFF"/>
    <path d="M54 51l-14-9v15l14 9V51zM34 20l-14-9v15l14 9V20zM16 66L2 57V42l14 9v15z" fill="#A6C1FF"/>
    <path fill="#D4DEFF" d="M30 57l-14 9V51l14-9z"/>
    <path d="M62.168 32.452a27.994 27.994 0 0 0-7.718-13.368" stroke="#4065F5" stroke-width="3"/>
    <path d="M30 42l-14 9v15l14-9V42zm18-31l-14 9v15l14-9V11zm20 46l-14 9V51l14-9v15z" fill="#D9E4FF"/>
    <path d="M7.832 32.452a27.994 27.994 0 0 1 7.717-13.368" stroke="#4065F5" stroke-width="3"/>
    <path d="M35.275 65.724a26.532 26.532 0 0 1-7.315-.95l-.797 2.892a29.479 29.479 0 0 0 7.834 1.06c.103 0 .206 0 .31-.002a29.47 29.47 0 0 0 8.118-1.227l-.857-2.875a26.464 26.464 0 0 1-7.293 1.102zM12.05 25.975a26.534 26.534 0 0 1 4.541-5.812l-2.084-2.158a29.482 29.482 0 0 0-8.13 14.083l2.91.727a26.48 26.48 0 0 1 2.763-6.84zm48.662 6.84l2.912-.727a29.52 29.52 0 0 0-8.132-14.083l-2.084 2.158a26.504 26.504 0 0 1 7.304 12.652zm-37.118 26.21v-.002l2.293-1.449v.001l2.293-1.45.57-.36V44.564l-11 6.953V62.72l1.26-.797 2.116-1.338 2.468-1.56zm1.604 2.534l-2.294 1.45-1.328.84-3.257 2.06-2.069 1.307-2.07-1.308.57-.902V51.517l-11-6.953V55.765l.57.36-1.604 2.536L.75 57.418V41.015l1.454-.919 2.805-1.774 2.292-1.449 2.294-1.45 1.328-.839 3.257-2.059 2.07-1.309 2.07 1.31-1.604 2.535-.466-.295-.467.295-2.293 1.45-2.116 1.337-2.469 1.561-2.293 1.45-1.555.982 11.193 7.076 12.912-8.163.621-.982 1.967 1.243v16.403l-1.455.92-2.805 1.772-2.292 1.45zM5.01 60.11l2.293 1.45 1.602-2.537-2.293-1.449L5.01 60.11zm4.585 2.9l2.293 1.448 1.603-2.536-2.292-1.449-1.604 2.536zM27.49 38.321l-2.293-1.449-1.602 2.536 2.293 1.45 1.602-2.537zm-8.48-1.812l2.291 1.45 1.604-2.537-2.293-1.449-1.603 2.536zm23.5 23.6l2.292 1.45 1.602-2.537-2.293-1.449-1.602 2.536zm4.584 2.9l2.293 1.448 1.603-2.536-2.292-1.449-1.604 2.536zm11.707-25.05l1.604-2.537-2.293-1.449-1.603 2.536 2.292 1.45zm2.294 1.45l2.293 1.448 1.602-2.536-2.293-1.449-1.602 2.536zm5.155 6.281v-1.127l-11 6.953V62.72l1.26-.797 2.116-1.338 2.468-1.56 2.293-1.45v.001l2.293-1.45.57-.36V45.691zm3-4.676v16.403l-1.455.92-2.805 1.772-2.292 1.45-2.294 1.45-1.328.84-3.257 2.058-2.069 1.308-2.07-1.308.57-.902V51.517l-11-6.953V55.765l.57.36-1.604 2.536-1.966-1.243V41.015l1.454-.919 2.805-1.774 2.292-1.449 2.294-1.45 1.328-.839 3.257-2.059 2.07-1.309 2.07 1.31-1.604 2.535-.466-.295-.467.295-2.293 1.45-2.116 1.337-2.469 1.561-2.293 1.45-1.555.982 11.193 7.076 12.912-8.163.621-.982 1.967 1.243zm-39.363-7.563l1.603-2.536-2.293-1.449-1.602 2.536 2.292 1.45zm-2.983-5.434l-2.292-1.448-1.603 2.536 2.293 1.45 1.602-2.538zM46.75 14.694v-1.126l-11 6.95V31.71l11-6.95V14.694zM20.716 27.657l-1.966-1.243V10.02l4.26-2.69 2.292-1.45 2.292-1.448.55-.347L33.11.945l1.14-.72 2.068 1.308-1.603 2.536-.466-.295-.467.295-10.725 6.777 11.192 7.07 12.912-8.158.621-.982 1.967 1.243v16.395l-4.26 2.692-2.293 1.45-2.292 1.447-.549.346-4.968 3.14-1.138.72-2.07-1.309.57-.9V20.516l-11-6.949v11.193l.57.36-1.604 2.536zM45.49 7.328L43.197 5.88l-1.602 2.536 2.292 1.45 1.603-2.537zm-6.188-.362L37.01 5.517l1.603-2.536 2.292 1.45-1.602 2.535z" fill="#36F"/>
  </g>
</svg>
