<svg width="76" height="80" viewBox="0 0 76 80" xmlns="http://www.w3.org/2000/svg" xmlns:xlink="http://www.w3.org/1999/xlink">
  <g fill="none" fill-rule="evenodd">
    <path fill="#D9E4FF" d="M37.474 1.677l-36 18 8 42 28 16 28-16 8-42z"/>
    <path fill="#FFF" d="M37.474 8.677l-29 14.447 6.444 33.711 22.556 12.842L60.03 56.835l6.444-33.71z"/>
    <path d="M37.473 0L34.12 1.678l1.342 2.683 2.011-1.006 1.571.786 2.684 1.342.196.098 5.17 2.585 2.684 1.342v-.001l4.06 2.03 1.307.653 2.682 1.342.84.419 4.527 2.264 2.683 1.342v-.001l2.913 1.457 2.454 1.227.543.272-.077.406-.507 2.66-.866 4.552-.257 1.343-1.118 5.868-.004.026-.562 2.948-.327 1.722-.795 4.17-.09.476-1.188 6.235-.406 2.132-.969 5.08-.154.814-.338 1.774-2.44 1.395 1.487 2.605 2.606-1.49-.958-1.674 2.123.405.65-3.41.38-1.991 1.052-5.53.07-.364.561-2.947.351-1.843.771-4.051.08-.42 1.262-6.621.343-1.8 1.09-5.721.032-.173 1.571-8.245-2.574-1.287-2.683-1.342-3.305-1.651-2.062-1.032-2.684-1.341-.829-.414-4.537-2.27-2.683-1.341-4.562-2.281-.805-.402-2.683-1.342-.266-.133-5.1-2.55L37.472 0zm-8.72 4.36l1.342 2.684 2.683-1.342-1.342-2.683-2.683 1.34zm-5.367 2.684l1.341 2.683 2.684-1.341-1.34-2.684-2.685 1.342zM18.02 9.727l1.341 2.684 2.683-1.342-1.342-2.684-2.682 1.342zm-5.367 2.684l1.342 2.683 2.683-1.342-1.342-2.683-2.683 1.342zm-5.367 2.683l1.342 2.684 2.683-1.342-1.342-2.684-2.683 1.342zm12.817 39.974l2.74 1.219 5.828-13.11h17.605l5.827 13.11 2.741-1.22-17.37-39.083-17.37 39.084zm17.37-31.697l7.47 16.807H30.004l7.47-16.807zM1.92 17.778l.83 1.657L0 19.958l1.45 7.614.287 1.508.836 4.386.561 2.947.954 5.007.17.887.744 3.914.377 1.98h.001l.561 2.948.462 2.425.66 3.468.562 2.948.504 2.647 1.465.837 1.434.82 5.03 2.874 1.35.77 2.604 1.49 1.25.713 5.437 3.107 1.128.645 2.604 1.488 1.064.608 5.235 2.99.743.426 2.261-1.292-1.488-2.604-.773.44-.344-.196-2.604-1.488-1.076-.614-6.59-3.766-.149-.086-15.892-9.081-.246-1.29-.427-2.246-.695-3.648-.562-2.947-1.005-5.277-.118-.617-.84-4.414-.282-1.48-.562-2.947-.087-.46-1.035-5.434-.466-2.448-.657-3.446-.56-2.947L3.08 20.1l.181.36 2.684-1.341-1.342-2.683-2.684 1.342zM56.48 65.09l1.488 2.604 2.605-1.488-1.488-2.605-2.606 1.489zm-5.21 2.977l1.49 2.605 2.603-1.49-1.487-2.604-2.606 1.489zm-5.209 2.976l1.488 2.605 2.605-1.49-1.489-2.603-2.604 1.488zm-5.209 2.977l1.487 2.605 2.606-1.49-1.489-2.603-2.604 1.488z" fill="#36F"/>
  </g>
</svg>
