<svg xmlns="http://www.w3.org/2000/svg" viewBox="0 0 452.09 478">
<defs><style>.cls-1{fill:#fff;}</style></defs>
<title>Asset 14100</title>
<g id="Layer_2" data-name="Layer 2">
<g id="Layer_1-2" data-name="Layer 1">
<path class="cls-1" d="M405.55,220.49q1.47-2.41,2.83-4.91C438.76,159.77,418,89.83,362.07,59.37a115,115,0,0,0-70.34-13.08C278.88,19.11,248.5,0,213.05,0c-42.13,
0-77.1,27-84,62.47A112.58,112.58,0,0,0,0,173.77a112,112,0,0,0,20.57,64.86,110.57,110.57,0,0,0,115.81,170.1,99.83,99.83,0,0,0,194.05-17.81,93.72,93.72,0,0,0,75
.12-170.43Z"/></g></g></svg>